<?xml version="1.0" encoding="UTF-8" standalone="no"?>
<svg
   xmlns:dc="http://purl.org/dc/elements/1.1/"
   xmlns:cc="http://creativecommons.org/ns#"
   xmlns:rdf="http://www.w3.org/1999/02/22-rdf-syntax-ns#"
   xmlns:svg="http://www.w3.org/2000/svg"
   xmlns="http://www.w3.org/2000/svg"
   xmlns:sodipodi="http://sodipodi.sourceforge.net/DTD/sodipodi-0.dtd"
   xmlns:inkscape="http://www.inkscape.org/namespaces/inkscape"
   id="svg17"
   viewBox="0 0 32 32"
   version="1.1"
   sodipodi:docname="akonadi.svg"
   width="32"
   height="32"
   inkscape:version="1.0.2 (e86c870879, 2021-01-15)">
  <sodipodi:namedview
     pagecolor="#ffffff"
     bordercolor="#666666"
     borderopacity="1"
     objecttolerance="10"
     gridtolerance="10"
     guidetolerance="10"
     inkscape:pageopacity="0"
     inkscape:pageshadow="2"
     inkscape:window-width="1920"
     inkscape:window-height="938"
     id="namedview12"
     showgrid="true"
     inkscape:zoom="10.657407"
     inkscape:cx="20.720036"
     inkscape:cy="21.243762"
     inkscape:window-x="0"
     inkscape:window-y="38"
     inkscape:window-maximized="1"
     inkscape:current-layer="svg17">
    <inkscape:grid
       type="xygrid"
       id="grid837" />
  </sodipodi:namedview>
  <metadata
     id="metadata19">
    <rdf:RDF>
      <cc:Work
         rdf:about="">
        <dc:format>image/svg+xml</dc:format>
        <dc:type
           rdf:resource="http://purl.org/dc/dcmitype/StillImage" />
        <dc:title></dc:title>
      </cc:Work>
    </rdf:RDF>
  </metadata>
  <defs
     id="defs5">
    <style
       type="text/css"
       id="current-color-scheme"> .ColorScheme-Text { color:#363636; } </style>
  </defs>
  <g
     id="22-22-akonadi"
     transform="translate(-22)">
    <path
       id="path7"
       fill="currentColor"
       d="M 11,13 C 6.5817,13 3,13.89543 3,15 V 18.9941 19 22.9941 23 27 c -1.92e-5,1.1046 3.5817,2 8,2 4.4183,0 8,-0.89543 8,-2 v -4 -4 -4 c 1.9e-5,-1.1046 -3.5817,-2 -8,-2 z m 0,1 c 3.866,0 7,0.44772 7,1 0,0.55228 -3.134,1 -7,1 -3.866,0 -7,-0.44772 -7,-1 0,-0.55228 3.134,-1 7,-1 z m 7,1.9629 V 18.0332 19 c 0,0.55228 -3.134,1 -7,1 -3.866,0 -7,-0.44772 -7,-1 v -0.96289 -2.0703 c 1.4074,0.63719 4.0885,1.0329 7,1.0332 2.9148,-0.0011 5.5967,-0.39841 7,-1.0371 z m 0,4 V 22.0332 23 c 0,0.55228 -3.134,1 -7,1 -3.866,0 -7,-0.44772 -7,-1 v -0.96289 -2.0703 c 2.0449,0.79865 4.2554,0.96526 6.4336,1.0273 0.18847,0.0036 0.37739,0.0056 0.56641,0.0059 0.26676,6.5e-5 0.53337,-0.0032 0.79883,-0.0098 2.0326,-0.10853 4.3,-0.19037 6.1934,-1.0234 l 0.0078,-0.0039 z m 0,4 V 27 c 0,0.55228 -3.134,1 -7,1 -3.866,0 -7,-0.44772 -7,-1 v -3.0332 c 0.1292,0.05836 0.27,0.11508 0.42188,0.16992 1.9342,0.64306 3.9856,0.79967 6.0117,0.85742 0.18847,0.0036 0.37739,0.0056 0.56641,0.0059 0.26676,6.5e-5 0.53337,-0.0032 0.79883,-0.0098 2.0326,-0.10853 4.3001,-0.19032 6.1934,-1.0234 l 0.0078,-0.0039 z"
       class="ColorScheme-Text" />
    <path
       id="path9"
       fill="none"
       d="M 0,10 V 32 H 22 V 10 Z" />
  </g>
  <g
     id="akonadi"
     transform="translate(-22)">
    <path
       id="path12"
       d="M 38,4 A 12,3 0 0 0 26,7 v 18 a 12,3 0 0 0 12,3 12,3 0 0 0 12,-3 V 19 13 7 A 12,3 0 0 0 38,4 Z m 0,1 A 11,2 0 0 1 49,7 11,2 0 0 1 38,9 11,2 0 0 1 27,7 11,2 0 0 1 38,5 Z M 49,8.1914 V 13 A 11,2 0 0 1 38,15 11,2 0 0 1 27,13 V 8.1953 A 12,3 0 0 0 38,10 12,3 0 0 0 49,8.1914 Z m 0,6 V 19 A 11,2 0 0 1 38,21 11,2 0 0 1 27,19 V 14.1953 A 12,3 0 0 0 38,16 12,3 0 0 0 49,14.1914 Z m 0,6 V 25 A 11,2 0 0 1 38,27 11,2 0 0 1 27,25 V 20.1953 A 12,3 0 0 0 38,22 12,3 0 0 0 49,20.1914 Z"
       fill="currentColor"
       class="ColorScheme-Text" />
    <path
       id="path14"
       fill="none"
       d="M 22,0 V 32 H 54 V 0 Z" />
  </g>
</svg>
