<?xml version="1.0" encoding="UTF-8" standalone="no"?>
<svg
   width="32"
   height="32"
   version="1.0"
   viewBox="0 0 32 32"
   id="svg133"
   sodipodi:docname="audio.svg"
   inkscape:version="1.1.1 (3bf5ae0d25, 2021-09-20, custom)"
   xmlns:inkscape="http://www.inkscape.org/namespaces/inkscape"
   xmlns:sodipodi="http://sodipodi.sourceforge.net/DTD/sodipodi-0.dtd"
   xmlns="http://www.w3.org/2000/svg"
   xmlns:svg="http://www.w3.org/2000/svg"
   xmlns:rdf="http://www.w3.org/1999/02/22-rdf-syntax-ns#"
   xmlns:cc="http://creativecommons.org/ns#"
   xmlns:dc="http://purl.org/dc/elements/1.1/">
  <metadata
     id="metadata137">
    <rdf:RDF>
      <cc:Work
         rdf:about="">
        <dc:format>image/svg+xml</dc:format>
        <dc:type
           rdf:resource="http://purl.org/dc/dcmitype/StillImage" />
      </cc:Work>
    </rdf:RDF>
  </metadata>
  <sodipodi:namedview
     pagecolor="#c8c8c8"
     bordercolor="#666666"
     borderopacity="1"
     objecttolerance="10"
     gridtolerance="10"
     guidetolerance="10"
     inkscape:pageopacity="0"
     inkscape:pageshadow="2"
     inkscape:window-width="1920"
     inkscape:window-height="965"
     id="namedview135"
     showgrid="true"
     inkscape:snap-smooth-nodes="true"
     inkscape:snap-bbox="true"
     inkscape:bbox-nodes="true"
     inkscape:snap-bbox-edge-midpoints="true"
     inkscape:zoom="4"
     inkscape:cx="-12.125"
     inkscape:cy="7"
     inkscape:window-x="0"
     inkscape:window-y="40"
     inkscape:window-maximized="1"
     inkscape:current-layer="svg133"
     inkscape:pagecheckerboard="0"
     inkscape:snap-nodes="false">
    <inkscape:grid
       type="xygrid"
       id="grid974" />
  </sodipodi:namedview>
  <defs
     id="defs3">
    <style
       id="current-color-scheme"
       type="text/css">.ColorScheme-Text { color:#363636; }</style>
  </defs>
  <g
     id="22-22-audio-volume-high"
     class="ColorScheme-Text"
     transform="translate(7.893,-6.7419)"
     fill="currentColor">
    <rect
       x="-54.893"
       y="-22.258"
       width="24"
       height="24"
       ry="0"
       opacity="0"
       id="rect5" />
    <g
       transform="translate(-14.862,2.5994)"
       id="g13">
      <path
         d="m-27.781-20.654c-0.22873-0.01291-0.46234 0.05388-0.62305 0.18555l-4.4062 3.6113h-3.2207c-1.108 0-2 0.892-2 2v4c0 1.108 0.892 2 2 2h3.2207l4.4062 3.6113c0.1607 0.13168 0.39439 0.1984 0.62305 0.18555 0.38109-0.021513 0.75-0.26516 0.75-0.79688v-14c0-0.53171-0.36878-0.77536-0.75-0.79688z"
         id="path7" />
      <path
         d="m-20.001-19.446-1.7422 0.99414a10 10 0 0 1 1.7129 5.5938 10 10 0 0 1-1.7109 5.5938l1.7402 0.99414a12 12 0 0 0 1.9707-6.5879 12 12 0 0 0-1.9707-6.5879z"
         id="path9" />
      <path
         d="m-23.486-17.456-1.7441 0.99805a6 6 0 0 1 1.1992 3.5996 6 6 0 0 1-1.2012 3.5996l1.748 0.99805a8 8 0 0 0 1.4531-4.5977 8 8 0 0 0-1.4551-4.5977z"
         id="path11" />
    </g>
  </g>
  <g
     id="22-22-audio-volume-medium"
     class="ColorScheme-Text"
     transform="translate(7.893,27.258)"
     fill="currentColor">
    <rect
       x="-54.893"
       y="-22.258"
       width="24"
       height="24"
       ry="0"
       opacity="0"
       id="rect16" />
    <g
       transform="translate(-14.862,2.5994)"
       id="g24">
      <path
         d="m-27.781-20.654c-0.22873-0.01291-0.46234 0.05388-0.62305 0.18555l-4.4062 3.6113h-3.2207c-1.108 0-2 0.892-2 2v4c0 1.108 0.892 2 2 2h3.2207l4.4062 3.6113c0.1607 0.13168 0.39439 0.1984 0.62305 0.18555 0.38109-0.021513 0.75-0.26516 0.75-0.79688v-14c0-0.53171-0.36878-0.77536-0.75-0.79688z"
         id="path18" />
      <path
         d="m-20.001-19.446-1.7422 0.99414a10 10 0 0 1 1.7129 5.5938 10 10 0 0 1-1.7109 5.5938l1.7402 0.99414a12 12 0 0 0 1.9707-6.5879 12 12 0 0 0-1.9707-6.5879z"
         opacity=".35"
         id="path20" />
      <path
         d="m-23.486-17.456-1.7441 0.99805a6 6 0 0 1 1.1992 3.5996 6 6 0 0 1-1.2012 3.5996l1.748 0.99805a8 8 0 0 0 1.4531-4.5977 8 8 0 0 0-1.4551-4.5977z"
         id="path22" />
    </g>
  </g>
  <g
     id="22-22-audio-volume-low"
     class="ColorScheme-Text"
     transform="translate(7.893,58.258)"
     fill="currentColor">
    <rect
       x="-54.893"
       y="-22.258"
       width="24"
       height="24"
       ry="0"
       opacity="0"
       id="rect27" />
    <g
       transform="translate(-14.862,2.5994)"
       id="g35">
      <path
         d="m-27.781-20.654c-0.22873-0.01291-0.46234 0.05388-0.62305 0.18555l-4.4062 3.6113h-3.2207c-1.108 0-2 0.892-2 2v4c0 1.108 0.892 2 2 2h3.2207l4.4062 3.6113c0.1607 0.13168 0.39439 0.1984 0.62305 0.18555 0.38109-0.021513 0.75-0.26516 0.75-0.79688v-14c0-0.53171-0.36878-0.77536-0.75-0.79688z"
         stroke-width="3.0237"
         style="paint-order:stroke fill markers"
         id="path29" />
      <path
         d="m-20.001-19.446-1.7422 0.99414a10 10 0 0 1 1.7129 5.5938 10 10 0 0 1-1.7109 5.5938l1.7402 0.99414a12 12 0 0 0 1.9707-6.5879 12 12 0 0 0-1.9707-6.5879z"
         opacity=".35"
         id="path31" />
      <path
         d="m-23.486-17.456-1.7441 0.99805a6 6 0 0 1 1.1992 3.5996 6 6 0 0 1-1.2012 3.5996l1.748 0.99805a8 8 0 0 0 1.4531-4.5977 8 8 0 0 0-1.4551-4.5977z"
         opacity=".35"
         id="path33" />
    </g>
  </g>
  <g
     id="22-22-audio-volume-muted"
     class="ColorScheme-Text"
     fill="currentColor">
    <g
       transform="translate(7.893,87.258)"
       id="g44">
      <rect
         x="-54.893"
         y="-22.258"
         width="24"
         height="24"
         ry="0"
         opacity="0"
         id="rect38" />
      <g
         transform="translate(-14.862,2.5994)"
         id="g42">
        <path
           transform="translate(6.9691,-89.857)"
           d="m-34.75 69.203c-0.22873-0.01291-0.46234 0.05388-0.62305 0.18555l-2.4219 1.9863 3.7949 3.7949v-5.1699c0-0.53171-0.36878-0.77536-0.75-0.79688zm7.7793 1.209-1.7422 0.99414a10 10 0 0 1 1.7129 5.5938 10 10 0 0 1-0.93945 4.2305l1.4883 1.4883a12 12 0 0 0 1.4512-5.7188 12 12 0 0 0-1.9707-6.5879zm-3.4844 1.9902-1.7441 0.99805a6 6 0 0 1 1.1992 3.5996 6 6 0 0 1-0.09766 1.0723l1.6289 1.6289a8 8 0 0 0 0.46875-2.7012 8 8 0 0 0-1.4551-4.5977zm-12.545 0.59766c-1.108 0-2 0.892-2 2v4c0 1.108 0.892 2 2 2h3.2207l4.4062 3.6113c0.1607 0.13168 0.39439 0.1984 0.62305 0.18555 0.38109-0.02151 0.75-0.26516 0.75-0.79688v-3.1719l-7.8281-7.8281h-1.1719z"
           id="path40" />
      </g>
    </g>
    <path
       d="m-44.192 69.222 1.4142-1.4142 16.971 16.971-1.4142 1.4142z"
       id="path46" />
  </g>
  <g
     id="16-16-audio-volume-high"
     transform="translate(37 -2.9997)"><rect
   class="ColorScheme-Text"
   x="-47"
   y="-67"
   width="16"
   height="16"
   ry="0"
   fill="currentColor"
   opacity="0"
   id="rect93" />


fill=&quot;none&quot;/&gt;
  <g
   class="ColorScheme-Text"
   fill="currentColor"
   id="g101">
  <path
     class="ColorScheme-Text"
     d="m-38.614-65.107c-0.18714-0.01056-0.37828 0.04408-0.50977 0.15181l-3.6051 2.9547h-2.6351c-0.90655 0-1.6364 0.72982-1.6364 1.6364v2.7273c0 0.90655 0.72982 1.6364 1.6364 1.6364h2.6351l3.6051 2.9547c0.13148 0.10774 0.32268 0.16233 0.50977 0.15182 0.3118-0.0176 0.61364-0.21695 0.61364-0.652v-10.909c0-0.43504-0.30173-0.63439-0.61364-0.652z"
     fill="currentColor"
     id="path95" />
  <path
     d="m-35.057-62.971-1.793 0.89453a6 6 0 0 1 0.84961 3.0762 6 6 0 0 1-0.84961 3.0762l1.7949 0.89648a8 8 0 0 0 1.0547-3.9727 8 8 0 0 0-1.0566-3.9707z"
     id="path97" />
  <path
     d="m-32.371-64.314-1.791 0.89453a9 9 0 0 1 1.1621 4.4199 9 9 0 0 1-1.1602 4.4199l1.7891 0.89453a11 11 0 0 0 1.3711-5.3145 11 11 0 0 0-1.3711-5.3145z"
     id="path99" />
</g>
</g>
  <g
     id="16-16-audio-volume-medium"
     transform="translate(62 -2.9997)"><rect
   class="ColorScheme-Text"
   x="-47"
   y="-67"
   width="16"
   height="16"
   ry="0"
   fill="currentColor"
   opacity="0"
   id="rect104" />


fill=&quot;none&quot;/&gt;
  <g
   class="ColorScheme-Text"
   fill="currentColor"
   id="g112">
  <path
     class="ColorScheme-Text"
     d="m-38.614-65.107c-0.18714-0.01056-0.37828 0.04408-0.50977 0.15181l-3.6051 2.9547h-2.6351c-0.90655 0-1.6364 0.72982-1.6364 1.6364v2.7273c0 0.90655 0.72982 1.6364 1.6364 1.6364h2.6351l3.6051 2.9547c0.13148 0.10774 0.32268 0.16233 0.50977 0.15182 0.3118-0.0176 0.61364-0.21695 0.61364-0.652v-10.909c0-0.43504-0.30173-0.63439-0.61364-0.652z"
     fill="currentColor"
     id="path106" />
  <path
     d="m-35.057-62.971-1.793 0.89453a6 6 0 0 1 0.84961 3.0762 6 6 0 0 1-0.84961 3.0762l1.7949 0.89648a8 8 0 0 0 1.0547-3.9727 8 8 0 0 0-1.0566-3.9707z"
     id="path108" />
  <path
     d="m-32.371-64.314-1.791 0.89453a9 9 0 0 1 1.1621 4.4199 9 9 0 0 1-1.1602 4.4199l1.7891 0.89453a11 11 0 0 0 1.3711-5.3145 11 11 0 0 0-1.3711-5.3145z"
     opacity=".35"
     id="path110" />
</g>
</g>
  <g
     id="16-16-audio-volume-low"
     transform="translate(85 -2.9997)"><rect
   class="ColorScheme-Text"
   x="-47"
   y="-67"
   width="16"
   height="16"
   ry="0"
   fill="currentColor"
   opacity="0"
   id="rect115" />


fill=&quot;none&quot;/&gt;
  <g
   class="ColorScheme-Text"
   fill="currentColor"
   id="g123">
  <path
     class="ColorScheme-Text"
     d="m-38.614-65.107c-0.18714-0.01056-0.37828 0.04408-0.50977 0.15181l-3.6051 2.9547h-2.6351c-0.90655 0-1.6364 0.72982-1.6364 1.6364v2.7273c0 0.90655 0.72982 1.6364 1.6364 1.6364h2.6351l3.6051 2.9547c0.13148 0.10774 0.32268 0.16233 0.50977 0.15182 0.3118-0.0176 0.61364-0.21695 0.61364-0.652v-10.909c0-0.43504-0.30173-0.63439-0.61364-0.652z"
     fill="currentColor"
     id="path117" />
  <path
     d="m-35.057-62.971-1.793 0.89453a6 6 0 0 1 0.84961 3.0762 6 6 0 0 1-0.84961 3.0762l1.7949 0.89648a8 8 0 0 0 1.0547-3.9727 8 8 0 0 0-1.0566-3.9707z"
     opacity=".35"
     id="path119" />
  <path
     d="m-32.371-64.314-1.791 0.89453a9 9 0 0 1 1.1621 4.4199 9 9 0 0 1-1.1602 4.4199l1.7891 0.89453a11 11 0 0 0 1.3711-5.3145 11 11 0 0 0-1.3711-5.3145z"
     opacity=".35"
     id="path121" />
</g>
</g>
  <g
     id="16-16-audio-volume-muted"><rect
   class="ColorScheme-Text"
   x="61"
   y="-70"
   width="16"
   height="16"
   ry="0"
   fill="currentColor"
   opacity="0"
   id="rect126" />


fill=&quot;none&quot; opacity=&quot;0&quot;/&gt;
  <path
   class="ColorScheme-Text"
   d="m69.387-68.105c-0.18714-0.01056-0.37828 0.04266-0.50977 0.15039l-1.6504 1.3516 2.7734 2.7734v-3.625c0-0.43504-0.30137-0.63278-0.61328-0.65039zm6.2422 0.79102-1.791 0.89453a9 9 0 0 1 1.1621 4.4199 9 9 0 0 1-0.42773 2.7422l1.5527 1.5527a11 11 0 0 0 0.875-4.2949 11 11 0 0 0-1.3711-5.3145zm-2.6855 1.3438-1.793 0.89453a6 6 0 0 1 0.84961 3.0762 6 6 0 0 1-0.003906 0.16602l1.7656 1.7656a8 8 0 0 0 0.23828-1.9316 8 8 0 0 0-1.0566-3.9707zm-10.307 0.9707c-0.90655 0-1.6367 0.73017-1.6367 1.6367v2.7266c0 0.90655 0.73017 1.6367 1.6367 1.6367h2.6348l3.6055 2.9551c0.13148 0.10774 0.32268 0.16286 0.50977 0.15234 0.3118-0.0176 0.61328-0.2173 0.61328-0.65234v-1.625l-6.8301-6.8301h-0.5332z"
   fill="currentColor"
   id="path128" />


class=&quot;ColorScheme-Text&quot; fill=&quot;currentColor&quot; /&gt;
  <rect
   class="ColorScheme-Text"
   transform="rotate(45)"
   x="-5.0503"
   y="-93.631"
   width="20"
   height="2"
   rx="1"
   ry="1"
   fill="currentColor"
   id="rect130" />
</g>
  <g
     id="audio-volume-high">
    <path
       d="M 26.58702,5.9989386 24.663823,7.1772578 A 18.276996,17.236338 0 0 1 28.71549,17.998446 18.276996,17.236338 0 0 1 24.663823,28.819634 L 26.58919,30 A 20.56162,19.39088 0 0 0 31,17.998123 20.56162,19.39088 0 0 0 26.586906,5.9984 Z"
       id="path49"
       style="color:#363636;fill:#363636;fill-opacity:1;stroke-width:1.10931" />
    <rect
       x="-6.7138999e-06"
       y="9.7656002e-06"
       width="32"
       height="32"
       ry="0.35556"
       opacity="0"
       id="rect51"
       style="color:#363636;fill:#363636" />
    <path
       d="m 21.772174,8.9509846 -1.934392,1.1845674 a 12.565434,11.849982 0 0 1 3.165919,7.862786 12.565434,11.849982 0 0 1 -3.165919,7.862786 l 1.934392,1.184568 a 14.850059,14.004524 0 0 0 3.516151,-9.047354 14.850059,14.004524 0 0 0 -3.516151,-9.0473534 z"
       id="path55"
       style="color:#363636;fill:#363636;fill-opacity:1;stroke-width:1.10931" />
    <path
       d="M 16.919631,11.923607 14.9496,13.131335 a 6.8538734,6.4636266 0 0 1 2.342653,4.86668 6.8538734,6.4636266 0 0 1 -2.342653,4.86668 l 1.970031,1.207729 a 9.1384979,8.6181688 0 0 0 2.657247,-6.074409 9.1384979,8.6181688 0 0 0 -2.657247,-6.074408 z"
       id="path57"
       style="color:#363636;fill:#363636;fill-opacity:1;stroke-width:1.10931" />
    <path
       d="m 12.25,8.9984615 c -0.22873,-0.013244 -0.46234,0.055273 -0.62305,0.1903463 L 7.22075,12.9984 H 3 c -1.108,0 -2,0.915057 -2,2.051698 v 5.896605 C 1,22.083344 1.892,22.9984 3,22.9984 h 4.22075 l 4.4062,3.809653 C 11.78765,26.943137 12.021342,27.011618 12.25,26.9984 12.631092,26.97637 13,26.726385 13,26.18092 V 9.8158783 C 13,9.2704243 12.63122,9.0204762 12.25,8.9984 Z"
       id="path964"
       style="color:#363636;fill:#363636;fill-opacity:1;stroke-width:1.01284"
       sodipodi:nodetypes="cccssssccssscc" />
  </g>
  <rect
     x="122"
     y="34.999741"
     width="24"
     height="24"
     ry="0"
     opacity="0"
     id="rect1020"
     style="color:#363636;fill:#363636" />
  <g
     id="audio-volume-medium"
     transform="translate(39)">
    <path
       d="M 26.58702,5.9989386 24.663823,7.1772578 A 18.276996,17.236338 0 0 1 28.71549,17.998446 18.276996,17.236338 0 0 1 24.663823,28.819634 L 26.58919,30 A 20.56162,19.39088 0 0 0 31,17.998123 20.56162,19.39088 0 0 0 26.586906,5.9984 Z"
       id="path2371"
       style="color:#363636;fill:#363636;fill-opacity:1;stroke-width:1.10931;opacity:0.35" />
    <rect
       x="-6.7138999e-06"
       y="9.7656002e-06"
       width="32"
       height="32"
       ry="0.35556"
       opacity="0"
       id="rect2373"
       style="color:#363636;fill:#363636" />
    <path
       d="m 21.772174,8.9509846 -1.934392,1.1845674 a 12.565434,11.849982 0 0 1 3.165919,7.862786 12.565434,11.849982 0 0 1 -3.165919,7.862786 l 1.934392,1.184568 a 14.850059,14.004524 0 0 0 3.516151,-9.047354 14.850059,14.004524 0 0 0 -3.516151,-9.0473534 z"
       id="path2375"
       style="color:#363636;fill:#363636;fill-opacity:1;stroke-width:1.10931" />
    <path
       d="M 16.919631,11.923607 14.9496,13.131335 a 6.8538734,6.4636266 0 0 1 2.342653,4.86668 6.8538734,6.4636266 0 0 1 -2.342653,4.86668 l 1.970031,1.207729 a 9.1384979,8.6181688 0 0 0 2.657247,-6.074409 9.1384979,8.6181688 0 0 0 -2.657247,-6.074408 z"
       id="path2377"
       style="color:#363636;fill:#363636;fill-opacity:1;stroke-width:1.10931" />
    <path
       d="m 12.25,8.9984615 c -0.22873,-0.013244 -0.46234,0.055273 -0.62305,0.1903463 L 7.22075,12.9984 H 3 c -1.108,0 -2,0.915057 -2,2.051698 v 5.896605 C 1,22.083344 1.892,22.9984 3,22.9984 h 4.22075 l 4.4062,3.809653 C 11.78765,26.943137 12.021342,27.011618 12.25,26.9984 12.631092,26.97637 13,26.726385 13,26.18092 V 9.8158783 C 13,9.2704243 12.63122,9.0204762 12.25,8.9984 Z"
       id="path2379"
       style="color:#363636;fill:#363636;fill-opacity:1;stroke-width:1.01284"
       sodipodi:nodetypes="cccssssccssscc" />
  </g>
  <g
     id="audio-volume-low"
     transform="translate(80.0504)">
    <path
       d="M 26.58702,5.9989386 24.663823,7.1772578 A 18.276996,17.236338 0 0 1 28.71549,17.998446 18.276996,17.236338 0 0 1 24.663823,28.819634 L 26.58919,30 A 20.56162,19.39088 0 0 0 31,17.998123 20.56162,19.39088 0 0 0 26.586906,5.9984 Z"
       id="path2481"
       style="color:#363636;opacity:0.35;fill:#363636;fill-opacity:1;stroke-width:1.10931" />
    <rect
       x="-6.7138999e-06"
       y="9.7656002e-06"
       width="32"
       height="32"
       ry="0.35556"
       opacity="0"
       id="rect2483"
       style="color:#363636;fill:#363636" />
    <path
       d="m 21.772174,8.9509846 -1.934392,1.1845674 a 12.565434,11.849982 0 0 1 3.165919,7.862786 12.565434,11.849982 0 0 1 -3.165919,7.862786 l 1.934392,1.184568 a 14.850059,14.004524 0 0 0 3.516151,-9.047354 14.850059,14.004524 0 0 0 -3.516151,-9.0473534 z"
       id="path2485"
       style="color:#363636;fill:#363636;fill-opacity:1;stroke-width:1.10931;opacity:0.35" />
    <path
       d="M 16.919631,11.923607 14.9496,13.131335 a 6.8538734,6.4636266 0 0 1 2.342653,4.86668 6.8538734,6.4636266 0 0 1 -2.342653,4.86668 l 1.970031,1.207729 a 9.1384979,8.6181688 0 0 0 2.657247,-6.074409 9.1384979,8.6181688 0 0 0 -2.657247,-6.074408 z"
       id="path2487"
       style="color:#363636;fill:#363636;fill-opacity:1;stroke-width:1.10931" />
    <path
       d="m 12.25,8.9984615 c -0.22873,-0.013244 -0.46234,0.055273 -0.62305,0.1903463 L 7.22075,12.9984 H 3 c -1.108,0 -2,0.915057 -2,2.051698 v 5.896605 C 1,22.083344 1.892,22.9984 3,22.9984 h 4.22075 l 4.4062,3.809653 C 11.78765,26.943137 12.021342,27.011618 12.25,26.9984 12.631092,26.97637 13,26.726385 13,26.18092 V 9.8158783 C 13,9.2704243 12.63122,9.0204762 12.25,8.9984 Z"
       id="path2489"
       style="color:#363636;fill:#363636;fill-opacity:1;stroke-width:1.01284"
       sodipodi:nodetypes="cccssssccssscc" />
  </g>
  <g
     id="audio-volume-muted">
    <g
       id="g2599"
       transform="translate(121.00001)">
      <path
         id="path2589"
         style="color:#363636;fill:#363636;fill-opacity:1;stroke-width:1.10931"
         d="M 147.58789 5.9980469 L 145.66406 7.1777344 A 18.276996 17.236338 0 0 1 149.71484 17.998047 A 18.276996 17.236338 0 0 1 147.82812 25.585938 L 149.50391 27.261719 A 20.56162 19.39088 0 0 0 152 17.998047 A 20.56162 19.39088 0 0 0 147.58789 5.9980469 z "
         transform="translate(-121.00001)" />
      <rect
         x="-6.7138999e-06"
         y="9.7656002e-06"
         width="32"
         height="32"
         ry="0.35556"
         opacity="0"
         id="rect2591"
         style="color:#363636;fill:#363636" />
      <path
         id="path2593"
         style="color:#363636;fill:#363636;fill-opacity:1;stroke-width:1.10931"
         d="M 142.77148 8.9511719 L 140.83789 10.134766 A 12.565434 11.849982 0 0 1 144.00391 17.998047 A 12.565434 11.849982 0 0 1 143.50195 21.259766 L 145.27539 23.033203 A 14.850059 14.004524 0 0 0 146.28906 17.998047 A 14.850059 14.004524 0 0 0 142.77148 8.9511719 z "
         transform="translate(-121.00001)" />
      <path
         id="path2595"
         style="color:#363636;fill:#363636;fill-opacity:1;stroke-width:1.10931"
         d="M 137.91992 11.923828 L 135.94922 13.130859 A 6.8538734 6.4636266 0 0 1 137.77344 15.53125 L 140.56055 18.318359 A 9.1384979 8.6181688 0 0 0 140.57617 17.998047 A 9.1384979 8.6181688 0 0 0 137.91992 11.923828 z M 136.30664 22.548828 A 6.8538734 6.4636266 0 0 1 135.94922 22.865234 L 137.6875 23.929688 L 136.30664 22.548828 z "
         transform="translate(-121.00001)" />
      <path
         id="path2597"
         style="color:#363636;fill:#363636;fill-opacity:1;stroke-width:1.01284"
         d="M 133.25 8.9980469 C 133.02127 8.9848029 132.78766 9.0543798 132.62695 9.1894531 L 131.98633 9.7441406 L 134 11.757812 L 134 9.8164062 C 134 9.2709523 133.63122 9.0201231 133.25 8.9980469 z M 124 12.998047 C 122.892 12.998047 122 13.91414 122 15.050781 L 122 20.947266 C 122 22.083907 122.892 22.998047 124 22.998047 L 128.2207 22.998047 L 132.62695 26.808594 C 132.78765 26.943678 133.02134 27.011265 133.25 26.998047 C 133.63109 26.976017 134 26.727106 134 26.181641 L 134 20.242188 L 126.75586 12.998047 L 124 12.998047 z "
         transform="translate(-121.00001)" />
    </g>
    <path
       style="color:#363636;fill:#363636;stroke-width:3;-inkscape-stroke:none;fill-opacity:1"
       d="m 123.06497,7.1862909 2.12132,-2.1213232 24.74873,24.7487443 -2.12131,2.121311 z"
       id="path3898" />
  </g>
</svg>
