<?xml version="1.0" encoding="UTF-8" standalone="no"?>
<svg
   width="32"
   height="32"
   version="1.0"
   viewBox="0 0 32 32"
   id="svg133"
   sodipodi:docname="audio.svg"
   inkscape:version="1.1.1 (3bf5ae0d25, 2021-09-20, custom)"
   xmlns:inkscape="http://www.inkscape.org/namespaces/inkscape"
   xmlns:sodipodi="http://sodipodi.sourceforge.net/DTD/sodipodi-0.dtd"
   xmlns="http://www.w3.org/2000/svg"
   xmlns:svg="http://www.w3.org/2000/svg"
   xmlns:rdf="http://www.w3.org/1999/02/22-rdf-syntax-ns#"
   xmlns:cc="http://creativecommons.org/ns#"
   xmlns:dc="http://purl.org/dc/elements/1.1/">
  <metadata
     id="metadata137">
    <rdf:RDF>
      <cc:Work
         rdf:about="">
        <dc:format>image/svg+xml</dc:format>
        <dc:type
           rdf:resource="http://purl.org/dc/dcmitype/StillImage" />
      </cc:Work>
    </rdf:RDF>
  </metadata>
  <sodipodi:namedview
     pagecolor="#c8c8c8"
     bordercolor="#666666"
     borderopacity="1"
     objecttolerance="10"
     gridtolerance="10"
     guidetolerance="10"
     inkscape:pageopacity="0"
     inkscape:pageshadow="2"
     inkscape:window-width="1920"
     inkscape:window-height="934"
     id="namedview135"
     showgrid="true"
     inkscape:snap-smooth-nodes="true"
     inkscape:snap-bbox="true"
     inkscape:bbox-nodes="true"
     inkscape:snap-bbox-edge-midpoints="true"
     inkscape:zoom="2.0000001"
     inkscape:cx="12.249999"
     inkscape:cy="-57.749997"
     inkscape:window-x="0"
     inkscape:window-y="40"
     inkscape:window-maximized="1"
     inkscape:current-layer="svg133"
     inkscape:pagecheckerboard="0"
     inkscape:snap-nodes="false"
     inkscape:object-paths="true"
     inkscape:snap-intersection-paths="true"
     inkscape:object-nodes="true"
     inkscape:snap-midpoints="true">
    <inkscape:grid
       type="xygrid"
       id="grid974" />
  </sodipodi:namedview>
  <defs
     id="defs3"><style
   id="current-color-scheme"
   type="text/css">.ColorScheme-Text { color:#363636; }</style>




fill=&quot;none&quot;/&gt;
  </defs>
  <g
     id="22-22-audio-volume-high"
     class="ColorScheme-Text"
     transform="translate(7.893,-6.7419)"
     fill="currentColor">
    <rect
       x="-54.893"
       y="-22.258"
       width="24"
       height="24"
       ry="0"
       opacity="0"
       id="rect5" />
    <g
       transform="translate(-14.862,2.5994)"
       id="g13">
      <path
         d="m-27.781-20.654c-0.22873-0.01291-0.46234 0.05388-0.62305 0.18555l-4.4062 3.6113h-3.2207c-1.108 0-2 0.892-2 2v4c0 1.108 0.892 2 2 2h3.2207l4.4062 3.6113c0.1607 0.13168 0.39439 0.1984 0.62305 0.18555 0.38109-0.021513 0.75-0.26516 0.75-0.79688v-14c0-0.53171-0.36878-0.77536-0.75-0.79688z"
         id="path7" />
      <path
         d="m-20.001-19.446-1.7422 0.99414a10 10 0 0 1 1.7129 5.5938 10 10 0 0 1-1.7109 5.5938l1.7402 0.99414a12 12 0 0 0 1.9707-6.5879 12 12 0 0 0-1.9707-6.5879z"
         id="path9" />
      <path
         d="m-23.486-17.456-1.7441 0.99805a6 6 0 0 1 1.1992 3.5996 6 6 0 0 1-1.2012 3.5996l1.748 0.99805a8 8 0 0 0 1.4531-4.5977 8 8 0 0 0-1.4551-4.5977z"
         id="path11" />
    </g>
  </g>
  <g
     id="22-22-audio-volume-medium"
     class="ColorScheme-Text"
     transform="translate(7.893,27.258)"
     fill="currentColor">
    <rect
       x="-54.893"
       y="-22.258"
       width="24"
       height="24"
       ry="0"
       opacity="0"
       id="rect16" />
    <g
       transform="translate(-14.862,2.5994)"
       id="g24">
      <path
         d="m-27.781-20.654c-0.22873-0.01291-0.46234 0.05388-0.62305 0.18555l-4.4062 3.6113h-3.2207c-1.108 0-2 0.892-2 2v4c0 1.108 0.892 2 2 2h3.2207l4.4062 3.6113c0.1607 0.13168 0.39439 0.1984 0.62305 0.18555 0.38109-0.021513 0.75-0.26516 0.75-0.79688v-14c0-0.53171-0.36878-0.77536-0.75-0.79688z"
         id="path18" />
      <path
         d="m-20.001-19.446-1.7422 0.99414a10 10 0 0 1 1.7129 5.5938 10 10 0 0 1-1.7109 5.5938l1.7402 0.99414a12 12 0 0 0 1.9707-6.5879 12 12 0 0 0-1.9707-6.5879z"
         opacity=".35"
         id="path20" />
      <path
         d="m-23.486-17.456-1.7441 0.99805a6 6 0 0 1 1.1992 3.5996 6 6 0 0 1-1.2012 3.5996l1.748 0.99805a8 8 0 0 0 1.4531-4.5977 8 8 0 0 0-1.4551-4.5977z"
         id="path22" />
    </g>
  </g>
  <g
     id="22-22-audio-volume-low"
     class="ColorScheme-Text"
     transform="translate(7.893,58.258)"
     fill="currentColor">
    <rect
       x="-54.893"
       y="-22.258"
       width="24"
       height="24"
       ry="0"
       opacity="0"
       id="rect27" />
    <g
       transform="translate(-14.862,2.5994)"
       id="g35">
      <path
         d="m-27.781-20.654c-0.22873-0.01291-0.46234 0.05388-0.62305 0.18555l-4.4062 3.6113h-3.2207c-1.108 0-2 0.892-2 2v4c0 1.108 0.892 2 2 2h3.2207l4.4062 3.6113c0.1607 0.13168 0.39439 0.1984 0.62305 0.18555 0.38109-0.021513 0.75-0.26516 0.75-0.79688v-14c0-0.53171-0.36878-0.77536-0.75-0.79688z"
         stroke-width="3.0237"
         style="paint-order:stroke fill markers"
         id="path29" />
      <path
         d="m-20.001-19.446-1.7422 0.99414a10 10 0 0 1 1.7129 5.5938 10 10 0 0 1-1.7109 5.5938l1.7402 0.99414a12 12 0 0 0 1.9707-6.5879 12 12 0 0 0-1.9707-6.5879z"
         opacity=".35"
         id="path31" />
      <path
         d="m-23.486-17.456-1.7441 0.99805a6 6 0 0 1 1.1992 3.5996 6 6 0 0 1-1.2012 3.5996l1.748 0.99805a8 8 0 0 0 1.4531-4.5977 8 8 0 0 0-1.4551-4.5977z"
         opacity=".35"
         id="path33" />
    </g>
  </g>
  <g
     id="22-22-audio-volume-muted"
     class="ColorScheme-Text"
     fill="currentColor">
    <g
       transform="translate(7.893,87.258)"
       id="g44">
      <rect
         x="-54.893"
         y="-22.258"
         width="24"
         height="24"
         ry="0"
         opacity="0"
         id="rect38" />
      <g
         transform="translate(-14.862,2.5994)"
         id="g42">
        <path
           transform="translate(6.9691,-89.857)"
           d="m-34.75 69.203c-0.22873-0.01291-0.46234 0.05388-0.62305 0.18555l-2.4219 1.9863 3.7949 3.7949v-5.1699c0-0.53171-0.36878-0.77536-0.75-0.79688zm7.7793 1.209-1.7422 0.99414a10 10 0 0 1 1.7129 5.5938 10 10 0 0 1-0.93945 4.2305l1.4883 1.4883a12 12 0 0 0 1.4512-5.7188 12 12 0 0 0-1.9707-6.5879zm-3.4844 1.9902-1.7441 0.99805a6 6 0 0 1 1.1992 3.5996 6 6 0 0 1-0.09766 1.0723l1.6289 1.6289a8 8 0 0 0 0.46875-2.7012 8 8 0 0 0-1.4551-4.5977zm-12.545 0.59766c-1.108 0-2 0.892-2 2v4c0 1.108 0.892 2 2 2h3.2207l4.4062 3.6113c0.1607 0.13168 0.39439 0.1984 0.62305 0.18555 0.38109-0.02151 0.75-0.26516 0.75-0.79688v-3.1719l-7.8281-7.8281h-1.1719z"
           id="path40" />
      </g>
    </g>
    <path
       d="m-44.192 69.222 1.4142-1.4142 16.971 16.971-1.4142 1.4142z"
       id="path46" />
  </g>
  <g
     class="ColorScheme-Text"
     fill="currentColor"
     id="g101"
     transform="translate(37,16.00049)">
    <path
       class="ColorScheme-Text"
       d="m -38.614,-65.107 c -0.18714,-0.01056 -0.37828,0.04408 -0.50977,0.15181 l -3.6051,2.9547 h -2.6351 c -0.90655,0 -1.6364,0.72982 -1.6364,1.6364 v 2.7273 c 0,0.90655 0.72982,1.6364 1.6364,1.6364 h 2.6351 l 3.6051,2.9547 c 0.13148,0.10774 0.32268,0.16233 0.50977,0.15182 0.3118,-0.0176 0.61364,-0.21695 0.61364,-0.652 v -10.909 c 0,-0.43504 -0.30173,-0.63439 -0.61364,-0.652 z"
       fill="currentColor"
       id="path95" />
    <path
       d="m -35.057,-62.971 -1.793,0.89453 a 6,6 0 0 1 0.84961,3.0762 6,6 0 0 1 -0.84961,3.0762 l 1.7949,0.89648 a 8,8 0 0 0 1.0547,-3.9727 8,8 0 0 0 -1.0566,-3.9707 z"
       id="path97" />
    <path
       d="m -32.371,-64.314 -1.791,0.89453 a 9,9 0 0 1 1.1621,4.4199 9,9 0 0 1 -1.1602,4.4199 l 1.7891,0.89453 a 11,11 0 0 0 1.3711,-5.3145 11,11 0 0 0 -1.3711,-5.3145 z"
       id="path99" />
  </g>
  <path
     d="m 26.58702,33.00051 -1.923197,1.17832 a 18.276996,17.236338 0 0 1 4.051667,10.821188 18.276996,17.236338 0 0 1 -4.051667,10.821188 l 1.925367,1.180366 A 20.56162,19.39088 0 0 0 31,44.999695 20.56162,19.39088 0 0 0 26.586906,32.999972 Z"
     id="path49"
     style="color:#363636;fill:#ffffff;fill-opacity:1;stroke-width:1.10931" />
  <path
     d="m 21.772174,35.952556 -1.934392,1.184568 a 12.565434,11.849982 0 0 1 3.165919,7.862786 12.565434,11.849982 0 0 1 -3.165919,7.862786 l 1.934392,1.184568 a 14.850059,14.004524 0 0 0 3.516151,-9.047354 14.850059,14.004524 0 0 0 -3.516151,-9.047354 z"
     id="path55"
     style="color:#363636;fill:#ffffff;fill-opacity:1;stroke-width:1.10931" />
  <path
     d="M 16.919631,38.925179 14.9496,40.132907 a 6.8538734,6.4636266 0 0 1 2.342653,4.86668 6.8538734,6.4636266 0 0 1 -2.342653,4.86668 l 1.970031,1.207729 a 9.1384979,8.6181688 0 0 0 2.657247,-6.074409 9.1384979,8.6181688 0 0 0 -2.657247,-6.074408 z"
     id="path57"
     style="color:#363636;fill:#ffffff;fill-opacity:1;stroke-width:1.10931" />
  <path
     d="m 12.25,36.000033 c -0.22873,-0.01324 -0.46234,0.05527 -0.62305,0.190347 l -4.4062,3.809592 H 3 c -1.108,0 -2,0.915057 -2,2.051698 v 5.896605 c 0,1.136641 0.892,2.051697 2,2.051697 h 4.22075 l 4.4062,3.809653 c 0.1607,0.135084 0.394392,0.203565 0.62305,0.190347 0.381092,-0.02203 0.75,-0.272015 0.75,-0.81748 V 36.81745 c 0,-0.545454 -0.36878,-0.795402 -0.75,-0.817478 z"
     id="path964"
     style="color:#363636;fill:#ffffff;fill-opacity:1;stroke-width:1.01284"
     sodipodi:nodetypes="cccssssccssscc" />
  <rect
     x="122"
     y="34.999741"
     width="24"
     height="24"
     ry="0"
     opacity="0"
     id="rect1020"
     style="color:#363636;fill:#363636" />
  <g
     id="audio-volume-high">
    <rect
       x="-6.7138999e-06"
       y="9.7656002e-06"
       width="32"
       height="32"
       ry="0.35556"
       opacity="0"
       id="rect51"
       style="color:#363636;fill:#363636" />
    <path
       id="path2121"
       style="fill:#363636;fill-opacity:1;stroke-width:1.21596"
       d="m 27.114629,7.6258476 c -0.197758,-0.00475 -0.396027,0.050018 -0.572356,0.1662444 -0.513013,0.3313003 -0.587866,0.9630309 -0.235117,1.5294492 1.6351,2.4901018 2.650411,5.5786888 2.650411,8.9985748 0,3.398485 -1.01531,6.507237 -2.650411,8.9867 -0.352749,0.566394 -0.277896,1.198101 0.235117,1.52945 0.470212,0.309948 1.102025,0.171024 1.443952,-0.341989 C 29.867193,25.672886 31,22.167411 31,18.320116 31,14.461998 29.845792,10.966172 27.986225,8.1340806 27.77252,7.8067824 27.444224,7.6337785 27.114629,7.6258476 Z M 12.86273,8.7444354 c -0.544993,0 -0.92858,0.2458069 -1.527075,0.7908486 l -4.6928431,4.156112 c -0.064118,0.06412 -0.1496231,0.08549 -0.2351172,0.08549 H 3.3844205 C 1.8027248,13.776892 1,14.610482 1,16.277684 v 4.103863 c 0,1.677903 0.8134009,2.500791 2.3844205,2.500791 h 3.0232742 c 0.085494,0 0.1709997,0.02141 0.2351172,0.08549 l 4.6928431,4.189361 c 0.555695,0.502313 0.982056,0.7386 1.548449,0.7386 0.790859,0 1.389329,-0.598469 1.389329,-1.389329 V 10.186012 c 0,-0.8015358 -0.598442,-1.4415766 -1.410703,-1.4415766 z m 9.929544,1.7621916 c -0.194693,-0.0017 -0.39275,0.05477 -0.577107,0.170994 -0.512892,0.320624 -0.587893,0.963031 -0.213743,1.529449 1.143489,1.66719 1.79544,3.835474 1.79544,6.101172 0,2.254997 -0.673352,4.425644 -1.79544,6.103546 -0.36345,0.566394 -0.299149,1.195725 0.213743,1.527074 0.491612,0.299126 1.088854,0.193573 1.420203,-0.30874 1.400056,-1.966449 2.201552,-4.607372 2.201552,-7.32188 0,-2.71463 -0.790917,-5.363758 -2.201552,-7.319506 -0.207094,-0.313938 -0.518612,-0.479186 -0.843096,-0.482109 z M 12.083756,11.45897 c 0.08548,0 0.149619,0.05344 0.149619,0.14962 v 13.411178 c 0,0.106883 -0.06533,0.161495 -0.140121,0.161495 -0.06408,0 -0.116416,-0.02249 -0.180493,-0.076 L 7.659278,21.248393 C 7.4134718,21.023928 7.1997251,20.970528 6.9111779,20.970528 H 3.5767891 c -0.3526769,0 -0.5248575,-0.17223 -0.5248575,-0.524858 v -4.220234 c 0,-0.363329 0.1721806,-0.534357 0.5248575,-0.534357 h 3.3343888 c 0.2885472,0 0.5022939,-0.05341 0.7481001,-0.277867 l 4.253483,-3.88062 c 0.05338,-0.04275 0.106915,-0.07363 0.170995,-0.07363 z m 6.388537,1.918935 c -0.190001,0.0018 -0.380995,0.05952 -0.553356,0.175746 -0.523593,0.342011 -0.631655,0.971299 -0.204244,1.591196 0.587795,0.84424 0.919094,1.977105 0.919094,3.163395 0,1.18629 -0.341879,2.308453 -0.919094,3.163394 -0.416709,0.619896 -0.319349,1.250322 0.204244,1.603072 0.459632,0.299248 1.0581,0.192345 1.389327,-0.277866 0.865642,-1.154189 1.377455,-2.789418 1.377455,-4.4886 0,-1.699304 -0.511813,-3.323663 -1.377455,-4.4886 -0.207016,-0.293898 -0.519305,-0.444762 -0.835971,-0.441737 z" />
  </g>
  <g
     id="audio-volume-medium"
     transform="translate(0,35)">
    <rect
       x="39"
       y="-35"
       width="32"
       height="32"
       ry="0.35556"
       opacity="0"
       id="rect2511"
       style="color:#363636;fill:#363636" />
    <path
       id="path2513"
       style="fill:#363636;fill-opacity:1;stroke-width:1.21596"
       d="m 61.792969,-24.493687 c -0.194693,-0.0018 -0.393768,0.05565 -0.578125,0.171875 -0.512892,0.320624 -0.587041,0.962879 -0.212891,1.529297 1.143489,1.66719 1.794922,3.835865 1.794922,6.101563 0,2.254997 -0.672834,4.425613 -1.794922,6.103515 -0.36345,0.566394 -0.300001,1.1940421 0.212891,1.5253911 0.491612,0.299126 1.088573,0.193719 1.419922,-0.308594 1.400056,-1.9664491 2.203125,-4.6058041 2.203125,-7.3203121 0,-2.71463 -0.79249,-5.364564 -2.203125,-7.320313 -0.207094,-0.313937 -0.517313,-0.479498 -0.841797,-0.482422 z" />
    <path
       id="path3131"
       style="fill:#363636;fill-opacity:1;stroke-width:1.21596"
       d="m 51.863281,-26.255405 c -0.544993,0 -0.928849,0.245973 -1.527343,0.791015 l -4.69336,4.15625 c -0.06412,0.06412 -0.148881,0.08594 -0.234375,0.08594 H 42.384766 C 40.803071,-21.222194 40,-20.389402 40,-18.7222 v 4.103515 c 0,1.677903 0.813747,2.501953 2.384766,2.501953 h 3.023437 c 0.08549,0 0.170257,0.01991 0.234375,0.08399 l 4.69336,4.1894531 c 0.555695,0.502313 0.982435,0.7382812 1.548828,0.7382812 0.790859,0 1.388672,-0.5978122 1.388672,-1.3886722 V -24.813992 c 0,-0.801536 -0.597896,-1.441406 -1.410157,-1.441406 z m -0.779297,2.714843 c 0.08548,0 0.148438,0.05226 0.148438,0.148438 v 13.4121091 c 0,0.106883 -0.06388,0.16211 -0.138672,0.16211 -0.06408,0 -0.117564,-0.02266 -0.181641,-0.07617 l -4.251953,-3.8574221 c -0.245806,-0.224465 -0.4595,-0.277344 -0.748047,-0.277344 h -3.335937 c -0.352677,0 -0.523438,-0.172762 -0.523438,-0.525391 v -4.220703 c 0,-0.363329 0.170761,-0.533203 0.523438,-0.533203 h 3.335937 c 0.288547,0 0.502241,-0.05484 0.748047,-0.279297 l 4.251953,-3.880859 c 0.05338,-0.04275 0.107795,-0.07227 0.171875,-0.07227 z m 6.388672,1.917969 c -0.190001,0.0018 -0.382326,0.05955 -0.554687,0.175781 -0.523593,0.342011 -0.630536,0.9719 -0.203125,1.591797 0.587795,0.84424 0.919922,1.977773 0.919922,3.164063 0,1.18629 -0.342707,2.307168 -0.919922,3.162109 -0.416709,0.619896 -0.320468,1.250766 0.203125,1.603516 0.459632,0.299248 1.059398,0.192867 1.390625,-0.277344 0.865642,-1.154189 1.376953,-2.789099 1.376953,-4.488281 0,-1.699304 -0.511311,-3.325298 -1.376953,-4.490235 -0.207016,-0.293898 -0.519272,-0.444431 -0.835938,-0.441406 z" />
  </g>
  <g
     id="audio-volume-low"
     transform="translate(41,35)">
    <rect
       x="39"
       y="-35"
       width="32"
       height="32"
       ry="0.35556"
       opacity="0"
       id="rect3158"
       style="color:#363636;fill:#363636" />
    <path
       id="path3162"
       style="fill:#363636;fill-opacity:1;stroke-width:1.21596"
       d="m 51.863281,-26.255405 c -0.544993,0 -0.928849,0.245973 -1.527343,0.791015 l -4.69336,4.15625 c -0.06412,0.06412 -0.148881,0.08594 -0.234375,0.08594 H 42.384766 C 40.803071,-21.222194 40,-20.389402 40,-18.7222 v 4.103515 c 0,1.677903 0.813747,2.501953 2.384766,2.501953 h 3.023437 c 0.08549,0 0.170257,0.01991 0.234375,0.08399 l 4.69336,4.1894531 c 0.555695,0.502313 0.982435,0.7382812 1.548828,0.7382812 0.790859,0 1.388672,-0.5978122 1.388672,-1.3886722 V -24.813992 c 0,-0.801536 -0.597896,-1.441406 -1.410157,-1.441406 z m -0.779297,2.714843 c 0.08548,0 0.148438,0.05226 0.148438,0.148438 v 13.4121091 c 0,0.106883 -0.06388,0.16211 -0.138672,0.16211 -0.06408,0 -0.117564,-0.02266 -0.181641,-0.07617 l -4.251953,-3.8574221 c -0.245806,-0.224465 -0.4595,-0.277344 -0.748047,-0.277344 h -3.335937 c -0.352677,0 -0.523438,-0.172762 -0.523438,-0.525391 v -4.220703 c 0,-0.363329 0.170761,-0.533203 0.523438,-0.533203 h 3.335937 c 0.288547,0 0.502241,-0.05484 0.748047,-0.279297 l 4.251953,-3.880859 c 0.05338,-0.04275 0.107795,-0.07227 0.171875,-0.07227 z m 6.388672,1.917969 c -0.190001,0.0018 -0.382326,0.05955 -0.554687,0.175781 -0.523593,0.342011 -0.630536,0.9719 -0.203125,1.591797 0.587795,0.84424 0.919922,1.977773 0.919922,3.164063 0,1.18629 -0.342707,2.307168 -0.919922,3.162109 -0.416709,0.619896 -0.320468,1.250766 0.203125,1.603516 0.459632,0.299248 1.059398,0.192867 1.390625,-0.277344 0.865642,-1.154189 1.376953,-2.789099 1.376953,-4.488281 0,-1.699304 -0.511311,-3.325298 -1.376953,-4.490235 -0.207016,-0.293898 -0.519272,-0.444431 -0.835938,-0.441406 z" />
  </g>
  <g
     id="audio-volume-muted"
     transform="translate(0,35)">
    <rect
       x="120"
       y="-35"
       width="32"
       height="32"
       ry="0.35556"
       opacity="0"
       id="rect6842"
       style="color:#363636;fill:#363636" />
    <path
       id="path6844"
       style="fill:#363636;fill-opacity:1;stroke-width:1.21596"
       d="m 132.86328,-26.255405 c -0.54499,0 -0.92885,0.245973 -1.52734,0.791015 l -3.06446,2.714844 1.36133,1.361328 2.2793,-2.080078 c 0.0534,-0.04275 0.10779,-0.07227 0.17187,-0.07227 0.0855,0 0.14844,0.05226 0.14844,0.148438 v 4.603516 l 2.04102,2.041015 v -8.066406 c 0,-0.801536 -0.5979,-1.441406 -1.41016,-1.441406 z m -11.08594,5.498047 C 121.26126,-20.348794 121,-19.671377 121,-18.722202 v 4.103515 c 0,1.677903 0.81375,2.501953 2.38477,2.501953 h 3.02343 c 0.0855,0 0.17026,0.01991 0.23438,0.08399 l 4.69336,4.1894531 c 0.55569,0.502313 0.98243,0.7382812 1.54883,0.7382812 0.71805,0 1.27428,-0.4930986 1.37109,-1.1757812 l -2.02344,-2.0234381 v 0.3242191 c 0,0.106883 -0.0639,0.16211 -0.13867,0.16211 -0.0641,0 -0.11756,-0.02266 -0.18164,-0.07617 l -4.25195,-3.8574221 c -0.24581,-0.224465 -0.4595,-0.277344 -0.74805,-0.277344 h -3.33594 c -0.35267,0 -0.52344,-0.172761 -0.52344,-0.525391 v -4.220703 c 0,-0.242764 0.0786,-0.397545 0.23438,-0.474609 z" />
    <path
       style="color:#000000;fill:#363636;fill-rule:evenodd;stroke-width:4;stroke-linecap:round;stroke-linejoin:round;-inkscape-stroke:none;paint-order:stroke fill markers;fill-opacity:1"
       d="m 121.70711,-26.48694 19.09188,19.0918837 c 0.39174,0.3917371 0.39174,1.0224764 0,1.4142135 -0.39174,0.3917372 -1.02248,0.3917372 -1.41421,0 L 120.29289,-25.072726 c -0.39173,-0.391737 -0.39173,-1.022476 0,-1.414214 0.39174,-0.391737 1.02248,-0.391737 1.41422,0 z"
       id="path7269" />
  </g>
  <g
     id="16-16-audio-volume-high">
    <rect
       class="ColorScheme-Text"
       x="-10"
       y="-69.999702"
       width="16"
       height="16"
       ry="0"
       fill="currentColor"
       opacity="0"
       id="rect93" />
    <g
       id="g8988"
       transform="translate(0,23.427307)">
      <path
         id="path7590"
         style="fill:#363636;fill-opacity:1;stroke-width:0.648536"
         d="m 1.6230469,-89.587891 c -0.1038393,-9.35e-4 -0.2102675,0.02591 -0.3085938,0.08789 -0.2735526,0.171006 -0.3128358,0.512352 -0.1132812,0.814453 0.6098835,0.889202 0.9570312,2.047441 0.9570312,3.255859 0,1.202711 -0.3585619,2.358991 -0.9570312,3.253907 -0.1938475,0.302088 -0.1602714,0.63968 0.1132812,0.816406 0.2622033,0.15954 0.5810863,0.101894 0.7578125,-0.166016 0.7467247,-1.048813 1.1738282,-2.456504 1.1738282,-3.904297 0,-1.447856 -0.4214613,-2.86119 -1.1738282,-3.904296 -0.1104539,-0.16744 -0.2761533,-0.252347 -0.4492187,-0.253906 z" />
      <path
         id="path8982"
         style="fill:#363636;fill-opacity:1;stroke-width:0.648536"
         d="m -3.6738281,-90.529297 c -0.2906739,0 -0.4952437,0.131175 -0.8144531,0.421875 l -2.5019532,2.216797 c -0.034197,0.0342 -0.079401,0.04297 -0.125,0.04297 H -8.7285156 C -9.5721186,-87.847655 -10,-87.40288 -10,-86.513671 v 2.189453 c 0,0.894915 0.4335755,1.333984 1.2714844,1.333985 h 1.6132812 c 0.045599,0 0.090803,0.01074 0.125,0.04492 l 2.5019532,2.234374 c 0.296381,0.267911 0.5240836,0.394532 0.8261718,0.394532 0.421808,0 0.7421875,-0.32038 0.7421875,-0.742188 v -8.703125 c 0,-0.427503 -0.3206839,-0.767578 -0.7539062,-0.767577 z m -0.4160157,1.447266 c 0.045592,0 0.080078,0.02878 0.080078,0.08008 v 7.154297 c 0,0.05701 -0.034334,0.08203 -0.074219,0.08203 -0.034178,0 -0.061526,-0.0086 -0.095703,-0.03711 l -2.2695313,-2.058594 c -0.1311017,-0.119719 -0.2445399,-0.146485 -0.3984374,-0.146484 h -1.7792969 c -0.1881014,0 -0.2792969,-0.09122 -0.2792969,-0.279297 v -2.251953 c 0,-0.193783 0.091195,-0.285157 0.2792969,-0.285157 h 1.7792969 c 0.1538975,0 0.2673358,-0.02872 0.3984374,-0.148437 l 2.2695313,-2.06836 c 0.028471,-0.0228 0.055666,-0.04102 0.089844,-0.04102 z m 3.40820318,1.023437 c -0.10133735,9.69e-4 -0.20299186,0.03176 -0.29492188,0.09375 -0.2792597,0.182414 -0.3373355,0.518986 -0.109375,0.84961 0.31350248,0.450279 0.49023438,1.054788 0.49023438,1.6875 0,0.632712 -0.18237416,1.231514 -0.49023438,1.6875 -0.2222533,0.330624 -0.1698847,0.665374 0.109375,0.853515 0.24514672,0.159604 0.56357309,0.104305 0.74023438,-0.146484 C 0.22536487,-83.648794 0.5,-84.521469 0.5,-85.427734 c 0,-0.906329 -0.27463514,-1.773209 -0.73632812,-2.394532 -0.11041331,-0.156752 -0.27641693,-0.237941 -0.4453125,-0.236328 z" />
      <path
         id="path8980"
         style="fill:#363636;fill-opacity:1;stroke-width:0.648536"
         d="m 3.9277344,-91.125 c -0.1054744,-0.0025 -0.2106417,0.02395 -0.3046875,0.08594 -0.2736174,0.1767 -0.3131404,0.512352 -0.125,0.814453 0.8720867,1.328112 1.4140625,2.976773 1.4140625,4.800781 0,1.812594 -0.5419758,3.470539 -1.4140625,4.792969 -0.1881404,0.302088 -0.1486174,0.637726 0.125,0.814453 0.250789,0.165311 0.5871628,0.09197 0.7695312,-0.181641 C 5.3957989,-81.502845 6,-83.369906 6,-85.421875 6,-87.479616 5.3843847,-89.343011 4.3925781,-90.853516 4.2785979,-91.028082 4.1035251,-91.12077 3.9277344,-91.125 Z" />
    </g>
  </g>
  <g
     id="16-16-audio-volume-medium"
     transform="translate(25)">
    <rect
       class="ColorScheme-Text"
       x="-10"
       y="-69.999702"
       width="16"
       height="16"
       ry="0"
       fill="currentColor"
       opacity="0"
       id="rect9077" />
    <g
       id="g9085"
       transform="translate(0,23.427307)">
      <path
         id="path9079"
         style="fill:#363636;fill-opacity:1;stroke-width:0.648536"
         d="m 1.6230469,-89.587891 c -0.1038393,-9.35e-4 -0.2102675,0.02591 -0.3085938,0.08789 -0.2735526,0.171006 -0.3128358,0.512352 -0.1132812,0.814453 0.6098835,0.889202 0.9570312,2.047441 0.9570312,3.255859 0,1.202711 -0.3585619,2.358991 -0.9570312,3.253907 -0.1938475,0.302088 -0.1602714,0.63968 0.1132812,0.816406 0.2622033,0.15954 0.5810863,0.101894 0.7578125,-0.166016 0.7467247,-1.048813 1.1738282,-2.456504 1.1738282,-3.904297 0,-1.447856 -0.4214613,-2.86119 -1.1738282,-3.904296 -0.1104539,-0.16744 -0.2761533,-0.252347 -0.4492187,-0.253906 z" />
      <path
         id="path9081"
         style="fill:#363636;fill-opacity:1;stroke-width:0.648536"
         d="m -3.6738281,-90.529297 c -0.2906739,0 -0.4952437,0.131175 -0.8144531,0.421875 l -2.5019532,2.216797 c -0.034197,0.0342 -0.079401,0.04297 -0.125,0.04297 H -8.7285156 C -9.5721186,-87.847655 -10,-87.40288 -10,-86.513671 v 2.189453 c 0,0.894915 0.4335755,1.333984 1.2714844,1.333985 h 1.6132812 c 0.045599,0 0.090803,0.01074 0.125,0.04492 l 2.5019532,2.234374 c 0.296381,0.267911 0.5240836,0.394532 0.8261718,0.394532 0.421808,0 0.7421875,-0.32038 0.7421875,-0.742188 v -8.703125 c 0,-0.427503 -0.3206839,-0.767578 -0.7539062,-0.767577 z m -0.4160157,1.447266 c 0.045592,0 0.080078,0.02878 0.080078,0.08008 v 7.154297 c 0,0.05701 -0.034334,0.08203 -0.074219,0.08203 -0.034178,0 -0.061526,-0.0086 -0.095703,-0.03711 l -2.2695313,-2.058594 c -0.1311017,-0.119719 -0.2445399,-0.146485 -0.3984374,-0.146484 h -1.7792969 c -0.1881014,0 -0.2792969,-0.09122 -0.2792969,-0.279297 v -2.251953 c 0,-0.193783 0.091195,-0.285157 0.2792969,-0.285157 h 1.7792969 c 0.1538975,0 0.2673358,-0.02872 0.3984374,-0.148437 l 2.2695313,-2.06836 c 0.028471,-0.0228 0.055666,-0.04102 0.089844,-0.04102 z m 3.40820318,1.023437 c -0.10133735,9.69e-4 -0.20299186,0.03176 -0.29492188,0.09375 -0.2792597,0.182414 -0.3373355,0.518986 -0.109375,0.84961 0.31350248,0.450279 0.49023438,1.054788 0.49023438,1.6875 0,0.632712 -0.18237416,1.231514 -0.49023438,1.6875 -0.2222533,0.330624 -0.1698847,0.665374 0.109375,0.853515 0.24514672,0.159604 0.56357309,0.104305 0.74023438,-0.146484 C 0.22536487,-83.648794 0.5,-84.521469 0.5,-85.427734 c 0,-0.906329 -0.27463514,-1.773209 -0.73632812,-2.394532 -0.11041331,-0.156752 -0.27641693,-0.237941 -0.4453125,-0.236328 z" />
    </g>
  </g>
  <g
     id="16-16-audio-volume-low"
     transform="translate(48)">
    <rect
       class="ColorScheme-Text"
       x="-10"
       y="-69.999702"
       width="16"
       height="16"
       ry="0"
       fill="currentColor"
       opacity="0"
       id="rect9089" />
    <g
       id="g9097"
       transform="translate(0,23.427307)">
      <path
         id="path9093"
         style="fill:#363636;fill-opacity:1;stroke-width:0.648536"
         d="m -3.6738281,-90.529297 c -0.2906739,0 -0.4952437,0.131175 -0.8144531,0.421875 l -2.5019532,2.216797 c -0.034197,0.0342 -0.079401,0.04297 -0.125,0.04297 H -8.7285156 C -9.5721186,-87.847655 -10,-87.40288 -10,-86.513671 v 2.189453 c 0,0.894915 0.4335755,1.333984 1.2714844,1.333985 h 1.6132812 c 0.045599,0 0.090803,0.01074 0.125,0.04492 l 2.5019532,2.234374 c 0.296381,0.267911 0.5240836,0.394532 0.8261718,0.394532 0.421808,0 0.7421875,-0.32038 0.7421875,-0.742188 v -8.703125 c 0,-0.427503 -0.3206839,-0.767578 -0.7539062,-0.767577 z m -0.4160157,1.447266 c 0.045592,0 0.080078,0.02878 0.080078,0.08008 v 7.154297 c 0,0.05701 -0.034334,0.08203 -0.074219,0.08203 -0.034178,0 -0.061526,-0.0086 -0.095703,-0.03711 l -2.2695313,-2.058594 c -0.1311017,-0.119719 -0.2445399,-0.146485 -0.3984374,-0.146484 h -1.7792969 c -0.1881014,0 -0.2792969,-0.09122 -0.2792969,-0.279297 v -2.251953 c 0,-0.193783 0.091195,-0.285157 0.2792969,-0.285157 h 1.7792969 c 0.1538975,0 0.2673358,-0.02872 0.3984374,-0.148437 l 2.2695313,-2.06836 c 0.028471,-0.0228 0.055666,-0.04102 0.089844,-0.04102 z m 3.40820318,1.023437 c -0.10133735,9.69e-4 -0.20299186,0.03176 -0.29492188,0.09375 -0.2792597,0.182414 -0.3373355,0.518986 -0.109375,0.84961 0.31350248,0.450279 0.49023438,1.054788 0.49023438,1.6875 0,0.632712 -0.18237416,1.231514 -0.49023438,1.6875 -0.2222533,0.330624 -0.1698847,0.665374 0.109375,0.853515 0.24514672,0.159604 0.56357309,0.104305 0.74023438,-0.146484 C 0.22536487,-83.648794 0.5,-84.521469 0.5,-85.427734 c 0,-0.906329 -0.27463514,-1.773209 -0.73632812,-2.394532 -0.11041331,-0.156752 -0.27641693,-0.237941 -0.4453125,-0.236328 z" />
    </g>
  </g>
  <g
     id="16-16-audio-volume-muted"
     transform="translate(0,17.573631)">
    <rect
       class="ColorScheme-Text"
       x="60"
       y="-87.573334"
       width="16"
       height="16"
       ry="0"
       fill="currentColor"
       opacity="0"
       id="rect9101" />
    <path
       id="path9105"
       style="fill:#363636;fill-opacity:1;stroke-width:0.648536"
       d="m 66.326172,-84.675781 c -0.290674,0 -0.495244,0.131175 -0.814453,0.421875 l -1.027344,0.910156 0.71875,0.71875 0.617187,-0.5625 c 0.02847,-0.0228 0.05567,-0.04102 0.08984,-0.04102 0.04559,0 0.08008,0.02878 0.08008,0.08008 v 1.310547 L 67.080078,-80.75 v -3.158203 c 0,-0.427503 -0.320684,-0.767579 -0.753906,-0.767578 z M 60.421875,-81.75 C 60.142348,-81.532502 60,-81.170447 60,-80.660156 v 2.189453 c 0,0.894915 0.433576,1.333983 1.271484,1.333984 h 1.613282 c 0.0456,0 0.0908,0.01074 0.125,0.04492 l 2.501953,2.234375 c 0.296381,0.267911 0.524083,0.394531 0.826172,0.394531 0.3864,0 0.686516,-0.269284 0.734375,-0.638671 l -1.082032,-1.082032 v 0.189453 c 0,0.05701 -0.03433,0.08203 -0.07422,0.08203 -0.03418,0 -0.06153,-0.0086 -0.0957,-0.03711 l -2.269531,-2.058593 c -0.131102,-0.11972 -0.244539,-0.146486 -0.398437,-0.146485 h -1.779297 c -0.188102,0 -0.279297,-0.09122 -0.279297,-0.279297 v -2.251953 c 0,-0.134622 0.04483,-0.218339 0.134766,-0.257812 z" />
    <path
       style="color:#000000;fill:#363636;fill-rule:evenodd;stroke-width:3;stroke-linecap:round;stroke-linejoin:round;-inkscape-stroke:none;paint-order:stroke fill markers;fill-opacity:1"
       d="m 60.854016,-84.8531 9.899495,9.899495 c 0.195868,0.195868 0.195868,0.511238 0,0.707106 -0.195869,0.195869 -0.511238,0.195869 -0.707107,0 l -9.899495,-9.899494 c -0.195868,-0.195869 -0.195868,-0.511239 0,-0.707107 0.195869,-0.195869 0.511239,-0.195869 0.707107,0 z"
       id="path9608" />
  </g>
</svg>
