<?xml version="1.0" encoding="UTF-8" standalone="no"?>
<svg
   id="svg21"
   viewBox="0 0 32 32"
   version="1.1"
   sodipodi:docname="cantata.svg"
   width="32"
   height="32"
   inkscape:version="1.1 (c4e8f9ed74, 2021-05-24)"
   xmlns:inkscape="http://www.inkscape.org/namespaces/inkscape"
   xmlns:sodipodi="http://sodipodi.sourceforge.net/DTD/sodipodi-0.dtd"
   xmlns="http://www.w3.org/2000/svg"
   xmlns:svg="http://www.w3.org/2000/svg"
   xmlns:rdf="http://www.w3.org/1999/02/22-rdf-syntax-ns#"
   xmlns:cc="http://creativecommons.org/ns#"
   xmlns:dc="http://purl.org/dc/elements/1.1/">
  <sodipodi:namedview
     id="namedview14"
     pagecolor="#ffffff"
     bordercolor="#999999"
     borderopacity="1"
     inkscape:pageshadow="0"
     inkscape:pageopacity="0"
     inkscape:pagecheckerboard="0"
     showgrid="false"
     inkscape:zoom="5.4351852"
     inkscape:cx="-30.081772"
     inkscape:cy="-1.3798978"
     inkscape:window-width="1920"
     inkscape:window-height="958"
     inkscape:window-x="0"
     inkscape:window-y="40"
     inkscape:window-maximized="1"
     inkscape:current-layer="cantata" />
  <metadata
     id="metadata23">
    <rdf:RDF>
      <cc:Work
         rdf:about="">
        <dc:format>image/svg+xml</dc:format>
        <dc:type
           rdf:resource="http://purl.org/dc/dcmitype/StillImage" />
      </cc:Work>
    </rdf:RDF>
  </metadata>
  <defs
     id="defs5">
    <style
       type="text/css"
       id="current-color-scheme"> .ColorScheme-Text { color:#363636; } </style>
  </defs>
  <g
     fill="currentColor"
     class="ColorScheme-Text"
     id="cantata"
     transform="translate(-22)">
    <path
       id="path7"
       opacity="0.5"
       d="M 38,4 A 12,12 0 0 0 26,16 12,12 0 0 0 38,28 12,12 0 0 0 50,16 12,12 0 0 0 38,4 Z M 37.98047,6 A 10,10 0 0 1 38,6 10,10 0 0 1 48,16 10,10 0 0 1 38,26 10,10 0 0 1 28,16 10,10 0 0 1 37.9805,6 Z" />
    <path
       id="path9"
       fill="none"
       d="M 22,0 V 32 H 54 V 0 Z" />
    <path
       id="path11"
       d="m 37.002,4 v 16.994 c -1.2558,-0.54161 -3.214,-0.82785 -4.7685,-0.18368 -2.6021,1.0772 -3.7646,3.4714 -3.0044,5.3074 0.76016,1.8365 3.1585,2.4213 5.7612,1.3435 2.0531,-0.85229 3.0457,-3.1138 3.0425,-4.4483 l -0.03082,-13.015 c 0,0 5.1006,0.59912 5.1006,5.3974 0,3.5987 -1.1007,4.5991 -4.1006,7.598 2.9999,-1.7993 5.2988,-3.9993 5.2988,-7.598 0,-4.7982 -3.7038,-6.9561 -4.6523,-7.9043 -0.59998,-0.59978 -1.3476,-2.8905 -1.3476,-2.8905 z"
       class="ColorScheme-Text" />
  </g>
  <g
     fill="currentColor"
     class="ColorScheme-Text"
     id="22-22-cantata"
     transform="translate(-32.101905)">
    <path
       id="path14"
       opacity="0.5"
       d="m 11,13 a 8,8 0 0 0 -8,8 8,8 0 0 0 8,8 8,8 0 0 0 8,-8 8,8 0 0 0 -8,-8 z m 0,2 a 6,6 0 0 1 6,6 6,6 0 0 1 -6,6 6,6 0 0 1 -6,-6 6,6 0 0 1 6,-6 z" />
    <path
       id="path16"
       fill="none"
       d="M 0,10 V 32 H 22 V 10 Z" />
    <path
       id="path18"
       d="m 10,13 v 11.045 c -0.83718,-0.3612 -1.8093,-0.26358 -2.8457,0.16602 -1.7348,0.7184 -2.7294,2.2932 -2.2227,3.5176 0.50678,1.2248 2.3254,1.6368 4.0605,0.91797 1.3688,-0.5684 2.207,-2.0455 2.207,-2.9355 v -8.7109 c 0,0 3.2012,0.39961 3.2012,3.5996 0,2.4 -0.80083,3.2012 -2.8008,5.2012 2,-1.2 3.5996,-2.8012 3.5996,-5.2012 0,-3.2 -2.4692,-4.6391 -3.1016,-5.2715 -0.39999,-0.4 -0.89844,-1.9277 -0.89844,-1.9277 z"
       class="ColorScheme-Text" />
  </g>
</svg>
