<?xml version="1.0" encoding="UTF-8" standalone="no"?>
<svg
   id="svg17"
   viewBox="0 0 32 32"
   version="1.1"
   sodipodi:docname="edit.svg"
   width="32"
   height="32"
   inkscape:version="1.1.1 (3bf5ae0d25, 2021-09-20, custom)"
   xmlns:inkscape="http://www.inkscape.org/namespaces/inkscape"
   xmlns:sodipodi="http://sodipodi.sourceforge.net/DTD/sodipodi-0.dtd"
   xmlns="http://www.w3.org/2000/svg"
   xmlns:svg="http://www.w3.org/2000/svg"
   xmlns:rdf="http://www.w3.org/1999/02/22-rdf-syntax-ns#"
   xmlns:cc="http://creativecommons.org/ns#"
   xmlns:dc="http://purl.org/dc/elements/1.1/">
  <sodipodi:namedview
     pagecolor="#ffffff"
     bordercolor="#666666"
     borderopacity="1"
     objecttolerance="10"
     gridtolerance="10"
     guidetolerance="10"
     inkscape:pageopacity="0"
     inkscape:pageshadow="2"
     inkscape:window-width="1920"
     inkscape:window-height="1005"
     id="namedview12"
     showgrid="true"
     inkscape:snap-smooth-nodes="true"
     inkscape:zoom="15.07185"
     inkscape:cx="-9.7864561"
     inkscape:cy="22.160518"
     inkscape:window-x="0"
     inkscape:window-y="0"
     inkscape:window-maximized="1"
     inkscape:current-layer="svg17"
     inkscape:pagecheckerboard="0"
     inkscape:snap-nodes="false"
     inkscape:snap-bbox="true"
     inkscape:bbox-nodes="true"
     inkscape:snap-bbox-edge-midpoints="true">
    <inkscape:grid
       type="xygrid"
       id="grid837" />
  </sodipodi:namedview>
  <metadata
     id="metadata19">
    <rdf:RDF>
      <cc:Work
         rdf:about="">
        <dc:format>image/svg+xml</dc:format>
        <dc:type
           rdf:resource="http://purl.org/dc/dcmitype/StillImage" />
        <dc:title />
      </cc:Work>
    </rdf:RDF>
  </metadata>
  <defs
     id="defs5">
    <style
       type="text/css"
       id="current-color-scheme">.ColorScheme-NegativeText {
        color:#da4453;
      }</style>
  </defs>
  <g
     id="edit-delete">
    <path
       id="path12"
       fill="none"
       d="M 0,0 V 32 H 32 V 0 Z"
       style="color:#da4453" />
    <path
       id="path829"
       d="M 13.969503,4 C 12.195147,4 11.15514,4.9562292 11.15514,6.5924245 V 8.1861291 H 6.459025 c -0.531231,0 -0.956221,0.4143673 -0.956221,0.9349724 0,0.5418566 0.42499,0.9562225 0.956221,0.9562225 H 7.627742 L 8.338416,25.376881 C 8.42341,27.023703 9.464637,28 11.122085,28 h 9.765274 c 1.636182,0 2.686882,-0.986935 2.771863,-2.623119 l 0.713036,-15.299557 h 1.168715 c 0.541809,0 0.956223,-0.4249917 0.956223,-0.9562225 0,-0.5312309 -0.425052,-0.9349724 -0.956223,-0.9349724 H 20.82361 V 6.5924245 C 20.82361,4.9562292 19.781242,4 18.006886,4 Z m 0.139301,1.7943925 h 3.761141 c 0.58436,0 0.965667,0.3506055 0.965667,0.8924737 V 8.1861291 H 13.140777 V 6.6868662 c 0,-0.5418682 0.383667,-0.8924737 0.968027,-0.8924737 z M 9.582686,10.077324 h 12.801573 l -0.689424,14.959567 c -0.02116,0.63755 -0.435584,1.062469 -1.04122,1.062469 h -9.319037 c -0.58436,0 -1.009342,-0.435557 -1.041219,-1.062469 z m 2.953664,1.784948 c -0.446309,0 -0.733117,0.285726 -0.722479,0.710674 l 0.318741,11.113428 c 0.01064,0.425033 0.30701,0.701231 0.731922,0.701231 0.456947,0 0.744922,-0.285641 0.734285,-0.710674 L 13.280078,12.563503 C 13.269438,12.138505 12.9719,11.862272 12.53635,11.862272 Z m 3.463649,0 c -0.446188,0 -0.743728,0.285726 -0.743728,0.710674 v 11.113428 c 0,0.425033 0.29754,0.70123 0.743728,0.701231 0.446188,0 0.753173,-0.276198 0.753173,-0.701231 V 12.572946 c 0,-0.424948 -0.306985,-0.710674 -0.753173,-0.710674 z m 3.463651,0.0094 c -0.435551,0 -0.733092,0.276281 -0.74373,0.70123 l -0.31874,11.113427 c -0.01064,0.414396 0.274976,0.713036 0.731924,0.713036 0.424911,0 0.723645,-0.288003 0.734283,-0.713036 l 0.318741,-11.113427 c 0.01064,-0.424949 -0.276169,-0.70123 -0.722478,-0.70123 z"
       style="fill:#da4453;fill-opacity:1;stroke-width:1.20885" />
  </g>
  <g
     id="22-22-edit-delete">
    <path
       id="path7"
       fill="none"
       d="M -22,10 V 32 H 0 V 10 Z"
       style="color:#da4453" />
    <path
       id="path2254"
       d="m -12.353665,13 c -1.182904,0 -1.876242,0.637486 -1.876242,1.728283 v 1.06247 h -3.130743 c -0.354154,0 -0.637481,0.276245 -0.637481,0.623315 0,0.361237 0.283327,0.637481 0.637481,0.637481 h 0.779145 l 0.473782,10.199705 C -16.05106,28.349135 -15.356909,29 -14.251943,29 h 6.510182 c 1.090788,0 1.791255,-0.657957 1.847909,-1.748746 l 0.475357,-10.199705 h 0.779144 c 0.361206,0 0.637482,-0.283327 0.637482,-0.637481 0,-0.354154 -0.283368,-0.623315 -0.637482,-0.623315 H -7.78426 v -1.06247 C -7.78426,13.637486 -8.479172,13 -9.662076,13 Z m 0.09287,1.196262 h 2.507427 c 0.389573,0 0.643778,0.233737 0.643778,0.594982 v 0.999509 h -3.796557 v -0.999509 c 0,-0.361245 0.255778,-0.594982 0.645352,-0.594982 z m -3.017412,2.855287 h 8.534382 l -0.459616,9.973045 c -0.01411,0.425033 -0.29039,0.708313 -0.694147,0.708313 h -6.212691 c -0.389574,0 -0.672895,-0.290372 -0.694146,-0.708313 z m 1.969109,1.189966 c -0.297539,0 -0.488745,0.190484 -0.481653,0.473782 l 0.212494,7.408952 c 0.0071,0.283356 0.204674,0.467488 0.487948,0.467488 0.304632,0 0.496615,-0.190428 0.489524,-0.473783 l -0.212494,-7.408952 c -0.0071,-0.283332 -0.205452,-0.467487 -0.495819,-0.467487 z m 2.309099,0 c -0.297458,0 -0.495818,0.190484 -0.495818,0.473782 v 7.408952 c 0,0.283356 0.19836,0.467487 0.495818,0.467488 0.297459,0 0.502116,-0.184132 0.502116,-0.467488 v -7.408952 c 0,-0.283298 -0.204657,-0.473782 -0.502116,-0.473782 z m 2.309101,0.0063 c -0.290367,0 -0.488728,0.184188 -0.49582,0.467487 l -0.212493,7.408951 c -0.0071,0.276264 0.183317,0.475358 0.487949,0.475358 0.283274,0 0.48243,-0.192002 0.489522,-0.475358 l 0.212494,-7.408951 c 0.0071,-0.283299 -0.184113,-0.467487 -0.481652,-0.467487 z"
       style="fill:#da4453;fill-opacity:1;stroke-width:0.8059" />
  </g>
</svg>
