<?xml version="1.0" encoding="UTF-8" standalone="no"?>
<svg
   id="svg17"
   viewBox="0 0 22 22"
   version="1.1"
   sodipodi:docname="keyboard.svg"
   width="22"
   height="22"
   inkscape:version="1.1 (c4e8f9ed74, 2021-05-24)"
   xmlns:inkscape="http://www.inkscape.org/namespaces/inkscape"
   xmlns:sodipodi="http://sodipodi.sourceforge.net/DTD/sodipodi-0.dtd"
   xmlns="http://www.w3.org/2000/svg"
   xmlns:svg="http://www.w3.org/2000/svg"
   xmlns:rdf="http://www.w3.org/1999/02/22-rdf-syntax-ns#"
   xmlns:cc="http://creativecommons.org/ns#"
   xmlns:dc="http://purl.org/dc/elements/1.1/">
  <sodipodi:namedview
     id="namedview12"
     pagecolor="#ffffff"
     bordercolor="#999999"
     borderopacity="1"
     inkscape:pageshadow="0"
     inkscape:pageopacity="0"
     inkscape:pagecheckerboard="0"
     showgrid="false"
     inkscape:zoom="10.87037"
     inkscape:cx="34.635434"
     inkscape:cy="10.717206"
     inkscape:window-width="1920"
     inkscape:window-height="958"
     inkscape:window-x="0"
     inkscape:window-y="40"
     inkscape:window-maximized="1"
     inkscape:current-layer="svg17" />
  <metadata
     id="metadata19">
    <rdf:RDF>
      <cc:Work
         rdf:about="">
        <dc:format>image/svg+xml</dc:format>
        <dc:type
           rdf:resource="http://purl.org/dc/dcmitype/StillImage" />
      </cc:Work>
    </rdf:RDF>
  </metadata>
  <defs
     id="defs5">
    <style
       type="text/css"
       id="current-color-scheme"> .ColorScheme-Text { color:#363636; } </style>
  </defs>
  <g
     fill="currentColor"
     class="ColorScheme-Text"
     transform="translate(-158,-58)"
     id="22-22-keyboard-layout">
    <path
       id="path7"
       d="m 163,62 c -1.108,0 -2,0.892 -2,2 v 10 c 0,1.108 0.892,2 2,2 h 12 c 1.108,0 2,-0.892 2,-2 V 64 c 0,-1.108 -0.892,-2 -2,-2 z m 3,2 c 1.1045,0 2,0.8955 2,2 v 1 h 2 v -1 c 0,-1.1045 0.89537,-2 2,-2 1.1045,0 2,0.8955 2,2 0,1.1045 -0.8955,2 -2,2 h -1 v 2 h 1 c 1.1045,2.5e-4 2,0.8955 2,2 0,1.1045 -0.8955,2 -2,2 -1.1045,0 -2,-0.8955 -2,-2 v -1 h -2 v 1 c 0,1.1045 -0.89537,2 -2,2 -1.1045,0 -2,-0.8955 -2,-2 0,-1.1045 0.8955,-2 2,-2 h 1 v -2 h -1 c -1.1045,0 -2,-0.8955 -2,-2 0,-1.1045 0.8955,-2 2,-2 z m 0,1 c -0.55225,0 -1,0.44775 -1,1 0,0.55213 0.44775,1 1,1 h 1 v -1 c 0,-0.55225 -0.44775,-1 -1,-1 z m 6,0 c -0.55225,0 -1,0.44775 -1,1 v 1 h 1 c 0.55225,0 1,-0.44775 1,-1 0,-0.55225 -0.44775,-1 -1,-1 z m -4,3 v 2 h 2 v -2 z m -2,3 c -0.55225,0 -1,0.44775 -1,1 0,0.55225 0.44775,1 1,1 0.55225,0 1,-0.44775 1,-1 v -1 z m 5,0 v 1 c 0,0.55225 0.44775,1 1,1 0.55225,0 1,-0.44775 1,-1 0,-0.55225 -0.44775,-1 -1,-1 z" />
    <path
       id="path9"
       fill="none"
       d="m 158,58 h 22 v 22 h -22 z" />
  </g>
  <g
     fill="currentColor"
     class="ColorScheme-Text"
     transform="translate(-16)"
     id="keyboard-layout">
    <rect
       id="rect12"
       fill="none"
       height="32"
       width="32"
       y="-5.6171998e-06"
       x="38" />
    <path
       id="path14"
       d="m 43,7 c -1.662,0 -3,1.338 -3,3 v 12 c 0,1.662 1.338,3 3,3 h 22 c 1.662,0 3,-1.338 3,-3 V 10 C 68,8.338 66.662,7 65,7 Z m 0,2 h 22 c 0.554,0 1,0.446 1,1 v 12 c 0,0.554 -0.446,1 -1,1 H 43 c -0.554,0 -1,-0.446 -1,-1 V 10 c 0,-0.554 0.446,-1 1,-1 z m 0.5,2 c -0.277,0 -0.5,0.223 -0.5,0.5 0,0.277 0.223,0.5 0.5,0.5 h 21 C 64.777,12 65,11.777 65,11.5 65,11.223 64.777,11 64.5,11 Z m 0.5,2 c -0.554,0 -1,0.446 -1,1 0,0.554 0.446,1 1,1 h 0.86328 c 0.554,0 1,-0.446 1,-1 0,-0.554 -0.446,-1 -1,-1 z m 4,0 c -0.554,0 -1,0.446 -1,1 0,0.554 0.446,1 1,1 0.554,0 1,-0.446 1,-1 0,-0.554 -0.446,-1 -1,-1 z m 3,0 c -0.554,0 -1,0.446 -1,1 0,0.554 0.446,1 1,1 0.554,0 1,-0.446 1,-1 0,-0.554 -0.446,-1 -1,-1 z m 3,0 c -0.554,0 -1,0.446 -1,1 0,0.554 0.446,1 1,1 0.554,0 1,-0.446 1,-1 0,-0.554 -0.446,-1 -1,-1 z m 3,0 c -0.554,0 -1,0.446 -1,1 0,0.554 0.446,1 1,1 0.554,0 1,-0.446 1,-1 0,-0.554 -0.446,-1 -1,-1 z m 3,0 c -0.554,0 -1,0.446 -1,1 0,0.554 0.446,1 1,1 0.554,0 1,-0.446 1,-1 0,-0.554 -0.446,-1 -1,-1 z m 3,0 c -0.554,0 -1,0.446 -1,1 0,0.554 0.446,1 1,1 h 0.86328 c 0.554,0 1,-0.446 1,-1 0,-0.554 -0.446,-1 -1,-1 z m -19,3 c -0.554,0 -1,0.446 -1,1 0,0.554 0.446,1 1,1 0.554,0 1,-0.446 1,-1 0,-0.554 -0.446,-1 -1,-1 z m 3,0 c -0.554,0 -1,0.446 -1,1 0,0.554 0.446,1 1,1 0.554,0 1,-0.446 1,-1 0,-0.554 -0.446,-1 -1,-1 z m 3,0 c -0.554,0 -1,0.446 -1,1 0,0.554 0.446,1 1,1 0.554,0 1,-0.446 1,-1 0,-0.554 -0.446,-1 -1,-1 z m 3,0 c -0.554,0 -1,0.446 -1,1 0,0.554 0.446,1 1,1 0.554,0 1,-0.446 1,-1 0,-0.554 -0.446,-1 -1,-1 z m 3,0 c -0.554,0 -1,0.446 -1,1 0,0.554 0.446,1 1,1 0.554,0 1,-0.446 1,-1 0,-0.554 -0.446,-1 -1,-1 z m 3,0 c -0.554,0 -1,0.446 -1,1 0,0.554 0.446,1 1,1 0.554,0 1,-0.446 1,-1 0,-0.554 -0.446,-1 -1,-1 z m 3,0 c -0.554,0 -1,0.446 -1,1 0,0.554 0.446,1 1,1 h 2 c 0.554,0 1,-0.446 1,-1 0,-0.554 -0.446,-1 -1,-1 z m -18,3 c -0.554,0 -1,0.446 -1,1 0,0.554 0.446,1 1,1 h 0.86328 c 0.554,0 1,-0.446 1,-1 0,-0.554 -0.446,-1 -1,-1 z m 4,0 c -0.554,0 -1,0.446 -1,1 0,0.554 0.446,1 1,1 0.554,0 1,-0.446 1,-1 0,-0.554 -0.446,-1 -1,-1 z m 3.1367,0 c -0.554,0 -1,0.446 -1,1 0,0.554 0.446,1 1,1 H 57 c 0.554,0 1,-0.446 1,-1 0,-0.554 -0.446,-1 -1,-1 z M 60,19 c -0.554,0 -1,0.446 -1,1 0,0.554 0.446,1 1,1 0.554,0 1,-0.446 1,-1 0,-0.554 -0.446,-1 -1,-1 z m 3,0 c -0.554,0 -1,0.446 -1,1 0,0.554 0.446,1 1,1 h 0.86328 c 0.554,0 1,-0.446 1,-1 0,-0.554 -0.446,-1 -1,-1 z" />
  </g>
</svg>
