<?xml version="1.0" encoding="UTF-8" standalone="no"?>
<svg
   id="svg15"
   viewBox="0 0 32 32"
   version="1.1"
   sodipodi:docname="nepomuk.svg"
   width="32"
   height="32"
   inkscape:version="1.1 (c4e8f9ed74, 2021-05-24)"
   xmlns:inkscape="http://www.inkscape.org/namespaces/inkscape"
   xmlns:sodipodi="http://sodipodi.sourceforge.net/DTD/sodipodi-0.dtd"
   xmlns="http://www.w3.org/2000/svg"
   xmlns:svg="http://www.w3.org/2000/svg"
   xmlns:rdf="http://www.w3.org/1999/02/22-rdf-syntax-ns#"
   xmlns:cc="http://creativecommons.org/ns#"
   xmlns:dc="http://purl.org/dc/elements/1.1/">
  <sodipodi:namedview
     id="namedview12"
     pagecolor="#ffffff"
     bordercolor="#999999"
     borderopacity="1"
     inkscape:pageshadow="0"
     inkscape:pageopacity="0"
     inkscape:pagecheckerboard="0"
     showgrid="false"
     inkscape:zoom="10.87037"
     inkscape:cx="16.32879"
     inkscape:cy="7.9574106"
     inkscape:window-width="1920"
     inkscape:window-height="958"
     inkscape:window-x="0"
     inkscape:window-y="40"
     inkscape:window-maximized="1"
     inkscape:current-layer="svg15" />
  <metadata
     id="metadata19">
    <rdf:RDF>
      <cc:Work
         rdf:about="">
        <dc:format>image/svg+xml</dc:format>
        <dc:type
           rdf:resource="http://purl.org/dc/dcmitype/StillImage" />
      </cc:Work>
    </rdf:RDF>
  </metadata>
  <defs
     id="defs3">
    <style
       type="text/css"
       id="current-color-scheme">.ColorScheme-Text { color:#363636; }</style>
  </defs>
  <g
     id="22-22-nepomuk"
     transform="translate(-30.085419)">
    <path
       id="path5"
       fill="none"
       d="M 0,10 V 32 H 22 V 10 Z" />
    <path
       id="path7"
       fill="currentColor"
       d="m 9.4939,13.994 c -3.026,0 -5.5,2.474 -5.5,5.5 0,3.026 2.474,5.5 5.5,5.5 a 5.46,5.46 0 0 0 3.112,-0.975 l 3.681,3.682 a 1,1 0 1 0 1.414,-1.414 l -3.681,-3.682 a 5.46,5.46 0 0 0 0.974,-3.111 c 0,-3.026 -2.474,-5.5 -5.5,-5.5 z m 0,1.25 a 4.25,4.25 0 0 1 4.25,4.25 4.25,4.25 0 0 1 -4.25,4.25 4.25,4.25 0 0 1 -4.25,-4.25 4.25,4.25 0 0 1 4.25,-4.25 z"
       class="ColorScheme-Text" />
  </g>
  <g
     id="nepomuk"
     transform="translate(-22)">
    <path
       id="path10"
       fill="none"
       d="M 22,0 V 32 H 54 V 0 Z" />
    <path
       id="path12"
       fill="currentColor"
       d="m 29.125,7.1247 a 9,9 0 0 0 0,12.728 9,9 0 0 0 11.167,1.2347 c 0.04787,0.06034 0.09056,0.12371 0.14639,0.17954 l 5.6569,5.6569 c 0.78347,0.78347 2.045,0.78347 2.8284,0 0.7834,-0.78347 0.78347,-2.045 0,-2.8284 l -5.6569,-5.6569 c -0.05536,-0.05536 -0.11836,-0.09748 -0.17816,-0.14501 a 9,9 0 0 0 -1.2361,-11.169 9,9 0 0 0 -12.728,0 z m 1.4142,1.4142 a 7,7 0 0 1 9.8995,0 7,7 0 0 1 0,9.8995 7,7 0 0 1 -9.8995,0 7,7 0 0 1 0,-9.8995 z"
       class="ColorScheme-Text" />
  </g>
</svg>
