<?xml version="1.0" encoding="UTF-8" standalone="no"?>
<svg
   width="22"
   height="22"
   version="1.1"
   id="svg21"
   sodipodi:docname="pamac.svg"
   inkscape:version="1.1.1 (3bf5ae0d25, 2021-09-20, custom)"
   xmlns:inkscape="http://www.inkscape.org/namespaces/inkscape"
   xmlns:sodipodi="http://sodipodi.sourceforge.net/DTD/sodipodi-0.dtd"
   xmlns="http://www.w3.org/2000/svg"
   xmlns:svg="http://www.w3.org/2000/svg">
  <sodipodi:namedview
     id="namedview23"
     pagecolor="#3d3d3d"
     bordercolor="#666666"
     borderopacity="1.0"
     inkscape:pageshadow="2"
     inkscape:pageopacity="0"
     inkscape:pagecheckerboard="0"
     showgrid="false"
     inkscape:snap-bbox="true"
     inkscape:bbox-nodes="true"
     inkscape:snap-bbox-edge-midpoints="false"
     inkscape:snap-nodes="false"
     inkscape:zoom="8.1363636"
     inkscape:cx="23.413408"
     inkscape:cy="31.156425"
     inkscape:window-width="1920"
     inkscape:window-height="936"
     inkscape:window-x="0"
     inkscape:window-y="40"
     inkscape:window-maximized="1"
     inkscape:current-layer="svg21">
    <inkscape:grid
       type="xygrid"
       id="grid1777" />
  </sodipodi:namedview>
  <defs
     id="defs3">
    <style
       id="current-color-scheme"
       type="text/css">.ColorScheme-Text{color:#dfdfdf;}.ColorScheme-Highlight{color:#5294e2;}</style>
  </defs>
  <defs
     id="defs7">
    <style
       type="text/css"
       id="style5" />
  </defs>
  <g
     id="pamac-tray-no-update">
    <rect
       style="fill:none;fill-opacity:1;stroke:none;stroke-width:2.11786;stroke-linecap:round;stroke-linejoin:round;stroke-miterlimit:4;stroke-dasharray:none;stroke-opacity:1;paint-order:stroke fill markers;stop-color:#000000"
       id="rect1079"
       width="32"
       height="32"
       x="-0.97726023"
       y="30.050793"
       rx="0"
       ry="0" />
    <path
       id="path1055"
       style="fill:#242424;fill-opacity:1"
       class="ColorScheme-Text"
       d="M 15 34.279297 C 14.744728 34.27891 14.490342 34.320677 14.246094 34.40625 A 1.0001 1.0001 0 0 0 14.246094 34.408203 L 6.5234375 37.121094 C 5.6143253 37.440123 5 38.306486 5 39.269531 L 5 47.210938 C 5 49.675776 5.8983918 52.029108 7.4804688 53.851562 C 8.3039814 54.801564 9.3155056 55.508737 10.351562 56.068359 L 14.533203 58.324219 A 1.0001 1.0001 0 0 0 15.482422 58.324219 L 19.65625 56.070312 A 1.0001 1.0001 0 0 0 19.658203 56.070312 C 20.693685 55.510318 21.701564 54.801829 22.523438 53.853516 C 24.105452 52.030618 25 49.677811 25 47.214844 L 25 39.269531 C 25 38.305943 24.38652 37.439684 23.476562 37.121094 L 15.755859 34.408203 C 15.51143 34.322175 15.255272 34.279683 15 34.279297 z M 15.001953 36.279297 C 15.033062 36.279406 15.062895 36.284752 15.091797 36.294922 L 22.814453 39.007812 C 22.929779 39.048192 23 39.146835 23 39.269531 L 23 47.214844 C 23 49.19322 22.282279 51.0812 21.013672 52.542969 A 1.0001 1.0001 0 0 0 21.011719 52.542969 C 20.400067 53.248719 19.595818 53.82883 18.705078 54.310547 L 15.007812 56.308594 L 11.302734 54.308594 L 11.300781 54.308594 C 10.408935 53.826662 9.6042154 53.249003 8.9921875 52.542969 A 1.0001 1.0001 0 0 0 8.9921875 52.541016 C 7.7223979 51.079134 7 49.19121 7 47.210938 L 7 39.269531 C 7 39.146835 7.070219 39.04819 7.1855469 39.007812 A 1.0001 1.0001 0 0 0 7.1875 39.007812 L 14.908203 36.294922 C 14.938458 36.284317 14.970844 36.279188 15.001953 36.279297 z " />
    <path
       id="rect1801"
       style="opacity:1;fill:#242424;fill-opacity:0.60000002"
       class="ColorScheme-Text"
       d="M 15 41 C 14.744835 41 14.488701 41.097795 14.292969 41.292969 C 14.292969 41.292969 14.291016 41.292969 14.291016 41.292969 L 11.462891 44.123047 C 11.071153 44.514784 11.071153 45.145372 11.462891 45.537109 C 11.854628 45.928847 12.485216 45.928847 12.876953 45.537109 L 14 44.414062 L 14 50 C 14 50.554 14.446 51 15 51 C 15.554 51 16 50.554 16 50 L 16 44.416016 L 17.121094 45.537109 C 17.512831 45.928847 18.143419 45.928847 18.535156 45.537109 C 18.926893 45.145372 18.926893 44.514784 18.535156 44.123047 L 15.707031 41.292969 C 15.511163 41.0971 15.255619 41 15 41 z " />
  </g>
  <g
     id="22-22-pamac-tray-no-update">
    <rect
       width="22"
       height="22"
       opacity="0"
       id="rect9"
       x="0"
       y="0" />
    <path
       id="path2"
       style="fill:#242424;fill-opacity:1"
       class="ColorScheme-Text"
       d="M 11 1.3789062 C 10.776383 1.3790141 10.553586 1.4172871 10.339844 1.4921875 L 4.3339844 3.6035156 L 4.3339844 3.6015625 C 3.5379469 3.8802637 3 4.6414842 3 5.484375 L 3 11.660156 C 3 13.631335 3.7188834 15.513105 4.984375 16.970703 C 5.6483472 17.736658 6.4575236 18.302217 7.2792969 18.746094 L 10.53125 20.5 A 1.0001 1.0001 0 0 0 11.480469 20.5 L 14.726562 18.746094 C 15.54802 18.301845 16.356938 17.737186 17.019531 16.972656 C 18.28481 15.514721 19 13.633547 19 11.664062 L 19 5.484375 C 19 4.6414848 18.462053 3.8802672 17.666016 3.6015625 L 17.666016 3.6035156 L 11.662109 1.4921875 C 11.448055 1.4168555 11.223617 1.3787984 11 1.3789062 z M 11 3.3789062 L 17 5.4882812 L 17 11.664062 C 17 13.148955 16.459682 14.565303 15.507812 15.662109 C 15.055442 16.184074 14.452107 16.620357 13.775391 16.986328 L 11.005859 18.484375 L 8.2285156 16.986328 C 7.5502902 16.619988 6.9469559 16.184475 6.4941406 15.662109 A 1.0001 1.0001 0 0 0 6.4941406 15.660156 C 5.541348 14.563238 5 13.146425 5 11.660156 L 5 5.4882812 L 11 3.3789062 z " />
    <path
       id="rect2132"
       style="opacity:1;fill:#242424;fill-opacity:0.60000002"
       class="ColorScheme-Text"
       d="M 11 7 C 10.744835 7 10.488701 7.097795 10.292969 7.2929688 C 10.292969 7.2929688 10.291016 7.2929688 10.291016 7.2929688 L 7.4628906 10.123047 C 7.0711535 10.514784 7.0711535 11.145372 7.4628906 11.537109 C 7.8546278 11.928847 8.485216 11.928847 8.8769531 11.537109 L 10 10.414062 L 10 13 C 10 13.554 10.446 14 11 14 C 11.554 14 12 13.554 12 13 L 12 10.416016 L 13.121094 11.537109 C 13.512831 11.928847 14.143419 11.928847 14.535156 11.537109 C 14.926893 11.145372 14.926893 10.514784 14.535156 10.123047 L 11.707031 7.2929688 C 11.511163 7.0971002 11.255619 7 11 7 z " />
  </g>
  <g
     id="22-22-pamac-tray-update"
     transform="translate(-17)">
    <rect
       width="22"
       height="22"
       opacity="0"
       id="rect2428"
       x="55"
       y="0" />
    <path
       id="path2430"
       style="fill:#242424;fill-opacity:1"
       class="ColorScheme-Text"
       d="M 49 1.3789062 C 48.776383 1.3790141 48.553586 1.4172872 48.339844 1.4921875 L 42.333984 3.6035156 L 42.333984 3.6015625 C 41.537947 3.8802606 41 4.6414842 41 5.484375 L 41 11.660156 C 41 13.631335 41.718883 15.513105 42.984375 16.970703 C 43.648347 17.736658 44.457524 18.302217 45.279297 18.746094 L 48.53125 20.5 A 1.0001 1.0001 0 0 0 49.480469 20.5 L 51.392578 19.466797 A 3 3 0 0 1 51 18 A 3 3 0 0 1 51.076172 17.365234 L 49.005859 18.484375 L 46.228516 16.986328 C 45.55029 16.619988 44.946956 16.184475 44.494141 15.662109 A 1.0001 1.0001 0 0 0 44.494141 15.660156 C 43.54135 14.563285 43 13.146425 43 11.660156 L 43 5.4882812 L 49 3.3789062 L 55 5.4882812 L 55 11.664062 C 55 12.866639 54.640385 14.020668 54 15 A 3 3 0 0 1 55.921875 15.699219 C 56.618017 14.487123 57 13.099756 57 11.664062 L 57 5.484375 C 57 4.6414848 56.462053 3.8802672 55.666016 3.6015625 L 55.666016 3.6035156 L 49.662109 1.4921875 C 49.448055 1.4168555 49.223617 1.3787984 49 1.3789062 z "
       transform="translate(17)" />
    <path
       id="path2432"
       style="opacity:1;fill:#242424;fill-opacity:0.60000002"
       class="ColorScheme-Text"
       d="M 49 7 C 48.744835 7 48.488701 7.097795 48.292969 7.2929688 C 48.292969 7.2929688 48.291016 7.2929688 48.291016 7.2929688 L 45.462891 10.123047 C 45.071153 10.514784 45.071153 11.145372 45.462891 11.537109 C 45.854628 11.928847 46.485216 11.928847 46.876953 11.537109 L 48 10.414062 L 48 13 C 48 13.554 48.446 14 49 14 C 49.554 14 50 13.554 50 13 L 50 10.416016 L 51.121094 11.537109 C 51.512831 11.928847 52.143419 11.928847 52.535156 11.537109 C 52.926893 11.145372 52.926893 10.514784 52.535156 10.123047 L 49.707031 7.2929688 C 49.511163 7.0971002 49.255619 7 49 7 z "
       transform="translate(17)" />
    <path
       id="circle18"
       style="fill:#3daee9;fill-opacity:1"
       class="ColorScheme-Highlight"
       d="M 54 16 A 2 2 0 0 0 52 18 A 2 2 0 0 0 54 20 A 2 2 0 0 0 56 18 A 2 2 0 0 0 54 16 z "
       transform="translate(17)" />
  </g>
  <g
     id="pamac-tray-update">
    <rect
       style="fill:none;fill-opacity:1;stroke:none;stroke-width:2.11786;stroke-linecap:round;stroke-linejoin:round;stroke-miterlimit:4;stroke-dasharray:none;stroke-opacity:1;paint-order:stroke fill markers;stop-color:#000000"
       id="rect2633"
       width="32"
       height="32"
       x="39"
       y="30.050793"
       rx="0"
       ry="0" />
    <path
       id="path2635"
       style="fill:#242424;fill-opacity:1"
       class="ColorScheme-Text"
       d="M 54.978516 34.279297 C 54.723243 34.27891 54.466904 34.320677 54.222656 34.40625 A 1.0001 1.0001 0 0 0 54.222656 34.408203 L 46.5 37.121094 C 45.590888 37.440123 44.976563 38.306486 44.976562 39.269531 L 44.976562 47.210938 C 44.976562 49.675776 45.874954 52.029108 47.457031 53.851562 C 48.280544 54.801564 49.292068 55.508737 50.328125 56.068359 L 54.509766 58.324219 A 1.0001 1.0001 0 0 0 55.458984 58.324219 L 58.693359 56.578125 A 3.5 3.5 0 0 1 58.011719 54.671875 L 54.984375 56.308594 L 51.279297 54.308594 L 51.277344 54.308594 C 50.385545 53.826662 49.580778 53.249003 48.96875 52.542969 A 1.0001 1.0001 0 0 0 48.96875 52.541016 C 47.69896 51.079181 46.976562 49.19121 46.976562 47.210938 L 46.976562 39.269531 C 46.976562 39.146835 47.046782 39.04819 47.162109 39.007812 A 1.0001 1.0001 0 0 0 47.164062 39.007812 L 54.884766 36.294922 C 54.945276 36.273712 55.010556 36.274582 55.068359 36.294922 L 62.791016 39.007812 C 62.906342 39.048192 62.976562 39.146835 62.976562 39.269531 L 62.976562 47.214844 C 62.976562 48.567511 62.641154 49.878248 62.023438 51.039062 A 3.5 3.5 0 0 1 63.832031 51.890625 C 64.573184 50.46535 64.976563 48.865391 64.976562 47.214844 L 64.976562 39.269531 C 64.976562 38.305943 64.363082 37.439684 63.453125 37.121094 L 55.732422 34.408203 C 55.487992 34.322173 55.233788 34.279683 54.978516 34.279297 z " />
    <path
       id="path2637"
       style="opacity:1;fill:#242424;fill-opacity:0.60000002"
       class="ColorScheme-Text"
       d="M 54.976562 41 C 54.721398 41 54.465263 41.09779 54.269531 41.292969 C 54.269531 41.292969 54.267578 41.292969 54.267578 41.292969 L 51.439453 44.123047 C 51.047715 44.514784 51.047715 45.145372 51.439453 45.537109 C 51.83119 45.928847 52.461779 45.928847 52.853516 45.537109 L 53.976562 44.414062 L 53.976562 50 C 53.976562 50.554 54.422562 51 54.976562 51 C 55.530563 51 55.976562 50.554 55.976562 50 L 55.976562 44.416016 L 57.097656 45.537109 C 57.489393 45.928847 58.119982 45.928847 58.511719 45.537109 C 58.903456 45.145372 58.903456 44.514784 58.511719 44.123047 L 55.683594 41.292969 C 55.487726 41.0971 55.232181 41 54.976562 41 z " />
    <path
       id="circle2647"
       style="stroke-width:1.25;fill:#3daee9;fill-opacity:1"
       class="ColorScheme-Highlight"
       d="M 61.5 52 A 2.5 2.5 0 0 0 59 54.5 A 2.5 2.5 0 0 0 61.5 57 A 2.5 2.5 0 0 0 64 54.5 A 2.5 2.5 0 0 0 61.5 52 z " />
  </g>
</svg>
