<?xml version="1.0" encoding="UTF-8" standalone="no"?>
<svg
   width="22"
   height="22"
   version="1.1"
   id="svg12"
   sodipodi:docname="yakuake.svg"
   inkscape:version="1.1.1 (3bf5ae0d25, 2021-09-20)"
   xmlns:inkscape="http://www.inkscape.org/namespaces/inkscape"
   xmlns:sodipodi="http://sodipodi.sourceforge.net/DTD/sodipodi-0.dtd"
   xmlns="http://www.w3.org/2000/svg"
   xmlns:svg="http://www.w3.org/2000/svg">
  <sodipodi:namedview
     id="namedview14"
     pagecolor="#ffffff"
     bordercolor="#999999"
     borderopacity="1"
     inkscape:pageshadow="0"
     inkscape:pageopacity="0"
     inkscape:pagecheckerboard="0"
     showgrid="false"
     inkscape:zoom="17.681818"
     inkscape:cx="2.3470437"
     inkscape:cy="10.915167"
     inkscape:window-width="1920"
     inkscape:window-height="963"
     inkscape:window-x="0"
     inkscape:window-y="40"
     inkscape:window-maximized="1"
     inkscape:current-layer="svg12" />
  <defs
     id="defs3">
    <style
       id="current-color-scheme"
       type="text/css">.ColorScheme-Text { color:#363636; } .ColorScheme-Highlight { color:#4285f4; }</style>
  </defs>
  <g
     id="yakuake">
    <path
       class="ColorScheme-Text"
       d="m6 2c-2.216 0-4 1.784-4 4v10c0 2.216 1.784 4 4 4h10c2.216 0 4-1.784 4-4v-10c0-2.216-1.784-4-4-4h-10zm0 2h10c1.108 0 2 0.892 2 2v10c0 1.108-0.892 2-2 2h-10c-1.108 0-2-0.892-2-2v-10c0-1.108 0.892-2 2-2z"
       fill="currentColor"
       id="path5"
       style="fill:#242424;fill-opacity:1" />
    <path
       class="ColorScheme-Text"
       d="m6.4648 7.4648-0.70703 0.70703 2.8281 2.8281-2.8281 2.8281 0.70703 0.70703 3.5352-3.5352-3.5352-3.5352zm3.5352 6.5352v1h5v-1z"
       fill="currentColor"
       id="path7"
       style="fill:#242424;fill-opacity:1" />
    <rect
       width="22"
       height="22"
       fill="none"
       id="rect9" />
  </g>
</svg>
