<?xml version="1.0" encoding="UTF-8" standalone="no"?>
<svg
   xmlns:dc="http://purl.org/dc/elements/1.1/"
   xmlns:cc="http://creativecommons.org/ns#"
   xmlns:rdf="http://www.w3.org/1999/02/22-rdf-syntax-ns#"
   xmlns:svg="http://www.w3.org/2000/svg"
   xmlns="http://www.w3.org/2000/svg"
   xmlns:sodipodi="http://sodipodi.sourceforge.net/DTD/sodipodi-0.dtd"
   xmlns:inkscape="http://www.inkscape.org/namespaces/inkscape"
   viewBox="0 0 200 200"
   version="1.1"
   sodipodi:docname="kde.svg"
   inkscape:version="1.0 (4035a4fb49, 2020-05-01)"
   height="200"
   width="200"
   id="svg4379">
  <metadata
     id="metadata10">
    <rdf:RDF>
      <cc:Work
         rdf:about="">
        <dc:format>image/svg+xml</dc:format>
        <dc:type
           rdf:resource="http://purl.org/dc/dcmitype/StillImage" />
      </cc:Work>
    </rdf:RDF>
  </metadata>
  <defs
     id="defs8">
    <style
       id="current-color-scheme"
       type="text/css">
      .ColorScheme-Text {
        color:#31363b;
      }
      </style>
  </defs>
  <sodipodi:namedview
     inkscape:document-rotation="0"
     inkscape:snap-bbox-edge-midpoints="true"
     inkscape:bbox-nodes="true"
     inkscape:snap-bbox="true"
     showgrid="true"
     pagecolor="#dfe2e4"
     objecttolerance="10"
     inkscape:zoom="1.9975"
     inkscape:window-y="36"
     inkscape:window-x="0"
     inkscape:window-width="1920"
     inkscape:window-maximized="1"
     inkscape:window-height="936"
     inkscape:pageshadow="2"
     inkscape:pageopacity="0"
     inkscape:cy="137.81698"
     inkscape:cx="25.385291"
     inkscape:current-layer="svg4379"
     guidetolerance="10"
     gridtolerance="10"
     borderopacity="1"
     bordercolor="#666666"
     id="namedview39">
    <inkscape:grid
       type="xygrid"
       id="grid839" />
  </sodipodi:namedview>
  <path
     style="color:#31363b;fill:#ffffff;fill-opacity:1;stroke-width:13.9606"
     d="m 122.60965,39.21499 c 5.29697,-6.59496 8.88847,-15.5549 7.89756,-24.63621 -7.62917,0.32013 -17.13527,5.29915 -22.64132,11.70216 -4.86439,5.681 -9.185624,14.96714 -8.066422,23.71906 8.561612,0.63895 17.330712,-4.33228 22.810182,-10.78401 z m 19.30333,57.056915 C 141.73224,76.85134 157.8043,67.42102 158.53167,66.97148 149.4379,53.69899 135.33757,51.90103 130.36616,51.73624 c -11.84999,-1.20738 -23.32114,7.11992 -29.3661,7.11992 -6.152097,-8.3e-4 -15.443204,-6.9758 -25.448749,-6.77747 -12.897785,0.19314 -24.975469,7.66106 -31.587201,19.22654 -13.612051,23.636675 -3.464453,58.35391 9.609462,77.4143 6.549183,9.38248 14.178409,19.82539 24.183954,19.4136 9.786653,-0.37209 13.43509,-6.21387 25.264474,-6.21387 11.70487,0 15.13323,6.21387 25.34544,6.01395 10.50924,-0.17188 17.11849,-9.39943 23.44123,-18.82031 7.52964,-10.74756 10.57001,-21.28432 10.69133,-21.8455 -0.23507,-0.0868 -20.3699,-7.74493 -20.58631,-30.995315 z"
     id="path884"
     inkscape:connector-curvature="0" />
</svg>
