<?xml version="1.0" encoding="UTF-8" standalone="no"?>
<svg
   version="1.1"
   viewBox="0 0 54 32"
   id="svg15"
   sodipodi:docname="akonadi.svg"
   inkscape:version="1.2.1 (9c6d41e410, 2022-07-14)"
   xmlns:inkscape="http://www.inkscape.org/namespaces/inkscape"
   xmlns:sodipodi="http://sodipodi.sourceforge.net/DTD/sodipodi-0.dtd"
   xmlns="http://www.w3.org/2000/svg"
   xmlns:svg="http://www.w3.org/2000/svg">
  <sodipodi:namedview
     id="namedview17"
     pagecolor="#c8c8c8"
     bordercolor="#999999"
     borderopacity="1"
     inkscape:pageshadow="0"
     inkscape:pageopacity="0"
     inkscape:pagecheckerboard="0"
     showgrid="true"
     inkscape:zoom="8.7340783"
     inkscape:cx="25.074197"
     inkscape:cy="9.8464883"
     inkscape:window-width="1920"
     inkscape:window-height="936"
     inkscape:window-x="0"
     inkscape:window-y="40"
     inkscape:window-maximized="1"
     inkscape:current-layer="svg15"
     inkscape:snap-smooth-nodes="true"
     inkscape:snap-nodes="true"
     inkscape:snap-bbox="true"
     inkscape:bbox-nodes="true"
     inkscape:snap-bbox-edge-midpoints="true"
     inkscape:showpageshadow="0"
     inkscape:deskcolor="#c8c8c8">
    <inkscape:grid
       type="xygrid"
       id="grid846" />
  </sodipodi:namedview>
  <defs
     id="defs3">
    <style
       id="current-color-scheme"
       type="text/css">.ColorScheme-Text{color:#333333}</style>
  </defs>
  <g
     id="22-22-akonadi">
    <path
       id="path5"
       style="color:#333333;fill:#323232;-inkscape-stroke:none;fill-opacity:1"
       d="M 11 13 C 6.582 13 3 13.895 3 15 L 3 27 C 3 28.105 6.582 29 11 29 C 15.418 29 19 28.105 19 27 L 19 15 C 19 13.895 15.418 13 11 13 z M 11 15 C 14.866 15 17 15.448 17 16 C 17 16.552 14.866 17 11 17 C 7.134 17 5 16.552 5 16 C 5 15.448 7.134 15 11 15 z M 17 17.996094 L 17 20.033203 L 17 20.066406 L 17 21.033203 L 17 21.996094 L 17 23.070312 L 17 24.037109 L 17 25 L 17 26 C 17 26.01726 16.997388 26.033741 16.992188 26.050781 C 16.986988 26.067821 16.97899 26.084752 16.96875 26.101562 C 16.95851 26.118372 16.946811 26.135794 16.931641 26.152344 C 16.916471 26.168894 16.896933 26.184892 16.876953 26.201172 C 16.836993 26.233722 16.7889 26.265565 16.730469 26.296875 C 16.672029 26.328185 16.603248 26.358762 16.527344 26.388672 C 16.451444 26.418582 16.367757 26.448222 16.275391 26.476562 C 16.183021 26.504903 16.082433 26.531994 15.974609 26.558594 C 15.866784 26.585194 15.753136 26.612019 15.630859 26.636719 C 15.508583 26.661409 15.377911 26.684411 15.242188 26.707031 C 15.106464 26.729651 14.96457 26.751104 14.816406 26.771484 C 14.668241 26.791864 14.51507 26.812108 14.355469 26.830078 C 14.036268 26.866018 13.694852 26.896575 13.335938 26.921875 C 12.977047 26.947175 12.599568 26.967149 12.208984 26.980469 C 11.818399 26.993789 11.414213 27 11 27 C 10.585788 27 10.1816 26.993799 9.7910156 26.980469 C 9.4004345 26.967159 9.0229765 26.947175 8.6640625 26.921875 C 8.3051476 26.896575 7.9637323 26.866018 7.6445312 26.830078 C 7.4849298 26.812108 7.3317582 26.791864 7.1835938 26.771484 C 7.0354292 26.751104 6.8935356 26.729651 6.7578125 26.707031 C 6.6220894 26.684411 6.4914169 26.661409 6.3691406 26.636719 C 6.2468643 26.612029 6.1332155 26.585204 6.0253906 26.558594 C 5.9175666 26.531994 5.8169766 26.504903 5.7246094 26.476562 C 5.6322434 26.448222 5.5485605 26.418582 5.4726562 26.388672 C 5.3967482 26.358762 5.3279677 26.328195 5.2695312 26.296875 C 5.2110912 26.265565 5.1630093 26.233722 5.1230469 26.201172 C 5.1030669 26.184892 5.0835304 26.168894 5.0683594 26.152344 C 5.0531884 26.135794 5.041492 26.118373 5.03125 26.101562 C 5.021 26.084753 5.0129895 26.067821 5.0078125 26.050781 C 5.002584 26.033741 5 26.01726 5 26 L 5 25.003906 L 5 25 L 5 24.037109 L 5 23.074219 L 5 22 L 5 21.033203 L 5 20.070312 L 5 20.033203 L 5 18 C 5.075394 18.03982 5.156526 18.07929 5.2402344 18.117188 C 5.3239424 18.155088 5.410371 18.190658 5.5019531 18.226562 C 5.5935341 18.262463 5.6900438 18.298202 5.7890625 18.332031 C 5.8880815 18.365861 5.9896833 18.398008 6.0957031 18.429688 C 6.201722 18.461368 6.3112444 18.492034 6.4238281 18.521484 C 6.5364118 18.550934 6.6527738 18.580262 6.7714844 18.607422 C 7.0089064 18.661722 7.2563124 18.711205 7.515625 18.755859 C 7.7749375 18.800509 8.0445554 18.840599 8.3222656 18.875 C 8.5999767 18.9094 8.8851176 18.937387 9.1777344 18.960938 C 9.4703511 18.984488 9.7721426 19.003535 10.076172 19.015625 C 10.380202 19.027715 10.68805 19.033163 11 19.033203 C 11.312305 19.033065 11.621469 19.025902 11.925781 19.013672 C 12.230094 19.001452 12.529446 18.984638 12.822266 18.960938 C 13.115086 18.937248 13.399907 18.907607 13.677734 18.873047 C 13.95556 18.838487 14.226994 18.798737 14.486328 18.753906 C 14.745662 18.709076 14.995083 18.659956 15.232422 18.605469 C 15.351093 18.578229 15.46561 18.549081 15.578125 18.519531 C 15.69064 18.489991 15.800327 18.459504 15.90625 18.427734 C 16.012174 18.395964 16.113998 18.362045 16.212891 18.328125 C 16.311781 18.294205 16.408574 18.260605 16.5 18.224609 C 16.59143 18.188609 16.678198 18.151279 16.761719 18.113281 C 16.845239 18.075281 16.922661 18.029931 17 17.996094 z " />
    <path
       d="M0 10v22h22V10H0z"
       fill="none"
       id="path7" />
  </g>
  <g
     id="akonadi">
    <path
       id="path10"
       style="color:#333333;fill:#323232;-inkscape-stroke:none;fill-opacity:1"
       d="M 38 4 C 31.3726 4 26 5.3431 26 7 L 26 25 C 26 26.6569 31.3726 28 38 28 C 44.6274 28 50 26.6569 50 25 L 50 7 C 50 5.3431 44.6274 4 38 4 z M 38 6 C 44.0751 6 48 6.89543 48 8 C 48 9.10457 44.0751 10 38 10 C 31.9249 10 28 9.10457 28 8 C 28 6.89543 31.9249 6 38 6 z M 48 10 L 48 13.808594 L 48 14.808594 L 48 16 L 48 18.404297 L 48 19.595703 L 48 23 L 48 24 C 48.000103 24.104647 47.958608 24.209135 47.876953 24.3125 C 47.794483 24.415829 47.671944 24.517705 47.509766 24.617188 C 47.34826 24.717195 47.148123 24.814502 46.910156 24.908203 C 46.672188 25.001553 46.397907 25.091024 46.089844 25.175781 C 45.781823 25.260421 45.440694 25.340092 45.070312 25.414062 C 44.699762 25.487913 44.300632 25.555824 43.876953 25.617188 C 43.453451 25.678787 43.007475 25.733649 42.541016 25.78125 C 42.074106 25.82916 41.588529 25.86965 41.089844 25.902344 C 40.591677 25.934374 40.081529 25.958539 39.564453 25.974609 C 39.047159 25.991259 38.523945 25.99975 38 26 C 37.476055 25.999746 36.952841 25.991299 36.435547 25.974609 C 35.918471 25.958539 35.408323 25.934374 34.910156 25.902344 C 34.411471 25.869654 33.925894 25.829164 33.458984 25.78125 C 32.992525 25.73365 32.546549 25.678791 32.123047 25.617188 C 31.699368 25.555827 31.300239 25.487909 30.929688 25.414062 C 30.559306 25.340093 30.218177 25.260421 29.910156 25.175781 C 29.602093 25.091021 29.327812 25.001556 29.089844 24.908203 C 28.851877 24.814503 28.65174 24.717196 28.490234 24.617188 C 28.328056 24.517708 28.205519 24.415829 28.123047 24.3125 C 28.041394 24.209135 27.999897 24.104647 28 24 L 28 23 L 28 19.599609 L 28 18.404297 L 28 16.003906 L 28 14.808594 L 28 13.808594 L 28 10.003906 C 28.210305 10.136866 28.454496 10.265458 28.732422 10.388672 C 29.010654 10.511878 29.322074 10.629373 29.662109 10.740234 C 30.001641 10.851608 30.369089 10.956049 30.763672 11.052734 C 31.158396 11.148854 31.57847 11.236973 32.019531 11.316406 C 32.46085 11.395806 32.921992 11.466306 33.400391 11.527344 C 33.878984 11.589214 34.374723 11.641438 34.880859 11.683594 C 35.386265 11.725064 35.90194 11.756394 36.423828 11.777344 C 36.945957 11.798234 37.472375 11.808674 38 11.808594 C 38.528217 11.8087 39.05541 11.798254 39.578125 11.777344 C 40.10079 11.755774 40.617242 11.723791 41.123047 11.681641 C 41.628387 11.640101 42.121396 11.588531 42.599609 11.527344 C 43.078218 11.465674 43.541319 11.394525 43.982422 11.314453 C 44.423484 11.235023 44.841605 11.146898 45.236328 11.050781 C 45.631523 10.954111 46.001697 10.849672 46.341797 10.738281 C 46.681221 10.627404 46.989916 10.50991 47.267578 10.386719 C 47.545201 10.262862 48 10.266308 48 10 z " />
    <path
       d="M22 0v32h32V0H22z"
       fill="none"
       id="path12" />
  </g>
</svg>
