<?xml version="1.0" encoding="UTF-8" standalone="no"?>
<svg
   xmlns:dc="http://purl.org/dc/elements/1.1/"
   xmlns:cc="http://creativecommons.org/ns#"
   xmlns:rdf="http://www.w3.org/1999/02/22-rdf-syntax-ns#"
   xmlns:svg="http://www.w3.org/2000/svg"
   xmlns="http://www.w3.org/2000/svg"
   xmlns:sodipodi="http://sodipodi.sourceforge.net/DTD/sodipodi-0.dtd"
   xmlns:inkscape="http://www.inkscape.org/namespaces/inkscape"
   width="32"
   height="32"
   version="1.0"
   viewBox="0 0 32 32"
   id="svg133"
   sodipodi:docname="audio.svg"
   inkscape:version="1.0.2 (e86c870879, 2021-01-15)">
  <metadata
     id="metadata137">
    <rdf:RDF>
      <cc:Work
         rdf:about="">
        <dc:format>image/svg+xml</dc:format>
        <dc:type
           rdf:resource="http://purl.org/dc/dcmitype/StillImage" />
        <dc:title></dc:title>
      </cc:Work>
    </rdf:RDF>
  </metadata>
  <sodipodi:namedview
     pagecolor="#323232"
     bordercolor="#666666"
     borderopacity="1"
     objecttolerance="10"
     gridtolerance="10"
     guidetolerance="10"
     inkscape:pageopacity="0"
     inkscape:pageshadow="2"
     inkscape:window-width="1920"
     inkscape:window-height="940"
     id="namedview135"
     showgrid="true"
     inkscape:snap-smooth-nodes="true"
     inkscape:snap-bbox="true"
     inkscape:bbox-nodes="true"
     inkscape:snap-bbox-edge-midpoints="true"
     inkscape:zoom="2.135131"
     inkscape:cx="-27.529433"
     inkscape:cy="6.4231505"
     inkscape:window-x="0"
     inkscape:window-y="40"
     inkscape:window-maximized="1"
     inkscape:current-layer="svg133">
    <inkscape:grid
       type="xygrid"
       id="grid974" />
  </sodipodi:namedview>
  <defs
     id="defs3">
    <style
       id="current-color-scheme"
       type="text/css">.ColorScheme-Text { color:#363636; }</style>
  </defs>
  <g
     id="22-22-audio-volume-high"
     class="ColorScheme-Text"
     transform="translate(7.893,-6.7419)"
     fill="currentColor">
    <rect
       x="-54.893"
       y="-22.258"
       width="24"
       height="24"
       ry="0"
       opacity="0"
       id="rect5" />
    <g
       transform="translate(-14.862,2.5994)"
       id="g13">
      <path
         d="m-27.781-20.654c-0.22873-0.01291-0.46234 0.05388-0.62305 0.18555l-4.4062 3.6113h-3.2207c-1.108 0-2 0.892-2 2v4c0 1.108 0.892 2 2 2h3.2207l4.4062 3.6113c0.1607 0.13168 0.39439 0.1984 0.62305 0.18555 0.38109-0.021513 0.75-0.26516 0.75-0.79688v-14c0-0.53171-0.36878-0.77536-0.75-0.79688z"
         id="path7" />
      <path
         d="m-20.001-19.446-1.7422 0.99414a10 10 0 0 1 1.7129 5.5938 10 10 0 0 1-1.7109 5.5938l1.7402 0.99414a12 12 0 0 0 1.9707-6.5879 12 12 0 0 0-1.9707-6.5879z"
         id="path9" />
      <path
         d="m-23.486-17.456-1.7441 0.99805a6 6 0 0 1 1.1992 3.5996 6 6 0 0 1-1.2012 3.5996l1.748 0.99805a8 8 0 0 0 1.4531-4.5977 8 8 0 0 0-1.4551-4.5977z"
         id="path11" />
    </g>
  </g>
  <g
     id="22-22-audio-volume-medium"
     class="ColorScheme-Text"
     transform="translate(7.893,27.258)"
     fill="currentColor">
    <rect
       x="-54.893"
       y="-22.258"
       width="24"
       height="24"
       ry="0"
       opacity="0"
       id="rect16" />
    <g
       transform="translate(-14.862,2.5994)"
       id="g24">
      <path
         d="m-27.781-20.654c-0.22873-0.01291-0.46234 0.05388-0.62305 0.18555l-4.4062 3.6113h-3.2207c-1.108 0-2 0.892-2 2v4c0 1.108 0.892 2 2 2h3.2207l4.4062 3.6113c0.1607 0.13168 0.39439 0.1984 0.62305 0.18555 0.38109-0.021513 0.75-0.26516 0.75-0.79688v-14c0-0.53171-0.36878-0.77536-0.75-0.79688z"
         id="path18" />
      <path
         d="m-20.001-19.446-1.7422 0.99414a10 10 0 0 1 1.7129 5.5938 10 10 0 0 1-1.7109 5.5938l1.7402 0.99414a12 12 0 0 0 1.9707-6.5879 12 12 0 0 0-1.9707-6.5879z"
         opacity=".35"
         id="path20" />
      <path
         d="m-23.486-17.456-1.7441 0.99805a6 6 0 0 1 1.1992 3.5996 6 6 0 0 1-1.2012 3.5996l1.748 0.99805a8 8 0 0 0 1.4531-4.5977 8 8 0 0 0-1.4551-4.5977z"
         id="path22" />
    </g>
  </g>
  <g
     id="22-22-audio-volume-low"
     class="ColorScheme-Text"
     transform="translate(7.893,58.258)"
     fill="currentColor">
    <rect
       x="-54.893"
       y="-22.258"
       width="24"
       height="24"
       ry="0"
       opacity="0"
       id="rect27" />
    <g
       transform="translate(-14.862,2.5994)"
       id="g35">
      <path
         d="m-27.781-20.654c-0.22873-0.01291-0.46234 0.05388-0.62305 0.18555l-4.4062 3.6113h-3.2207c-1.108 0-2 0.892-2 2v4c0 1.108 0.892 2 2 2h3.2207l4.4062 3.6113c0.1607 0.13168 0.39439 0.1984 0.62305 0.18555 0.38109-0.021513 0.75-0.26516 0.75-0.79688v-14c0-0.53171-0.36878-0.77536-0.75-0.79688z"
         stroke-width="3.0237"
         style="paint-order:stroke fill markers"
         id="path29" />
      <path
         d="m-20.001-19.446-1.7422 0.99414a10 10 0 0 1 1.7129 5.5938 10 10 0 0 1-1.7109 5.5938l1.7402 0.99414a12 12 0 0 0 1.9707-6.5879 12 12 0 0 0-1.9707-6.5879z"
         opacity=".35"
         id="path31" />
      <path
         d="m-23.486-17.456-1.7441 0.99805a6 6 0 0 1 1.1992 3.5996 6 6 0 0 1-1.2012 3.5996l1.748 0.99805a8 8 0 0 0 1.4531-4.5977 8 8 0 0 0-1.4551-4.5977z"
         opacity=".35"
         id="path33" />
    </g>
  </g>
  <g
     id="22-22-audio-volume-muted"
     class="ColorScheme-Text"
     fill="currentColor">
    <g
       transform="translate(7.893,87.258)"
       id="g44">
      <rect
         x="-54.893"
         y="-22.258"
         width="24"
         height="24"
         ry="0"
         opacity="0"
         id="rect38" />
      <g
         transform="translate(-14.862,2.5994)"
         id="g42">
        <path
           transform="translate(6.9691,-89.857)"
           d="m-34.75 69.203c-0.22873-0.01291-0.46234 0.05388-0.62305 0.18555l-2.4219 1.9863 3.7949 3.7949v-5.1699c0-0.53171-0.36878-0.77536-0.75-0.79688zm7.7793 1.209-1.7422 0.99414a10 10 0 0 1 1.7129 5.5938 10 10 0 0 1-0.93945 4.2305l1.4883 1.4883a12 12 0 0 0 1.4512-5.7188 12 12 0 0 0-1.9707-6.5879zm-3.4844 1.9902-1.7441 0.99805a6 6 0 0 1 1.1992 3.5996 6 6 0 0 1-0.09766 1.0723l1.6289 1.6289a8 8 0 0 0 0.46875-2.7012 8 8 0 0 0-1.4551-4.5977zm-12.545 0.59766c-1.108 0-2 0.892-2 2v4c0 1.108 0.892 2 2 2h3.2207l4.4062 3.6113c0.1607 0.13168 0.39439 0.1984 0.62305 0.18555 0.38109-0.02151 0.75-0.26516 0.75-0.79688v-3.1719l-7.8281-7.8281h-1.1719z"
           id="path40" />
      </g>
    </g>
    <path
       d="m-44.192 69.222 1.4142-1.4142 16.971 16.971-1.4142 1.4142z"
       id="path46" />
  </g>
  <path
     d="m -9,12 h -4.604 c -0.736,0 -1.3333,0.59733 -1.3333,1.3333 v 5.3333 c 0,0.73601 0.59733,1.3334 1.3333,1.3334 H -9 l 4.396,4 h 0.66666 V 8 H -4.604 Z"
     id="path53"
     style="color:#363636;fill:#363636" />
  <g
     id="16-16-audio-volume-high"
     transform="translate(37 -2.9997)"><rect
   class="ColorScheme-Text"
   x="-47"
   y="-67"
   width="16"
   height="16"
   ry="0"
   fill="currentColor"
   opacity="0"
   id="rect93" />
fill=&quot;none&quot;/&gt;
  <g
   class="ColorScheme-Text"
   fill="currentColor"
   id="g101">
  <path
     class="ColorScheme-Text"
     d="m-38.614-65.107c-0.18714-0.01056-0.37828 0.04408-0.50977 0.15181l-3.6051 2.9547h-2.6351c-0.90655 0-1.6364 0.72982-1.6364 1.6364v2.7273c0 0.90655 0.72982 1.6364 1.6364 1.6364h2.6351l3.6051 2.9547c0.13148 0.10774 0.32268 0.16233 0.50977 0.15182 0.3118-0.0176 0.61364-0.21695 0.61364-0.652v-10.909c0-0.43504-0.30173-0.63439-0.61364-0.652z"
     fill="currentColor"
     id="path95" />
  <path
     d="m-35.057-62.971-1.793 0.89453a6 6 0 0 1 0.84961 3.0762 6 6 0 0 1-0.84961 3.0762l1.7949 0.89648a8 8 0 0 0 1.0547-3.9727 8 8 0 0 0-1.0566-3.9707z"
     id="path97" />
  <path
     d="m-32.371-64.314-1.791 0.89453a9 9 0 0 1 1.1621 4.4199 9 9 0 0 1-1.1602 4.4199l1.7891 0.89453a11 11 0 0 0 1.3711-5.3145 11 11 0 0 0-1.3711-5.3145z"
     id="path99" />
</g>
</g>
  <g
     id="16-16-audio-volume-medium"
     transform="translate(62 -2.9997)"><rect
   class="ColorScheme-Text"
   x="-47"
   y="-67"
   width="16"
   height="16"
   ry="0"
   fill="currentColor"
   opacity="0"
   id="rect104" />
fill=&quot;none&quot;/&gt;
  <g
   class="ColorScheme-Text"
   fill="currentColor"
   id="g112">
  <path
     class="ColorScheme-Text"
     d="m-38.614-65.107c-0.18714-0.01056-0.37828 0.04408-0.50977 0.15181l-3.6051 2.9547h-2.6351c-0.90655 0-1.6364 0.72982-1.6364 1.6364v2.7273c0 0.90655 0.72982 1.6364 1.6364 1.6364h2.6351l3.6051 2.9547c0.13148 0.10774 0.32268 0.16233 0.50977 0.15182 0.3118-0.0176 0.61364-0.21695 0.61364-0.652v-10.909c0-0.43504-0.30173-0.63439-0.61364-0.652z"
     fill="currentColor"
     id="path106" />
  <path
     d="m-35.057-62.971-1.793 0.89453a6 6 0 0 1 0.84961 3.0762 6 6 0 0 1-0.84961 3.0762l1.7949 0.89648a8 8 0 0 0 1.0547-3.9727 8 8 0 0 0-1.0566-3.9707z"
     id="path108" />
  <path
     d="m-32.371-64.314-1.791 0.89453a9 9 0 0 1 1.1621 4.4199 9 9 0 0 1-1.1602 4.4199l1.7891 0.89453a11 11 0 0 0 1.3711-5.3145 11 11 0 0 0-1.3711-5.3145z"
     opacity=".35"
     id="path110" />
</g>
</g>
  <g
     id="16-16-audio-volume-low"
     transform="translate(85 -2.9997)"><rect
   class="ColorScheme-Text"
   x="-47"
   y="-67"
   width="16"
   height="16"
   ry="0"
   fill="currentColor"
   opacity="0"
   id="rect115" />
fill=&quot;none&quot;/&gt;
  <g
   class="ColorScheme-Text"
   fill="currentColor"
   id="g123">
  <path
     class="ColorScheme-Text"
     d="m-38.614-65.107c-0.18714-0.01056-0.37828 0.04408-0.50977 0.15181l-3.6051 2.9547h-2.6351c-0.90655 0-1.6364 0.72982-1.6364 1.6364v2.7273c0 0.90655 0.72982 1.6364 1.6364 1.6364h2.6351l3.6051 2.9547c0.13148 0.10774 0.32268 0.16233 0.50977 0.15182 0.3118-0.0176 0.61364-0.21695 0.61364-0.652v-10.909c0-0.43504-0.30173-0.63439-0.61364-0.652z"
     fill="currentColor"
     id="path117" />
  <path
     d="m-35.057-62.971-1.793 0.89453a6 6 0 0 1 0.84961 3.0762 6 6 0 0 1-0.84961 3.0762l1.7949 0.89648a8 8 0 0 0 1.0547-3.9727 8 8 0 0 0-1.0566-3.9707z"
     opacity=".35"
     id="path119" />
  <path
     d="m-32.371-64.314-1.791 0.89453a9 9 0 0 1 1.1621 4.4199 9 9 0 0 1-1.1602 4.4199l1.7891 0.89453a11 11 0 0 0 1.3711-5.3145 11 11 0 0 0-1.3711-5.3145z"
     opacity=".35"
     id="path121" />
</g>
</g>
  <g
     id="16-16-audio-volume-muted"><rect
   class="ColorScheme-Text"
   x="61"
   y="-70"
   width="16"
   height="16"
   ry="0"
   fill="currentColor"
   opacity="0"
   id="rect126" />
fill=&quot;none&quot; opacity=&quot;0&quot;/&gt;
  <path
   class="ColorScheme-Text"
   d="m69.387-68.105c-0.18714-0.01056-0.37828 0.04266-0.50977 0.15039l-1.6504 1.3516 2.7734 2.7734v-3.625c0-0.43504-0.30137-0.63278-0.61328-0.65039zm6.2422 0.79102-1.791 0.89453a9 9 0 0 1 1.1621 4.4199 9 9 0 0 1-0.42773 2.7422l1.5527 1.5527a11 11 0 0 0 0.875-4.2949 11 11 0 0 0-1.3711-5.3145zm-2.6855 1.3438-1.793 0.89453a6 6 0 0 1 0.84961 3.0762 6 6 0 0 1-0.003906 0.16602l1.7656 1.7656a8 8 0 0 0 0.23828-1.9316 8 8 0 0 0-1.0566-3.9707zm-10.307 0.9707c-0.90655 0-1.6367 0.73017-1.6367 1.6367v2.7266c0 0.90655 0.73017 1.6367 1.6367 1.6367h2.6348l3.6055 2.9551c0.13148 0.10774 0.32268 0.16286 0.50977 0.15234 0.3118-0.0176 0.61328-0.2173 0.61328-0.65234v-1.625l-6.8301-6.8301h-0.5332z"
   fill="currentColor"
   id="path128" />
class=&quot;ColorScheme-Text&quot; fill=&quot;currentColor&quot; /&gt;
  <rect
   class="ColorScheme-Text"
   transform="rotate(45)"
   x="-5.0503"
   y="-93.631"
   width="20"
   height="2"
   rx="1"
   ry="1"
   fill="currentColor"
   id="rect130" />
</g>
  <g
     id="audio-volume-high">
    <path
       d="m 26.137,4.8613 -1.6836,1.0938 a 16,16 0 0 1 3.5469,10.045 16,16 0 0 1 -3.5469,10.045 l 1.6855,1.0957 a 18,18 0 0 0 3.8613,-11.141 18,18 0 0 0 -3.8633,-11.139 z"
       id="path49"
       style="color:#363636;fill:#ffffff;fill-opacity:1" />
    <rect
       x="-6.7138999e-06"
       y="9.7656002e-06"
       width="32"
       height="32"
       ry="0.35556"
       opacity="0"
       id="rect51"
       style="color:#363636;fill:#363636" />
    <path
       d="M 21.922,7.6016 20.2286,8.7012 A 11,11 0 0 1 23.0001,16 11,11 0 0 1 20.2286,23.2988 l 1.6934,1.0996 A 13,13 0 0 0 25.0001,16 13,13 0 0 0 21.922,7.6016 Z"
       id="path55"
       style="color:#363636;fill:#ffffff;fill-opacity:1" />
    <path
       d="m 17.674,10.361 -1.7246,1.1211 a 6,6 0 0 1 2.0508,4.5176 6,6 0 0 1 -2.0508,4.5176 l 1.7246,1.1211 A 8,8 0 0 0 20.0002,15.9997 8,8 0 0 0 17.674,10.361 Z"
       id="path57"
       style="color:#363636;fill:#ffffff;fill-opacity:1" />
    <path
       d="m 13.25,8.0016171 c -0.22873,-0.013244 -0.46234,0.055273 -0.62305,0.1903463 l -4.4062,3.7046476 h -3.2207 c -1.108,0 -2,0.915057 -2,2.051698 v 4.103395 c 0,1.136641 0.892,2.051697 2,2.051697 h 3.2207 l 4.4062,3.704648 c 0.1607,0.135084 0.39439,0.203529 0.62305,0.190347 C 13.63109,23.97633 14,23.726381 14,23.180916 V 8.8190339 C 14,8.2735799 13.63122,8.0236318 13.25,8.0015556 Z"
       id="path964"
       style="color:#363636;fill:#ffffff;stroke-width:1.01284;fill-opacity:1" />
  </g>
  <g
     id="audio-volume-medium"
     transform="translate(40.99995)">
    <path
       d="m 26.137,4.8613 -1.6836,1.0938 a 16,16 0 0 1 3.5469,10.045 16,16 0 0 1 -3.5469,10.045 l 1.6855,1.0957 a 18,18 0 0 0 3.8613,-11.141 18,18 0 0 0 -3.8633,-11.139 z"
       id="path996"
       style="color:#363636;opacity:0.35;fill:#ffffff;fill-opacity:1" />
    <rect
       x="-6.7138999e-06"
       y="9.7656002e-06"
       width="32"
       height="32"
       ry="0.35556"
       opacity="0"
       id="rect998"
       style="color:#363636;fill:#363636" />
    <path
       d="M 21.922,7.6016 20.2286,8.7012 A 11,11 0 0 1 23.0001,16 11,11 0 0 1 20.2286,23.2988 l 1.6934,1.0996 A 13,13 0 0 0 25.0001,16 13,13 0 0 0 21.922,7.6016 Z"
       id="path1000"
       style="color:#363636;fill:#ffffff;fill-opacity:1" />
    <path
       d="m 17.674,10.361 -1.7246,1.1211 a 6,6 0 0 1 2.0508,4.5176 6,6 0 0 1 -2.0508,4.5176 l 1.7246,1.1211 A 8,8 0 0 0 20.0002,15.9997 8,8 0 0 0 17.674,10.361 Z"
       id="path1002"
       style="color:#363636;fill:#ffffff;fill-opacity:1" />
    <path
       d="m 13.25,8.0016171 c -0.22873,-0.013244 -0.46234,0.055273 -0.62305,0.1903463 l -4.4062,3.7046476 h -3.2207 c -1.108,0 -2,0.915057 -2,2.051698 v 4.103395 c 0,1.136641 0.892,2.051697 2,2.051697 h 3.2207 l 4.4062,3.704648 c 0.1607,0.135084 0.39439,0.203529 0.62305,0.190347 C 13.63109,23.97633 14,23.726381 14,23.180916 V 8.8190339 C 14,8.2735799 13.63122,8.0236318 13.25,8.0015556 Z"
       id="path1004"
       style="color:#363636;fill:#ffffff;stroke-width:1.01284;fill-opacity:1" />
  </g>
  <g
     id="audio-volume-low"
     transform="translate(81)">
    <path
       d="m 26.137,4.8613 -1.6836,1.0938 a 16,16 0 0 1 3.5469,10.045 16,16 0 0 1 -3.5469,10.045 l 1.6855,1.0957 a 18,18 0 0 0 3.8613,-11.141 18,18 0 0 0 -3.8633,-11.139 z"
       id="path1008"
       style="color:#363636;opacity:0.35;fill:#ffffff;fill-opacity:1" />
    <rect
       x="-6.7138999e-06"
       y="9.7656002e-06"
       width="32"
       height="32"
       ry="0.35556"
       opacity="0"
       id="rect1010"
       style="color:#363636;fill:#363636" />
    <path
       d="M 21.922,7.6016 20.2286,8.7012 A 11,11 0 0 1 23.0001,16 11,11 0 0 1 20.2286,23.2988 l 1.6934,1.0996 A 13,13 0 0 0 25.0001,16 13,13 0 0 0 21.922,7.6016 Z"
       id="path1012"
       style="color:#363636;opacity:0.35;fill:#ffffff;fill-opacity:1" />
    <path
       d="m 17.674,10.361 -1.7246,1.1211 a 6,6 0 0 1 2.0508,4.5176 6,6 0 0 1 -2.0508,4.5176 l 1.7246,1.1211 A 8,8 0 0 0 20.0002,15.9997 8,8 0 0 0 17.674,10.361 Z"
       id="path1014"
       style="color:#363636;fill:#ffffff;fill-opacity:1" />
    <path
       d="m 13.25,8.0016171 c -0.22873,-0.013244 -0.46234,0.055273 -0.62305,0.1903463 l -4.4062,3.7046476 h -3.2207 c -1.108,0 -2,0.915057 -2,2.051698 v 4.103395 c 0,1.136641 0.892,2.051697 2,2.051697 h 3.2207 l 4.4062,3.704648 c 0.1607,0.135084 0.39439,0.203529 0.62305,0.190347 C 13.63109,23.97633 14,23.726381 14,23.180916 V 8.8190339 C 14,8.2735799 13.63122,8.0236318 13.25,8.0015556 Z"
       id="path1016"
       style="color:#363636;fill:#ffffff;stroke-width:1.01284;fill-opacity:1" />
  </g>
  <rect
     x="122"
     y="34.999741"
     width="24"
     height="24"
     ry="0"
     opacity="0"
     id="rect1020"
     style="color:#363636;fill:#363636" />
  <g
     id="audio-volume-muted">
    <path
       d="m 147.14,4.8613 -1.6836,1.0938 c 2.29498,2.8448963 3.54669,6.389819 3.5469,10.045 -5.4e-4,2.565884 -0.61817,5.094006 -1.8008,7.3711 l 1.4766,1.4766 c 1.52373,-2.699872 2.32432,-5.747527 2.3242,-8.8477 -7.7e-4,-4.041414 -1.36157,-7.9649855 -3.8633,-11.139 z m -4.2148,2.7402 -1.6934,1.0996 c 1.78519,2.012219 2.77118,4.608831 2.7715,7.2988 -2.5e-4,1.216248 -0.20221,2.424033 -0.59765,3.5742 l 1.5449,1.5449 c 0.69381,-1.617512 1.05195,-3.359066 1.0527,-5.1191 -3.2e-4,-3.075432 -1.09096,-6.051159 -3.0781,-8.3984 z m -4.248,2.75974 -1.7246,1.1211 c 1.06831,0.934553 1.77072,2.217579 1.9824,3.6211 l 1.9922,1.9922 c 0.0505,-0.363056 0.0759,-0.729152 0.0762,-1.0957 -3.1e-4,-2.113015 -0.83656,-4.140097 -2.3262,-5.6387 z m -0.8867,9.2558 c -0.24772,0.32804 -0.52849,0.629755 -0.83789,0.90039 l 1.7246,1.1211 c 0.18894,-0.190097 0.3682,-0.389569 0.53711,-0.59766 l -1.4238,-1.4238 z m 3.5547,3.5527 c -0.0374,0.04326 -0.0752,0.08623 -0.11328,0.12891 l 0.68555,0.44531 z"
       id="path86"
       style="color:#363636;fill:#ffffff;fill-opacity:1"
       sodipodi:nodetypes="cccccccccccccccccccccccccccccccc" />
    <rect
       x="121"
       y="9.7656002e-06"
       width="32"
       height="32"
       ry="0.35556"
       opacity="0"
       id="rect88"
       style="color:#363636;fill:#363636" />
    <rect
       transform="rotate(-45)"
       x="84.559502"
       y="92.1875"
       width="2"
       height="32"
       id="rect90"
       style="color:#363636;fill:#363636" />
    <path
       id="path1052"
       style="color:#363636;fill:#ffffff;stroke-width:1.01284;fill-opacity:1"
       d="M 134.25 8.0019531 C 134.02127 7.9887131 133.78766 8.0563303 133.62695 8.1914062 L 132.75195 8.9257812 L 135 11.173828 L 135 8.8183594 C 135 8.2729054 134.63122 8.0240291 134.25 8.0019531 z M 129.67969 11.509766 L 129.2207 11.896484 L 126 11.896484 C 124.892 11.896484 124 12.812578 124 13.949219 L 124 18.050781 C 124 19.187422 124.892 20.103516 126 20.103516 L 129.2207 20.103516 L 133.62695 23.808594 C 133.78765 23.943678 134.02134 24.011229 134.25 23.998047 C 134.63109 23.975977 135 23.727106 135 23.181641 L 135 16.830078 L 129.67969 11.509766 z " />
    <path
       style="color:#363636;font-style:normal;font-variant:normal;font-weight:normal;font-stretch:normal;font-size:medium;line-height:normal;font-family:sans-serif;font-variant-ligatures:normal;font-variant-position:normal;font-variant-caps:normal;font-variant-numeric:normal;font-variant-alternates:normal;font-variant-east-asian:normal;font-feature-settings:normal;font-variation-settings:normal;text-indent:0;text-align:start;text-decoration:none;text-decoration-line:none;text-decoration-style:solid;text-decoration-color:#000000;letter-spacing:normal;word-spacing:normal;text-transform:none;writing-mode:lr-tb;direction:ltr;text-orientation:mixed;dominant-baseline:auto;baseline-shift:baseline;text-anchor:start;white-space:normal;shape-padding:0;shape-margin:0;inline-size:0;clip-rule:nonzero;display:inline;overflow:visible;visibility:visible;isolation:auto;mix-blend-mode:normal;color-interpolation:sRGB;color-interpolation-filters:linearRGB;solid-color:#000000;solid-opacity:1;vector-effect:none;fill:#ffffff;fill-opacity:1;fill-rule:nonzero;stroke:none;stroke-width:2;stroke-linecap:butt;stroke-linejoin:miter;stroke-miterlimit:4;stroke-dasharray:none;stroke-dashoffset:0;stroke-opacity:1;color-rendering:auto;image-rendering:auto;shape-rendering:auto;text-rendering:auto;enable-background:accumulate;stop-color:#000000"
       d="m 124.979,5.3938091 1.41422,-1.4142135 22.62741,22.6274174 -1.41421,1.414213 z"
       id="path1066" />
  </g>
</svg>
