<?xml version="1.0" encoding="UTF-8" standalone="no"?>
<svg
   id="svg38"
   viewBox="0 0 54 32"
   version="1.1"
   sodipodi:docname="drive.svg"
   inkscape:version="1.1.1 (3bf5ae0d25, 2021-09-20)"
   xmlns:inkscape="http://www.inkscape.org/namespaces/inkscape"
   xmlns:sodipodi="http://sodipodi.sourceforge.net/DTD/sodipodi-0.dtd"
   xmlns="http://www.w3.org/2000/svg"
   xmlns:svg="http://www.w3.org/2000/svg"
   xmlns:rdf="http://www.w3.org/1999/02/22-rdf-syntax-ns#"
   xmlns:cc="http://creativecommons.org/ns#"
   xmlns:dc="http://purl.org/dc/elements/1.1/">
  <sodipodi:namedview
     id="namedview23"
     pagecolor="#c8c8c8"
     bordercolor="#999999"
     borderopacity="1"
     inkscape:pageshadow="0"
     inkscape:pageopacity="0"
     inkscape:pagecheckerboard="0"
     showgrid="true"
     inkscape:zoom="15.608727"
     inkscape:cx="13.037578"
     inkscape:cy="46.832774"
     inkscape:window-width="1920"
     inkscape:window-height="963"
     inkscape:window-x="0"
     inkscape:window-y="40"
     inkscape:window-maximized="1"
     inkscape:current-layer="svg38"
     inkscape:snap-bbox="true"
     inkscape:bbox-nodes="true"
     inkscape:snap-nodes="true">
    <inkscape:grid
       type="xygrid"
       id="grid839" />
  </sodipodi:namedview>
  <metadata
     id="metadata40">
    <rdf:RDF>
      <cc:Work
         rdf:about="">
        <dc:format>image/svg+xml</dc:format>
        <dc:type
           rdf:resource="http://purl.org/dc/dcmitype/StillImage" />
      </cc:Work>
    </rdf:RDF>
  </metadata>
  <defs
     id="defs5">
    <style
       type="text/css"
       id="current-color-scheme">.ColorScheme-Text { color:#363636; }</style>
  </defs>
  <g
     fill="currentColor"
     transform="translate(33.847 58)"
     class="ColorScheme-Text"
     id="16-16-drive">
    <path
       id="path7"
       fill="none"
       d="m-14.847 16v16h16v-16z" />
    <g
       id="g19"
       transform="translate(-7.6681 -11.971)">
      <g
         id="g15"
         transform="translate(-449.18 -148.03)">
        <path
           id="path9"
           d="m446 176c-1.108 0-1.8626 0.90056-2 2l-1 8v4c0 1.108 0.892 2 2 2h10c1.108 0 2-0.892 2-2v-4l-1-8c-0.13743-1.0994-0.892-2-2-2zm0 1h8c0.554 0 0.93128 0.45028 1 1l1 8v4c0 0.554-0.446 1-1 1h-10c-0.554 0-1-0.446-1-1v-4l1-8c0.0687-0.54972 0.446-1 1-1z"
           style="fill:#ffffff;fill-opacity:1" />
        <path
           id="path11"
           d="m444 186-0.1355 1c-0.0744 0.54898 0.45608 1 1.0226 1h10.226c0.56651 0 1.097-0.45102 1.0226-1l-0.13549-1c0 0.554-0.32058 1-0.88709 1h-10.226c-0.56651 0-0.88709-0.446-0.88709-1z"
           style="fill:#ffffff;fill-opacity:1" />
        <rect
           id="rect13"
           height="1"
           width="1"
           y="189"
           x="454"
           style="fill:#ffffff;fill-opacity:1" />
      </g>
      <path
         id="path17"
         d="m-1.2984 29.968-1.415 1.315 0.707 0.657 1.414-1.314zm4.241 0-0.707 0.658 1.414 1.314 0.707-0.657zm-2.12 1.428c-1.1 0-2 0.837-2 1.857s0.9 1.858 2 1.858c1.098 0 2-0.838 2-1.858s-0.902-1.857-2-1.857zm0 0.928c0.557 0 1 0.41 1 0.93 0 0.517-0.443 0.928-1 0.928-0.559 0-1-0.41-1-0.929 0-0.518 0.441-0.929 1-0.929zm-1 3.715v0.929h2v-0.929z"
         style="fill:#ffffff;fill-opacity:1" />
    </g>
  </g>
  <g
     fill="currentColor"
     transform="translate(-32 -35)"
     class="ColorScheme-Text"
     id="drive">
    <rect
       id="rect31"
       fill="none"
       height="32"
       width="32"
       y="35"
       x="43" />
    <path
       id="path33"
       d="m51 39c-1.662 0-2.6099 1.3844-3 3l-3.8613 15.988c-8.4e-4 4e-3 -9.53e-4 8e-3 -2e-3 0.01172h2e-3c-0.0825 0.321-0.13867 0.65255-0.13867 1 0 2.216 1.784 4 4 4h22c2.216 0 4-1.784 4-4 0-0.34745-0.0562-0.679-0.13867-1h0.02148l-3.8828-16c-0.39187-1.6151-1.338-3-3-3zm4.916 3.8184 1.0273 0.95703-2.0566 1.9121-1.0293-0.95703zm6.1699 0 2.0566 1.9121-1.0293 0.95703-2.0566-1.9121zm-3.084 2.0762c1.5971 0 2.9082 1.2175 2.9082 2.7012 0 1.4836-1.3111 2.7031-2.9082 2.7031-1.6 0-2.9102-1.2195-2.9102-2.7031s1.3102-2.7012 2.9102-2.7012zm0 1.3496c-0.81309 0-1.4551 0.59811-1.4551 1.3516 0 0.75491 0.64199 1.3516 1.4551 1.3516 0.81018 0 1.4531-0.59761 1.4531-1.3496 0-0.75636-0.64294-1.3535-1.4531-1.3535zm-1.4551 5.4043h2.9082v1.3516h-2.9082zm-9.5469 5.3516h22c1.108 0 2 0.89199 2 2s-0.89199 2-2 2h-22c-1.108 0-2-0.89199-2-2s0.89199-2 2-2z"
       style="fill:#ffffff;fill-opacity:1" />
    <ellipse
       id="ellipse35"
       ry="1"
       rx="1"
       cy="59"
       cx="68"
       style="fill:#ffffff;fill-opacity:1" />
  </g>
  <g
     id="22-22-drive">
    <path
       id="path28"
       d="M 25.200849,46.000566 24,47.127603 l 0.6,0.563089 1.2,-1.126179 z m 3.599151,0 -0.6,0.563947 1.2,1.126179 0.6,-0.563089 z m -1.799151,1.223884 c -0.933522,0 -1.697313,0.717362 -1.697313,1.591565 0,0.874203 0.763791,1.592421 1.697313,1.592421 0.931824,0 1.697312,-0.718218 1.697312,-1.592421 0,-0.874203 -0.765488,-1.591565 -1.697312,-1.591565 z m 0,0.795354 c 0.472701,0 0.848656,0.351395 0.848656,0.797068 0,0.443101 -0.375955,0.795354 -0.848656,0.795354 -0.474399,0 -0.848657,-0.351396 -0.848657,-0.796211 0,-0.443958 0.374258,-0.796211 0.848657,-0.796211 z m -0.848657,3.183985 V 52 h 1.697313 v -0.796211 z"
       style="color:#363636;fill:#ffffff;fill-opacity:1;stroke-width:0.852848" />
    <rect
       y="40.000004"
       x="16"
       height="22"
       width="22"
       id="rect817-1"
       style="clip-rule:evenodd;fill:#ffffff;fill-opacity:0;fill-rule:evenodd;stroke-width:0.546348;stroke-linejoin:round;stroke-miterlimit:1.41421" />
    <g
       transform="translate(-310,-515.36218)"
       id="g955">
      <g
         id="g953"
         transform="translate(-27.04883,-3.99998)">
        <path
           id="path15"
           transform="translate(321,529.36218)"
           d="m 38.048828,33 c -1.5802,0 -2.853762,1.214119 -2.976562,2.761719 L 33.09375,45.558594 C 33.07225,45.703934 33.04883,45.84852 33.04883,46 c 0,1.662 1.338,3 3,3 h 14 c 1.662,0 3,-1.338 3,-3 0,-0.15148 -0.02342,-0.296066 -0.04492,-0.441406 L 51.025391,35.761719 C 50.902571,34.214119 49.629128,33 48.048828,33 Z m 0,2 h 10 c 0.46959,0 0.844565,0.326699 0.953125,0.761719 l 1.501953,7.283203 C 50.354336,43.022222 50.204958,43 50.048828,43 h -14 c -0.15613,0 -0.305508,0.02222 -0.455078,0.04492 l 1.501953,-7.283203 C 37.204273,35.326699 37.579248,35 38.048828,35 Z M 36,45 h 14 c 0.554,0 1,0.446 1,1 0,0.554 -0.446,1 -1,1 H 36 c -0.554,0 -1,-0.446 -1,-1 0,-0.554 0.446,-1 1,-1 z"
           style="color:#31363b;fill:#ffffff;fill-opacity:1"
           inkscape:connector-curvature="0" />
        <circle
           cx="370"
           cy="575.36218"
           r="0.5"
           id="circle17"
           style="color:#31363b;opacity:1;fill:#ffffff;fill-opacity:1;stroke-width:0.5" />
      </g>
      <g
         id="g945"
         transform="translate(1.0033,-1.9998606)"
         style="fill:#ffffff;fill-opacity:1" />
    </g>
  </g>
</svg>
