<?xml version="1.0" encoding="UTF-8" standalone="no"?>
<svg
   width="32"
   height="32"
   version="1.1"
   id="svg16"
   sodipodi:docname="dropbox.svg"
   inkscape:version="1.1.1 (3bf5ae0d25, 2021-09-20, custom)"
   xmlns:inkscape="http://www.inkscape.org/namespaces/inkscape"
   xmlns:sodipodi="http://sodipodi.sourceforge.net/DTD/sodipodi-0.dtd"
   xmlns="http://www.w3.org/2000/svg"
   xmlns:svg="http://www.w3.org/2000/svg"
   xmlns:rdf="http://www.w3.org/1999/02/22-rdf-syntax-ns#"
   xmlns:cc="http://creativecommons.org/ns#"
   xmlns:dc="http://purl.org/dc/elements/1.1/">
  <metadata
     id="metadata22">
    <rdf:RDF>
      <cc:Work
         rdf:about="">
        <dc:format>image/svg+xml</dc:format>
        <dc:type
           rdf:resource="http://purl.org/dc/dcmitype/StillImage" />
      </cc:Work>
    </rdf:RDF>
  </metadata>
  <defs
     id="defs20">
    <linearGradient
       id="oomox"
       x1="131.53468"
       x2="131.53468"
       y1="146.39674"
       y2="160.8511"
       gradientTransform="scale(1.0377491,0.96362406)"
       gradientUnits="userSpaceOnUse">
      <stop
         offset="0%"
         style="stop-color:#303b3d; stop-opacity:1"
         id="stop18" />
      <stop
         offset="100%"
         style="stop-color:#bc985d; stop-opacity:1"
         id="stop20" />
    </linearGradient>
  </defs>
  <sodipodi:namedview
     pagecolor="#c8c8c8"
     bordercolor="#666666"
     borderopacity="1"
     objecttolerance="10"
     gridtolerance="10"
     guidetolerance="10"
     inkscape:pageopacity="0"
     inkscape:pageshadow="2"
     inkscape:window-width="1920"
     inkscape:window-height="1005"
     id="namedview18"
     showgrid="true"
     inkscape:zoom="16"
     inkscape:cx="40.34375"
     inkscape:cy="22.6875"
     inkscape:window-x="0"
     inkscape:window-y="0"
     inkscape:window-maximized="1"
     inkscape:current-layer="svg16"
     inkscape:document-rotation="0"
     inkscape:pagecheckerboard="0"
     inkscape:snap-bbox="true"
     inkscape:bbox-nodes="true"
     inkscape:snap-bbox-edge-midpoints="true"
     inkscape:snap-nodes="false">
    <inkscape:grid
       type="xygrid"
       id="grid876"
       originx="0"
       originy="0" />
  </sodipodi:namedview>
  <g
     id="dropbox">
    <rect
       style="opacity:0.00100002"
       width="32"
       height="32"
       x="0"
       y="0"
       id="rect9" />
    <path
       id="path835-3"
       style="fill:#fbfbfb;fill-opacity:1;stroke-width:1.23636"
       d="M 15.998047 4 C 15.322353 4 14.64549 4.1888377 13.976562 4.5664062 L 6.3925781 8.8789062 C 5.4323022 9.4260983 5 10.170024 5 11.330078 L 5 20.205078 C 5 21.748223 5.516934 22.372998 6.5527344 22.953125 L 14.894531 27.679688 C 15.649882 28.106534 16.340475 28.106533 17.095703 27.679688 L 25.435547 22.953125 C 26.482211 22.372999 27 21.748223 27 20.205078 L 27 11.330078 C 27 10.170024 26.568699 9.4260982 25.597656 8.8789062 L 18.011719 4.5664062 C 17.348132 4.1888378 16.673741 4 15.998047 4 z M 15.996094 6.0976562 C 16.375058 6.0962881 16.754619 6.2076781 17.148438 6.4375 L 23.947266 10.322266 L 15.994141 14.820312 L 8.0527344 10.322266 L 14.851562 6.4375 C 15.23998 6.2131505 15.617129 6.0990244 15.996094 6.0976562 z M 6.9414062 12.052734 L 14.980469 16.648438 L 14.980469 25.392578 L 7.7402344 21.255859 C 7.146806 20.927631 6.9414062 20.578049 6.9414062 19.998047 L 6.9414062 12.052734 z M 25.046875 12.052734 L 25.046875 19.998047 C 25.046875 20.578049 24.842392 20.927631 24.259766 21.255859 L 17.009766 25.392578 L 17.009766 16.648438 L 25.046875 12.052734 z " />
  </g>
  <g
     id="22-22-dropbox">
    <rect
       style="opacity:0.00100002"
       width="22"
       height="22"
       x="32"
       y="10"
       id="rect2" />
    <path
       id="path844"
       style="fill:#fbfbfb;fill-opacity:1;stroke-width:0.830116"
       d="m 42.998047,12.999734 c -0.456906,0 -0.912904,0.125241 -1.365234,0.376953 l -5.130859,2.875 c -0.649342,0.364795 -0.939453,0.861397 -0.939454,1.634766 v 5.916015 c 0,1.028763 0.348417,1.44528 1.048829,1.832032 l 5.640625,3.152343 c 0.51077,0.284564 0.977595,0.284564 1.488281,0 L 49.38086,25.6345 c 0.707758,-0.386751 1.056641,-0.803269 1.05664,-1.832032 v -5.916015 c 0,-0.773369 -0.290643,-1.269971 -0.947265,-1.634766 l -5.128906,-2.875 c -0.44872,-0.251712 -0.906375,-0.376953 -1.363282,-0.376953 z m 0,1.398438 c 0.256257,-9.13e-4 0.512996,0.07335 0.779297,0.226562 l 4.595703,2.589844 -5.376953,3 -5.36914,-3 4.595703,-2.589844 c 0.262648,-0.149566 0.519134,-0.22565 0.77539,-0.226562 z m -6.123047,3.96875 5.435547,3.064453 v 5.830078 L 37.414063,24.50364 C 37.012784,24.284821 36.875001,24.050465 36.875,23.663796 Z m 12.242188,0 v 5.296874 c 0,0.386669 -0.13923,0.621025 -0.533203,0.839844 l -4.902344,2.757813 v -5.830078 z" />
  </g>
</svg>
