<?xml version="1.0" encoding="UTF-8" standalone="no"?>
<svg
   xmlns:dc="http://purl.org/dc/elements/1.1/"
   xmlns:cc="http://creativecommons.org/ns#"
   xmlns:rdf="http://www.w3.org/1999/02/22-rdf-syntax-ns#"
   xmlns:svg="http://www.w3.org/2000/svg"
   xmlns="http://www.w3.org/2000/svg"
   xmlns:sodipodi="http://sodipodi.sourceforge.net/DTD/sodipodi-0.dtd"
   xmlns:inkscape="http://www.inkscape.org/namespaces/inkscape"
   width="22"
   height="22"
   version="1.1"
   id="svg21"
   sodipodi:docname="kdf.svg"
   inkscape:version="1.0.1 (3bc2e813f5, 2020-09-07)">
  <metadata
     id="metadata25">
    <rdf:RDF>
      <cc:Work
         rdf:about="">
        <dc:format>image/svg+xml</dc:format>
        <dc:type
           rdf:resource="http://purl.org/dc/dcmitype/StillImage" />
        <dc:title />
      </cc:Work>
    </rdf:RDF>
  </metadata>
  <sodipodi:namedview
     pagecolor="#329632"
     bordercolor="#666666"
     borderopacity="1"
     objecttolerance="10"
     gridtolerance="10"
     guidetolerance="10"
     inkscape:pageopacity="0"
     inkscape:pageshadow="2"
     inkscape:window-width="1920"
     inkscape:window-height="932"
     id="namedview23"
     showgrid="false"
     inkscape:zoom="12.294016"
     inkscape:cx="-16.812624"
     inkscape:cy="5.569132"
     inkscape:window-x="0"
     inkscape:window-y="36"
     inkscape:window-maximized="1"
     inkscape:current-layer="svg21"
     inkscape:document-rotation="0" />
  <defs
     id="defs3">
    <style
       id="current-color-scheme"
       type="text/css">.ColorScheme-Text { color:#333333; } .ColorScheme-Highlight { color:#5294e2; } .ColorScheme-ButtonBackground { color:#333333; }</style>
  </defs>
  <rect
     class="ColorScheme-Text"
     x="-20.43"
     y="-19.39"
     width="16"
     height="16"
     ry="0"
     opacity="0"
     id="rect5" />
  <g
     id="kdf"
     inkscape:label="#g1065"
     transform="translate(22,-10)">
    <rect
       y="10"
       x="-22"
       height="22"
       width="22"
       id="rect817-1"
       style="clip-rule:evenodd;fill:#ffffff;fill-opacity:0;fill-rule:evenodd;stroke-width:0.546348;stroke-linejoin:round;stroke-miterlimit:1.41421" />
    <g
       transform="translate(-27,40)"
       id="g1029">
      <g
         id="g953"
         transform="translate(-348.04883,-589.36218)">
        <path
           id="path15"
           transform="translate(321,529.36218)"
           d="m 38.048828,33 c -1.5802,0 -2.853762,1.214119 -2.976562,2.761719 L 33.09375,45.558594 C 33.07225,45.703934 33.04883,45.84852 33.04883,46 c 0,1.662 1.338,3 3,3 h 14 c 1.662,0 3,-1.338 3,-3 0,-0.15148 -0.02342,-0.296066 -0.04492,-0.441406 L 51.025391,35.761719 C 50.902571,34.214119 49.629128,33 48.048828,33 Z m 0,2 h 10 c 0.46959,0 0.844565,0.326699 0.953125,0.761719 l 1.501953,7.283203 C 50.354336,43.022222 50.204958,43 50.048828,43 h -14 c -0.15613,0 -0.305508,0.02222 -0.455078,0.04492 l 1.501953,-7.283203 C 37.204273,35.326699 37.579248,35 38.048828,35 Z M 36,45 h 14 c 0.554,0 1,0.446 1,1 0,0.554 -0.446,1 -1,1 H 36 c -0.554,0 -1,-0.446 -1,-1 0,-0.554 0.446,-1 1,-1 z"
           style="color:#31363b;fill:#ffffff;fill-opacity:1"
           inkscape:connector-curvature="0" />
        <circle
           cx="370"
           cy="575.36218"
           r="0.5"
           id="circle17"
           style="color:#31363b;opacity:1;fill:#ffffff;fill-opacity:1;stroke-width:0.5" />
      </g>
      <g
         id="g1019">
        <path
           inkscape:connector-curvature="0"
           id="circle971"
           d="m 16,-23 a 1.5,1.5 0 0 0 -1.5,1.5 1.5,1.5 0 0 0 1.5,1.5 1.5,1.5 0 0 0 1.5,-1.5 A 1.5,1.5 0 0 0 16,-23 Z m 0,1 a 0.5,0.5 0 0 1 0.5,0.5 A 0.5,0.5 0 0 1 16,-21 0.5,0.5 0 0 1 15.5,-21.5 0.5,0.5 0 0 1 16,-22 Z"
           style="opacity:1;fill:#ffffff;fill-opacity:1;stroke:none;stroke-width:0.6;stroke-linecap:round;stroke-miterlimit:4;stroke-dasharray:none;stroke-opacity:1" />
        <rect
           ry="0"
           y="-19"
           x="15.000002"
           height="1"
           width="1.9999981"
           id="rect977"
           style="opacity:1;fill:#ffffff;fill-opacity:1;stroke:none;stroke-width:0.6;stroke-linecap:round;stroke-miterlimit:4;stroke-dasharray:none;stroke-opacity:1" />
        <rect
           transform="rotate(60)"
           ry="0"
           y="-28.106407"
           x="-11.619545"
           height="1"
           width="1.9999981"
           id="rect1009"
           style="opacity:1;fill:#ffffff;fill-opacity:1;stroke:none;stroke-width:0.6;stroke-linecap:round;stroke-miterlimit:4;stroke-dasharray:none;stroke-opacity:1" />
        <rect
           ry="0"
           y="-0.60640699"
           x="-27.619545"
           height="1"
           width="1.9999981"
           id="rect1011"
           style="opacity:1;fill:#ffffff;fill-opacity:1;stroke:none;stroke-width:0.6;stroke-linecap:round;stroke-miterlimit:4;stroke-dasharray:none;stroke-opacity:1"
           transform="rotate(120)" />
      </g>
    </g>
  </g>
  <g
     id="16-16-kdf"
     inkscape:label="#g1006"
     transform="translate(25,-8)">
    <path
       id="path17"
       d="m -41,14 v 16 h 16 V 14 Z"
       style="opacity:1;fill:none"
       inkscape:connector-curvature="0" />
    <g
       transform="translate(22.5,0.99999793)"
       id="g989">
      <g
         transform="matrix(0.94117706,0,0,0.94117706,-398.08845,-517.69418)"
         id="g972">
        <path
           inkscape:connector-curvature="0"
           d="m 360,564.36221 c -1.108,0 -1.8626,0.90056 -2,2 l -1,8 v 4 c 0,1.108 0.892,2 2,2 h 10 c 1.108,0 2,-0.892 2,-2 v -4 l -1,-8 c -0.13743,-1.0994 -0.892,-2 -2,-2 z m 0,1 h 8 c 0.554,0 0.93128,0.45028 1,1 l 1,8 v 4 c 0,0.554 -0.446,1 -1,1 h -10 c -0.554,0 -1,-0.446 -1,-1 v -4 l 1,-8 c 0.0687,-0.54972 0.446,-1 1,-1 z"
           style="fill:#ffffff;fill-opacity:1;fill-rule:evenodd;stroke:#ffffff;stroke-opacity:1;paint-order:fill markers stroke"
           id="path966" />
        <path
           inkscape:connector-curvature="0"
           d="m 358.13458,573.35769 -0.13246,1.00452 c -0.0727,0.55146 0.44585,1.00452 0.99966,1.00452 h 9.99664 c 0.5538,0 1.07239,-0.45306 0.99966,-1.00452 l -0.13245,-1.00452 c 0,0.5565 -0.31339,1.00452 -0.86719,1.00452 h -9.99664 c -0.5538,0 -0.86719,-0.44802 -0.86719,-1.00452 z"
           style="fill:#ffffff;fill-opacity:1;fill-rule:evenodd;stroke:#ffffff;stroke-width:0.990954;stroke-opacity:1;paint-order:fill markers stroke"
           id="path968" />
        <rect
           x="366.5"
           y="576.86218"
           width="2"
           height="1"
           style="fill:#ffffff;fill-opacity:1;fill-rule:evenodd;stroke-width:1.41421;paint-order:fill markers stroke"
           id="rect970" />
      </g>
      <path
         id="path974"
         style="color:#000000;font-weight:400;font-variant-ligatures:normal;font-variant-position:normal;font-variant-caps:normal;font-variant-numeric:normal;font-variant-alternates:normal;font-feature-settings:normal;text-indent:0;text-decoration:none;text-decoration-line:none;text-decoration-style:solid;text-decoration-color:#000000;text-transform:none;text-orientation:mixed;white-space:normal;shape-padding:0;overflow:visible;isolation:auto;mix-blend-mode:normal;fill:#ffffff;fill-opacity:1;stroke-width:0.806723"
         overflow="visible"
         font-weight="400"
         d="m -57.210253,15.82352 -1.141513,1.060841 0.570353,0.530017 1.140706,-1.060034 z m 3.421313,0 -0.570353,0.530824 1.140706,1.060034 0.570353,-0.530017 z m -1.710253,1.152001 c -0.887396,0 -1.613447,0.675227 -1.613447,1.498084 0,0.822858 0.726051,1.498893 1.613447,1.498893 0.885782,0 1.613446,-0.676035 1.613446,-1.498893 0,-0.822857 -0.727664,-1.498084 -1.613446,-1.498084 z m 0,0.748639 c 0.449345,0 0.806723,0.330756 0.806723,0.750252 0,0.417076 -0.357378,0.748639 -0.806723,0.748639 -0.450959,0 -0.806724,-0.330756 -0.806724,-0.749446 0,-0.417882 0.355765,-0.749445 0.806724,-0.749445 z m -0.806724,2.996976 v 0.749446 h 1.613447 v -0.749446 z"
         inkscape:connector-curvature="0" />
    </g>
  </g>
</svg>
