<?xml version="1.0" encoding="UTF-8" standalone="no"?>
<svg
   width="22"
   height="22"
   version="1.1"
   id="svg21"
   sodipodi:docname="kdf.svg"
   inkscape:version="1.1.1 (3bf5ae0d25, 2021-09-20)"
   xmlns:inkscape="http://www.inkscape.org/namespaces/inkscape"
   xmlns:sodipodi="http://sodipodi.sourceforge.net/DTD/sodipodi-0.dtd"
   xmlns="http://www.w3.org/2000/svg"
   xmlns:svg="http://www.w3.org/2000/svg"
   xmlns:rdf="http://www.w3.org/1999/02/22-rdf-syntax-ns#"
   xmlns:cc="http://creativecommons.org/ns#"
   xmlns:dc="http://purl.org/dc/elements/1.1/">
  <metadata
     id="metadata25">
    <rdf:RDF>
      <cc:Work
         rdf:about="">
        <dc:format>image/svg+xml</dc:format>
        <dc:type
           rdf:resource="http://purl.org/dc/dcmitype/StillImage" />
        <dc:title />
      </cc:Work>
    </rdf:RDF>
  </metadata>
  <sodipodi:namedview
     pagecolor="#329632"
     bordercolor="#666666"
     borderopacity="1"
     objecttolerance="10"
     gridtolerance="10"
     guidetolerance="10"
     inkscape:pageopacity="0"
     inkscape:pageshadow="2"
     inkscape:window-width="1920"
     inkscape:window-height="963"
     id="namedview23"
     showgrid="true"
     inkscape:zoom="12.294016"
     inkscape:cx="-3.7823279"
     inkscape:cy="2.3588712"
     inkscape:window-x="0"
     inkscape:window-y="40"
     inkscape:window-maximized="1"
     inkscape:current-layer="svg21"
     inkscape:document-rotation="0"
     inkscape:pagecheckerboard="0">
    <inkscape:grid
       type="xygrid"
       id="grid836" />
  </sodipodi:namedview>
  <defs
     id="defs3">
    <style
       id="current-color-scheme"
       type="text/css">.ColorScheme-Text { color:#333333; } .ColorScheme-Highlight { color:#5294e2; } .ColorScheme-ButtonBackground { color:#333333; }</style>
  </defs>
  <rect
     class="ColorScheme-Text"
     x="-20.43"
     y="-19.39"
     width="16"
     height="16"
     ry="0"
     opacity="0"
     id="rect5" />
  <g
     fill="currentColor"
     transform="translate(-4.9409914,-10)"
     class="ColorScheme-Text"
     id="16-16-kdf"
     style="color:#363636">
    <path
       id="path7"
       fill="none"
       d="m -14.847,16 v 16 h 16 V 16 Z" />
    <g
       id="g19"
       transform="translate(-7.6681,-11.971)">
      <g
         id="g15"
         transform="translate(-449.18,-148.03)">
        <path
           id="path9"
           d="m 446,176 c -1.108,0 -1.8626,0.90056 -2,2 l -1,8 v 4 c 0,1.108 0.892,2 2,2 h 10 c 1.108,0 2,-0.892 2,-2 v -4 l -1,-8 c -0.13743,-1.0994 -0.892,-2 -2,-2 z m 0,1 h 8 c 0.554,0 0.93128,0.45028 1,1 l 1,8 v 4 c 0,0.554 -0.446,1 -1,1 h -10 c -0.554,0 -1,-0.446 -1,-1 v -4 l 1,-8 c 0.0687,-0.54972 0.446,-1 1,-1 z"
           style="fill:#ffffff;fill-opacity:1" />
        <path
           id="path11"
           d="m 444,186 -0.1355,1 c -0.0744,0.54898 0.45608,1 1.0226,1 h 10.226 c 0.56651,0 1.097,-0.45102 1.0226,-1 l -0.13549,-1 c 0,0.554 -0.32058,1 -0.88709,1 h -10.226 c -0.56651,0 -0.88709,-0.446 -0.88709,-1 z"
           style="fill:#ffffff;fill-opacity:1" />
        <rect
           id="rect13"
           height="1"
           width="1"
           y="189"
           x="454"
           style="fill:#ffffff;fill-opacity:1" />
      </g>
      <path
         id="path17-3"
         d="m -1.2984,29.968 -1.415,1.315 0.707,0.657 1.414,-1.314 z m 4.241,0 -0.707,0.658 1.414,1.314 0.707,-0.657 z m -2.12,1.428 c -1.1,0 -2,0.837 -2,1.857 0,1.02 0.9,1.858 2,1.858 1.098,0 2,-0.838 2,-1.858 0,-1.02 -0.902,-1.857 -2,-1.857 z m 0,0.928 c 0.557,0 1,0.41 1,0.93 0,0.517 -0.443,0.928 -1,0.928 -0.559,0 -1,-0.41 -1,-0.929 0,-0.518 0.441,-0.929 1,-0.929 z m -1,3.715 v 0.929 h 2 v -0.929 z"
         style="fill:#ffffff;fill-opacity:1" />
    </g>
  </g>
  <g
     id="kdf">
    <path
       id="path28"
       d="m 9,6 -1.2008487,1.115983 0.6,0.5575672 1.2,-1.1151344 z m 3.599151,0 -0.6,0.5584158 1.2,1.1151344 0.6,-0.5575672 z M 10.8,7.2118812 c -0.933522,0 -1.6973126,0.7103253 -1.6973126,1.5759547 0,0.8656294 0.7637906,1.5768031 1.6973126,1.5768031 0.931824,0 1.697312,-0.7111737 1.697312,-1.5768031 0,-0.8656294 -0.765488,-1.5759547 -1.697312,-1.5759547 z m 0,0.787553 c 0.472701,0 0.848656,0.3479491 0.848656,0.7892504 0,0.4387553 -0.375955,0.787553 -0.848656,0.787553 -0.474399,0 -0.8486563,-0.3479491 -0.8486563,-0.7884017 0,-0.4396039 0.3742573,-0.7884017 0.8486563,-0.7884017 z M 9.9513437,11.152192 v 0.788402 h 1.6973123 v -0.788402 z"
       style="color:#363636;fill:#ffffff;fill-opacity:1;stroke-width:0.848656" />
    <rect
       y="2.6171874e-06"
       x="0"
       height="22"
       width="22"
       id="rect817-1"
       style="clip-rule:evenodd;fill:#ffffff;fill-opacity:0;fill-rule:evenodd;stroke-width:0.546348;stroke-linejoin:round;stroke-miterlimit:1.41421" />
    <g
       id="g953"
       transform="translate(-353.04883,-559.36216)">
      <path
         id="path15"
         transform="translate(321,529.36218)"
         d="m 38.048828,33 c -1.5802,0 -2.853762,1.214119 -2.976562,2.761719 L 33.09375,45.558594 C 33.07225,45.703934 33.04883,45.84852 33.04883,46 c 0,1.662 1.338,3 3,3 h 14 c 1.662,0 3,-1.338 3,-3 0,-0.15148 -0.02342,-0.296066 -0.04492,-0.441406 L 51.025391,35.761719 C 50.902571,34.214119 49.629128,33 48.048828,33 Z m 0,2 h 10 c 0.46959,0 0.844565,0.326699 0.953125,0.761719 l 1.501953,7.283203 C 50.354336,43.022222 50.204958,43 50.048828,43 h -14 c -0.15613,0 -0.305508,0.02222 -0.455078,0.04492 l 1.501953,-7.283203 C 37.204273,35.326699 37.579248,35 38.048828,35 Z M 36,45 h 14 c 0.554,0 1,0.446 1,1 0,0.554 -0.446,1 -1,1 H 36 c -0.554,0 -1,-0.446 -1,-1 0,-0.554 0.446,-1 1,-1 z"
         style="color:#31363b;fill:#ffffff;fill-opacity:1"
         inkscape:connector-curvature="0" />
      <circle
         cx="370"
         cy="575.36218"
         r="0.5"
         id="circle17"
         style="color:#31363b;opacity:1;fill:#ffffff;fill-opacity:1;stroke-width:0.5" />
    </g>
  </g>
</svg>
