<?xml version="1.0" encoding="UTF-8" standalone="no"?>
<svg
   xmlns:dc="http://purl.org/dc/elements/1.1/"
   xmlns:cc="http://creativecommons.org/ns#"
   xmlns:rdf="http://www.w3.org/1999/02/22-rdf-syntax-ns#"
   xmlns:svg="http://www.w3.org/2000/svg"
   xmlns="http://www.w3.org/2000/svg"
   xmlns:sodipodi="http://sodipodi.sourceforge.net/DTD/sodipodi-0.dtd"
   xmlns:inkscape="http://www.inkscape.org/namespaces/inkscape"
   version="1.1"
   viewBox="0 0 22 22"
   id="svg12"
   sodipodi:docname="notifications.svg"
   inkscape:version="1.0.1 (3bc2e813f5, 2020-09-07)">
  <metadata
     id="metadata16">
    <rdf:RDF>
      <cc:Work
         rdf:about="">
        <dc:format>image/svg+xml</dc:format>
        <dc:type
           rdf:resource="http://purl.org/dc/dcmitype/StillImage" />
        <dc:title></dc:title>
      </cc:Work>
    </rdf:RDF>
  </metadata>
  <sodipodi:namedview
     pagecolor="#c8c8c8"
     bordercolor="#666666"
     borderopacity="1"
     objecttolerance="10"
     gridtolerance="10"
     guidetolerance="10"
     inkscape:pageopacity="0"
     inkscape:pageshadow="2"
     inkscape:window-width="1920"
     inkscape:window-height="942"
     id="namedview14"
     showgrid="false"
     inkscape:zoom="13.21004"
     inkscape:cx="1.8913993"
     inkscape:cy="17.389573"
     inkscape:window-x="0"
     inkscape:window-y="38"
     inkscape:window-maximized="1"
     inkscape:current-layer="svg12"
     inkscape:document-rotation="0" />
  <defs
     id="defs3">
    <style
       id="current-color-scheme"
       type="text/css">.ColorScheme-Text { color:#363636; }</style>
  </defs>
  <g
     id="notification-disabled"
     inkscape:label="#g1412">
    <path
       inkscape:connector-curvature="0"
       style="color:#000000;font-style:normal;font-variant:normal;font-weight:normal;font-stretch:normal;font-size:medium;line-height:normal;font-family:sans-serif;font-variant-ligatures:normal;font-variant-position:normal;font-variant-caps:normal;font-variant-numeric:normal;font-variant-alternates:normal;font-feature-settings:normal;text-indent:0;text-align:start;text-decoration:none;text-decoration-line:none;text-decoration-style:solid;text-decoration-color:#000000;letter-spacing:normal;word-spacing:normal;text-transform:none;writing-mode:lr-tb;direction:ltr;text-orientation:mixed;dominant-baseline:auto;baseline-shift:baseline;text-anchor:start;white-space:normal;shape-padding:0;clip-rule:nonzero;display:inline;overflow:visible;visibility:visible;opacity:1;isolation:auto;mix-blend-mode:normal;color-interpolation:sRGB;color-interpolation-filters:linearRGB;solid-color:#000000;solid-opacity:1;vector-effect:none;fill:#ffffff;fill-opacity:1;fill-rule:nonzero;stroke:none;stroke-width:0.661223;stroke-linecap:butt;stroke-linejoin:miter;stroke-miterlimit:4;stroke-dasharray:none;stroke-dashoffset:0;stroke-opacity:1;color-rendering:auto;image-rendering:auto;shape-rendering:auto;text-rendering:auto;enable-background:accumulate"
       d="M 4,3 C 2.892,3 2,3.892 2,5 V 5.341797 11 15.660156 16 c 0,1.108 0.892,2 2,2 h 0.316406 c 0.0067,6.6e-5 0.01284,0.0019 0.01953,0.002 h 3.167968 l 0.529297,1.275391 c 0.124214,0.2962 0.370019,0.526404 0.675781,0.626953 0.114582,0.03834 0.232773,0.05469 0.347657,0.05469 0.198675,0 0.395932,-0.0533 0.570312,-0.160156 l 2.986328,-1.796875 h 5.052735 c 0.0067,0 0.01285,-0.0019 0.01953,-0.002 H 18 c 1.108,0 2,-0.892 2,-2 V 15.660156 11 5.341797 5 C 20,3.892 19.108,3 18,3 H 17.664062 4.335938 Z m 1,2 h 12 c 0.554,0 1,0.446 1,1 v 9 c 0,0.554 -0.446,1 -1,1 H 12 L 9.433594,17.558594 8.777344,16 H 5 C 4.446,16 4,15.554 4,15 V 6 C 4,5.446 4.446,5 5,5 Z"
       id="path1023" />
    <rect
       style="fill:#ffffff;fill-opacity:0;stroke:none"
       id="rect1025"
       width="22"
       height="22"
       x="0"
       y="0" />
    <g
       style="fill:#ebebeb;fill-opacity:1;stroke:#ebebeb;stroke-opacity:1"
       id="g1033"
       transform="translate(35.509875,-25.389935)" />
  </g>
</svg>
