<?xml version="1.0" encoding="UTF-8" standalone="no"?>
<svg
   width="22"
   height="22"
   version="1.1"
   id="svg21"
   sodipodi:docname="pamac.svg"
   inkscape:version="1.1.2 (0a00cf5339, 2022-02-04, custom)"
   xmlns:inkscape="http://www.inkscape.org/namespaces/inkscape"
   xmlns:sodipodi="http://sodipodi.sourceforge.net/DTD/sodipodi-0.dtd"
   xmlns="http://www.w3.org/2000/svg"
   xmlns:svg="http://www.w3.org/2000/svg">
  <sodipodi:namedview
     id="namedview23"
     pagecolor="#3d3d3d"
     bordercolor="#666666"
     borderopacity="1.0"
     inkscape:pageshadow="2"
     inkscape:pageopacity="0"
     inkscape:pagecheckerboard="0"
     showgrid="true"
     inkscape:snap-bbox="true"
     inkscape:bbox-nodes="true"
     inkscape:snap-bbox-edge-midpoints="false"
     inkscape:snap-nodes="false"
     inkscape:zoom="8.1363636"
     inkscape:cx="24.642458"
     inkscape:cy="56.597765"
     inkscape:window-width="1920"
     inkscape:window-height="1001"
     inkscape:window-x="0"
     inkscape:window-y="0"
     inkscape:window-maximized="1"
     inkscape:current-layer="svg21">
    <inkscape:grid
       type="xygrid"
       id="grid1777" />
  </sodipodi:namedview>
  <defs
     id="defs3">
    <style
       id="current-color-scheme"
       type="text/css">.ColorScheme-Text{color:#dfdfdf;}.ColorScheme-Highlight{color:#5294e2;}</style>
  </defs>
  <defs
     id="defs7">
    <style
       type="text/css"
       id="style5" />
  </defs>
  <g
     id="pamac-tray-no-update">
    <rect
       style="fill:none;fill-opacity:1;stroke:none;stroke-width:2.11786;stroke-linecap:round;stroke-linejoin:round;stroke-miterlimit:4;stroke-dasharray:none;stroke-opacity:1;paint-order:stroke fill markers;stop-color:#000000"
       id="rect1079"
       width="32"
       height="32"
       x="-0.97726023"
       y="30.050793"
       rx="0"
       ry="0" />
    <path
       id="path1055"
       style="fill:#ffffff;fill-opacity:1;stroke-width:1.10588"
       class="ColorScheme-Text"
       d="m 14.999999,33.000003 c -0.2823,-4.28e-4 -0.563621,0.04577 -0.83373,0.140395 a 1.1059917,1.1059917 0 0 0 0,0.0021 l -8.5403401,3.000134 c -1.00537,0.352808 -1.6847407,1.310903 -1.6847407,2.375916 V 47.3008 c 0,2.725818 0.9935144,5.328324 2.7431035,7.34374 0.9107071,1.05059 2.0293326,1.83264 3.1750878,2.451514 l 4.6243975,2.494713 a 1.1059917,1.1059917 0 0 0 1.049723,0 l 4.615758,-2.492552 a 1.1059917,1.1059917 0 0 0 0.0021,0 c 1.14512,-0.619287 2.259714,-1.402792 3.168609,-2.451513 1.74952,-2.015908 2.738783,-4.617833 2.738783,-7.341582 v -8.786572 c 0,-1.065613 -0.678436,-2.023593 -1.684741,-2.375916 l -8.53816,-3.000114 C 15.56558,33.047421 15.2823,33.00043 14.999999,33.000003 Z m 0.0021,2.211762 c 0.0344,1.21e-4 0.0674,0.006 0.09936,0.01728 l 8.54034,3.000134 c 0.127536,0.04466 0.205193,0.153743 0.205193,0.28943 v 8.786572 c 0,2.187848 -0.793715,4.275729 -2.196643,5.892272 a 1.1059917,1.1059917 0 0 0 -0.0021,0 c -0.676414,0.780476 -1.565818,1.42201 -2.550871,1.954731 l -4.088736,2.209603 -4.097376,-2.211762 h -0.0021 C 9.9228272,54.617065 9.032903,53.978243 8.3560728,53.197453 a 1.1059917,1.1059917 0 0 0 0,-0.0021 C 6.9518366,51.578626 6.1529504,49.490806 6.1529504,47.300861 v -8.782253 c 0,-0.135687 0.077653,-0.244776 0.2051927,-0.289429 a 1.1059917,1.1059917 0 0 0 0.00216,0 l 8.5381799,-3.000134 c 0.03346,-0.01173 0.06927,-0.0174 0.103676,-0.01728 z" />
    <path
       id="rect1801"
       d="M 15 41 C 14.744835 41 14.488701 41.097795 14.292969 41.292969 C 14.292621 41.293316 14.291363 41.292621 14.291016 41.292969 L 11.462891 44.123047 C 11.071153 44.514784 11.071153 45.145372 11.462891 45.537109 C 11.854628 45.928847 12.485216 45.928847 12.876953 45.537109 L 14 44.414062 L 14 50 C 14 50.554 14.446 51 15 51 C 15.554 51 16 50.554 16 50 L 16 44.416016 L 17.121094 45.537109 C 17.512831 45.928847 18.143419 45.928847 18.535156 45.537109 C 18.926893 45.145372 18.926893 44.514784 18.535156 44.123047 L 15.707031 41.292969 C 15.511163 41.0971 15.255619 41 15 41 z "
       class="ColorScheme-Text"
       fill="currentColor"
       style="opacity:1;fill:#ffffff;fill-opacity:1" />
  </g>
  <g
     id="22-22-pamac-tray-no-update">
    <rect
       width="22"
       height="22"
       opacity="0"
       id="rect9"
       x="0"
       y="0" />
    <path
       id="path2"
       style="fill:#ffffff;fill-opacity:1"
       class="ColorScheme-Text"
       d="M 11 1.3789062 C 10.776383 1.3790141 10.553586 1.4172871 10.339844 1.4921875 L 4.3339844 3.6035156 L 4.3339844 3.6015625 C 3.5379469 3.8802637 3 4.6414842 3 5.484375 L 3 11.660156 C 3 13.631335 3.7188834 15.513105 4.984375 16.970703 C 5.6483472 17.736658 6.4575236 18.302217 7.2792969 18.746094 L 10.53125 20.5 A 1.0001 1.0001 0 0 0 11.480469 20.5 L 14.726562 18.746094 C 15.54802 18.301845 16.356938 17.737186 17.019531 16.972656 C 18.28481 15.514721 19 13.633547 19 11.664062 L 19 5.484375 C 19 4.6414848 18.462053 3.8802672 17.666016 3.6015625 L 17.666016 3.6035156 L 11.662109 1.4921875 C 11.448055 1.4168555 11.223617 1.3787984 11 1.3789062 z M 11 3.3789062 L 17 5.4882812 L 17 11.664062 C 17 13.148955 16.459682 14.565303 15.507812 15.662109 C 15.055442 16.184074 14.452107 16.620357 13.775391 16.986328 L 11.005859 18.484375 L 8.2285156 16.986328 C 7.5502902 16.619988 6.9469559 16.184475 6.4941406 15.662109 A 1.0001 1.0001 0 0 0 6.4941406 15.660156 C 5.541348 14.563238 5 13.146425 5 11.660156 L 5 5.4882812 L 11 3.3789062 z " />
    <path
       id="rect2132"
       d="M 11 7 C 10.744835 7 10.488701 7.097795 10.292969 7.2929688 C 10.292621 7.2933159 10.291363 7.292621 10.291016 7.2929688 L 7.4628906 10.123047 C 7.0711535 10.514784 7.0711535 11.145372 7.4628906 11.537109 C 7.8546278 11.928847 8.485216 11.928847 8.8769531 11.537109 L 10 10.414062 L 10 13 C 10 13.554 10.446 14 11 14 C 11.554 14 12 13.554 12 13 L 12 10.416016 L 13.121094 11.537109 C 13.512831 11.928847 14.143419 11.928847 14.535156 11.537109 C 14.926893 11.145372 14.926893 10.514784 14.535156 10.123047 L 11.707031 7.2929688 C 11.511163 7.0971002 11.255619 7 11 7 z "
       class="ColorScheme-Text"
       fill="currentColor"
       style="opacity:1;fill:#ffffff;fill-opacity:1" />
  </g>
  <g
     id="22-22-pamac-tray-update"
     transform="translate(-17)">
    <rect
       width="22"
       height="22"
       opacity="0"
       id="rect2428"
       x="55"
       y="0" />
    <path
       id="path2430"
       style="fill:#ffffff;fill-opacity:1"
       class="ColorScheme-Text"
       d="M 49 1.3789062 C 48.776383 1.3790141 48.553586 1.4172872 48.339844 1.4921875 L 42.333984 3.6035156 L 42.333984 3.6015625 C 41.537947 3.8802606 41 4.6414842 41 5.484375 L 41 11.660156 C 41 13.631335 41.718883 15.513105 42.984375 16.970703 C 43.648347 17.736658 44.457524 18.302217 45.279297 18.746094 L 48.53125 20.5 A 1.0001 1.0001 0 0 0 49.480469 20.5 L 51.392578 19.466797 A 3 3 0 0 1 51 18 A 3 3 0 0 1 51.076172 17.365234 L 49.005859 18.484375 L 46.228516 16.986328 C 45.55029 16.619988 44.946956 16.184475 44.494141 15.662109 A 1.0001 1.0001 0 0 0 44.494141 15.660156 C 43.54135 14.563285 43 13.146425 43 11.660156 L 43 5.4882812 L 49 3.3789062 L 55 5.4882812 L 55 11.664062 C 55 12.866639 54.640385 14.020668 54 15 A 3 3 0 0 1 55.921875 15.699219 C 56.618017 14.487123 57 13.099756 57 11.664062 L 57 5.484375 C 57 4.6414848 56.462053 3.8802672 55.666016 3.6015625 L 55.666016 3.6035156 L 49.662109 1.4921875 C 49.448055 1.4168555 49.223617 1.3787984 49 1.3789062 z "
       transform="translate(17)" />
    <path
       id="path2432"
       d="m 66,7 c -0.255165,0 -0.511299,0.097795 -0.707031,0.2929688 -3.48e-4,3.471e-4 -0.0016,-3.478e-4 -0.002,0 l -2.828078,2.8300782 c -0.391738,0.391737 -0.391738,1.022325 0,1.414062 0.391737,0.391738 1.022325,0.391738 1.414062,0 L 65,10.414062 V 13 c 0,0.554 0.446,1 1,1 0.554,0 1,-0.446 1,-1 v -2.583984 l 1.121094,1.121093 c 0.391737,0.391738 1.022325,0.391738 1.414062,0 0.391737,-0.391737 0.391737,-1.022325 0,-1.414062 L 66.707031,7.2929688 C 66.511163,7.0971002 66.255619,7 66,7 Z"
       class="ColorScheme-Text"
       fill="currentColor"
       style="opacity:1;fill:#ffffff;fill-opacity:1" />
    <path
       id="circle18"
       style="fill:#3daee9;fill-opacity:1"
       class="ColorScheme-Highlight"
       d="M 54 16 A 2 2 0 0 0 52 18 A 2 2 0 0 0 54 20 A 2 2 0 0 0 56 18 A 2 2 0 0 0 54 16 z "
       transform="translate(17)" />
  </g>
  <g
     id="pamac-tray-update">
    <rect
       style="fill:none;fill-opacity:1;stroke:none;stroke-width:2.11786;stroke-linecap:round;stroke-linejoin:round;stroke-miterlimit:4;stroke-dasharray:none;stroke-opacity:1;paint-order:stroke fill markers;stop-color:#000000"
       id="rect2633"
       width="32"
       height="32"
       x="39"
       y="30.050793"
       rx="0"
       ry="0" />
    <path
       id="path2635"
       style="fill:#ffffff;fill-opacity:1;stroke-width:1.10588"
       class="ColorScheme-Text"
       d="M 54.978516 33 C 54.696213 32.999572 54.412687 33.046 54.142578 33.140625 A 1.1059917 1.1059917 0 0 0 54.142578 33.142578 L 45.601562 36.142578 C 44.596193 36.495386 43.91797 37.452565 43.917969 38.517578 L 43.917969 47.300781 C 43.917969 50.026599 44.910567 52.629115 46.660156 54.644531 C 47.570864 55.695121 48.690181 56.476829 49.835938 57.095703 L 54.460938 59.589844 A 1.1059917 1.1059917 0 0 0 55.509766 59.589844 L 57.806641 58.349609 A 5.5 5.5 0 0 1 57.054688 56.244141 L 54.984375 57.361328 L 50.888672 55.150391 L 50.884766 55.150391 C 49.898523 54.617432 49.008861 53.978056 48.332031 53.197266 A 1.1059917 1.1059917 0 0 0 48.332031 53.195312 C 46.927795 51.578677 46.128906 49.490726 46.128906 47.300781 L 46.128906 38.519531 C 46.128906 38.383844 46.206451 38.273169 46.333984 38.228516 A 1.1059917 1.1059917 0 0 0 46.335938 38.228516 L 54.875 35.228516 C 54.94192 35.205066 55.014202 35.206016 55.078125 35.228516 L 63.619141 38.228516 C 63.746678 38.273176 63.824219 38.383844 63.824219 38.519531 L 63.824219 47.304688 C 63.824219 48.256707 63.672111 49.188615 63.386719 50.072266 A 5.5 5.5 0 0 1 65.449219 50.861328 C 65.829513 49.728143 66.035157 48.529551 66.035156 47.304688 L 66.035156 38.519531 C 66.035156 37.453918 65.357867 36.4949 64.351562 36.142578 L 55.8125 33.142578 C 55.542189 33.047438 55.260816 33.000427 54.978516 33 z " />
    <path
       id="path2637"
       d="m 54.97726,41 c -0.255165,0 -0.511299,0.09779 -0.707031,0.292969 -3.48e-4,3.47e-4 -0.0016,-3.48e-4 -0.002,0 l -2.828125,2.830078 c -0.391738,0.391737 -0.391738,1.022325 0,1.414062 0.391737,0.391738 1.022325,0.391738 1.414062,0 L 53.97726,44.414062 V 50 c 0,0.554 0.446,1 1,1 0.554,0 1,-0.446 1,-1 v -5.583984 l 1.121094,1.121093 c 0.391737,0.391738 1.022325,0.391738 1.414062,0 0.391737,-0.391737 0.391737,-1.022325 0,-1.414062 L 55.684291,41.292969 C 55.488423,41.0971 55.232879,41 54.97726,41 Z"
       class="ColorScheme-Text"
       fill="currentColor"
       style="opacity:1;fill:#ffffff;fill-opacity:1" />
    <path
       id="circle2647"
       style="fill:#3daee9;fill-opacity:1;stroke-width:1.75"
       class="ColorScheme-Highlight"
       d="M 62.5,52 A 3.5,3.5 0 0 0 59,55.5 3.5,3.5 0 0 0 62.5,59 3.5,3.5 0 0 0 66,55.5 3.5,3.5 0 0 0 62.5,52 Z" />
  </g>
</svg>
