<?xml version="1.0" encoding="UTF-8" standalone="no"?>
<svg
   xmlns:dc="http://purl.org/dc/elements/1.1/"
   xmlns:cc="http://creativecommons.org/ns#"
   xmlns:rdf="http://www.w3.org/1999/02/22-rdf-syntax-ns#"
   xmlns:svg="http://www.w3.org/2000/svg"
   xmlns="http://www.w3.org/2000/svg"
   xmlns:sodipodi="http://sodipodi.sourceforge.net/DTD/sodipodi-0.dtd"
   xmlns:inkscape="http://www.inkscape.org/namespaces/inkscape"
   id="svg49"
   viewBox="0 0 32 32"
   version="1.1"
   sodipodi:docname="phone.svg"
   inkscape:version="1.0 (4035a4fb49, 2020-05-01)">
  <sodipodi:namedview
     inkscape:document-rotation="0"
     pagecolor="#329632"
     bordercolor="#666666"
     borderopacity="1"
     objecttolerance="10"
     gridtolerance="10"
     guidetolerance="10"
     inkscape:pageopacity="0"
     inkscape:pageshadow="2"
     inkscape:window-width="1920"
     inkscape:window-height="932"
     id="namedview31"
     showgrid="true"
     inkscape:zoom="8.4300386"
     inkscape:cx="57.915737"
     inkscape:cy="-16.557243"
     inkscape:window-x="0"
     inkscape:window-y="36"
     inkscape:window-maximized="1"
     inkscape:current-layer="svg49">
    <inkscape:grid
       type="xygrid"
       id="grid893" />
  </sodipodi:namedview>
  <metadata
     id="metadata53">
    <rdf:RDF>
      <cc:Work
         rdf:about="">
        <dc:format>image/svg+xml</dc:format>
        <dc:type
           rdf:resource="http://purl.org/dc/dcmitype/StillImage" />
        <dc:title />
      </cc:Work>
    </rdf:RDF>
  </metadata>
  <defs
     id="defs3">
    <style
       type="text/css"
       id="current-color-scheme">.ColorScheme-Text { color:#363636; }</style>
    <style
       id="current-color-scheme-6"
       type="text/css">.ColorScheme-Text { color:#363636; }</style>
  </defs>
  <g
     fill="currentColor"
     class="ColorScheme-Text"
     transform="translate(-322,-486.35999)"
     id="16-16-phone">
    <rect
       id="rect12"
       opacity="0"
       ry="0.42105001"
       height="16"
       width="16"
       y="494.35999"
       x="301" />
    <path
       id="path14"
       fill="currentColor"
       d="m -14,-34 c -1.108,0 -2,0.892 -2,2 v 10 c 0,1.108 0.89199,2 2,2 h 4 c 1.108,0 2,-0.89199 2,-2 v -10 c 0,-1.108 -0.89199,-2 -2,-2 z m 0,1 h 4 c 0.55401,0 1,0.446 1,1 v 10 c 0,0.55401 -0.44599,1 -1,1 h -4 c -0.55401,0 -1,-0.44599 -1,-1 v -10 c 0,-0.554 0.44599,-1 1,-1 z"
       transform="translate(321,529.36)"
       class="ColorScheme-Text"
       style="fill:#ffffff;fill-opacity:1" />
    <circle
       id="circle16"
       opacity="0.5"
       fill="currentColor"
       r="0.5"
       cy="497.85999"
       cx="307.5"
       style="fill:#ffffff;fill-opacity:1" />
  </g>
  <g
     fill="currentColor"
     class="ColorScheme-Text"
     transform="translate(-321,-529.36)"
     id="16-16-phone-battery">
    <rect
       id="rect26"
       opacity="0"
       ry=".42105"
       height="16"
       width="16"
       y="494.36"
       x="300" />
    <path
       id="path28"
       fill="currentColor"
       d="m306 495.36c-1.108 0-2 0.892-2 2v10c0 1.108 0.89199 2 2 2h4c1.108 0 2-0.89199 2-2v-10c0-1.108-0.89199-2-2-2zm0 1h4c0.55401 0 1 0.446 1 1v10c0 0.55401-0.44599 1-1 1h-4c-0.55401 0-1-0.44599-1-1v-10c0-0.554 0.44599-1 1-1z"
       class="ColorScheme-Text"
       style="fill:#ffffff;fill-opacity:1" />
    <circle
       id="circle30"
       opacity=".5"
       fill="currentColor"
       r=".5"
       cy="497.86"
       cx="306.5"
       class="ColorScheme-Text"
       style="fill:#ffffff;fill-opacity:1" />
    <path
       id="path32"
       fill="currentColor"
       d="m308 505.36 1-3h-1v-2l-1 3h1z"
       class="ColorScheme-Text"
       style="fill:#ffffff;fill-opacity:1" />
  </g>
  <g
     id="g920"
     transform="translate(0,-32.00008)" />
  <g
     id="phone">
    <rect
       id="rect7"
       fill="none"
       height="32"
       width="32"
       y="-1.4648437e-05"
       x="0"
       style="color:#363636" />
    <g
       id="g887"
       transform="translate(0,-41)">
      <path
         d="m 11,43 c -1.662,0 -3,1.338 -3,3 v 22 c 0,1.662 1.338,3 3,3 h 10 c 1.662,0 3,-1.338 3,-3 V 46 c 0,-1.662 -1.338,-3 -3,-3 z m 0,2 h 1.492188 l 0.490234,0.652344 C 13.098342,45.806154 13.137468,46 13.330078,46 h 5.339844 c 0.19261,0 0.231736,-0.193846 0.347656,-0.347656 L 19.507812,45 H 21 c 0.55399,0 1,0.44601 1,1 v 22 c 0,0.55399 -0.44601,1 -1,1 H 11 c -0.55399,0 -1,-0.44601 -1,-1 V 46 c 0,-0.55399 0.44601,-1 1,-1 z"
         style="fill:#ffffff;stroke-width:2;stroke-linecap:round"
         id="rect879" />
      <rect
         id="rect869"
         opacity="0.5"
         ry="0.5"
         height="1"
         width="8"
         y="66.999985"
         x="12"
         style="color:#363636;fill:#ffffff;fill-opacity:1" />
    </g>
  </g>
  <g
     transform="translate(0,-1.0000306)"
     id="22-22-phone">
    <rect
       id="rect42"
       fill="none"
       height="22"
       width="22"
       y="5.9999852"
       x="41"
       style="color:#363636" />
    <g
       id="g919"
       transform="translate(0,-36.999924)">
      <path
         d="m 48,43 c -1.662,0 -3,1.338 -3,3 v 16 c 0,1.662 1.338,3 3,3 h 8 c 1.662,0 3,-1.338 3,-3 V 46 c 0,-1.662 -1.338,-3 -3,-3 z m 0,2 h 1 c 0,0.554 0.446,1 1,1 h 4 c 0.554,0 1,-0.446 1,-1 h 1 c 0.55399,0 1,0.44601 1,1 v 16 c 0,0.55399 -0.44601,1 -1,1 h -8 c -0.55399,0 -1,-0.44601 -1,-1 V 46 c 0,-0.55399 0.44601,-1 1,-1 z"
         style="fill:#ffffff;stroke-width:2;stroke-linecap:round"
         id="rect913" />
      <rect
         id="rect891"
         opacity="0.5"
         ry="0.49996999"
         height="0.99993998"
         width="6"
         y="60.999985"
         x="49"
         style="color:#363636;fill:#ffffff;fill-opacity:1" />
    </g>
  </g>
  <g
     id="phone-battery">
    <path
       id="rect964"
       style="fill:#ffffff;stroke-width:2;stroke-linecap:round"
       d="M 16.5 -33 L 12.5 -25 L 15 -25 L 15 -19 L 19.5 -27 L 16.5 -27 L 16.5 -33 z " />
    <rect
       id="rect21"
       fill="none"
       height="32"
       width="32"
       y="-42.000015"
       x="0"
       style="color:#363636" />
    <g
       id="g925"
       transform="translate(0,-82.999985)">
      <path
         id="path921"
         style="fill:#ffffff;stroke-width:2;stroke-linecap:round"
         d="m 11,43 c -1.662,0 -3,1.338 -3,3 v 22 c 0,1.662 1.338,3 3,3 h 10 c 1.662,0 3,-1.338 3,-3 V 46 c 0,-1.662 -1.338,-3 -3,-3 z m 0,2 h 1.492188 l 0.490234,0.652344 C 13.098342,45.806154 13.137468,46 13.330078,46 h 5.339844 c 0.19261,0 0.231736,-0.193846 0.347656,-0.347656 L 19.507812,45 H 21 c 0.55399,0 1,0.44601 1,1 v 22 c 0,0.55399 -0.44601,1 -1,1 H 11 c -0.55399,0 -1,-0.44601 -1,-1 V 46 c 0,-0.55399 0.44601,-1 1,-1 z" />
      <rect
         style="color:#363636;fill:#ffffff;fill-opacity:1"
         x="12"
         y="66.999985"
         width="8"
         height="1"
         ry="0.5"
         opacity="0.5"
         id="rect923" />
    </g>
  </g>
  <g
     id="22-22-phone-battery">
    <path
       id="rect981"
       style="fill:#ffffff;stroke-width:2;stroke-linecap:round"
       d="M 52 -29 L 50 -24 L 52 -24 L 52 -21 L 54 -26 L 52 -26 L 52 -29 z " />
    <rect
       id="rect35"
       fill="none"
       height="22"
       width="22"
       y="-36.000015"
       x="41"
       style="color:#363636" />
    <g
       id="g932"
       transform="translate(0,-78.999924)">
      <path
         id="path927"
         style="fill:#ffffff;stroke-width:2;stroke-linecap:round"
         d="m 48,43 c -1.662,0 -3,1.338 -3,3 v 16 c 0,1.662 1.338,3 3,3 h 8 c 1.662,0 3,-1.338 3,-3 V 46 c 0,-1.662 -1.338,-3 -3,-3 z m 0,2 h 1 c 0,0.554 0.446,1 1,1 h 4 c 0.554,0 1,-0.446 1,-1 h 1 c 0.55399,0 1,0.44601 1,1 v 16 c 0,0.55399 -0.44601,1 -1,1 h -8 c -0.55399,0 -1,-0.44601 -1,-1 V 46 c 0,-0.55399 0.44601,-1 1,-1 z" />
      <rect
         style="color:#363636;fill:#ffffff;fill-opacity:1"
         x="49"
         y="60.999985"
         width="6"
         height="0.99993998"
         ry="0.49996999"
         opacity="0.5"
         id="rect929" />
    </g>
  </g>
</svg>
