<?xml version="1.0" encoding="UTF-8" standalone="no"?>
<svg
   xmlns:dc="http://purl.org/dc/elements/1.1/"
   xmlns:cc="http://creativecommons.org/ns#"
   xmlns:rdf="http://www.w3.org/1999/02/22-rdf-syntax-ns#"
   xmlns:svg="http://www.w3.org/2000/svg"
   xmlns="http://www.w3.org/2000/svg"
   xmlns:sodipodi="http://sodipodi.sourceforge.net/DTD/sodipodi-0.dtd"
   xmlns:inkscape="http://www.inkscape.org/namespaces/inkscape"
   id="svg4153"
   version="1.1"
   inkscape:version="1.0.2 (e86c870879, 2021-01-15, custom)"
   width="22"
   height="22"
   sodipodi:docname="software-updates.svg"
   viewBox="0 0 22 22">
  <metadata
     id="metadata4159">
    <rdf:RDF>
      <cc:Work
         rdf:about="">
        <dc:format>image/svg+xml</dc:format>
        <dc:type
           rdf:resource="http://purl.org/dc/dcmitype/StillImage" />
        <dc:title></dc:title>
      </cc:Work>
    </rdf:RDF>
  </metadata>
  <defs
     id="defs4157">
    <style
       type="text/css"
       id="current-color-scheme">
      .ColorScheme-Text {
        color:#31363b;
      }
      .ColorScheme-Background {
        color:#eff0f1;
      }
      .ColorScheme-Highlight {
        color:#3daee9;
      }
      .ColorScheme-ViewText {
        color:#31363b;
      }
      .ColorScheme-ViewBackground {
        color:#fcfcfc;
      }
      .ColorScheme-ViewHover {
        color:#93cee9;
      }
      .ColorScheme-ViewFocus{
        color:#3daee9;
      }
      .ColorScheme-ButtonText {
        color:#31363b;
      }
      .ColorScheme-ButtonBackground {
        color:#eff0f1;
      }
      .ColorScheme-ButtonHover {
        color:#93cee9;
      }
      .ColorScheme-ButtonFocus{
        color:#3daee9;
      }
      </style>
  </defs>
  <sodipodi:namedview
     pagecolor="#c8c8c8"
     bordercolor="#666666"
     borderopacity="1"
     objecttolerance="10"
     gridtolerance="10000"
     guidetolerance="10"
     inkscape:pageopacity="0"
     inkscape:pageshadow="2"
     inkscape:window-width="1920"
     inkscape:window-height="959"
     id="namedview4155"
     inkscape:document-units="px"
     showgrid="true"
     inkscape:showpageshadow="false"
     borderlayer="true"
     inkscape:zoom="5.8979133"
     inkscape:cx="2.5094432"
     inkscape:cy="7.0843916"
     inkscape:window-x="0"
     inkscape:window-y="40"
     inkscape:window-maximized="1"
     inkscape:current-layer="svg4153"
     inkscape:document-rotation="0">
    <inkscape:grid
       type="xygrid"
       id="grid4140" />
    <sodipodi:guide
       position="0,22"
       orientation="22,0"
       id="guide4146" />
    <sodipodi:guide
       position="0,0"
       orientation="0,22"
       id="guide4148" />
    <sodipodi:guide
       position="22,0"
       orientation="-22,0"
       id="guide4150" />
    <sodipodi:guide
       position="22,22"
       orientation="0,-22"
       id="guide4152" />
    <sodipodi:guide
       position="3,19"
       orientation="16,0"
       id="guide4154" />
    <sodipodi:guide
       position="18,3"
       orientation="0,16"
       id="guide4156" />
    <sodipodi:guide
       position="19,3"
       orientation="-16,0"
       id="guide4158" />
    <sodipodi:guide
       position="19,19"
       orientation="0,-16"
       id="guide4160" />
  </sodipodi:namedview>
  <inkscape:clipboard
     style="opacity:0.01000001;fill:#00000f;fill-opacity:0;stroke-width:1;stroke-linecap:butt;stroke-linejoin:miter;stroke-miterlimit:4;stroke-dasharray:none;stroke-dashoffset:0;stroke-opacity:1;stroke:none"
     min="0,0"
     max="22,22" />
  <g
     id="software-updates-inactive">
    <rect
       y="-2.6645353e-15"
       x="-22"
       height="22"
       width="22"
       id="rect4214"
       style="fill:none;fill-opacity:0.599057;stroke:none" />
    <path
       d="m -17,6 c -1.108,0 -2,0.892 -2,2 v 9 c 0,1.108 0.892,2 2,2 h 12 c 1.108,0 2,-0.892 2,-2 V 9 C -3,7.892 -3.892,7 -5,7 h -2 -5.6289 C -13.20875,6.9771 -13.23364,7.07689 -13.668,6.64258 -14.10181,6.20877 -14.28097,6.00045 -15,6 Z m 0,1 h 2 c 0.31116,-2e-6 0.52033,1.38e-4 0.99805,0.4707 0.47877,0.47161 0.6388,0.5293 1,0.5293 h 6.002 2 c 0.554,0 1,0.446 1,1 v 1 h -14 V 8 c 0,-0.554 0.446,-1 1,-1 z m -1,4 h 14 v 6 c 0,0.554 -0.446,1 -1,1 h -12 c -0.554,0 -1,-0.446 -1,-1 z"
       style="color:#bdc3c7;fill:#ffffff;fill-opacity:1"
       class="ColorScheme-Text"
       id="path5" />
  </g>
  <g
     id="software-updates-release">
    <rect
       y="22"
       x="0"
       height="22"
       width="22"
       id="rect4170"
       style="fill:none;fill-opacity:0.599057;stroke:none" />
    <path
       d="m 6,28 c -1.108,0 -2,0.892 -2,2 v 9 c 0,1.108 0.892,2 2,2 h 12 c 1.108,0 2,-0.892 2,-2 v -8 c 0,-1.108 -0.892,-2 -2,-2 H 16 10.3711 C 9.79125,28.9771 9.76636,29.07689 9.332,28.64258 8.89819,28.20877 8.71903,28.00045 8,28 Z m 0,1 h 2 c 0.31116,-2e-6 0.52033,1.38e-4 0.99805,0.4707 0.47877,0.47161 0.6388,0.5293 1,0.5293 h 6.002 2 c 0.554,0 1,0.446 1,1 v 1 h -14 v -2 c 0,-0.554 0.446,-1 1,-1 z m -1,4 h 14 v 6 c 0,0.554 -0.446,1 -1,1 H 6 C 5.446,40 5,39.554 5,39 Z"
       style="color:#bdc3c7;fill:#2ecc71;fill-opacity:1"
       class="ColorScheme-Text"
       id="path888" />
    <path
       style="fill:#2ecc71;fill-opacity:1;stroke:none"
       d="m 16,25 a 3,3 0 0 0 -3,3 3,3 0 0 0 3,3 3,3 0 0 0 3,-3 3,3 0 0 0 -3,-3 z"
       id="path4166"
       inkscape:connector-curvature="0" />
    <path
       style="fill:currentColor;fill-opacity:1;stroke:none"
       d="m 16,26 2,2 h -1 v 2 h -2 v -2 h -1 l 1,-1 z"
       id="path4168"
       inkscape:connector-curvature="0"
       class="ColorScheme-Background" />
  </g>
  <g
     id="software-updates-updates">
    <rect
       style="fill:none;fill-opacity:0.599057;stroke:none"
       id="rect4212"
       width="22"
       height="22"
       x="0"
       y="-2.6645353e-15" />
    <path
       d="M 5,6 C 3.892,6 3,6.892 3,8 v 9 c 0,1.108 0.892,2 2,2 h 12 c 1.108,0 2,-0.892 2,-2 V 9 C 19,7.892 18.108,7 17,7 H 15 9.3711 C 8.79125,6.9771 8.76636,7.07689 8.332,6.64258 7.89819,6.20877 7.71903,6.00045 7,6 Z m 0,1 h 2 c 0.31116,-2e-6 0.52033,1.38e-4 0.99805,0.4707 C 8.47682,7.94231 8.63685,8 8.99805,8 h 6.002 2 c 0.554,0 1,0.446 1,1 v 1 h -14 V 8 c 0,-0.554 0.446,-1 1,-1 z m -1,4 h 14 v 6 c 0,0.554 -0.446,1 -1,1 H 5 C 4.446,18 4,17.554 4,17 Z"
       style="color:#bdc3c7;fill:#ffffff;fill-opacity:1"
       class="ColorScheme-Text"
       id="path874" />
    <path
       inkscape:connector-curvature="0"
       id="path4180"
       d="M 16,3 A 3,3 0 0 0 13,6 3,3 0 0 0 16,9 3,3 0 0 0 19,6 3,3 0 0 0 16,3 Z"
       style="fill:#2ecc71;fill-opacity:1;stroke:none" />
    <path
       inkscape:connector-curvature="0"
       id="path4167"
       d="m 16,4 2,2 H 17 V 8 H 15 V 6 h -1 l 1,-1 z"
       style="fill:#ffffff;fill-opacity:1;stroke:none"
       class="ColorScheme-Background" />
  </g>
  <g
     id="software-updates-security">
    <rect
       style="fill:none;fill-opacity:0.599057;stroke:none"
       id="rect4208"
       width="22"
       height="22"
       x="22"
       y="-2.6645353e-15" />
    <path
       d="m 26.99995,6 c -1.108,0 -2,0.892 -2,2 v 9 c 0,1.108 0.892,2 2,2 h 12 c 1.108,0 2,-0.892 2,-2 V 9 c 0,-1.108 -0.892,-2 -2,-2 h -2 -5.6289 C 30.7912,6.9771 30.76631,7.07689 30.33195,6.64258 29.89814,6.20877 29.71898,6.00045 28.99995,6 Z m 0,1 h 2 c 0.31116,-2e-6 0.52033,1.38e-4 0.99805,0.4707 C 30.47677,7.94231 30.6368,8 30.998,8 H 37 39 c 0.554,0 1,0.446 1,1 v 1 H 26 V 8 c 0,-0.554 0.446,-1 1,-1 z m -1,4 h 14 v 6 c 0,0.554 -0.446,1 -1,1 h -12 c -0.554,0 -1,-0.446 -1,-1 z"
       style="color:#bdc3c7;fill:#ffffff;fill-opacity:1"
       class="ColorScheme-Text"
       id="path882" />
    <path
       id="path4191"
       d="m 38,3 c 0,1 -2,1 -2,1 v 3 c 0,1 1,1 2,2 1,-1 2,-1 2,-2 V 4 c 0,0 -2,0 -2,-1 z"
       style="fill:#fdbc4b;fill-opacity:1;fill-rule:evenodd;stroke:none;stroke-width:1px;stroke-linecap:butt;stroke-linejoin:miter;stroke-opacity:1"
       inkscape:connector-curvature="0" />
  </g>
  <g
     id="software-updates-important">
    <rect
       y="-2.6645353e-15"
       x="44"
       height="22"
       width="22"
       id="rect4206"
       style="fill:none;fill-opacity:0.599057;stroke:none" />
    <path
       d="m 48.99995,6 c -1.108,0 -2,0.892 -2,2 v 9 c 0,1.108 0.892,2 2,2 h 12 c 1.108,0 2,-0.892 2,-2 V 9 c 0,-1.108 -0.892,-2 -2,-2 h -2 -5.6289 C 52.7912,6.9771 52.76631,7.07689 52.33195,6.64258 51.89814,6.20877 51.71898,6.00045 50.99995,6 Z m 0,1 h 2 c 0.31116,-2e-6 0.52033,1.38e-4 0.99805,0.4707 C 52.47677,7.94231 52.6368,8 52.998,8 H 59 61 c 0.554,0 1,0.446 1,1 v 1 H 48 V 8 c 0,-0.554 0.446,-1 1,-1 z m -1,4 h 14 v 6 c 0,0.554 -0.446,1 -1,1 h -12 c -0.554,0 -1,-0.446 -1,-1 z"
       style="color:#bdc3c7;fill:#ffffff;fill-opacity:1"
       class="ColorScheme-Text"
       id="path884" />
    <path
       inkscape:connector-curvature="0"
       id="path4202"
       d="m 60,3 3,5 h -6 z"
       style="fill:#fdbc4b;fill-opacity:1;fill-rule:evenodd;stroke:none;stroke-width:1px;stroke-linecap:butt;stroke-linejoin:miter;stroke-opacity:1" />
  </g>
  <g
     id="software-updates-additional">
    <rect
       style="fill:none;fill-opacity:0.599057;stroke:none"
       id="rect4192"
       width="22"
       height="22"
       x="-22"
       y="22" />
    <path
       d="m -18,28 c -1.108,0 -2,0.892 -2,2 v 9 c 0,1.108 0.892,2 2,2 h 12 c 1.108,0 2,-0.892 2,-2 v -8 c 0,-1.108 -0.892,-2 -2,-2 h -2 -5.6289 c -0.57985,-0.0229 -0.60474,0.07689 -1.0391,-0.35742 C -15.10181,28.20877 -15.28097,28.00045 -16,28 Z m 0,1 h 2 c 0.31116,-2e-6 0.52033,1.38e-4 0.99805,0.4707 0.47877,0.47161 0.6388,0.5293 1,0.5293 h 6.002 2 c 0.554,0 1,0.446 1,1 v 1 h -14 v -2 c 0,-0.554 0.446,-1 1,-1 z m -1,4 h 14 v 6 c 0,0.554 -0.446,1 -1,1 h -12 c -0.554,0 -1,-0.446 -1,-1 z"
       style="color:#bdc3c7;fill:#3daee9;fill-opacity:1"
       class="ColorScheme-Text"
       id="path886" />
    <path
       inkscape:connector-curvature="0"
       id="path4188"
       d="m -6,25 a 3,3 0 0 0 -3,3 3,3 0 0 0 3,3 3,3 0 0 0 3,-3 3,3 0 0 0 -3,-3 z"
       style="fill:currentColor;fill-opacity:1;stroke:none"
       class="ColorScheme-Highlight" />
    <path
       inkscape:connector-curvature="0"
       id="path4190"
       d="m -6,26 2,2 h -1 v 2 h -2 v -2 h -1 l 1,-1 z"
       style="fill:#ffffff;fill-opacity:1;stroke:none"
       class="ColorScheme-Background" />
  </g>
</svg>
