<?xml version="1.0" encoding="UTF-8" standalone="no"?>
<svg
   xmlns:dc="http://purl.org/dc/elements/1.1/"
   xmlns:cc="http://creativecommons.org/ns#"
   xmlns:rdf="http://www.w3.org/1999/02/22-rdf-syntax-ns#"
   xmlns:svg="http://www.w3.org/2000/svg"
   xmlns="http://www.w3.org/2000/svg"
   xmlns:sodipodi="http://sodipodi.sourceforge.net/DTD/sodipodi-0.dtd"
   xmlns:inkscape="http://www.inkscape.org/namespaces/inkscape"
   width="16"
   height="16"
   version="1.1"
   viewBox="0 0 16 16"
   id="svg47"
   sodipodi:docname="window.svg"
   inkscape:version="1.0.2 (e86c870879, 2021-01-15)">
  <metadata
     id="metadata51">
    <rdf:RDF>
      <cc:Work
         rdf:about="">
        <dc:format>image/svg+xml</dc:format>
        <dc:type
           rdf:resource="http://purl.org/dc/dcmitype/StillImage" />
        <dc:title />
      </cc:Work>
    </rdf:RDF>
  </metadata>
  <sodipodi:namedview
     pagecolor="#c8c8c8"
     bordercolor="#666666"
     borderopacity="1"
     objecttolerance="10"
     gridtolerance="10"
     guidetolerance="10"
     inkscape:pageopacity="0"
     inkscape:pageshadow="2"
     inkscape:window-width="1920"
     inkscape:window-height="938"
     id="namedview49"
     showgrid="false"
     inkscape:zoom="8.4779157"
     inkscape:cx="48.742965"
     inkscape:cy="-1.4050576"
     inkscape:window-x="0"
     inkscape:window-y="38"
     inkscape:window-maximized="1"
     inkscape:current-layer="svg47"
     inkscape:document-rotation="0" />
  <defs
     id="defs3">
    <style
       id="current-color-scheme"
       type="text/css">.ColorScheme-Text {
        color:#31363b;
      }
      .ColorScheme-Background {
        color:#eff0f1;
      }
      .ColorScheme-Highlight {
        color:#3daee9;
      }
      .ColorScheme-ViewText {
        color:#31363b;
      }
      .ColorScheme-ViewBackground {
        color:#fcfcfc;
      }
      .ColorScheme-ViewHover {
        color:#93cee9;
      }
      .ColorScheme-ViewFocus{
        color:#3daee9;
      }
      .ColorScheme-ButtonText {
        color:#31363b;
      }
      .ColorScheme-ButtonBackground {
        color:#eff0f1;
      }
      .ColorScheme-ButtonHover {
        color:#93cee9;
      }
      .ColorScheme-ButtonFocus{
        color:#3daee9;
      }
      .ColorScheme-NegativeText {
        color:#da4453;
      }</style>
  </defs>
  <path
     style="color:#31363b;font-style:normal;font-variant:normal;font-weight:normal;font-stretch:normal;font-size:medium;line-height:normal;font-family:sans-serif;font-variant-ligatures:normal;font-variant-position:normal;font-variant-caps:normal;font-variant-numeric:normal;font-variant-alternates:normal;font-variant-east-asian:normal;font-feature-settings:normal;font-variation-settings:normal;text-indent:0;text-align:start;text-decoration:none;text-decoration-line:none;text-decoration-style:solid;text-decoration-color:#000000;letter-spacing:normal;word-spacing:normal;text-transform:none;writing-mode:lr-tb;direction:ltr;text-orientation:mixed;dominant-baseline:auto;baseline-shift:baseline;text-anchor:start;white-space:normal;shape-padding:0;shape-margin:0;inline-size:0;clip-rule:nonzero;display:inline;overflow:visible;visibility:visible;isolation:auto;mix-blend-mode:normal;color-interpolation:sRGB;color-interpolation-filters:linearRGB;solid-color:#000000;solid-opacity:1;vector-effect:none;fill:#ffffff;fill-opacity:1;fill-rule:nonzero;stroke-width:1;stroke-linecap:butt;stroke-linejoin:miter;stroke-miterlimit:0;stroke-dasharray:none;stroke-dashoffset:0;stroke-opacity:1;color-rendering:auto;image-rendering:auto;shape-rendering:auto;text-rendering:auto;enable-background:accumulate;stop-color:#000000;stop-opacity:1;stroke:none;opacity:1"
     d="m 56.378,-2.9024 -0.29297,0.29297 0.29297,0.70703 -2,2 -1.5859,-1 -0.70703,0.70703 1.793,1.793 -2.793,2.793 v 0.70703 h 0.70703 l 2.793,-2.793 1.793,1.793 0.70703,-0.70703 -1,-1.5859 2,-2 0.70703,0.29297 0.29297,-0.29297 v -0.41406 l -2.293,-2.293 z"
     id="8-8-window-pin" />
  <path
     id="8-8-window-unpin"
     class="ColorScheme-ButtonFocus"
     d="m 75.378,-2.9024 -0.29297,0.29297 0.29297,0.70703 -2,2 -1.5859,-1 -0.70703,0.70703 1.793,1.793 -2.793,2.793 v 0.70703 h 0.70703 l 2.793,-2.793 1.793,1.793 0.70703,-0.70703 -1,-1.5859 2,-2 0.70703,0.29297 0.29297,-0.29297 v -0.41406 l -2.293,-2.293 z"
     color="#3daee9"
     fill="currentColor"
     stroke-miterlimit="0" />
  <g
     id="edit-delete"
     transform="matrix(0.72727,0,0,0.72727,-237.09,-388.63)">
    <rect
       x="326"
       y="534.35999"
       width="22"
       height="22"
       fill="none"
       id="rect7" />
    <circle
       cx="277.56"
       cy="-509.56"
       r="0"
       id="circle9" />
    <path
       class="ColorScheme-NegativeText"
       d="m 337,535.74 a 9.625,9.625 0 0 0 -9.625,9.625 9.625,9.625 0 0 0 9.625,9.625 9.625,9.625 0 0 0 9.625,-9.625 A 9.625,9.625 0 0 0 337,535.74 Z m -3.9619,4.8125 3.9619,3.9619 3.9619,-3.9619 0.85065,0.85064 -3.9619,3.9619 3.9619,3.9619 -0.85065,0.85064 -3.9619,-3.9619 -3.9619,3.9619 -0.85063,-0.85064 3.9618,-3.9619 -3.9618,-3.9619 z"
       fill="currentColor"
       id="path11" />
    <path
       transform="matrix(1.375,0,0,1.375,326,534.36)"
       d="M 5.1191406,4.5 4.5,5.1191406 7.3808594,8 4.5,10.880859 5.1191406,11.5 8,8.6191406 10.880859,11.5 11.5,10.880859 8.6191406,8 11.5,5.1191406 10.880859,4.5 8,7.3808594 Z"
       fill="#ffffff"
       fill-opacity="0.71176"
       id="path13" />
  </g>
  <g
     id="window-list"
     transform="translate(-292,-542.36)">
    <rect
       x="286"
       y="561.35999"
       width="32"
       height="32"
       ry="0"
       opacity="0"
       id="rect16" />
    <path
       class="ColorScheme-Text"
       transform="translate(326,534.36)"
       d="m -36,31 v 10 h 10 V 31 Z m 1,1 h 8 v 8 h -8 z"
       fill="currentColor"
       id="path18" />
    <path
       class="ColorScheme-Text"
       transform="translate(326,534.36)"
       d="m -22,31 v 10 h 10 V 31 Z m 1,1 h 8 v 8 h -8 z"
       fill="currentColor"
       id="path20" />
    <path
       class="ColorScheme-Text"
       transform="translate(326,534.36)"
       d="m -36,45 v 10 h 10 V 45 Z m 1,1 h 8 v 8 h -8 z"
       fill="currentColor"
       id="path22" />
    <path
       class="ColorScheme-Text"
       transform="translate(326,534.36)"
       d="m -22,45 v 10 h 10 V 45 Z m 1,1 h 8 v 8 h -8 z"
       fill="currentColor"
       id="path24" />
  </g>
  <g
     id="16-16-window-pin"
     transform="translate(51.085,5.0976)">
    <path
       d="M 0,0 H 16 V 16 H 0 Z"
       fill="none"
       id="path27" />
    <path
       style="color:#31363b;font-style:normal;font-variant:normal;font-weight:normal;font-stretch:normal;font-size:medium;line-height:normal;font-family:sans-serif;font-variant-ligatures:normal;font-variant-position:normal;font-variant-caps:normal;font-variant-numeric:normal;font-variant-alternates:normal;font-variant-east-asian:normal;font-feature-settings:normal;font-variation-settings:normal;text-indent:0;text-align:start;text-decoration:none;text-decoration-line:none;text-decoration-style:solid;text-decoration-color:#000000;letter-spacing:normal;word-spacing:normal;text-transform:none;writing-mode:lr-tb;direction:ltr;text-orientation:mixed;dominant-baseline:auto;baseline-shift:baseline;text-anchor:start;white-space:normal;shape-padding:0;shape-margin:0;inline-size:0;clip-rule:nonzero;display:inline;overflow:visible;visibility:visible;isolation:auto;mix-blend-mode:normal;color-interpolation:sRGB;color-interpolation-filters:linearRGB;solid-color:#000000;solid-opacity:1;vector-effect:none;fill:#ffffff;fill-opacity:1;fill-rule:nonzero;stroke-width:1;stroke-linecap:butt;stroke-linejoin:miter;stroke-miterlimit:4;stroke-dasharray:none;stroke-dashoffset:0;stroke-opacity:1;color-rendering:auto;image-rendering:auto;shape-rendering:auto;text-rendering:auto;enable-background:accumulate;stop-color:#000000;stop-opacity:1;stroke:none;opacity:1"
       d="M 10.5,1.793 9.79297,2.50003 10,3.293 6.6621,6.6309 C 5.83515,6.21841 4.9241,6.00251 4,6.00004 l -0.35352,0.35352 2.6465,2.6465 -3.293,3.293 v 0.70703 h 0.70703 l 3.293,-3.293 2.6465,2.6465 0.35352,-0.35352 C 9.99756,11.07596 9.78166,10.16487 9.36917,9.33797 l 3.3379,-3.3379 0.79297,0.20703 0.70703,-0.70703 z"
       id="path29" />
  </g>
  <g
     id="window-pin"
     transform="translate(29.085,-0.90238)">
    <path
       style="color:#31363b;font-style:normal;font-variant:normal;font-weight:normal;font-stretch:normal;font-size:medium;line-height:normal;font-family:sans-serif;font-variant-ligatures:normal;font-variant-position:normal;font-variant-caps:normal;font-variant-numeric:normal;font-variant-alternates:normal;font-variant-east-asian:normal;font-feature-settings:normal;font-variation-settings:normal;text-indent:0;text-align:start;text-decoration:none;text-decoration-line:none;text-decoration-style:solid;text-decoration-color:#000000;letter-spacing:normal;word-spacing:normal;text-transform:none;writing-mode:lr-tb;direction:ltr;text-orientation:mixed;dominant-baseline:auto;baseline-shift:baseline;text-anchor:start;white-space:normal;shape-padding:0;shape-margin:0;inline-size:0;clip-rule:nonzero;display:inline;overflow:visible;visibility:visible;isolation:auto;mix-blend-mode:normal;color-interpolation:sRGB;color-interpolation-filters:linearRGB;solid-color:#000000;solid-opacity:1;vector-effect:none;fill:#ffffff;fill-opacity:1;fill-rule:nonzero;stroke-width:1;stroke-linecap:square;stroke-linejoin:miter;stroke-miterlimit:0;stroke-dasharray:none;stroke-dashoffset:0;stroke-opacity:1;color-rendering:auto;image-rendering:auto;shape-rendering:auto;text-rendering:auto;enable-background:accumulate;stop-color:#000000;stop-opacity:1;stroke:none;opacity:1"
       d="m 14.5,2.793 -0.70703,0.70703 0.5,1.5 -4.7051,4.7051 C 8.69747,9.24394 7.70977,9.0022 6.70697,9.00005 H 5.99994 l -0.35352,0.35352 3.1465,3.1465 -5.793,5.793 v 0.70703 h 0.70703 l 5.793,-5.793 3.1465,3.1465 0.35352,-0.35352 v -0.70703 c -0.0021,-1.0027 -0.24388,-1.9905 -0.70508,-2.8809 l 4.7051,-4.7051 1.5,0.5 0.70703,-0.70703 z"
       id="path32" />
    <path
       d="M 0,0 H 22 V 22 H 0 Z"
       fill="none"
       id="path34" />
  </g>
  <g
     id="16-16-window-unpin"
     transform="translate(67.085,5.0976)">
    <path
       d="M 0,0 H 16 V 16 H 0 Z"
       fill="none"
       id="path37" />
    <path
       class="ColorScheme-ButtonFocus"
       d="M 10.5,1.793 9.79297,2.50003 10,3.293 6.6621,6.6309 C 5.83515,6.21841 4.9241,6.00251 4,6.00004 l -0.35352,0.35352 2.6465,2.6465 -3.293,3.293 v 0.70703 h 0.70703 l 3.293,-3.293 2.6465,2.6465 0.35352,-0.35352 c -0.00247,-0.92411 -0.21837,-1.8352 -0.63086,-2.6621 l 3.3379,-3.3379 0.79297,0.20703 0.70703,-0.70703 z"
       fill="currentColor"
       id="path39" />
  </g>
  <g
     id="window-unpin"
     transform="translate(83.085,-0.90238)">
    <path
       class="ColorScheme-ButtonFocus"
       d="m 14.5,2.793 -0.70703,0.70703 0.5,1.5 -4.7051,4.7051 C 8.69747,9.24394 7.70977,9.0022 6.70697,9.00005 H 5.99994 l -0.35352,0.35352 3.1465,3.1465 -5.793,5.793 v 0.70703 h 0.70703 l 5.793,-5.793 3.1465,3.1465 0.35352,-0.35352 v -0.70703 c -0.0021,-1.0027 -0.24388,-1.9905 -0.70508,-2.8809 l 4.7051,-4.7051 1.5,0.5 0.70703,-0.70703 z"
       fill="currentColor"
       stroke-linecap="square"
       stroke-miterlimit="0"
       id="path42" />
    <path
       d="M 0,0 H 22 V 22 H 0 Z"
       fill="none"
       id="path44" />
  </g>
  <g
     id="window-close"
     transform="translate(4.4953842,-27.219013)">
    <rect
       width="32"
       height="32"
       x="-4.4953642"
       y="-4.7870002"
       style="opacity:0.00100002"
       id="rect36" />
    <g
       id="g965"
       transform="translate(-2.4953645,-25.287)">
      <rect
         style="fill:#ffffff;fill-opacity:1;stroke:none;stroke-width:1.70639;stroke-linecap:round;stroke-linejoin:round;paint-order:stroke fill markers"
         id="rect880"
         width="22"
         height="3"
         x="-26.909903"
         y="34.208893"
         ry="1.5"
         transform="rotate(-45)" />
      <rect
         style="fill:#ffffff;fill-opacity:1;stroke:none;stroke-width:1.70639;stroke-linecap:round;stroke-linejoin:round;paint-order:stroke fill markers"
         id="rect961"
         width="22"
         height="3"
         x="-46.708893"
         y="14.409903"
         ry="1.5"
         transform="matrix(-0.70710678,-0.70710678,-0.70710678,0.70710678,0,0)" />
    </g>
  </g>
</svg>
