<?xml version="1.0" encoding="UTF-8" standalone="no"?>
<svg
   width="16"
   height="16"
   version="1.1"
   viewBox="0 0 16 16"
   id="svg47"
   sodipodi:docname="window.svg"
   inkscape:version="1.2.1 (9c6d41e410, 2022-07-14)"
   xmlns:inkscape="http://www.inkscape.org/namespaces/inkscape"
   xmlns:sodipodi="http://sodipodi.sourceforge.net/DTD/sodipodi-0.dtd"
   xmlns="http://www.w3.org/2000/svg"
   xmlns:svg="http://www.w3.org/2000/svg"
   xmlns:rdf="http://www.w3.org/1999/02/22-rdf-syntax-ns#"
   xmlns:cc="http://creativecommons.org/ns#"
   xmlns:dc="http://purl.org/dc/elements/1.1/">
  <metadata
     id="metadata51">
    <rdf:RDF>
      <cc:Work
         rdf:about="">
        <dc:format>image/svg+xml</dc:format>
        <dc:type
           rdf:resource="http://purl.org/dc/dcmitype/StillImage" />
        <dc:title />
      </cc:Work>
    </rdf:RDF>
  </metadata>
  <sodipodi:namedview
     pagecolor="#c8c8c8"
     bordercolor="#666666"
     borderopacity="1"
     objecttolerance="10"
     gridtolerance="10"
     guidetolerance="10"
     inkscape:pageopacity="0"
     inkscape:pageshadow="2"
     inkscape:window-width="1920"
     inkscape:window-height="936"
     id="namedview49"
     showgrid="false"
     inkscape:zoom="5.9947917"
     inkscape:cx="23.019982"
     inkscape:cy="12.010426"
     inkscape:window-x="0"
     inkscape:window-y="40"
     inkscape:window-maximized="1"
     inkscape:current-layer="svg47"
     inkscape:document-rotation="0"
     inkscape:pagecheckerboard="0"
     inkscape:showpageshadow="0"
     inkscape:deskcolor="#c8c8c8" />
  <defs
     id="defs3">
    <style
       id="current-color-scheme"
       type="text/css">.ColorScheme-Text {
        color:#31363b;
      }
      .ColorScheme-Background {
        color:#eff0f1;
      }
      .ColorScheme-Highlight {
        color:#3daee9;
      }
      .ColorScheme-ViewText {
        color:#31363b;
      }
      .ColorScheme-ViewBackground {
        color:#fcfcfc;
      }
      .ColorScheme-ViewHover {
        color:#93cee9;
      }
      .ColorScheme-ViewFocus{
        color:#3daee9;
      }
      .ColorScheme-ButtonText {
        color:#31363b;
      }
      .ColorScheme-ButtonBackground {
        color:#eff0f1;
      }
      .ColorScheme-ButtonHover {
        color:#93cee9;
      }
      .ColorScheme-ButtonFocus{
        color:#3daee9;
      }
      .ColorScheme-NegativeText {
        color:#da4453;
      }</style>
  </defs>
  <g
     id="edit-delete"
     transform="matrix(0.72727,0,0,0.72727,-237.09,-388.63)">
    <rect
       x="326"
       y="534.35999"
       width="22"
       height="22"
       fill="none"
       id="rect7" />
    <circle
       cx="277.56"
       cy="-509.56"
       r="0"
       id="circle9" />
    <path
       class="ColorScheme-NegativeText"
       d="m 337,535.74 a 9.625,9.625 0 0 0 -9.625,9.625 9.625,9.625 0 0 0 9.625,9.625 9.625,9.625 0 0 0 9.625,-9.625 A 9.625,9.625 0 0 0 337,535.74 Z m -3.9619,4.8125 3.9619,3.9619 3.9619,-3.9619 0.85065,0.85064 -3.9619,3.9619 3.9619,3.9619 -0.85065,0.85064 -3.9619,-3.9619 -3.9619,3.9619 -0.85063,-0.85064 3.9618,-3.9619 -3.9618,-3.9619 z"
       fill="currentColor"
       id="path11" />
    <path
       transform="matrix(1.375,0,0,1.375,326,534.36)"
       d="M 5.1191406,4.5 4.5,5.1191406 7.3808594,8 4.5,10.880859 5.1191406,11.5 8,8.6191406 10.880859,11.5 11.5,10.880859 8.6191406,8 11.5,5.1191406 10.880859,4.5 8,7.3808594 Z"
       fill="#ffffff"
       fill-opacity="0.71176"
       id="path13" />
  </g>
  <g
     id="window-list"
     transform="translate(-292,-542.36)">
    <rect
       x="286"
       y="561.35999"
       width="32"
       height="32"
       ry="0"
       opacity="0"
       id="rect16" />
    <path
       class="ColorScheme-Text"
       transform="translate(326,534.36)"
       d="m -36,31 v 10 h 10 V 31 Z m 1,1 h 8 v 8 h -8 z"
       fill="currentColor"
       id="path18" />
    <path
       class="ColorScheme-Text"
       transform="translate(326,534.36)"
       d="m -22,31 v 10 h 10 V 31 Z m 1,1 h 8 v 8 h -8 z"
       fill="currentColor"
       id="path20" />
    <path
       class="ColorScheme-Text"
       transform="translate(326,534.36)"
       d="m -36,45 v 10 h 10 V 45 Z m 1,1 h 8 v 8 h -8 z"
       fill="currentColor"
       id="path22" />
    <path
       class="ColorScheme-Text"
       transform="translate(326,534.36)"
       d="m -22,45 v 10 h 10 V 45 Z m 1,1 h 8 v 8 h -8 z"
       fill="currentColor"
       id="path24" />
  </g>
  <g
     id="window-close"
     transform="translate(4.4953842,-27.219013)">
    <rect
       width="32"
       height="32"
       x="-4.4953642"
       y="-4.7870002"
       style="opacity:0.00100002"
       id="rect36" />
    <g
       id="g965"
       transform="translate(-2.4953645,-25.287)">
      <rect
         style="fill:#323232;fill-opacity:1;stroke:none;stroke-width:1.70639;stroke-linecap:round;stroke-linejoin:round;paint-order:stroke fill markers"
         id="rect880"
         width="22"
         height="3"
         x="-26.909903"
         y="34.208893"
         ry="1.5"
         transform="rotate(-45)" />
      <rect
         style="fill:#323232;fill-opacity:1;stroke:none;stroke-width:1.70639;stroke-linecap:round;stroke-linejoin:round;paint-order:stroke fill markers"
         id="rect961"
         width="22"
         height="3"
         x="-46.708893"
         y="14.409903"
         ry="1.5"
         transform="matrix(-0.70710678,-0.70710678,-0.70710678,0.70710678,0,0)" />
    </g>
  </g>
  <g
     id="window-pin">
    <path
       d="m 29.085,-0.40238 h 22 v 22 h -22 z"
       fill="none"
       id="path34" />
    <path
       style="color:#323232;fill:#323232;fill-opacity:1;stroke-width:0.86159;-inkscape-stroke:none"
       d="m 35.287753,13.872781 h 4.043766 v 3.589387 c 0,1.052604 0.545212,2.135452 0.757252,2.135452 0.204453,0 0.749668,-1.082848 0.749668,-2.135452 v -3.589387 h 4.051372 c 0.719344,0 1.181328,-0.454403 1.181328,-1.143504 0,-1.635644 -1.29497,-3.2410447 -3.278956,-4.0361209 L 42.549817,5.1037174 c 0.976872,-0.6360952 1.870428,-1.3479165 2.256678,-1.8477079 0.204456,-0.2726156 0.302849,-0.5452233 0.302849,-0.787545 0,-0.4997913 -0.378582,-0.8708445 -0.954125,-0.8708445 h -8.140498 c -0.567943,0 -0.954143,0.3710532 -0.954143,0.8708445 0,0.2423217 0.09845,0.5149294 0.3029,0.787545 0.386209,0.4997914 1.287372,1.2116127 2.256661,1.8477079 L 37.377773,8.693156 c -1.976428,0.7950763 -3.278912,2.400477 -3.278912,4.036121 0,0.689101 0.469499,1.143504 1.188892,1.143504 z m 4.801018,-5.6945982 c -0.4619,0 -0.908721,0.045405 -1.332797,0.1211401 L 38.983176,4.497915 C 38.990735,4.3691768 38.96801,4.3085978 38.869619,4.2631658 37.854836,3.740655 37.067343,3.1348527 36.938621,2.9606824 c -0.06066,-0.083295 -0.0076,-0.1514509 0.07565,-0.1514509 h 6.141419 c 0.08323,0 0.136303,0.068152 0.07574,0.1514509 -0.128808,0.1741703 -0.916301,0.7799726 -1.931084,1.3024834 -0.09839,0.045428 -0.121139,0.1060088 -0.113557,0.2347492 L 41.41399,8.2993229 C 40.989905,8.2235879 40.543085,8.1781828 40.088771,8.1781828 Z M 35.636093,12.57781 c -0.151448,0 -0.2196,-0.08323 -0.189315,-0.265025 0.181742,-1.355455 1.968907,-2.8775403 4.641993,-2.8775403 2.665588,0 4.4527,1.5220853 4.641992,2.8775403 0.02275,0.181796 -0.0454,0.265025 -0.196874,0.265025 z"
       id="path852" />
  </g>
  <g
     id="window-unpin"
     transform="translate(30.712064)">
    <path
       d="m 29.085,-0.40238 h 22 v 22 h -22 z"
       fill="none"
       id="path3032" />
    <path
       style="color:#323232;fill:#3daee9;fill-opacity:1;stroke-width:0.86159;-inkscape-stroke:none"
       d="m 35.287753,13.872781 h 4.043766 v 3.589387 c 0,1.052604 0.545212,2.135452 0.757252,2.135452 0.204453,0 0.749668,-1.082848 0.749668,-2.135452 v -3.589387 h 4.051372 c 0.719344,0 1.181328,-0.454403 1.181328,-1.143504 0,-1.635644 -1.29497,-3.2410447 -3.278956,-4.0361209 L 42.549817,5.1037174 c 0.976872,-0.6360952 1.870428,-1.3479165 2.256678,-1.8477079 0.204456,-0.2726156 0.302849,-0.5452233 0.302849,-0.787545 0,-0.4997913 -0.378582,-0.8708445 -0.954125,-0.8708445 h -8.140498 c -0.567943,0 -0.954143,0.3710532 -0.954143,0.8708445 0,0.2423217 0.09845,0.5149294 0.3029,0.787545 0.386209,0.4997914 1.287372,1.2116127 2.256661,1.8477079 L 37.377773,8.693156 c -1.976428,0.7950763 -3.278912,2.400477 -3.278912,4.036121 0,0.689101 0.469499,1.143504 1.188892,1.143504 z m 4.801018,-5.6945982 c -0.4619,0 -0.908721,0.045405 -1.332797,0.1211401 L 38.983176,4.497915 C 38.990735,4.3691768 38.96801,4.3085978 38.869619,4.2631658 37.854836,3.740655 37.067343,3.1348527 36.938621,2.9606824 c -0.06066,-0.083295 -0.0076,-0.1514509 0.07565,-0.1514509 h 6.141419 c 0.08323,0 0.136303,0.068152 0.07574,0.1514509 -0.128808,0.1741703 -0.916301,0.7799726 -1.931084,1.3024834 -0.09839,0.045428 -0.121139,0.1060088 -0.113557,0.2347492 L 41.41399,8.2993229 C 40.989905,8.2235879 40.543085,8.1781828 40.088771,8.1781828 Z M 35.636093,12.57781 c -0.151448,0 -0.2196,-0.08323 -0.189315,-0.265025 0.181742,-1.355455 1.968907,-2.8775403 4.641993,-2.8775403 2.665588,0 4.4527,1.5220853 4.641992,2.8775403 0.02275,0.181796 -0.0454,0.265025 -0.196874,0.265025 z"
       id="path3034" />
  </g>
</svg>
