<?xml version="1.0" encoding="UTF-8" standalone="no"?>
<svg
   width="32"
   height="32"
   version="1"
   id="svg14"
   sodipodi:docname="antimicro.svg"
   inkscape:version="1.3 (0e150ed6c4, 2023-07-21)"
   xmlns:inkscape="http://www.inkscape.org/namespaces/inkscape"
   xmlns:sodipodi="http://sodipodi.sourceforge.net/DTD/sodipodi-0.dtd"
   xmlns="http://www.w3.org/2000/svg"
   xmlns:svg="http://www.w3.org/2000/svg">
  <style
     id="current-color-scheme"
     type="text/css">.ColorScheme-Text { color:#eceff4; }&#10;</style>
  <sodipodi:namedview
     id="namedview16"
     pagecolor="#c8c8c8"
     bordercolor="#000000"
     borderopacity="1"
     inkscape:showpageshadow="2"
     inkscape:pageopacity="0.0"
     inkscape:pagecheckerboard="0"
     inkscape:deskcolor="#e6e6e6"
     showgrid="true"
     inkscape:zoom="8"
     inkscape:cx="17.125"
     inkscape:cy="27.25"
     inkscape:window-width="1920"
     inkscape:window-height="941"
     inkscape:window-x="0"
     inkscape:window-y="34"
     inkscape:window-maximized="1"
     inkscape:current-layer="svg14">
    <inkscape:grid
       type="xygrid"
       id="grid1266"
       originx="1.0058058e-06"
       originy="0"
       spacingy="1"
       spacingx="1"
       units="px"
       visible="true" />
  </sodipodi:namedview>
  <defs
     id="defs5">
    <style
       type="text/css"
       id="style646" />
  </defs>
  <g
     id="antimicro">
    <rect
       style="opacity:0.00100002"
       width="32"
       height="32"
       x="0"
       y="0"
       id="rect4" />
    <g
       id="g20"
       transform="translate(34.999997,-2.000007)">
      <path
         id="path19"
         style="color:#000000;fill:#ffffff;stroke-width:1.01116;-inkscape-stroke:none"
         d="m -25.238542,10.000007 c -1.483868,-0.00335 -2.926529,0.487924 -4.087212,1.393434 -1.139796,0.883299 -1.95212,2.108891 -2.315023,3.486516 l -2.189293,8.002961 c -0.840652,3.070972 1.545021,6.116139 4.791697,6.117036 2.194325,0 4.203628,-1.439842 4.795691,-3.603776 l 0.459012,-1.674855 c 0.127718,-0.463815 0.550949,-0.781842 1.041761,-0.783685 h 7.481913 c 0.492186,4.9e-4 0.915768,0.318881 1.043758,0.783685 l 0.459011,1.67681 v 0.002 c 0.583023,2.120365 2.551518,3.597317 4.7936941,3.599867 h 0.00199 c 3.2466716,-7.65e-4 5.6320839,-3.046116 4.7917012,-6.117083 l -2.1892931,-8.002961 -0.00199,-0.0039 C -6.7243469,13.501015 -7.5347196,12.277647 -8.6721592,11.395395 -9.8332085,10.48865 -11.276604,9.9967155 -12.761367,10.000007 h -12.475179 z m 0,2.003183 h 12.477175 c 2.091482,3.06e-4 3.9064259,1.38759 4.4184997,3.373165 l 0.00199,0.002 2.1952802,8.02055 -0.00199,-0.002 c 0.2591092,0.971043 0.088575,1.703611 -0.3053434,2.28656 -0.3925459,0.580922 -1.0401247,1.005142 -1.7602157,1.194093 -0.7197973,0.188872 -1.4962794,0.137226 -2.1334128,-0.173936 -0.639252,-0.312194 -1.163561,-0.861311 -1.434915,-1.827293 v -0.002 l -0.459013,-1.674857 v -0.002 c -0.366525,-1.333651 -1.60694,-2.265459 -3.017513,-2.267017 h -7.481913 c -1.410576,0.0016 -2.650988,0.933366 -3.017513,2.267017 v 0.002 l -0.459014,1.674857 c -0.271165,0.96724 -0.795188,1.516811 -1.434915,1.829248 -0.637141,0.311177 -1.413586,0.362814 -2.133413,0.173936 -0.72012,-0.188958 -1.36767,-0.613154 -1.760215,-1.194094 -0.393937,-0.582995 -0.564492,-1.3155 -0.305343,-2.286559 l 0.01597,-0.06254 2.173327,-7.944331 0.0039,-0.0078 0.0039,-0.01955 c 0.516428,-1.979218 2.327468,-3.359181 4.414509,-3.359484 z" />
      <circle
         style="fill:#ffffff;fill-opacity:1;stroke:none;stroke-width:0.36;stroke-dasharray:none;stroke-opacity:1"
         id="path5"
         cx="-12.999999"
         cy="15"
         r="1" />
      <circle
         style="fill:#ffffff;fill-opacity:1;stroke:none;stroke-width:0.36;stroke-dasharray:none;stroke-opacity:1"
         id="circle5"
         cx="-12.999999"
         cy="18.994131"
         r="1" />
      <circle
         style="fill:#ffffff;fill-opacity:1;stroke:none;stroke-width:0.36;stroke-dasharray:none;stroke-opacity:1"
         id="circle6"
         cx="-14.999999"
         cy="17"
         r="1" />
      <circle
         style="fill:#ffffff;fill-opacity:1;stroke:none;stroke-width:0.36;stroke-dasharray:none;stroke-opacity:1"
         id="circle7"
         cx="-10.999999"
         cy="17"
         r="1" />
      <path
         id="path18"
         style="fill:#ffffff;fill-opacity:1;stroke:none;stroke-width:0.36;stroke-dasharray:none;stroke-opacity:1"
         d="m -24,14 a 3,3 0 0 0 -3,3 3,3 0 0 0 3,3 3,3 0 0 0 3,-3 3,3 0 0 0 -3,-3 z m 0,2 a 1,1 0 0 1 1,1 1,1 0 0 1 -1,1 1,1 0 0 1 -1,-1 1,1 0 0 1 1,-1 z" />
    </g>
  </g>
  <g
     id="22-22-antimicro">
    <rect
       style="opacity:0.00100002"
       width="22"
       height="22"
       x="35"
       y="10"
       id="rect9" />
    <path
       id="path20"
       style="color:#000000;fill:#ffffff;stroke-width:0.621064;-inkscape-stroke:none"
       d="m 42.256874,15 c -0.890321,-0.0021 -1.755918,0.306786 -2.452327,0.87613 -0.683878,0.555379 -1.171273,1.325977 -1.389014,2.192167 l -1.313576,5.031909 c -0.504392,1.930891 0.927012,3.845557 2.875018,3.846122 1.316595,0 2.522177,-0.90531 2.877415,-2.265895 l 0.275407,-1.053075 c 0.07663,-0.291627 0.33057,-0.491588 0.625057,-0.492746 h 4.489148 c 0.295312,3.07e-4 0.549461,0.200497 0.626255,0.492746 l 0.275407,1.054304 v 0.0012 c 0.349814,1.333192 1.530911,2.261834 2.876217,2.263437 h 0.0012 c 1.948003,-4.81e-4 3.37925,-1.915264 2.875021,-3.846152 l -1.313576,-5.031908 -0.0012,-0.0024 C 53.365392,17.20128 52.879169,16.43208 52.196705,15.877359 51.500075,15.307238 50.634038,14.997931 49.74318,15 h -7.485108 z m 0,1.259513 h 7.486306 c 1.254889,1.93e-4 2.343856,0.872456 2.6511,2.120897 l 0.0012,0.0012 1.317168,5.042968 -0.0012,-0.0012 c 0.155466,0.610549 0.05315,1.071155 -0.183206,1.437688 -0.235527,0.365258 -0.624075,0.631988 -1.056129,0.750793 -0.431879,0.118754 -0.897768,0.08629 -1.280048,-0.109364 -0.383551,-0.196293 -0.698137,-0.541554 -0.860949,-1.148921 v -0.0012 l -0.275408,-1.053075 v -0.0012 C 49.835793,22.459442 49.091544,21.873562 48.2452,21.872584 h -4.489148 c -0.846346,0.001 -1.590593,0.586858 -1.810508,1.425399 v 0.0012 l -0.275409,1.053076 c -0.162699,0.608158 -0.477113,0.953704 -0.860949,1.150151 -0.382285,0.195653 -0.848152,0.228122 -1.280048,0.109363 -0.432072,-0.118808 -0.820602,-0.385524 -1.056129,-0.750794 -0.236362,-0.366562 -0.338695,-0.827128 -0.183206,-1.437687 l 0.0096,-0.03932 1.303997,-4.995044 0.0023,-0.0049 0.0023,-0.01229 c 0.309856,-1.244444 1.39648,-2.112105 2.648705,-2.112295 z" />
    <circle
       style="fill:#ffffff;fill-opacity:1;stroke:none;stroke-width:0.216;stroke-dasharray:none;stroke-opacity:1"
       id="circle20"
       cx="49.600002"
       cy="18.300003"
       r="0.60000008" />
    <circle
       style="fill:#ffffff;fill-opacity:1;stroke:none;stroke-width:0.216;stroke-dasharray:none;stroke-opacity:1"
       id="circle21"
       cx="49.600002"
       cy="20.696482"
       r="0.60000008" />
    <circle
       style="fill:#ffffff;fill-opacity:1;stroke:none;stroke-width:0.216;stroke-dasharray:none;stroke-opacity:1"
       id="circle22"
       cx="48.400002"
       cy="19.500004"
       r="0.60000008" />
    <circle
       style="fill:#ffffff;fill-opacity:1;stroke:none;stroke-width:0.216;stroke-dasharray:none;stroke-opacity:1"
       id="circle23"
       cx="50.799999"
       cy="19.500004"
       r="0.60000008" />
    <path
       id="path23"
       style="fill:#ffffff;fill-opacity:1;stroke:none;stroke-width:0.216;stroke-dasharray:none;stroke-opacity:1"
       d="m 42.999999,17.700003 a 1.8000002,1.8000002 0 0 0 -1.8,1.8 1.8000002,1.8000002 0 0 0 1.8,1.800001 1.8000002,1.8000002 0 0 0 1.800001,-1.800001 1.8000002,1.8000002 0 0 0 -1.800001,-1.8 z m 0,1.2 a 0.60000007,0.60000007 0 0 1 0.6,0.6 0.60000007,0.60000007 0 0 1 -0.6,0.6 0.60000007,0.60000007 0 0 1 -0.6,-0.6 0.60000007,0.60000007 0 0 1 0.6,-0.6 z" />
  </g>
</svg>
