<?xml version="1.0" encoding="UTF-8" standalone="no"?>
<svg
   width="32"
   height="32"
   version="1.0"
   viewBox="0 0 32 32"
   id="svg133"
   sodipodi:docname="audio.svg"
   inkscape:version="1.2.1 (9c6d41e410, 2022-07-14)"
   xmlns:inkscape="http://www.inkscape.org/namespaces/inkscape"
   xmlns:sodipodi="http://sodipodi.sourceforge.net/DTD/sodipodi-0.dtd"
   xmlns="http://www.w3.org/2000/svg"
   xmlns:svg="http://www.w3.org/2000/svg"
   xmlns:rdf="http://www.w3.org/1999/02/22-rdf-syntax-ns#"
   xmlns:cc="http://creativecommons.org/ns#"
   xmlns:dc="http://purl.org/dc/elements/1.1/">
  <metadata
     id="metadata137">
    <rdf:RDF>
      <cc:Work
         rdf:about="">
        <dc:format>image/svg+xml</dc:format>
        <dc:type
           rdf:resource="http://purl.org/dc/dcmitype/StillImage" />
      </cc:Work>
    </rdf:RDF>
  </metadata>
  <sodipodi:namedview
     pagecolor="#c8c8c8"
     bordercolor="#666666"
     borderopacity="1"
     objecttolerance="10"
     gridtolerance="10"
     guidetolerance="10"
     inkscape:pageopacity="0"
     inkscape:pageshadow="2"
     inkscape:window-width="1920"
     inkscape:window-height="1005"
     id="namedview135"
     showgrid="false"
     inkscape:snap-smooth-nodes="true"
     inkscape:snap-bbox="true"
     inkscape:bbox-nodes="true"
     inkscape:snap-bbox-edge-midpoints="true"
     inkscape:zoom="5.6568545"
     inkscape:cx="61.34151"
     inkscape:cy="38.802483"
     inkscape:window-x="0"
     inkscape:window-y="0"
     inkscape:window-maximized="1"
     inkscape:current-layer="svg133"
     inkscape:pagecheckerboard="0"
     inkscape:snap-nodes="false"
     inkscape:object-paths="true"
     inkscape:snap-intersection-paths="true"
     inkscape:object-nodes="true"
     inkscape:snap-midpoints="true"
     inkscape:showpageshadow="0"
     inkscape:deskcolor="#c8c8c8">
    <inkscape:grid
       type="xygrid"
       id="grid974" />
  </sodipodi:namedview>
  <defs
     id="defs3"><style
   id="current-color-scheme"
   type="text/css">.ColorScheme-Text { color:#363636; }</style>




fill=&quot;none&quot;/&gt;
  </defs>
  <g
     id="22-22-audio-volume-high"
     class="ColorScheme-Text"
     transform="translate(7.893,-6.7419)"
     fill="currentColor">
    <rect
       x="-54.893"
       y="-22.258"
       width="24"
       height="24"
       ry="0"
       opacity="0"
       id="rect5" />
    <g
       transform="translate(-14.862,2.5994)"
       id="g13">
      <path
         d="m-27.781-20.654c-0.22873-0.01291-0.46234 0.05388-0.62305 0.18555l-4.4062 3.6113h-3.2207c-1.108 0-2 0.892-2 2v4c0 1.108 0.892 2 2 2h3.2207l4.4062 3.6113c0.1607 0.13168 0.39439 0.1984 0.62305 0.18555 0.38109-0.021513 0.75-0.26516 0.75-0.79688v-14c0-0.53171-0.36878-0.77536-0.75-0.79688z"
         id="path7" />
      <path
         d="m-20.001-19.446-1.7422 0.99414a10 10 0 0 1 1.7129 5.5938 10 10 0 0 1-1.7109 5.5938l1.7402 0.99414a12 12 0 0 0 1.9707-6.5879 12 12 0 0 0-1.9707-6.5879z"
         id="path9" />
      <path
         d="m-23.486-17.456-1.7441 0.99805a6 6 0 0 1 1.1992 3.5996 6 6 0 0 1-1.2012 3.5996l1.748 0.99805a8 8 0 0 0 1.4531-4.5977 8 8 0 0 0-1.4551-4.5977z"
         id="path11" />
    </g>
  </g>
  <g
     id="22-22-audio-volume-medium"
     class="ColorScheme-Text"
     transform="translate(7.893,27.258)"
     fill="currentColor">
    <rect
       x="-54.893"
       y="-22.258"
       width="24"
       height="24"
       ry="0"
       opacity="0"
       id="rect16" />
    <g
       transform="translate(-14.862,2.5994)"
       id="g24">
      <path
         d="m-27.781-20.654c-0.22873-0.01291-0.46234 0.05388-0.62305 0.18555l-4.4062 3.6113h-3.2207c-1.108 0-2 0.892-2 2v4c0 1.108 0.892 2 2 2h3.2207l4.4062 3.6113c0.1607 0.13168 0.39439 0.1984 0.62305 0.18555 0.38109-0.021513 0.75-0.26516 0.75-0.79688v-14c0-0.53171-0.36878-0.77536-0.75-0.79688z"
         id="path18" />
      <path
         d="m-20.001-19.446-1.7422 0.99414a10 10 0 0 1 1.7129 5.5938 10 10 0 0 1-1.7109 5.5938l1.7402 0.99414a12 12 0 0 0 1.9707-6.5879 12 12 0 0 0-1.9707-6.5879z"
         opacity=".35"
         id="path20" />
      <path
         d="m-23.486-17.456-1.7441 0.99805a6 6 0 0 1 1.1992 3.5996 6 6 0 0 1-1.2012 3.5996l1.748 0.99805a8 8 0 0 0 1.4531-4.5977 8 8 0 0 0-1.4551-4.5977z"
         id="path22" />
    </g>
  </g>
  <g
     id="22-22-audio-volume-low"
     class="ColorScheme-Text"
     transform="translate(7.893,58.258)"
     fill="currentColor">
    <rect
       x="-54.893"
       y="-22.258"
       width="24"
       height="24"
       ry="0"
       opacity="0"
       id="rect27" />
    <g
       transform="translate(-14.862,2.5994)"
       id="g35">
      <path
         d="m-27.781-20.654c-0.22873-0.01291-0.46234 0.05388-0.62305 0.18555l-4.4062 3.6113h-3.2207c-1.108 0-2 0.892-2 2v4c0 1.108 0.892 2 2 2h3.2207l4.4062 3.6113c0.1607 0.13168 0.39439 0.1984 0.62305 0.18555 0.38109-0.021513 0.75-0.26516 0.75-0.79688v-14c0-0.53171-0.36878-0.77536-0.75-0.79688z"
         stroke-width="3.0237"
         style="paint-order:stroke fill markers"
         id="path29" />
      <path
         d="m-20.001-19.446-1.7422 0.99414a10 10 0 0 1 1.7129 5.5938 10 10 0 0 1-1.7109 5.5938l1.7402 0.99414a12 12 0 0 0 1.9707-6.5879 12 12 0 0 0-1.9707-6.5879z"
         opacity=".35"
         id="path31" />
      <path
         d="m-23.486-17.456-1.7441 0.99805a6 6 0 0 1 1.1992 3.5996 6 6 0 0 1-1.2012 3.5996l1.748 0.99805a8 8 0 0 0 1.4531-4.5977 8 8 0 0 0-1.4551-4.5977z"
         opacity=".35"
         id="path33" />
    </g>
  </g>
  <g
     id="22-22-audio-volume-muted"
     class="ColorScheme-Text"
     fill="currentColor">
    <g
       transform="translate(7.893,87.258)"
       id="g44">
      <rect
         x="-54.893"
         y="-22.258"
         width="24"
         height="24"
         ry="0"
         opacity="0"
         id="rect38" />
      <g
         transform="translate(-14.862,2.5994)"
         id="g42">
        <path
           transform="translate(6.9691,-89.857)"
           d="m-34.75 69.203c-0.22873-0.01291-0.46234 0.05388-0.62305 0.18555l-2.4219 1.9863 3.7949 3.7949v-5.1699c0-0.53171-0.36878-0.77536-0.75-0.79688zm7.7793 1.209-1.7422 0.99414a10 10 0 0 1 1.7129 5.5938 10 10 0 0 1-0.93945 4.2305l1.4883 1.4883a12 12 0 0 0 1.4512-5.7188 12 12 0 0 0-1.9707-6.5879zm-3.4844 1.9902-1.7441 0.99805a6 6 0 0 1 1.1992 3.5996 6 6 0 0 1-0.09766 1.0723l1.6289 1.6289a8 8 0 0 0 0.46875-2.7012 8 8 0 0 0-1.4551-4.5977zm-12.545 0.59766c-1.108 0-2 0.892-2 2v4c0 1.108 0.892 2 2 2h3.2207l4.4062 3.6113c0.1607 0.13168 0.39439 0.1984 0.62305 0.18555 0.38109-0.02151 0.75-0.26516 0.75-0.79688v-3.1719l-7.8281-7.8281h-1.1719z"
           id="path40" />
      </g>
    </g>
    <path
       d="m-44.192 69.222 1.4142-1.4142 16.971 16.971-1.4142 1.4142z"
       id="path46" />
  </g>
  <g
     class="ColorScheme-Text"
     fill="currentColor"
     id="g101"
     transform="translate(37,16.00049)">
    <path
       class="ColorScheme-Text"
       d="m -38.614,-65.107 c -0.18714,-0.01056 -0.37828,0.04408 -0.50977,0.15181 l -3.6051,2.9547 h -2.6351 c -0.90655,0 -1.6364,0.72982 -1.6364,1.6364 v 2.7273 c 0,0.90655 0.72982,1.6364 1.6364,1.6364 h 2.6351 l 3.6051,2.9547 c 0.13148,0.10774 0.32268,0.16233 0.50977,0.15182 0.3118,-0.0176 0.61364,-0.21695 0.61364,-0.652 v -10.909 c 0,-0.43504 -0.30173,-0.63439 -0.61364,-0.652 z"
       fill="currentColor"
       id="path95" />
    <path
       d="m -35.057,-62.971 -1.793,0.89453 a 6,6 0 0 1 0.84961,3.0762 6,6 0 0 1 -0.84961,3.0762 l 1.7949,0.89648 a 8,8 0 0 0 1.0547,-3.9727 8,8 0 0 0 -1.0566,-3.9707 z"
       id="path97" />
    <path
       d="m -32.371,-64.314 -1.791,0.89453 a 9,9 0 0 1 1.1621,4.4199 9,9 0 0 1 -1.1602,4.4199 l 1.7891,0.89453 a 11,11 0 0 0 1.3711,-5.3145 11,11 0 0 0 -1.3711,-5.3145 z"
       id="path99" />
  </g>
  <g
     id="audio-volume-high">
    <rect
       x="-6.7138999e-06"
       y="9.7656002e-06"
       width="32"
       height="32"
       ry="0.35556"
       opacity="0"
       id="rect51"
       style="color:#363636;fill:#363636" />
    <path
       id="path2121"
       style="fill:#ffffff;fill-opacity:1;stroke-width:1.21596"
       d="M 27.115234 7.625 C 26.917477 7.62025 26.719298 7.6767425 26.542969 7.7929688 C 26.029956 8.1242687 25.953892 8.7558479 26.306641 9.3222656 C 27.941739 11.812365 28.957031 14.90043 28.957031 18.320312 C 28.957031 21.718794 27.94174 24.82718 26.306641 27.306641 C 25.953892 27.873034 26.029956 28.504589 26.542969 28.835938 C 27.01318 29.145885 27.644401 29.007153 27.986328 28.494141 C 29.867294 25.672752 31 22.167604 31 18.320312 C 31 14.462198 29.845893 10.966854 27.986328 8.1347656 C 27.772623 7.8074678 27.444829 7.6329309 27.115234 7.625 z M 12.863281 8.7441406 C 12.318289 8.7441406 11.934432 8.9901151 11.335938 9.5351562 L 6.6425781 13.691406 C 6.5784602 13.755526 6.4936971 13.777344 6.4082031 13.777344 L 3.3847656 13.777344 C 1.8030715 13.77735 1 14.610143 1 16.277344 L 1 20.380859 C 1 22.058761 1.8137476 22.882813 3.3847656 22.882812 L 6.4082031 22.882812 C 6.493697 22.882812 6.5784607 22.90467 6.6425781 22.96875 L 11.335938 27.15625 C 11.891632 27.658562 12.318373 27.896484 12.884766 27.896484 C 13.675624 27.896484 14.273438 27.296719 14.273438 26.505859 L 14.273438 10.185547 C 14.273438 9.3840119 13.675541 8.7441406 12.863281 8.7441406 z M 22.792969 10.505859 C 22.598276 10.504159 22.399201 10.56151 22.214844 10.677734 C 21.701952 10.998358 21.627803 11.640614 22.001953 12.207031 C 23.145441 13.87422 23.796875 16.042898 23.796875 18.308594 C 23.796875 20.563588 23.12404 22.734209 22.001953 24.412109 C 21.638503 24.978503 21.701952 25.608104 22.214844 25.939453 C 22.706455 26.238579 23.303417 26.133172 23.634766 25.630859 C 25.03482 23.664412 25.837891 21.023099 25.837891 18.308594 C 25.837891 15.593966 25.045399 12.944027 23.634766 10.988281 C 23.427672 10.674344 23.117452 10.508782 22.792969 10.505859 z M 18.472656 13.376953 C 18.282655 13.378753 18.09033 13.436508 17.917969 13.552734 C 17.394376 13.894745 17.287433 14.524635 17.714844 15.144531 C 18.302638 15.98877 18.632812 17.122305 18.632812 18.308594 C 18.632812 19.494883 18.292058 20.615763 17.714844 21.470703 C 17.298135 22.090599 17.394376 22.721469 17.917969 23.074219 C 18.3776 23.373466 18.977367 23.267086 19.308594 22.796875 C 20.174235 21.642687 20.685547 20.007774 20.685547 18.308594 C 20.685547 16.609291 20.174235 14.985248 19.308594 13.820312 C 19.101578 13.526415 18.789322 13.373928 18.472656 13.376953 z " />
  </g>
  <g
     id="audio-volume-medium"
     transform="translate(0,35)">
    <rect
       x="39"
       y="-35"
       width="32"
       height="32"
       ry="0.35556"
       opacity="0"
       id="rect2511"
       style="color:#363636;fill:#363636" />
    <path
       id="path2513"
       style="fill:#ffffff;fill-opacity:1;stroke-width:1.21596"
       d="m 61.792969,-24.493687 c -0.194693,-0.0018 -0.393768,0.05565 -0.578125,0.171875 -0.512892,0.320624 -0.587041,0.962879 -0.212891,1.529297 1.143489,1.66719 1.794922,3.835865 1.794922,6.101563 0,2.254997 -0.672834,4.425613 -1.794922,6.103515 -0.36345,0.566394 -0.300001,1.1940421 0.212891,1.5253911 0.491612,0.299126 1.088573,0.193719 1.419922,-0.308594 1.400056,-1.9664491 2.203125,-4.6058041 2.203125,-7.3203121 0,-2.71463 -0.79249,-5.364564 -2.203125,-7.320313 -0.207094,-0.313937 -0.517313,-0.479498 -0.841797,-0.482422 z" />
    <path
       id="path3131"
       style="fill:#ffffff;fill-opacity:1;stroke-width:1.21596"
       d="M 51.863281 -26.255859 C 51.318289 -26.255859 50.934431 -26.009885 50.335938 -25.464844 L 45.642578 -21.308594 C 45.578458 -21.244474 45.493697 -21.222656 45.408203 -21.222656 L 42.384766 -21.222656 C 40.803072 -21.22265 40 -20.389857 40 -18.722656 L 40 -14.619141 C 40 -12.941239 40.813748 -12.117188 42.384766 -12.117188 L 45.408203 -12.117188 C 45.493693 -12.117188 45.57846 -12.097283 45.642578 -12.033203 L 50.335938 -7.84375 C 50.891632 -7.3414375 51.318373 -7.1054687 51.884766 -7.1054688 C 52.675624 -7.1054688 53.273437 -7.7032814 53.273438 -8.4941406 L 53.273438 -24.814453 C 53.273438 -25.615988 52.675541 -26.255859 51.863281 -26.255859 z M 57.472656 -21.623047 C 57.282655 -21.621247 57.09033 -21.563497 56.917969 -21.447266 C 56.394376 -21.105255 56.287433 -20.475365 56.714844 -19.855469 C 57.302638 -19.01123 57.634766 -17.877695 57.634766 -16.691406 C 57.634766 -15.505117 57.292058 -14.384237 56.714844 -13.529297 C 56.298135 -12.909401 56.394376 -12.278531 56.917969 -11.925781 C 57.3776 -11.626534 57.977367 -11.732914 58.308594 -12.203125 C 59.174235 -13.357313 59.685547 -14.992226 59.685547 -16.691406 C 59.685547 -18.390709 59.174235 -20.016705 58.308594 -21.181641 C 58.101578 -21.475538 57.789322 -21.626072 57.472656 -21.623047 z " />
  </g>
  <g
     id="audio-volume-low"
     transform="translate(41,35)">
    <rect
       x="39"
       y="-35"
       width="32"
       height="32"
       ry="0.35556"
       opacity="0"
       id="rect3158"
       style="color:#363636;fill:#363636" />
    <path
       id="path3162"
       style="fill:#ffffff;fill-opacity:1;stroke-width:1.21596"
       d="M 51.863281 -26.255859 C 51.318289 -26.255859 50.934431 -26.009885 50.335938 -25.464844 L 45.642578 -21.308594 C 45.578458 -21.244474 45.493697 -21.222656 45.408203 -21.222656 L 42.384766 -21.222656 C 40.803072 -21.22265 40 -20.389857 40 -18.722656 L 40 -14.619141 C 40 -12.941239 40.813748 -12.117188 42.384766 -12.117188 L 45.408203 -12.117188 C 45.493693 -12.117188 45.57846 -12.097283 45.642578 -12.033203 L 50.335938 -7.84375 C 50.891632 -7.3414375 51.318373 -7.1054687 51.884766 -7.1054688 C 52.675624 -7.1054688 53.273438 -7.7032814 53.273438 -8.4941406 L 53.273438 -24.814453 C 53.273438 -25.615988 52.675541 -26.255859 51.863281 -26.255859 z M 57.472656 -21.623047 C 57.282655 -21.621247 57.09033 -21.563497 56.917969 -21.447266 C 56.394376 -21.105255 56.287433 -20.475365 56.714844 -19.855469 C 57.302638 -19.01123 57.634766 -17.877695 57.634766 -16.691406 C 57.634766 -15.505117 57.292058 -14.384237 56.714844 -13.529297 C 56.298135 -12.909401 56.394376 -12.278531 56.917969 -11.925781 C 57.3776 -11.626534 57.977367 -11.732914 58.308594 -12.203125 C 59.174235 -13.357313 59.685547 -14.992226 59.685547 -16.691406 C 59.685547 -18.390709 59.174235 -20.016705 58.308594 -21.181641 C 58.101578 -21.475538 57.789322 -21.626072 57.472656 -21.623047 z " />
  </g>
  <g
     id="16-16-audio-volume-high">
    <rect
       class="ColorScheme-Text"
       x="-10"
       y="-69.999702"
       width="16"
       height="16"
       ry="0"
       fill="currentColor"
       opacity="0"
       id="rect93" />
    <g
       id="g8988"
       transform="translate(0,23.427307)">
      <path
         id="path7590"
         style="fill:#ffffff;fill-opacity:1;stroke-width:0.648536"
         d="m 1.6230469,-89.587891 c -0.1038393,-9.35e-4 -0.2102675,0.02591 -0.3085938,0.08789 -0.2735526,0.171006 -0.3128358,0.512352 -0.1132812,0.814453 0.6098835,0.889202 0.9570312,2.047441 0.9570312,3.255859 0,1.202711 -0.3585619,2.358991 -0.9570312,3.253907 -0.1938475,0.302088 -0.1602714,0.63968 0.1132812,0.816406 0.2622033,0.15954 0.5810863,0.101894 0.7578125,-0.166016 0.7467247,-1.048813 1.1738282,-2.456504 1.1738282,-3.904297 0,-1.447856 -0.4214613,-2.86119 -1.1738282,-3.904296 -0.1104539,-0.16744 -0.2761533,-0.252347 -0.4492187,-0.253906 z" />
      <path
         id="path8982"
         style="fill:#ffffff;fill-opacity:1;stroke-width:0.648536"
         d="m -3.6738281,-90.529297 c -0.2906739,0 -0.4952437,0.131175 -0.8144531,0.421875 l -2.5019532,2.216797 c -0.034197,0.0342 -0.079401,0.04297 -0.125,0.04297 H -8.7285156 C -9.5721186,-87.847655 -10,-87.40288 -10,-86.513671 v 2.189453 c 0,0.894915 0.4335755,1.333984 1.2714844,1.333985 h 1.6132812 c 0.045599,0 0.090803,0.01074 0.125,0.04492 l 2.5019532,2.234374 c 0.296381,0.267911 0.5240836,0.394532 0.8261718,0.394532 0.421808,0 0.7421875,-0.32038 0.7421875,-0.742188 v -8.703125 c 0,-0.427503 -0.3206839,-0.767578 -0.7539062,-0.767577 z m -0.4160157,1.447266 c 0.045592,0 0.080078,0.02878 0.080078,0.08008 v 7.154297 c 0,0.05701 -0.034334,0.08203 -0.074219,0.08203 -0.034178,0 -0.061526,-0.0086 -0.095703,-0.03711 l -2.2695313,-2.058594 c -0.1311017,-0.119719 -0.2445399,-0.146485 -0.3984374,-0.146484 h -1.7792969 c -0.1881014,0 -0.2792969,-0.09122 -0.2792969,-0.279297 v -2.251953 c 0,-0.193783 0.091195,-0.285157 0.2792969,-0.285157 h 1.7792969 c 0.1538975,0 0.2673358,-0.02872 0.3984374,-0.148437 l 2.2695313,-2.06836 c 0.028471,-0.0228 0.055666,-0.04102 0.089844,-0.04102 z m 3.40820318,1.023437 c -0.10133735,9.69e-4 -0.20299186,0.03176 -0.29492188,0.09375 -0.2792597,0.182414 -0.3373355,0.518986 -0.109375,0.84961 0.31350248,0.450279 0.49023438,1.054788 0.49023438,1.6875 0,0.632712 -0.18237416,1.231514 -0.49023438,1.6875 -0.2222533,0.330624 -0.1698847,0.665374 0.109375,0.853515 0.24514672,0.159604 0.56357309,0.104305 0.74023438,-0.146484 C 0.22536487,-83.648794 0.5,-84.521469 0.5,-85.427734 c 0,-0.906329 -0.27463514,-1.773209 -0.73632812,-2.394532 -0.11041331,-0.156752 -0.27641693,-0.237941 -0.4453125,-0.236328 z" />
      <path
         id="path8980"
         style="fill:#ffffff;fill-opacity:1;stroke-width:0.648536"
         d="m 3.9277344,-91.125 c -0.1054744,-0.0025 -0.2106417,0.02395 -0.3046875,0.08594 -0.2736174,0.1767 -0.3131404,0.512352 -0.125,0.814453 0.8720867,1.328112 1.4140625,2.976773 1.4140625,4.800781 0,1.812594 -0.5419758,3.470539 -1.4140625,4.792969 -0.1881404,0.302088 -0.1486174,0.637726 0.125,0.814453 0.250789,0.165311 0.5871628,0.09197 0.7695312,-0.181641 C 5.3957989,-81.502845 6,-83.369906 6,-85.421875 6,-87.479616 5.3843847,-89.343011 4.3925781,-90.853516 4.2785979,-91.028082 4.1035251,-91.12077 3.9277344,-91.125 Z" />
    </g>
  </g>
  <g
     id="16-16-audio-volume-medium"
     transform="translate(25)">
    <rect
       class="ColorScheme-Text"
       x="-10"
       y="-69.999702"
       width="16"
       height="16"
       ry="0"
       fill="currentColor"
       opacity="0"
       id="rect9077" />
    <g
       id="g9085"
       transform="translate(0,23.427307)">
      <path
         id="path9079"
         style="fill:#ffffff;fill-opacity:1;stroke-width:0.648536"
         d="m 1.6230469,-89.587891 c -0.1038393,-9.35e-4 -0.2102675,0.02591 -0.3085938,0.08789 -0.2735526,0.171006 -0.3128358,0.512352 -0.1132812,0.814453 0.6098835,0.889202 0.9570312,2.047441 0.9570312,3.255859 0,1.202711 -0.3585619,2.358991 -0.9570312,3.253907 -0.1938475,0.302088 -0.1602714,0.63968 0.1132812,0.816406 0.2622033,0.15954 0.5810863,0.101894 0.7578125,-0.166016 0.7467247,-1.048813 1.1738282,-2.456504 1.1738282,-3.904297 0,-1.447856 -0.4214613,-2.86119 -1.1738282,-3.904296 -0.1104539,-0.16744 -0.2761533,-0.252347 -0.4492187,-0.253906 z" />
      <path
         id="path9081"
         style="fill:#ffffff;fill-opacity:1;stroke-width:0.648536"
         d="m -3.6738281,-90.529297 c -0.2906739,0 -0.4952437,0.131175 -0.8144531,0.421875 l -2.5019532,2.216797 c -0.034197,0.0342 -0.079401,0.04297 -0.125,0.04297 H -8.7285156 C -9.5721186,-87.847655 -10,-87.40288 -10,-86.513671 v 2.189453 c 0,0.894915 0.4335755,1.333984 1.2714844,1.333985 h 1.6132812 c 0.045599,0 0.090803,0.01074 0.125,0.04492 l 2.5019532,2.234374 c 0.296381,0.267911 0.5240836,0.394532 0.8261718,0.394532 0.421808,0 0.7421875,-0.32038 0.7421875,-0.742188 v -8.703125 c 0,-0.427503 -0.3206839,-0.767578 -0.7539062,-0.767577 z m -0.4160157,1.447266 c 0.045592,0 0.080078,0.02878 0.080078,0.08008 v 7.154297 c 0,0.05701 -0.034334,0.08203 -0.074219,0.08203 -0.034178,0 -0.061526,-0.0086 -0.095703,-0.03711 l -2.2695313,-2.058594 c -0.1311017,-0.119719 -0.2445399,-0.146485 -0.3984374,-0.146484 h -1.7792969 c -0.1881014,0 -0.2792969,-0.09122 -0.2792969,-0.279297 v -2.251953 c 0,-0.193783 0.091195,-0.285157 0.2792969,-0.285157 h 1.7792969 c 0.1538975,0 0.2673358,-0.02872 0.3984374,-0.148437 l 2.2695313,-2.06836 c 0.028471,-0.0228 0.055666,-0.04102 0.089844,-0.04102 z m 3.40820318,1.023437 c -0.10133735,9.69e-4 -0.20299186,0.03176 -0.29492188,0.09375 -0.2792597,0.182414 -0.3373355,0.518986 -0.109375,0.84961 0.31350248,0.450279 0.49023438,1.054788 0.49023438,1.6875 0,0.632712 -0.18237416,1.231514 -0.49023438,1.6875 -0.2222533,0.330624 -0.1698847,0.665374 0.109375,0.853515 0.24514672,0.159604 0.56357309,0.104305 0.74023438,-0.146484 C 0.22536487,-83.648794 0.5,-84.521469 0.5,-85.427734 c 0,-0.906329 -0.27463514,-1.773209 -0.73632812,-2.394532 -0.11041331,-0.156752 -0.27641693,-0.237941 -0.4453125,-0.236328 z" />
    </g>
  </g>
  <g
     id="16-16-audio-volume-low"
     transform="translate(48)">
    <rect
       class="ColorScheme-Text"
       x="-10"
       y="-69.999702"
       width="16"
       height="16"
       ry="0"
       fill="currentColor"
       opacity="0"
       id="rect9089" />
    <g
       id="g9097"
       transform="translate(0,23.427307)">
      <path
         id="path9093"
         style="fill:#ffffff;fill-opacity:1;stroke-width:0.648536"
         d="m -3.6738281,-90.529297 c -0.2906739,0 -0.4952437,0.131175 -0.8144531,0.421875 l -2.5019532,2.216797 c -0.034197,0.0342 -0.079401,0.04297 -0.125,0.04297 H -8.7285156 C -9.5721186,-87.847655 -10,-87.40288 -10,-86.513671 v 2.189453 c 0,0.894915 0.4335755,1.333984 1.2714844,1.333985 h 1.6132812 c 0.045599,0 0.090803,0.01074 0.125,0.04492 l 2.5019532,2.234374 c 0.296381,0.267911 0.5240836,0.394532 0.8261718,0.394532 0.421808,0 0.7421875,-0.32038 0.7421875,-0.742188 v -8.703125 c 0,-0.427503 -0.3206839,-0.767578 -0.7539062,-0.767577 z m -0.4160157,1.447266 c 0.045592,0 0.080078,0.02878 0.080078,0.08008 v 7.154297 c 0,0.05701 -0.034334,0.08203 -0.074219,0.08203 -0.034178,0 -0.061526,-0.0086 -0.095703,-0.03711 l -2.2695313,-2.058594 c -0.1311017,-0.119719 -0.2445399,-0.146485 -0.3984374,-0.146484 h -1.7792969 c -0.1881014,0 -0.2792969,-0.09122 -0.2792969,-0.279297 v -2.251953 c 0,-0.193783 0.091195,-0.285157 0.2792969,-0.285157 h 1.7792969 c 0.1538975,0 0.2673358,-0.02872 0.3984374,-0.148437 l 2.2695313,-2.06836 c 0.028471,-0.0228 0.055666,-0.04102 0.089844,-0.04102 z m 3.40820318,1.023437 c -0.10133735,9.69e-4 -0.20299186,0.03176 -0.29492188,0.09375 -0.2792597,0.182414 -0.3373355,0.518986 -0.109375,0.84961 0.31350248,0.450279 0.49023438,1.054788 0.49023438,1.6875 0,0.632712 -0.18237416,1.231514 -0.49023438,1.6875 -0.2222533,0.330624 -0.1698847,0.665374 0.109375,0.853515 0.24514672,0.159604 0.56357309,0.104305 0.74023438,-0.146484 C 0.22536487,-83.648794 0.5,-84.521469 0.5,-85.427734 c 0,-0.906329 -0.27463514,-1.773209 -0.73632812,-2.394532 -0.11041331,-0.156752 -0.27641693,-0.237941 -0.4453125,-0.236328 z" />
    </g>
  </g>
  <g
     id="16-16-audio-volume-muted"
     transform="translate(0,17.573631)">
    <rect
       class="ColorScheme-Text"
       x="60"
       y="-87.573334"
       width="16"
       height="16"
       ry="0"
       fill="currentColor"
       opacity="0"
       id="rect9101" />
    <path
       id="path9105"
       style="fill:#ffffff;fill-opacity:1;stroke-width:0.648536"
       d="m 66.326172,-84.675781 c -0.290674,0 -0.495244,0.131175 -0.814453,0.421875 l -1.027344,0.910156 0.71875,0.71875 0.617187,-0.5625 c 0.02847,-0.0228 0.05567,-0.04102 0.08984,-0.04102 0.04559,0 0.08008,0.02878 0.08008,0.08008 v 1.310547 L 67.080078,-80.75 v -3.158203 c 0,-0.427503 -0.320684,-0.767579 -0.753906,-0.767578 z M 60.421875,-81.75 C 60.142348,-81.532502 60,-81.170447 60,-80.660156 v 2.189453 c 0,0.894915 0.433576,1.333983 1.271484,1.333984 h 1.613282 c 0.0456,0 0.0908,0.01074 0.125,0.04492 l 2.501953,2.234375 c 0.296381,0.267911 0.524083,0.394531 0.826172,0.394531 0.3864,0 0.686516,-0.269284 0.734375,-0.638671 l -1.082032,-1.082032 v 0.189453 c 0,0.05701 -0.03433,0.08203 -0.07422,0.08203 -0.03418,0 -0.06153,-0.0086 -0.0957,-0.03711 l -2.269531,-2.058593 c -0.131102,-0.11972 -0.244539,-0.146486 -0.398437,-0.146485 h -1.779297 c -0.188102,0 -0.279297,-0.09122 -0.279297,-0.279297 v -2.251953 c 0,-0.134622 0.04483,-0.218339 0.134766,-0.257812 z" />
    <path
       style="color:#000000;fill:#ffffff;fill-rule:evenodd;stroke-width:3;stroke-linecap:round;stroke-linejoin:round;-inkscape-stroke:none;paint-order:stroke fill markers"
       d="m 60.854016,-84.8531 9.899495,9.899495 c 0.195868,0.195868 0.195868,0.511238 0,0.707106 -0.195869,0.195869 -0.511238,0.195869 -0.707107,0 l -9.899495,-9.899494 c -0.195868,-0.195869 -0.195868,-0.511239 0,-0.707107 0.195869,-0.195869 0.511239,-0.195869 0.707107,0 z"
       id="path9608" />
  </g>
  <g
     id="g2802"
     transform="translate(0,33.99999)">
    <rect
       x="-6.7138999e-06"
       y="9.7656002e-06"
       width="32"
       height="32"
       ry="0.35556"
       opacity="0"
       id="rect2798"
       style="color:#363636;fill:#363636" />
    <path
       id="path2800"
       style="fill:#ffffff;fill-opacity:1;stroke-width:1.21596"
       d="m 27.114629,7.6258476 c -0.197758,-0.00475 -0.396027,0.050018 -0.572356,0.1662444 -0.513013,0.3313003 -0.587866,0.9630309 -0.235117,1.5294492 1.6351,2.4901018 2.650411,5.5786888 2.650411,8.9985748 0,3.398485 -1.01531,6.507237 -2.650411,8.9867 -0.352749,0.566394 -0.277896,1.198101 0.235117,1.52945 0.470212,0.309948 1.102025,0.171024 1.443952,-0.341989 C 29.867193,25.672886 31,22.167411 31,18.320116 31,14.461998 29.845792,10.966172 27.986225,8.1340806 27.77252,7.8067824 27.444224,7.6337785 27.114629,7.6258476 Z M 12.86273,8.7444354 c -0.544993,0 -0.92858,0.2458069 -1.527075,0.7908486 l -4.6928431,4.156112 c -0.064118,0.06412 -0.1496231,0.08549 -0.2351172,0.08549 H 3.3844205 C 1.8027248,13.776892 1,14.610482 1,16.277684 v 4.103863 c 0,1.677903 0.8134009,2.500791 2.3844205,2.500791 h 3.0232742 c 0.085494,0 0.1709997,0.02141 0.2351172,0.08549 l 4.6928431,4.189361 c 0.555695,0.502313 0.982056,0.7386 1.548449,0.7386 0.790859,0 1.389329,-0.598469 1.389329,-1.389329 V 10.186012 c 0,-0.8015358 -0.598442,-1.4415766 -1.410703,-1.4415766 z m 9.929544,1.7621916 c -0.194693,-0.0017 -0.39275,0.05477 -0.577107,0.170994 -0.512892,0.320624 -0.587893,0.963031 -0.213743,1.529449 1.143489,1.66719 1.79544,3.835474 1.79544,6.101172 0,2.254997 -0.673352,4.425644 -1.79544,6.103546 -0.36345,0.566394 -0.299149,1.195725 0.213743,1.527074 0.491612,0.299126 1.088854,0.193573 1.420203,-0.30874 1.400056,-1.966449 2.201552,-4.607372 2.201552,-7.32188 0,-2.71463 -0.790917,-5.363758 -2.201552,-7.319506 -0.207094,-0.313938 -0.518612,-0.479186 -0.843096,-0.482109 z M 12.083756,11.45897 c 0.08548,0 0.149619,0.05344 0.149619,0.14962 v 13.411178 c 0,0.106883 -0.06533,0.161495 -0.140121,0.161495 -0.06408,0 -0.116416,-0.02249 -0.180493,-0.076 L 7.659278,21.248393 C 7.4134718,21.023928 7.1997251,20.970528 6.9111779,20.970528 H 3.5767891 c -0.3526769,0 -0.5248575,-0.17223 -0.5248575,-0.524858 v -4.220234 c 0,-0.363329 0.1721806,-0.534357 0.5248575,-0.534357 h 3.3343888 c 0.2885472,0 0.5022939,-0.05341 0.7481001,-0.277867 l 4.253483,-3.88062 c 0.05338,-0.04275 0.106915,-0.07363 0.170995,-0.07363 z m 6.388537,1.918935 c -0.190001,0.0018 -0.380995,0.05952 -0.553356,0.175746 -0.523593,0.342011 -0.631655,0.971299 -0.204244,1.591196 0.587795,0.84424 0.919094,1.977105 0.919094,3.163395 0,1.18629 -0.341879,2.308453 -0.919094,3.163394 -0.416709,0.619896 -0.319349,1.250322 0.204244,1.603072 0.459632,0.299248 1.0581,0.192345 1.389327,-0.277866 0.865642,-1.154189 1.377455,-2.789418 1.377455,-4.4886 0,-1.699304 -0.511813,-3.323663 -1.377455,-4.4886 -0.207016,-0.293898 -0.519305,-0.444762 -0.835971,-0.441737 z" />
  </g>
  <g
     id="audio-volume-muted">
    <rect
       x="120"
       y="0"
       width="32"
       height="32"
       ry="0.35556"
       opacity="0"
       id="rect6842"
       style="color:#363636;fill:#363636" />
    <path
       style="color:#000000;fill:#ffffff;fill-rule:evenodd;stroke-width:4;stroke-linecap:round;stroke-linejoin:round;paint-order:stroke fill markers"
       d="m 121.70711,8.51306 19.09188,19.091884 c 0.39174,0.391737 0.39174,1.022476 0,1.414213 -0.39174,0.391737 -1.02248,0.391737 -1.41421,0 L 120.29289,9.927274 c -0.39173,-0.391737 -0.39173,-1.022476 0,-1.414214 0.39174,-0.391737 1.02248,-0.391737 1.41422,0 z"
       id="path7269" />
    <path
       id="path2815"
       style="fill:#ffffff;fill-opacity:1;stroke-width:1.21596"
       d="m 132.86328,8.744595 c -0.54499,0 -0.92885,0.245975 -1.52734,0.791015 l -3.06445,2.714844 6.00195,6.001953 v -8.066406 c 0,-0.801534 -0.5979,-1.441406 -1.41016,-1.441406 z m -11.08593,5.498047 c -0.51609,0.408564 -0.77734,1.085983 -0.77734,2.035156 v 4.103516 c 0,1.6779 0.81375,2.501953 2.38477,2.501953 h 3.02343 c 0.0855,0 0.17026,0.0199 0.23438,0.08398 l 4.69336,4.189453 c 0.55569,0.502313 0.98242,0.738282 1.54882,0.738282 0.71806,0 1.27428,-0.4931 1.3711,-1.175782 z" />
  </g>
</svg>
