<?xml version="1.0" encoding="UTF-8" standalone="no"?>
<svg
   id="svg21"
   viewBox="0 0 32 32"
   version="1.1"
   sodipodi:docname="cantata.svg"
   inkscape:version="1.4 (e7c3feb100, 2024-10-09)"
   width="32"
   height="32"
   xmlns:inkscape="http://www.inkscape.org/namespaces/inkscape"
   xmlns:sodipodi="http://sodipodi.sourceforge.net/DTD/sodipodi-0.dtd"
   xmlns="http://www.w3.org/2000/svg"
   xmlns:svg="http://www.w3.org/2000/svg"
   xmlns:rdf="http://www.w3.org/1999/02/22-rdf-syntax-ns#"
   xmlns:cc="http://creativecommons.org/ns#"
   xmlns:dc="http://purl.org/dc/elements/1.1/">
  <sodipodi:namedview
     pagecolor="#c8c8c8"
     bordercolor="#666666"
     borderopacity="1"
     objecttolerance="10"
     gridtolerance="10"
     guidetolerance="10"
     inkscape:pageopacity="0"
     inkscape:pageshadow="2"
     inkscape:window-width="1920"
     inkscape:window-height="952"
     id="namedview14"
     showgrid="true"
     inkscape:zoom="3.7679626"
     inkscape:cx="-45.78071"
     inkscape:cy="-2.9193496"
     inkscape:window-x="0"
     inkscape:window-y="34"
     inkscape:window-maximized="1"
     inkscape:current-layer="svg21"
     inkscape:document-rotation="0"
     inkscape:showpageshadow="2"
     inkscape:pagecheckerboard="0"
     inkscape:deskcolor="#d1d1d1">
    <inkscape:grid
       type="xygrid"
       id="grid838"
       originx="0"
       originy="0"
       spacingy="1"
       spacingx="1"
       units="px" />
  </sodipodi:namedview>
  <metadata
     id="metadata23">
    <rdf:RDF>
      <cc:Work
         rdf:about="">
        <dc:format>image/svg+xml</dc:format>
        <dc:type
           rdf:resource="http://purl.org/dc/dcmitype/StillImage" />
      </cc:Work>
    </rdf:RDF>
  </metadata>
  <defs
     id="defs5">
    <style
       type="text/css"
       id="current-color-scheme"> .ColorScheme-Text { color:#363636; } </style>
  </defs>
  <g
     id="cantata">
    <path
       id="path9"
       fill="none"
       d="m -0.002,0 v 32 h 32 V 0 Z"
       style="color:#363636" />
    <path
       style="fill:#ffffff;fill-opacity:1;stroke-width:1.00362"
       d="m 24.34568,4 c -0.180797,0.00327 -0.262084,0.024807 -0.348211,0.039063 l -2.988325,0.4941406 c -1.012366,0.1675188 -1.792167,0.2923588 -2.47486,0.4941406 -0.682695,0.2017819 -1.312981,0.520654 -1.768601,1.0546875 -0.455672,0.5339891 -0.669153,1.2025611 -0.75741,1.9042969 -0.08826,0.7017358 -0.08263,1.4849528 -0.08263,2.5039064 v 7.324218 h -4.294612 c -2.5452441,0 -4.7196111,1.871518 -5.0795621,4.373047 -0.474713,3.298966 2.384268,6.186781 5.7149991,5.773437 l 0.70626,-0.08789 c 2.831632,-0.351291 4.971361,-2.756812 4.971361,-5.589844 V 12.082031 l 5.372689,-1.066406 c 0.07626,-0.01514 0.336351,-0.02002 0.639372,-0.306641 0.302239,-0.285867 0.319312,-0.543286 0.338376,-0.61914 l 1.13513,-4.5097659 c 0.02117,-0.084075 0.04917,-0.1612331 0.06689,-0.3398437 0.01771,-0.1786107 -0.01898,-0.5980915 -0.285258,-0.8847657 h -0.002 v -0.00195 C 24.942893,4.0676666 24.526477,3.9967299 24.34568,4 Z M 23.192844,6.203125 22.45314,9.1445313 17.957865,10.037109 c 0.0033,-0.7268647 0.0035,-1.408478 0.05311,-1.802734 0.06205,-0.4933566 0.149545,-0.6868561 0.295095,-0.8574219 0.145473,-0.1705088 0.322676,-0.2878207 0.802657,-0.4296875 0.479981,-0.1418667 1.218541,-0.26998 2.230916,-0.4375 z M 11.631036,19.818359 h 4.294611 v 2.464844 c 0,1.838566 -1.365197,3.373595 -3.202761,3.601563 l -0.70626,0.08789 C 9.9551539,26.228485 8.2564389,24.512501 8.5502479,22.470703 8.7703119,20.941344 10.074944,19.818359 11.631036,19.818359 Z"
       id="path1" />
  </g>
  <g
     id="22-22-cantata"
     transform="translate(-27)">
    <path
       id="path16"
       fill="none"
       d="M 5,10 V 32 H 27 V 10 Z"
       style="color:#363636" />
    <path
       style="fill:#ffffff;fill-opacity:1"
       d="m 21.401546,13 c -0.130697,0.0024 -0.184498,0.01795 -0.240235,0.02734 l -1.935547,0.326172 c -0.655555,0.110424 -1.162828,0.192007 -1.615234,0.328125 -0.452406,0.136117 -0.882403,0.355922 -1.191406,0.724609 -0.309034,0.368654 -0.451558,0.829647 -0.509766,1.300781 -0.05821,0.471134 -0.05469,0.990438 -0.05469,1.66211 v 4.736328 h -2.685547 c -1.699538,0 -3.144072,1.271968 -3.3828129,2.960937 -0.314715,2.226355 1.5861019,4.187015 3.8085939,3.90625 l 0.457031,-0.05664 c 1.885058,-0.238064 3.302735,-1.867216 3.302735,-3.775391 V 18.49023 l 3.404297,-0.689453 c 0.04937,-0.01 0.240328,-0.01139 0.46289,-0.226562 0.221284,-0.213075 0.231804,-0.40124 0.244141,-0.451172 h -0.002 l 0.736328,-2.972656 c 0.01371,-0.05542 0.03241,-0.107891 0.04492,-0.236328 0.01251,-0.128438 -0.01255,-0.435257 -0.207032,-0.648438 h -0.002 C 21.841511,13.053014 21.532243,12.997569 21.401546,13 Z m -0.871094,1.65625 -0.433594,1.748047 -2.730469,0.552734 c 0.0033,-0.411594 0.003,-0.838019 0.03125,-1.066406 0.03912,-0.316644 0.09159,-0.423759 0.171875,-0.519531 0.08023,-0.09573 0.172175,-0.163499 0.472657,-0.253906 0.300481,-0.09041 0.776079,-0.174731 1.43164,-0.285157 z m -7.361328,8.951172 h 2.685547 v 1.533203 c 0,1.171233 -0.851769,2.143333 -1.990235,2.287109 l -0.457031,0.05664 c -1.269218,0.160339 -2.31966,-0.912874 -2.136719,-2.207031 0.136844,-0.968097 0.942168,-1.669922 1.898438,-1.669921 z"
       id="path2" />
  </g>
</svg>
