<?xml version="1.0" encoding="UTF-8" standalone="no"?>
<svg
   width="32"
   height="32"
   version="1.1"
   id="svg12"
   sodipodi:docname="choqok_offline.svg"
   inkscape:version="1.3.2 (091e20ef0f, 2023-11-25, custom)"
   xmlns:inkscape="http://www.inkscape.org/namespaces/inkscape"
   xmlns:sodipodi="http://sodipodi.sourceforge.net/DTD/sodipodi-0.dtd"
   xmlns="http://www.w3.org/2000/svg"
   xmlns:svg="http://www.w3.org/2000/svg"
   xmlns:rdf="http://www.w3.org/1999/02/22-rdf-syntax-ns#"
   xmlns:cc="http://creativecommons.org/ns#"
   xmlns:dc="http://purl.org/dc/elements/1.1/">
  <metadata
     id="metadata18">
    <rdf:RDF>
      <cc:Work
         rdf:about="">
        <dc:format>image/svg+xml</dc:format>
        <dc:type
           rdf:resource="http://purl.org/dc/dcmitype/StillImage" />
      </cc:Work>
    </rdf:RDF>
  </metadata>
  <defs
     id="defs16" />
  <sodipodi:namedview
     pagecolor="#c8c8c8"
     bordercolor="#000000"
     borderopacity="1"
     objecttolerance="10"
     gridtolerance="10"
     guidetolerance="10"
     inkscape:pageopacity="0"
     inkscape:pageshadow="2"
     inkscape:window-width="1920"
     inkscape:window-height="950"
     id="namedview14"
     showgrid="true"
     inkscape:zoom="9.8125003"
     inkscape:cx="15.337579"
     inkscape:cy="13.808917"
     inkscape:window-x="0"
     inkscape:window-y="34"
     inkscape:window-maximized="1"
     inkscape:current-layer="svg12"
     inkscape:document-rotation="0"
     inkscape:lockguides="true"
     inkscape:showpageshadow="false"
     inkscape:pagecheckerboard="0"
     inkscape:deskcolor="#969696">
    <inkscape:grid
       type="xygrid"
       id="grid941"
       originx="0"
       originy="0"
       spacingy="1"
       spacingx="1"
       units="px"
       visible="true" />
  </sodipodi:namedview>
  <g
     id="22-22-choqok_offline">
    <rect
       style="opacity:0.00100002"
       width="22"
       height="22"
       x="32"
       y="10"
       id="rect2-6" />
    <path
       id="path4411-1-6-3-7"
       style="fill:#ff3232;fill-opacity:1;fill-rule:evenodd;stroke-width:0.298135"
       d="m 46.396484,20.484375 -5.890625,1.482422 c 2.364747,2.226657 4.554983,2.143545 5.621094,0.873047 1.066104,-1.270492 0.269531,-2.355469 0.269531,-2.355469 z m -0.410156,0.242187 c 0,0 0.60505,0.890141 -0.205078,1.933594 -0.81013,1.043465 -3.177651,1.137352 -4.974609,-0.691406 z" />
    <path
       id="path10"
       style="color:#000000;fill:#ff3232;stroke-linecap:round;stroke-linejoin:round;-inkscape-stroke:none;fill-opacity:1"
       d="m 38.058594,15.888672 c -0.465631,0.0061 -0.97044,0.05221 -1.417969,0.384765 a 0.44724472,0.44724472 0 0 0 -0.181641,0.359375 v 3.701172 a 0.44724472,0.44724472 0 0 0 0.181641,0.359375 c 0.449705,0.334163 1.009675,0.535156 1.615234,0.535156 0.687326,0 1.396439,-0.143708 1.976563,-0.492187 0.580122,-0.348479 1.03125,-0.958852 1.03125,-1.732422 0,-0.77357 -0.387774,-1.521269 -0.935547,-2.101562 -0.547773,-0.580294 -1.278304,-1.013672 -2.072266,-1.013672 -0.06462,0 -0.130747,-8.71e-4 -0.197265,0 z m 0.798828,1.632812 a 1.0499498,1.037037 0 0 1 1.048828,1.03711 1.0499498,1.037037 0 0 1 -1.048828,1.037109 1.0499498,1.037037 0 0 1 -1.050781,-1.037109 1.0499498,1.037037 0 0 1 1.050781,-1.03711 z" />
    <path
       id="path9"
       style="color:#000000;fill:#ff3232;stroke-linecap:round;stroke-linejoin:round;-inkscape-stroke:none;fill-opacity:1"
       d="m 46.207031,15 a 0.44724472,0.44724472 0 0 0 -0.345703,0.162109 c -0.693363,0.837092 -1.193997,1.934418 -0.824219,3.046875 0.258718,0.778336 0.883208,1.257639 1.5625,1.4375 0.679295,0.179861 1.418046,0.10721 2.085938,-0.109375 0.15722,-0.05101 0.301973,-0.116493 0.433594,-0.1875 a 0.44724472,0.44724472 0 0 0 0.234375,-0.392578 V 15.447265 A 0.44724472,0.44724472 0 0 0 48.90625,15 Z m 0.449219,1.335937 a 1.0499498,1.037037 0 0 1 1.050781,1.03711 1.0499498,1.037037 0 0 1 -1.050781,1.037109 1.0499498,1.037037 0 0 1 -1.050781,-1.037109 1.0499498,1.037037 0 0 1 1.050781,-1.03711 z" />
    <path
       inkscape:connector-curvature="0"
       style="fill:#ff3232;fill-opacity:1;fill-rule:evenodd;stroke-width:0.298135"
       id="path4284-9-6-5"
       d="m 40.506679,21.966013 c 0,0 0.429489,-1.27968 2.679129,-1.8568 2.249647,-0.577107 3.319923,0.37532 3.319923,0.37532 0.299571,0.861666 -2.599037,2.200486 -2.599037,2.200486 0,0 -3.209451,0.170627 -3.400015,-0.719006 z" />
    <path
       id="path837-3"
       d="m 36.616557,12 c -1.435907,-0.0097 -2.59961,1.149346 -2.59961,2.566406 v 9.867188 c 0,1.4171 1.16367,2.566406 2.59961,2.566406 h 1.40039 l 0.0019,2.171875 c 10e-7,0.2129 0.0699,0.419144 0.199219,0.589844 0.33079,0.4364 0.956168,0.525618 1.398438,0.199219 L 43.628276,27 l 5.789062,2e-6 c 1.435776,0.01878 2.599609,-1.149308 2.599609,-2.566408 v -9.867188 c 0,-1.41706 -1.163742,-2.556736 -2.599609,-2.566406 z m 0,1 h 12.800781 c 0.896179,0.006 1.599609,0.714066 1.599609,1.566406 v 9.867188 c 0,0.8524 -0.703499,1.579036 -1.599609,1.566407 L 43.298197,26 l -4.27539,3.15625 -0.0019,0.002 h -0.002 L 39.016907,26 h -2.40039 c -0.89617,0 -1.59961,-0.714006 -1.59961,-1.566406 v -9.867188 c 0,-0.85234 0.70346,-1.572446 1.59961,-1.566406 z"
       style="fill:#ff3232;fill-opacity:1"
       sodipodi:nodetypes="csssccccccssccccssccccccsssc" />
  </g>
  <g
     id="choqok_offline"
     style="fill:#ff3232;fill-opacity:1">
    <path
       id="path2"
       style="fill:#ff3232;fill-opacity:1"
       d="M 4.599609,4 C 3.163714,3.9903 2,5.149355 2,6.5664062 V 22.347656 c 0,1.417093 1.16368,2.566407 2.599609,2.566406 H 6 l 0.002,2.171876 c 0,0.212894 0.0699,0.419143 0.199219,0.589843 0.33079,0.4364 0.956173,0.525617 1.398437,0.199219 L 11.611328,24.914062 27.400391,25 C 28.836155,25.01878 30,23.850683 30,22.433594 V 6.609375 C 30,5.1923236 28.836247,4.0526382 27.400391,4.0429688 Z M 21.125,8.0429688 h 4.191406 a 0.69428487,0.66581983 0 0 1 0.69336,0.6660156 v 5.2246096 a 0.69428487,0.66581983 0 0 1 -0.363282,0.585937 c -0.204338,0.105724 -0.427826,0.203367 -0.671875,0.279297 -1.036806,0.322433 -2.18573,0.427915 -3.240234,0.160156 -1.054505,-0.267758 -2.024162,-0.981908 -2.425781,-2.140625 -0.574031,-1.656125 0.206855,-3.2870151 1.283203,-4.5332028 A 0.69428487,0.66581983 0 0 1 21.125,8.0429688 Z M 8.478516,9.3671875 c 0.103345,-0.00127 0.206327,0 0.30664,0 1.23251,0 2.362551,0.6439245 3.212891,1.5078125 0.850338,0.863889 1.453125,1.97533 1.453125,3.126953 0,1.151623 -0.699048,2.061297 -1.59961,2.580078 -0.900557,0.518783 -1.999434,0.732422 -3.066406,0.732422 -0.940045,0 -1.813618,-0.299403 -2.511718,-0.796875 A 0.69428487,0.66581983 0 0 1 5.996094,15.982422 V 10.472656 A 0.69428487,0.66581983 0 0 1 6.273438,9.9375 C 6.96816,9.442486 7.755109,9.3760875 8.478516,9.3671875 Z m 13.34375,0.6640625 a 1.6299002,1.5438525 0 0 0 -1.628907,1.544922 1.6299002,1.5438525 0 0 0 1.628907,1.542969 1.6299002,1.5438525 0 0 0 1.630859,-1.542969 1.6299002,1.5438525 0 0 0 -1.630859,-1.544922 z M 9.714844,11.796875 a 1.6299002,1.5438525 0 0 0 -1.628906,1.542969 1.6299002,1.5438525 0 0 0 1.628906,1.544922 1.6299002,1.5438525 0 0 0 1.630859,-1.544922 1.6299002,1.5438525 0 0 0 -1.630859,-1.542969 z m 8.751953,3.576172 c 2.108892,-0.03106 3.123047,0.833984 3.123047,0.833984 0.03807,0.105027 0.04088,0.215065 0.01758,0.328125 0.268588,0.565062 0.603823,1.797643 -0.605469,3.179688 -1.534863,1.754125 -4.569041,1.983142 -7.929687,-0.636719 -0.423389,-0.158583 -0.729091,-0.371286 -0.794922,-0.666016 0,0 0.665958,-1.904506 4.158203,-2.763671 0.763931,-0.187939 1.440759,-0.266696 2.03125,-0.275391 z m 2.609375,1.960937 c -1.107707,1.077125 -3.521484,2.148438 -3.521484,2.148438 0,0 -2.20981,0.109971 -3.773438,-0.207031 2.599746,1.809068 5.577068,1.538671 6.683594,0.171875 0.666523,-0.823291 0.712606,-1.580906 0.611328,-2.113282 z" />
    <rect
       style="opacity:0.00100002;fill:#ff3232;fill-opacity:1"
       width="32"
       height="32"
       x="0"
       y="0"
       id="rect7" />
  </g>
</svg>
