<?xml version="1.0" encoding="UTF-8" standalone="no"?>
<svg
   version="1.1"
   viewBox="0 0 32 32"
   id="svg80"
   sodipodi:docname="configure.svg"
   width="32"
   height="32"
   inkscape:version="1.2.1 (9c6d41e410, 2022-07-14)"
   xmlns:inkscape="http://www.inkscape.org/namespaces/inkscape"
   xmlns:sodipodi="http://sodipodi.sourceforge.net/DTD/sodipodi-0.dtd"
   xmlns="http://www.w3.org/2000/svg"
   xmlns:svg="http://www.w3.org/2000/svg"
   xmlns:rdf="http://www.w3.org/1999/02/22-rdf-syntax-ns#"
   xmlns:cc="http://creativecommons.org/ns#"
   xmlns:dc="http://purl.org/dc/elements/1.1/">
  <metadata
     id="metadata84">
    <rdf:RDF>
      <cc:Work
         rdf:about="">
        <dc:format>image/svg+xml</dc:format>
        <dc:type
           rdf:resource="http://purl.org/dc/dcmitype/StillImage" />
        <dc:title />
      </cc:Work>
    </rdf:RDF>
  </metadata>
  <sodipodi:namedview
     pagecolor="#ffffff"
     bordercolor="#666666"
     borderopacity="1"
     objecttolerance="10"
     gridtolerance="10"
     guidetolerance="10"
     inkscape:pageopacity="0"
     inkscape:pageshadow="2"
     inkscape:window-width="1920"
     inkscape:window-height="936"
     id="namedview82"
     showgrid="true"
     inkscape:snap-smooth-nodes="true"
     inkscape:zoom="10.657407"
     inkscape:cx="3.6594267"
     inkscape:cy="23.457864"
     inkscape:window-x="0"
     inkscape:window-y="40"
     inkscape:window-maximized="1"
     inkscape:current-layer="svg80"
     inkscape:showpageshadow="0"
     inkscape:pagecheckerboard="0"
     inkscape:deskcolor="#d1d1d1">
    <inkscape:grid
       type="xygrid"
       id="grid909" />
  </sodipodi:namedview>
  <defs
     id="defs3">
    <style
       id="current-color-scheme"
       type="text/css">.ColorScheme-Text { color:#363636; }</style>
  </defs>
  <g
     id="22-22-configure"
     transform="translate(-21.99221)">
    <path
       d="M 0,10 V 32 H 22 V 10 Z"
       fill="none"
       id="path5" />
    <path
       class="ColorScheme-Text"
       d="m 8.8179371,11.982855 c -0.074969,-0.01037 -0.1518938,-0.0051 -0.2298212,0.01592 -0.3117097,0.08352 -0.4953733,0.400495 -0.4118539,0.712205 l 0.15928,0.593887 a 8.15506,8.15506 0 0 0 -1.3652735,0.616638 c -0.015693,0.0073 -0.032504,0.0071 -0.047789,0.01592 -0.015634,0.0091 -0.02422,0.02394 -0.038678,0.03414 A 8.15506,8.15506 0 0 0 5.666484,14.843055 L 5.234161,14.410732 c -0.2281902,-0.22819 -0.5955058,-0.22819 -0.823696,0 -0.2281903,0.228191 -0.2281903,0.595506 0,0.823697 l 0.4300513,0.430051 a 8.15506,8.15506 0 0 0 -0.903336,1.258326 8.15506,8.15506 0 0 0 -0.6393917,1.410709 L 2.7107292,18.176506 c -0.3117098,-0.08352 -0.6286853,0.100133 -0.7122047,0.411854 -0.083519,0.311722 0.1001324,0.628685 0.4118538,0.712205 l 0.5893313,0.15928 a 8.15506,8.15506 0 0 0 -0.00233,3.083195 l -0.5870594,0.157008 c -0.3117098,0.08352 -0.4953734,0.400496 -0.4118539,0.712205 0.08352,0.31171 0.400495,0.495373 0.7122047,0.411853 l 0.5938865,-0.15928 a 8.15506,8.15506 0 0 0 1.5381608,2.669035 l -0.4323231,0.432324 c -0.2281902,0.228189 -0.2281902,0.595505 0,0.823695 0.2281902,0.228191 0.5955058,0.228191 0.8236961,0 L 5.664146,27.159829 a 8.15506,8.15506 0 0 0 1.2583258,0.903336 8.15506,8.15506 0 0 0 1.4107088,0.639392 l -0.1570082,0.587059 c -0.08352,0.31171 0.1001325,0.628685 0.4118538,0.712205 0.3117098,0.08352 0.6286853,-0.100132 0.7122047,-0.411853 l 0.15928,-0.589332 a 8.15506,8.15506 0 0 0 3.0831951,0.0023 l 0.157009,0.58706 c 0.08352,0.311709 0.400495,0.495373 0.712204,0.411854 0.31171,-0.08352 0.495373,-0.400495 0.411854,-0.712205 l -0.15928,-0.593874 a 8.15506,8.15506 0 0 0 2.669035,-1.538161 l 0.432323,0.432323 c 0.22819,0.22819 0.595505,0.22819 0.823695,0 0.228191,-0.228191 0.228191,-0.595506 0,-0.823697 l -0.430054,-0.430065 a 8.15506,8.15506 0 0 0 0.903336,-1.258326 8.15506,8.15506 0 0 0 0.639391,-1.410709 l 0.58706,0.157008 c 0.311709,0.08352 0.628685,-0.100132 0.712204,-0.411854 0.08352,-0.311665 -0.100132,-0.628629 -0.411853,-0.71216 l -0.589332,-0.15928 a 8.15506,8.15506 0 0 0 0.147898,-1.50857 c 6.31e-4,-0.01118 0.0069,-0.02052 0.0069,-0.03185 0,-0.01459 -0.008,-0.02665 -0.0091,-0.04096 a 8.15506,8.15506 0 0 0 -0.143354,-1.501813 l 0.587059,-0.157009 c 0.31171,-0.08352 0.495374,-0.400495 0.411854,-0.712205 -0.08352,-0.311709 -0.400495,-0.495372 -0.712204,-0.411853 l -0.593875,0.15928 a 8.15506,8.15506 0 0 0 -1.538138,-2.669034 l 0.432323,-0.432323 c 0.22819,-0.22819 0.22819,-0.595506 0,-0.823696 -0.228191,-0.22819 -0.595506,-0.22819 -0.823697,0 l -0.43005,0.430051 a 8.15506,8.15506 0 0 0 -1.258327,-0.903336 8.15506,8.15506 0 0 0 -1.410709,-0.639391 l 0.157009,-0.587059 c 0.08352,-0.311711 -0.100133,-0.628686 -0.411854,-0.712205 -0.31178,-0.08358 -0.628744,0.100086 -0.712274,0.411795 L 12.540443,13 A 8.15506,8.15506 0 0 0 9.4572472,12.9977 L 9.3002389,12.410611 C 9.2375965,12.176828 9.0427604,12.013879 8.8178555,11.982831 Z m 1.8521309,2.034221 a 6.9900514,6.9900514 0 0 1 3.824956,0.930644 6.9900514,6.9900514 0 0 1 3.463221,5.470064 h -4.705587 a 2.3300171,2.3300171 0 0 0 -2.252659,-1.747512 2.3300171,2.3300171 0 0 0 -0.621183,0.08647 l -2.3550652,-4.07753 a 6.9900514,6.9900514 0 0 1 2.6463172,-0.662144 z m -3.6542827,1.249238 2.3527348,4.072987 a 2.3300171,2.3300171 0 0 0 -0.6985507,1.661069 2.3300171,2.3300171 0 0 0 0.696279,1.66107 l -2.3527348,4.0752 A 6.9900514,6.9900514 0 0 1 4.9474873,17.505345 6.9900514,6.9900514 0 0 1 7.0158436,15.266314 Z m 3.9842137,4.569048 a 1.1650086,1.1650086 0 0 1 1.165008,1.165008 1.1650086,1.1650086 0 0 1 -1.165008,1.165009 1.1650086,1.1650086 0 0 1 -1.1650094,-1.165009 1.1650086,1.1650086 0 0 1 1.1650094,-1.165008 z m 2.254873,1.747513 h 4.703256 a 6.9900514,6.9900514 0 0 1 -0.905607,2.912522 6.9900514,6.9900514 0 0 1 -9.0288168,2.823747 l 2.3527348,-4.072986 a 2.3300171,2.3300171 0 0 0 0.623466,0.08419 2.3300171,2.3300171 0 0 0 2.254874,-1.747513 z"
       fill="currentColor"
       id="path7"
       style="stroke-width:1.16501" />
  </g>
  <g
     id="g409">
    <path
       class="ColorScheme-Text"
       d="M 50.887,1 A 15,15 0 0 0 36,16 15,15 0 0 0 51,31 15,15 0 0 0 66,16 15,15 0 0 0 51,1 15,15 0 0 0 50.88672,1 Z m 0.11328,1 a 14,14 0 0 1 14,14 14,14 0 0 1 -14,14 14,14 0 0 1 -14,-14 14,14 0 0 1 14,-14 z"
       fill="currentColor"
       id="path12" />
    <g
       class="ColorScheme-Text"
       fill="currentColor"
       id="g72"
       transform="translate(13)">
      <path
         d="m 37.98,6 a 10,10 0 0 0 -9.9805,10 10,10 0 0 0 10,10 10,10 0 0 0 10,-10 10,10 0 0 0 -10,-10 10,10 0 0 0 -0.01953,0 z m 0.0098,1 a 9,9 0 0 1 0.0098,0 9,9 0 0 1 9,9 9,9 0 0 1 -9,9 9,9 0 0 1 -9,-9 9,9 0 0 1 8.9902,-9 z"
         id="path14" />
      <path
         d="m 37.949,13 a 3,3 0 0 0 -2.9492,3 3,3 0 0 0 3,3 3,3 0 0 0 3,-3 3,3 0 0 0 -3,-3 3,3 0 0 0 -0.05078,0 z m 0.002,1 a 2,2 0 0 1 0.04883,0 2,2 0 0 1 2,2 2,2 0 0 1 -2,2 2,2 0 0 1 -2,-2 2,2 0 0 1 1.9512,-2 z"
         id="path16" />
      <rect
         transform="rotate(-15)"
         x="34.563999"
         y="24.790001"
         width="8"
         height="1"
         rx="0.5"
         ry="0.5"
         id="rect18" />
      <rect
         transform="rotate(-75)"
         x="-15.62"
         y="40.346001"
         width="8"
         height="1"
         rx="0.5"
         ry="0.5"
         id="rect20" />
      <rect
         transform="rotate(-135)"
         x="-36.183998"
         y="15.056"
         width="8"
         height="1"
         rx="0.5"
         ry="0.5"
         id="rect22" />
      <rect
         transform="rotate(15)"
         x="40.346001"
         y="-6.3803"
         width="1"
         height="3"
         rx="0.5"
         ry="0"
         id="rect24" />
      <rect
         transform="rotate(15)"
         x="40.346001"
         y="14.62"
         width="1"
         height="3"
         rx="0.5"
         ry="0"
         id="rect26" />
      <rect
         transform="rotate(30)"
         x="40.409"
         y="-17.143999"
         width="1"
         height="3"
         rx="0.5"
         ry="0"
         id="rect28" />
      <rect
         transform="rotate(30)"
         x="40.409"
         y="3.8564"
         width="1"
         height="3"
         rx="0.5"
         ry="0"
         id="rect30" />
      <rect
         transform="rotate(45)"
         x="37.683998"
         y="-27.556"
         width="1"
         height="3"
         rx="0.5"
         ry="0"
         id="rect32" />
      <rect
         transform="rotate(45)"
         x="37.683998"
         y="-6.5563002"
         width="1"
         height="3"
         rx="0.5"
         ry="0"
         id="rect34" />
      <rect
         transform="rotate(60)"
         x="32.355999"
         y="-36.909"
         width="1"
         height="3"
         rx="0.5"
         ry="0"
         id="rect36" />
      <rect
         transform="rotate(60)"
         x="32.355999"
         y="-15.909"
         width="1"
         height="3"
         rx="0.5"
         ry="0"
         id="rect38" />
      <rect
         transform="rotate(75)"
         x="24.790001"
         y="-44.563999"
         width="1"
         height="3"
         rx="0.5"
         ry="0"
         id="rect40" />
      <rect
         transform="rotate(75)"
         x="24.790001"
         y="-23.563999"
         width="1"
         height="3"
         rx="0.5"
         ry="0"
         id="rect42" />
      <rect
         transform="rotate(90)"
         x="15.5"
         y="-50"
         width="1"
         height="3"
         rx="0.5"
         ry="0"
         id="rect44" />
      <rect
         transform="rotate(90)"
         x="15.5"
         y="-29"
         width="1"
         height="3"
         rx="0.5"
         ry="0"
         id="rect46" />
      <rect
         transform="rotate(105)"
         x="5.1197"
         y="-52.846001"
         width="1"
         height="3"
         rx="0.5"
         ry="0"
         id="rect48" />
      <rect
         transform="rotate(105)"
         x="5.1197"
         y="-31.846001"
         width="1"
         height="3"
         rx="0.5"
         ry="0"
         id="rect50" />
      <rect
         transform="rotate(120)"
         x="-5.6436"
         y="-52.909"
         width="1"
         height="3"
         rx="0.5"
         ry="0"
         id="rect52" />
      <rect
         transform="rotate(120)"
         x="-5.6436"
         y="-31.909"
         width="1"
         height="3"
         rx="0.5"
         ry="0"
         id="rect54" />
      <rect
         transform="rotate(135)"
         x="-16.056"
         y="-50.183998"
         width="1"
         height="3"
         rx="0.5"
         ry="0"
         id="rect56" />
      <rect
         transform="rotate(135)"
         x="-16.056"
         y="-29.184"
         width="1"
         height="3"
         rx="0.5"
         ry="0"
         id="rect58" />
      <rect
         transform="rotate(150)"
         x="-25.409"
         y="-44.855999"
         width="1"
         height="3"
         rx="0.5"
         ry="0"
         id="rect60" />
      <rect
         transform="rotate(150)"
         x="-25.409"
         y="-23.856001"
         width="1"
         height="3"
         rx="0.5"
         ry="0"
         id="rect62" />
      <rect
         transform="rotate(165)"
         x="-33.063999"
         y="-37.290001"
         width="1"
         height="3"
         rx="0.5"
         ry="0"
         id="rect64" />
      <rect
         transform="rotate(165)"
         x="-33.063999"
         y="-16.290001"
         width="1"
         height="3"
         rx="0.5"
         ry="0"
         id="rect66" />
      <rect
         transform="scale(-1)"
         x="-38.5"
         y="-28"
         width="1"
         height="3"
         rx="0.5"
         ry="0"
         id="rect68" />
      <rect
         transform="scale(-1)"
         x="-38.5"
         y="-7"
         width="1"
         height="3"
         rx="0.5"
         ry="0"
         id="rect70" />
    </g>
  </g>
  <g
     id="16-16-configure"
     transform="translate(-18.36411,1.6279)">
    <path
       d="m -20.628,11.372 v 16 h 16 v -16 z"
       fill="none"
       stroke-width="0.72727"
       id="path75" />
    <path
       class="ColorScheme-Text"
       d="m -14.501,11.632 c -0.06435,-0.0089 -0.13038,-0.0043 -0.19727,0.01367 -0.26756,0.07169 -0.42521,0.34377 -0.35352,0.61133 l 0.13672,0.50977 a 7,7 0 0 0 -1.1719,0.5293 c -0.01347,0.0063 -0.0279,0.0061 -0.04102,0.01367 -0.01342,0.0078 -0.02079,0.02055 -0.0332,0.0293 a 7,7 0 0 0 -1.0449,0.74805 L -17.57718,13.716 c -0.19587,-0.19587 -0.51116,-0.19587 -0.70703,0 -0.19587,0.19587 -0.19587,0.51116 0,0.70703 l 0.36914,0.36914 a 7,7 0 0 0 -0.77539,1.0801 7,7 0 0 0 -0.54883,1.2109 L -19.7432,16.9484 c -0.26756,-0.07169 -0.53964,0.08595 -0.61133,0.35352 -0.07169,0.26757 0.08595,0.53964 0.35352,0.61133 l 0.50586,0.13672 a 7,7 0 0 0 -0.002,2.6465 l -0.50391,0.13477 c -0.26756,0.07169 -0.42521,0.34377 -0.35352,0.61133 0.07169,0.26756 0.34377,0.42521 0.61133,0.35352 l 0.50977,-0.13672 a 7,7 0 0 0 1.3203,2.291 l -0.37109,0.37109 c -0.19587,0.19587 -0.19587,0.51116 0,0.70703 0.19587,0.19587 0.51116,0.19587 0.70703,0 l 0.36914,-0.36914 a 7,7 0 0 0 1.0801,0.77539 7,7 0 0 0 1.2109,0.54883 l -0.13477,0.50391 c -0.07169,0.26756 0.08595,0.53964 0.35352,0.61133 0.26756,0.07169 0.53964,-0.08595 0.61133,-0.35352 l 0.13672,-0.50586 a 7,7 0 0 0 2.6465,0.002 l 0.13477,0.50391 c 0.07169,0.26756 0.34377,0.42521 0.61133,0.35352 0.26756,-0.07169 0.42521,-0.34377 0.35352,-0.61133 l -0.13672,-0.50976 a 7,7 0 0 0 2.291,-1.3203 l 0.37109,0.37109 c 0.19587,0.19587 0.51116,0.19587 0.70703,0 0.19587,-0.19587 0.19587,-0.51116 0,-0.70703 l -0.36914,-0.36914 a 7,7 0 0 0 0.77539,-1.0801 7,7 0 0 0 0.54883,-1.2109 l 0.50391,0.13477 c 0.26756,0.07169 0.53964,-0.08595 0.61133,-0.35352 0.07169,-0.26756 -0.08595,-0.53963 -0.35352,-0.61133 l -0.50586,-0.13672 a 7,7 0 0 0 0.12695,-1.2949 c 5.42e-4,-0.0096 0.0059,-0.01762 0.0059,-0.02734 0,-0.01252 -0.0069,-0.02287 -0.0078,-0.03516 a 7,7 0 0 0 -0.12305,-1.2891 l 0.50391,-0.13477 c 0.26756,-0.07169 0.42521,-0.34377 0.35352,-0.61133 -0.07169,-0.26756 -0.34377,-0.42521 -0.61133,-0.35352 l -0.50976,0.13672 a 7,7 0 0 0 -1.3203,-2.291 l 0.37109,-0.37109 c 0.19587,-0.19587 0.19587,-0.51116 0,-0.70703 -0.19587,-0.19587 -0.51116,-0.19587 -0.70703,0 l -0.36914,0.36914 a 7,7 0 0 0 -1.0801,-0.77539 7,7 0 0 0 -1.2109,-0.54883 l 0.13477,-0.50391 c 0.07169,-0.26756 -0.08595,-0.53964 -0.35352,-0.61133 -0.26762,-0.07174 -0.53969,0.08591 -0.61139,0.35347 l -0.13672,0.50586 a 7,7 0 0 0 -2.6465,-0.002 l -0.13477,-0.50391 c -0.05377,-0.20067 -0.22101,-0.34054 -0.41406,-0.36719 z m 1.5898,1.7461 a 6,6 0 0 1 3.2832,0.79883 6,6 0 0 1 2.9727,4.6953 h -4.0391 a 2,2 0 0 0 -1.9336,-1.5 2,2 0 0 0 -0.5332,0.07422 l -2.0215,-3.5 a 6,6 0 0 1 2.2715,-0.56836 z m -3.1367,1.0723 2.0195,3.4961 a 2,2 0 0 0 -0.59961,1.4258 2,2 0 0 0 0.59766,1.4258 l -2.0195,3.498 a 6,6 0 0 1 -1.7734,-7.9238 6,6 0 0 1 1.7754,-1.9219 z m 3.4199,3.9219 a 1,1 0 0 1 1,1 1,1 0 0 1 -1,1 1,1 0 0 1 -1,-1 1,1 0 0 1 1,-1 z m 1.9355,1.5 h 4.0371 a 6,6 0 0 1 -0.77734,2.5 6,6 0 0 1 -7.75,2.4238 l 2.0195,-3.4961 a 2,2 0 0 0 0.53516,0.07227 2,2 0 0 0 1.9355,-1.5 z"
       fill="currentColor"
       id="path77" />
  </g>
  <g
     id="configure">
    <rect
       x="0"
       width="32"
       height="32"
       opacity="0"
       id="rect10"
       y="0" />
    <path
       d="m 16.006121,28.102338 c 0.293782,0 0.575446,-0.02452 0.881486,-0.04904 l 0.685632,1.297852 c 0.146962,0.330558 0.477518,0.489638 0.85697,0.440744 0.355074,-0.06129 0.599961,-0.330558 0.648995,-0.69789 l 0.208115,-1.456932 c 0.575444,-0.146961 1.138633,-0.367333 1.677303,-0.599963 l 1.077342,0.967295 c 0.257146,0.257007 0.612221,0.293782 0.967155,0.110185 0.30618,-0.183735 0.428624,-0.514292 0.367332,-0.881486 l -0.30604,-1.420293 c 0.477518,-0.342815 0.942639,-0.722267 1.383521,-1.138633 l 1.32223,0.551068 c 0.355075,0.146822 0.685633,0.06115 0.954898,-0.244888 0.220372,-0.257146 0.257147,-0.624479 0.06129,-0.942778 l -0.771301,-1.236561 c 0.330557,-0.477518 0.612081,-1.00393 0.869229,-1.55486 l 1.46919,0.07341 c 0.354935,0.02452 0.673373,-0.183596 0.795817,-0.526413 0.122305,-0.342816 0,-0.697889 -0.281663,-0.918261 l -1.138633,-0.906003 c 0.146961,-0.563187 0.257146,-1.150752 0.306041,-1.762973 l 1.383521,-0.440743 C 29.779627,16.64273 30,16.361205 30,15.993873 30,15.62654 29.779627,15.345016 29.424553,15.222572 l -1.383521,-0.440758 c -0.0489,-0.612165 -0.171339,-1.187582 -0.306041,-1.763014 l 1.138633,-0.905989 c 0.281663,-0.208128 0.39185,-0.550943 0.281663,-0.893746 -0.122444,-0.355046 -0.440882,-0.563187 -0.795817,-0.538698 l -1.46919,0.04898 C 26.633132,10.190654 26.351608,9.6764439 26.021051,9.1867221 l 0.7713,-1.2488046 C 26.975948,7.6440799 26.951432,7.276789 26.731059,7.0196837 26.461794,6.7136147 26.131237,6.627904 25.776162,6.7748227 L 24.441674,7.3135222 C 24.01305,6.9094981 23.547929,6.5177184 23.070411,6.1871606 l 0.30604,-1.4202131 C 23.437743,4.3874122 23.315299,4.0568554 22.997,3.8854469 22.654185,3.7018089 22.29911,3.7262837 22.041964,3.9956334 l -1.077342,0.954967 C 20.425952,4.7057395 19.862763,4.5098431 19.287319,4.350693 L 19.079204,2.9182495 C 19.030167,2.5509446 18.785283,2.2816023 18.430209,2.2081443 18.050757,2.159163 17.732458,2.3183299 17.573239,2.6244119 l -0.685632,1.3100126 c -0.30604,-0.024491 -0.587704,-0.036736 -0.881486,-0.036736 -0.318299,0 -0.599963,0.012255 -0.906003,0.036736 L 14.414514,2.6244119 C 14.267595,2.3183318 13.937038,2.1591714 13.557502,2.2203878 c -0.35506,0.061227 -0.59992,0.3305568 -0.648885,0.6978617 L 12.700477,4.350693 C 12.137303,4.5098431 11.574116,4.7057395 11.023172,4.9506004 L 9.9580193,3.9956334 C 9.6886706,3.7385281 9.333624,3.7018089 8.9908219,3.8854469 8.684739,4.0568554 8.5500647,4.3874122 8.6112867,4.7669475 L 8.9173556,6.1871606 C 8.439879,6.5177184 7.9746469,6.9094981 7.546134,7.3135222 L 6.2116316,6.7748227 C 5.8688295,6.627904 5.5260143,6.7136147 5.268909,7.0196837 5.0362934,7.276789 5.0118037,7.6440799 5.1954557,7.9379175 L 5.9790151,9.1867221 C 5.6484434,9.6764439 5.3668493,10.190654 5.0975145,10.729352 l -1.4569333,-0.04898 c -0.36729,-0.02449 -0.6856173,0.183652 -0.7958029,0.538698 -0.12243,0.342802 -0.024491,0.685618 0.2693488,0.893745 l 1.1508504,0.90599 c -0.1469188,0.575431 -0.2693498,1.150849 -0.306083,1.763014 l -1.3834659,0.440757 c -0.3672909,0.122445 -0.5754289,0.391711 -0.5754289,0.771301 0,0.367333 0.208138,0.648857 0.5754289,0.771301 l 1.3834659,0.440744 c 0.036736,0.612221 0.1591642,1.199786 0.306083,1.762973 l -1.138606,0.906003 c -0.2938376,0.208252 -0.3917788,0.563188 -0.2815932,0.906003 0.1101856,0.355074 0.4285129,0.563188 0.7958029,0.538671 l 1.4569333,-0.07341 c 0.2571044,0.550928 0.5509289,1.077341 0.8815006,1.554859 l -0.7835594,1.24882 c -0.1958973,0.306041 -0.1591632,0.673373 0.073453,0.930519 0.2571053,0.306041 0.5999205,0.391711 0.9427226,0.244889 l 1.3345024,-0.551069 c 0.4285129,0.416366 0.893745,0.795818 1.3712215,1.138633 l -0.3060688,1.420296 c -0.061217,0.367194 0.061208,0.697752 0.3795352,0.881487 0.3428021,0.183597 0.6978487,0.146822 0.9671974,-0.110186 l 1.065153,-0.967294 c 0.550944,0.232629 1.101887,0.453001 1.677305,0.612221 l 0.20814,1.444674 c 0.04896,0.367332 0.293825,0.636597 0.66113,0.697889 0.367291,0.0489 0.697848,-0.110185 0.844767,-0.428485 l 0.685604,-1.31011 c 0.30604,0.02452 0.587704,0.04904 0.906002,0.04904 z M 19.20151,15.026679 c -0.599824,-1.579362 -1.824125,-2.436374 -3.268799,-2.436374 -0.208114,0 -0.428625,0.02447 -0.808077,0.110185 L 11.818976,7.0196799 c 1.261036,-0.5876621 2.669005,-0.9182338 4.174887,-0.9182338 5.178872,0 9.243629,3.8933065 9.70875,8.9252329 z M 6.2483648,16.006135 c 0,-3.28117 1.5058959,-6.1582872 3.8933062,-7.9580347 l 3.330121,5.6930537 c -0.648885,0.710093 -0.954953,1.49368 -0.954953,2.301756 0,0.771301 0.281593,1.505826 0.954953,2.25261 l -3.428062,5.5951 C 7.7175275,22.091011 6.2483648,19.238299 6.2483648,16.006135 Z m 8.2151272,0.02452 c 0,-0.832592 0.697918,-1.469218 1.481476,-1.469218 0.820196,0 1.493569,0.636626 1.493569,1.469218 0,0.807937 -0.673373,1.48131 -1.493569,1.48131 -0.783558,0 -1.481476,-0.673373 -1.481476,-1.48131 z m 1.530371,9.86797 c -1.542616,0 -2.987303,-0.342816 -4.272828,-0.967296 l 3.391341,-5.558324 c 0.367333,0.07341 0.612221,0.09793 0.820335,0.09793 1.456932,0 2.668975,-0.881487 3.268799,-2.497639 h 6.501103 c -0.465121,5.031912 -4.529877,8.925331 -9.70875,8.925331 z"
       id="path283"
       style="fill:#fefefe;fill-opacity:1;stroke-width:1.39299" />
  </g>
</svg>
