<?xml version="1.0" encoding="UTF-8" standalone="no"?>
<svg
   xmlns:dc="http://purl.org/dc/elements/1.1/"
   xmlns:cc="http://creativecommons.org/ns#"
   xmlns:rdf="http://www.w3.org/1999/02/22-rdf-syntax-ns#"
   xmlns:svg="http://www.w3.org/2000/svg"
   xmlns="http://www.w3.org/2000/svg"
   xmlns:sodipodi="http://sodipodi.sourceforge.net/DTD/sodipodi-0.dtd"
   xmlns:inkscape="http://www.inkscape.org/namespaces/inkscape"
   version="1.1"
   viewBox="0 0 32 32"
   id="svg80"
   sodipodi:docname="configure.svg"
   width="32"
   height="32"
   inkscape:version="1.0.2 (e86c870879, 2021-01-15)">
  <metadata
     id="metadata84">
    <rdf:RDF>
      <cc:Work
         rdf:about="">
        <dc:format>image/svg+xml</dc:format>
        <dc:type
           rdf:resource="http://purl.org/dc/dcmitype/StillImage" />
        <dc:title></dc:title>
      </cc:Work>
    </rdf:RDF>
  </metadata>
  <sodipodi:namedview
     pagecolor="#ffffff"
     bordercolor="#666666"
     borderopacity="1"
     objecttolerance="10"
     gridtolerance="10"
     guidetolerance="10"
     inkscape:pageopacity="0"
     inkscape:pageshadow="2"
     inkscape:window-width="1920"
     inkscape:window-height="938"
     id="namedview82"
     showgrid="true"
     inkscape:snap-smooth-nodes="true"
     inkscape:zoom="30.1437"
     inkscape:cx="-12.778701"
     inkscape:cy="19.094209"
     inkscape:window-x="0"
     inkscape:window-y="38"
     inkscape:window-maximized="1"
     inkscape:current-layer="svg80">
    <inkscape:grid
       type="xygrid"
       id="grid909" />
  </sodipodi:namedview>
  <defs
     id="defs3">
    <style
       id="current-color-scheme"
       type="text/css">.ColorScheme-Text { color:#363636; }</style>
  </defs>
  <g
     id="22-22-configure"
     transform="translate(-21.99221)">
    <path
       d="M 0,10 V 32 H 22 V 10 Z"
       fill="none"
       id="path5" />
    <path
       class="ColorScheme-Text"
       d="m 8.8179371,11.982855 c -0.074969,-0.01037 -0.1518938,-0.0051 -0.2298212,0.01592 -0.3117097,0.08352 -0.4953733,0.400495 -0.4118539,0.712205 l 0.15928,0.593887 a 8.15506,8.15506 0 0 0 -1.3652735,0.616638 c -0.015693,0.0073 -0.032504,0.0071 -0.047789,0.01592 -0.015634,0.0091 -0.02422,0.02394 -0.038678,0.03414 A 8.15506,8.15506 0 0 0 5.666484,14.843055 L 5.234161,14.410732 c -0.2281902,-0.22819 -0.5955058,-0.22819 -0.823696,0 -0.2281903,0.228191 -0.2281903,0.595506 0,0.823697 l 0.4300513,0.430051 a 8.15506,8.15506 0 0 0 -0.903336,1.258326 8.15506,8.15506 0 0 0 -0.6393917,1.410709 L 2.7107292,18.176506 c -0.3117098,-0.08352 -0.6286853,0.100133 -0.7122047,0.411854 -0.083519,0.311722 0.1001324,0.628685 0.4118538,0.712205 l 0.5893313,0.15928 a 8.15506,8.15506 0 0 0 -0.00233,3.083195 l -0.5870594,0.157008 c -0.3117098,0.08352 -0.4953734,0.400496 -0.4118539,0.712205 0.08352,0.31171 0.400495,0.495373 0.7122047,0.411853 l 0.5938865,-0.15928 a 8.15506,8.15506 0 0 0 1.5381608,2.669035 l -0.4323231,0.432324 c -0.2281902,0.228189 -0.2281902,0.595505 0,0.823695 0.2281902,0.228191 0.5955058,0.228191 0.8236961,0 L 5.664146,27.159829 a 8.15506,8.15506 0 0 0 1.2583258,0.903336 8.15506,8.15506 0 0 0 1.4107088,0.639392 l -0.1570082,0.587059 c -0.08352,0.31171 0.1001325,0.628685 0.4118538,0.712205 0.3117098,0.08352 0.6286853,-0.100132 0.7122047,-0.411853 l 0.15928,-0.589332 a 8.15506,8.15506 0 0 0 3.0831951,0.0023 l 0.157009,0.58706 c 0.08352,0.311709 0.400495,0.495373 0.712204,0.411854 0.31171,-0.08352 0.495373,-0.400495 0.411854,-0.712205 l -0.15928,-0.593874 a 8.15506,8.15506 0 0 0 2.669035,-1.538161 l 0.432323,0.432323 c 0.22819,0.22819 0.595505,0.22819 0.823695,0 0.228191,-0.228191 0.228191,-0.595506 0,-0.823697 l -0.430054,-0.430065 a 8.15506,8.15506 0 0 0 0.903336,-1.258326 8.15506,8.15506 0 0 0 0.639391,-1.410709 l 0.58706,0.157008 c 0.311709,0.08352 0.628685,-0.100132 0.712204,-0.411854 0.08352,-0.311665 -0.100132,-0.628629 -0.411853,-0.71216 l -0.589332,-0.15928 a 8.15506,8.15506 0 0 0 0.147898,-1.50857 c 6.31e-4,-0.01118 0.0069,-0.02052 0.0069,-0.03185 0,-0.01459 -0.008,-0.02665 -0.0091,-0.04096 a 8.15506,8.15506 0 0 0 -0.143354,-1.501813 l 0.587059,-0.157009 c 0.31171,-0.08352 0.495374,-0.400495 0.411854,-0.712205 -0.08352,-0.311709 -0.400495,-0.495372 -0.712204,-0.411853 l -0.593875,0.15928 a 8.15506,8.15506 0 0 0 -1.538138,-2.669034 l 0.432323,-0.432323 c 0.22819,-0.22819 0.22819,-0.595506 0,-0.823696 -0.228191,-0.22819 -0.595506,-0.22819 -0.823697,0 l -0.43005,0.430051 a 8.15506,8.15506 0 0 0 -1.258327,-0.903336 8.15506,8.15506 0 0 0 -1.410709,-0.639391 l 0.157009,-0.587059 c 0.08352,-0.311711 -0.100133,-0.628686 -0.411854,-0.712205 -0.31178,-0.08358 -0.628744,0.100086 -0.712274,0.411795 L 12.540443,13 A 8.15506,8.15506 0 0 0 9.4572472,12.9977 L 9.3002389,12.410611 C 9.2375965,12.176828 9.0427604,12.013879 8.8178555,11.982831 Z m 1.8521309,2.034221 a 6.9900514,6.9900514 0 0 1 3.824956,0.930644 6.9900514,6.9900514 0 0 1 3.463221,5.470064 h -4.705587 a 2.3300171,2.3300171 0 0 0 -2.252659,-1.747512 2.3300171,2.3300171 0 0 0 -0.621183,0.08647 l -2.3550652,-4.07753 a 6.9900514,6.9900514 0 0 1 2.6463172,-0.662144 z m -3.6542827,1.249238 2.3527348,4.072987 a 2.3300171,2.3300171 0 0 0 -0.6985507,1.661069 2.3300171,2.3300171 0 0 0 0.696279,1.66107 l -2.3527348,4.0752 A 6.9900514,6.9900514 0 0 1 4.9474873,17.505345 6.9900514,6.9900514 0 0 1 7.0158436,15.266314 Z m 3.9842137,4.569048 a 1.1650086,1.1650086 0 0 1 1.165008,1.165008 1.1650086,1.1650086 0 0 1 -1.165008,1.165009 1.1650086,1.1650086 0 0 1 -1.1650094,-1.165009 1.1650086,1.1650086 0 0 1 1.1650094,-1.165008 z m 2.254873,1.747513 h 4.703256 a 6.9900514,6.9900514 0 0 1 -0.905607,2.912522 6.9900514,6.9900514 0 0 1 -9.0288168,2.823747 l 2.3527348,-4.072986 a 2.3300171,2.3300171 0 0 0 0.623466,0.08419 2.3300171,2.3300171 0 0 0 2.254874,-1.747513 z"
       fill="currentColor"
       id="path7"
       style="stroke-width:1.16501" />
  </g>
  <g
     id="configure"
     transform="translate(-22)">
    <rect
       x="22"
       width="32"
       height="32"
       opacity="0"
       id="rect10"
       y="0" />
    <path
       class="ColorScheme-Text"
       d="M 37.887,1 A 15,15 0 0 0 23,16 15,15 0 0 0 38,31 15,15 0 0 0 53,16 15,15 0 0 0 38,1 15,15 0 0 0 37.88672,1 Z m 0.11328,1 a 14,14 0 0 1 14,14 14,14 0 0 1 -14,14 14,14 0 0 1 -14,-14 14,14 0 0 1 14,-14 z"
       fill="currentColor"
       id="path12" />
    <g
       class="ColorScheme-Text"
       fill="currentColor"
       id="g72">
      <path
         d="m 37.98,6 a 10,10 0 0 0 -9.9805,10 10,10 0 0 0 10,10 10,10 0 0 0 10,-10 10,10 0 0 0 -10,-10 10,10 0 0 0 -0.01953,0 z m 0.0098,1 a 9,9 0 0 1 0.0098,0 9,9 0 0 1 9,9 9,9 0 0 1 -9,9 9,9 0 0 1 -9,-9 9,9 0 0 1 8.9902,-9 z"
         id="path14" />
      <path
         d="m 37.949,13 a 3,3 0 0 0 -2.9492,3 3,3 0 0 0 3,3 3,3 0 0 0 3,-3 3,3 0 0 0 -3,-3 3,3 0 0 0 -0.05078,0 z m 0.002,1 a 2,2 0 0 1 0.04883,0 2,2 0 0 1 2,2 2,2 0 0 1 -2,2 2,2 0 0 1 -2,-2 2,2 0 0 1 1.9512,-2 z"
         id="path16" />
      <rect
         transform="rotate(-15)"
         x="34.563999"
         y="24.790001"
         width="8"
         height="1"
         rx="0.5"
         ry="0.5"
         id="rect18" />
      <rect
         transform="rotate(-75)"
         x="-15.62"
         y="40.346001"
         width="8"
         height="1"
         rx="0.5"
         ry="0.5"
         id="rect20" />
      <rect
         transform="rotate(-135)"
         x="-36.183998"
         y="15.056"
         width="8"
         height="1"
         rx="0.5"
         ry="0.5"
         id="rect22" />
      <rect
         transform="rotate(15)"
         x="40.346001"
         y="-6.3803"
         width="1"
         height="3"
         rx="0.5"
         ry="0"
         id="rect24" />
      <rect
         transform="rotate(15)"
         x="40.346001"
         y="14.62"
         width="1"
         height="3"
         rx="0.5"
         ry="0"
         id="rect26" />
      <rect
         transform="rotate(30)"
         x="40.409"
         y="-17.143999"
         width="1"
         height="3"
         rx="0.5"
         ry="0"
         id="rect28" />
      <rect
         transform="rotate(30)"
         x="40.409"
         y="3.8564"
         width="1"
         height="3"
         rx="0.5"
         ry="0"
         id="rect30" />
      <rect
         transform="rotate(45)"
         x="37.683998"
         y="-27.556"
         width="1"
         height="3"
         rx="0.5"
         ry="0"
         id="rect32" />
      <rect
         transform="rotate(45)"
         x="37.683998"
         y="-6.5563002"
         width="1"
         height="3"
         rx="0.5"
         ry="0"
         id="rect34" />
      <rect
         transform="rotate(60)"
         x="32.355999"
         y="-36.909"
         width="1"
         height="3"
         rx="0.5"
         ry="0"
         id="rect36" />
      <rect
         transform="rotate(60)"
         x="32.355999"
         y="-15.909"
         width="1"
         height="3"
         rx="0.5"
         ry="0"
         id="rect38" />
      <rect
         transform="rotate(75)"
         x="24.790001"
         y="-44.563999"
         width="1"
         height="3"
         rx="0.5"
         ry="0"
         id="rect40" />
      <rect
         transform="rotate(75)"
         x="24.790001"
         y="-23.563999"
         width="1"
         height="3"
         rx="0.5"
         ry="0"
         id="rect42" />
      <rect
         transform="rotate(90)"
         x="15.5"
         y="-50"
         width="1"
         height="3"
         rx="0.5"
         ry="0"
         id="rect44" />
      <rect
         transform="rotate(90)"
         x="15.5"
         y="-29"
         width="1"
         height="3"
         rx="0.5"
         ry="0"
         id="rect46" />
      <rect
         transform="rotate(105)"
         x="5.1197"
         y="-52.846001"
         width="1"
         height="3"
         rx="0.5"
         ry="0"
         id="rect48" />
      <rect
         transform="rotate(105)"
         x="5.1197"
         y="-31.846001"
         width="1"
         height="3"
         rx="0.5"
         ry="0"
         id="rect50" />
      <rect
         transform="rotate(120)"
         x="-5.6436"
         y="-52.909"
         width="1"
         height="3"
         rx="0.5"
         ry="0"
         id="rect52" />
      <rect
         transform="rotate(120)"
         x="-5.6436"
         y="-31.909"
         width="1"
         height="3"
         rx="0.5"
         ry="0"
         id="rect54" />
      <rect
         transform="rotate(135)"
         x="-16.056"
         y="-50.183998"
         width="1"
         height="3"
         rx="0.5"
         ry="0"
         id="rect56" />
      <rect
         transform="rotate(135)"
         x="-16.056"
         y="-29.184"
         width="1"
         height="3"
         rx="0.5"
         ry="0"
         id="rect58" />
      <rect
         transform="rotate(150)"
         x="-25.409"
         y="-44.855999"
         width="1"
         height="3"
         rx="0.5"
         ry="0"
         id="rect60" />
      <rect
         transform="rotate(150)"
         x="-25.409"
         y="-23.856001"
         width="1"
         height="3"
         rx="0.5"
         ry="0"
         id="rect62" />
      <rect
         transform="rotate(165)"
         x="-33.063999"
         y="-37.290001"
         width="1"
         height="3"
         rx="0.5"
         ry="0"
         id="rect64" />
      <rect
         transform="rotate(165)"
         x="-33.063999"
         y="-16.290001"
         width="1"
         height="3"
         rx="0.5"
         ry="0"
         id="rect66" />
      <rect
         transform="scale(-1)"
         x="-38.5"
         y="-28"
         width="1"
         height="3"
         rx="0.5"
         ry="0"
         id="rect68" />
      <rect
         transform="scale(-1)"
         x="-38.5"
         y="-7"
         width="1"
         height="3"
         rx="0.5"
         ry="0"
         id="rect70" />
    </g>
  </g>
  <g
     id="16-16-configure"
     transform="translate(-18.36411,1.6279)">
    <path
       d="m -20.628,11.372 v 16 h 16 v -16 z"
       fill="none"
       stroke-width="0.72727"
       id="path75" />
    <path
       class="ColorScheme-Text"
       d="m -14.501,11.632 c -0.06435,-0.0089 -0.13038,-0.0043 -0.19727,0.01367 -0.26756,0.07169 -0.42521,0.34377 -0.35352,0.61133 l 0.13672,0.50977 a 7,7 0 0 0 -1.1719,0.5293 c -0.01347,0.0063 -0.0279,0.0061 -0.04102,0.01367 -0.01342,0.0078 -0.02079,0.02055 -0.0332,0.0293 a 7,7 0 0 0 -1.0449,0.74805 L -17.57718,13.716 c -0.19587,-0.19587 -0.51116,-0.19587 -0.70703,0 -0.19587,0.19587 -0.19587,0.51116 0,0.70703 l 0.36914,0.36914 a 7,7 0 0 0 -0.77539,1.0801 7,7 0 0 0 -0.54883,1.2109 L -19.7432,16.9484 c -0.26756,-0.07169 -0.53964,0.08595 -0.61133,0.35352 -0.07169,0.26757 0.08595,0.53964 0.35352,0.61133 l 0.50586,0.13672 a 7,7 0 0 0 -0.002,2.6465 l -0.50391,0.13477 c -0.26756,0.07169 -0.42521,0.34377 -0.35352,0.61133 0.07169,0.26756 0.34377,0.42521 0.61133,0.35352 l 0.50977,-0.13672 a 7,7 0 0 0 1.3203,2.291 l -0.37109,0.37109 c -0.19587,0.19587 -0.19587,0.51116 0,0.70703 0.19587,0.19587 0.51116,0.19587 0.70703,0 l 0.36914,-0.36914 a 7,7 0 0 0 1.0801,0.77539 7,7 0 0 0 1.2109,0.54883 l -0.13477,0.50391 c -0.07169,0.26756 0.08595,0.53964 0.35352,0.61133 0.26756,0.07169 0.53964,-0.08595 0.61133,-0.35352 l 0.13672,-0.50586 a 7,7 0 0 0 2.6465,0.002 l 0.13477,0.50391 c 0.07169,0.26756 0.34377,0.42521 0.61133,0.35352 0.26756,-0.07169 0.42521,-0.34377 0.35352,-0.61133 l -0.13672,-0.50976 a 7,7 0 0 0 2.291,-1.3203 l 0.37109,0.37109 c 0.19587,0.19587 0.51116,0.19587 0.70703,0 0.19587,-0.19587 0.19587,-0.51116 0,-0.70703 l -0.36914,-0.36914 a 7,7 0 0 0 0.77539,-1.0801 7,7 0 0 0 0.54883,-1.2109 l 0.50391,0.13477 c 0.26756,0.07169 0.53964,-0.08595 0.61133,-0.35352 0.07169,-0.26756 -0.08595,-0.53963 -0.35352,-0.61133 l -0.50586,-0.13672 a 7,7 0 0 0 0.12695,-1.2949 c 5.42e-4,-0.0096 0.0059,-0.01762 0.0059,-0.02734 0,-0.01252 -0.0069,-0.02287 -0.0078,-0.03516 a 7,7 0 0 0 -0.12305,-1.2891 l 0.50391,-0.13477 c 0.26756,-0.07169 0.42521,-0.34377 0.35352,-0.61133 -0.07169,-0.26756 -0.34377,-0.42521 -0.61133,-0.35352 l -0.50976,0.13672 a 7,7 0 0 0 -1.3203,-2.291 l 0.37109,-0.37109 c 0.19587,-0.19587 0.19587,-0.51116 0,-0.70703 -0.19587,-0.19587 -0.51116,-0.19587 -0.70703,0 l -0.36914,0.36914 a 7,7 0 0 0 -1.0801,-0.77539 7,7 0 0 0 -1.2109,-0.54883 l 0.13477,-0.50391 c 0.07169,-0.26756 -0.08595,-0.53964 -0.35352,-0.61133 -0.26762,-0.07174 -0.53969,0.08591 -0.61139,0.35347 l -0.13672,0.50586 a 7,7 0 0 0 -2.6465,-0.002 l -0.13477,-0.50391 c -0.05377,-0.20067 -0.22101,-0.34054 -0.41406,-0.36719 z m 1.5898,1.7461 a 6,6 0 0 1 3.2832,0.79883 6,6 0 0 1 2.9727,4.6953 h -4.0391 a 2,2 0 0 0 -1.9336,-1.5 2,2 0 0 0 -0.5332,0.07422 l -2.0215,-3.5 a 6,6 0 0 1 2.2715,-0.56836 z m -3.1367,1.0723 2.0195,3.4961 a 2,2 0 0 0 -0.59961,1.4258 2,2 0 0 0 0.59766,1.4258 l -2.0195,3.498 a 6,6 0 0 1 -1.7734,-7.9238 6,6 0 0 1 1.7754,-1.9219 z m 3.4199,3.9219 a 1,1 0 0 1 1,1 1,1 0 0 1 -1,1 1,1 0 0 1 -1,-1 1,1 0 0 1 1,-1 z m 1.9355,1.5 h 4.0371 a 6,6 0 0 1 -0.77734,2.5 6,6 0 0 1 -7.75,2.4238 l 2.0195,-3.4961 a 2,2 0 0 0 0.53516,0.07227 2,2 0 0 0 1.9355,-1.5 z"
       fill="currentColor"
       id="path77" />
  </g>
</svg>
