<?xml version="1.0" encoding="UTF-8" standalone="no"?>
<svg
   width="32"
   height="32"
   version="1"
   id="svg12"
   sodipodi:docname="corectrl.svg"
   inkscape:version="1.4 (e7c3feb100, 2024-10-09)"
   xmlns:inkscape="http://www.inkscape.org/namespaces/inkscape"
   xmlns:sodipodi="http://sodipodi.sourceforge.net/DTD/sodipodi-0.dtd"
   xmlns="http://www.w3.org/2000/svg"
   xmlns:svg="http://www.w3.org/2000/svg"
   xmlns:rdf="http://www.w3.org/1999/02/22-rdf-syntax-ns#"
   xmlns:cc="http://creativecommons.org/ns#"
   xmlns:dc="http://purl.org/dc/elements/1.1/">
  <metadata
     id="metadata18">
    <rdf:RDF>
      <cc:Work
         rdf:about="">
        <dc:format>image/svg+xml</dc:format>
        <dc:type
           rdf:resource="http://purl.org/dc/dcmitype/StillImage" />
      </cc:Work>
    </rdf:RDF>
  </metadata>
  <defs
     id="defs16">
    <linearGradient
       id="linearGradient2403"
       x1="37.452"
       x2="37.452"
       y1="9.4727001"
       y2="14.003"
       gradientTransform="matrix(0.74046,0,0,1.4809,4.9143898,5.9478024)"
       gradientUnits="userSpaceOnUse">
      <stop
         stop-color="#2e3440"
         offset="0"
         id="stop29845" />
      <stop
         stop-color="#4c566a"
         offset="1"
         id="stop29847" />
    </linearGradient>
    <linearGradient
       id="linearGradient4426"
       x1="39.580002"
       x2="39.580002"
       y1="17.903"
       y2="20.146999"
       gradientUnits="userSpaceOnUse">
      <stop
         stop-color="#2e3440"
         stop-opacity=".25"
         offset="0"
         id="stop29850" />
      <stop
         stop-color="#2e3440"
         stop-opacity="0"
         offset="1"
         id="stop29852" />
    </linearGradient>
    <linearGradient
       id="linearGradient35715"
       y1="1003.36"
       y2="1027.36"
       x1="-93"
       x2="-70"
       gradientUnits="userSpaceOnUse"
       gradientTransform="translate(188.253,-1036.7346)">
      <stop
         stop-color="#292c2f"
         id="stop35711" />
      <stop
         offset="1"
         stop-opacity="0"
         id="stop35713"
         style="stop-color:#000000;stop-opacity:0.05963883;" />
    </linearGradient>
  </defs>
  <sodipodi:namedview
     pagecolor="#c8c8c8"
     bordercolor="#000000"
     borderopacity="1"
     objecttolerance="10"
     gridtolerance="10"
     guidetolerance="10"
     inkscape:pageopacity="1"
     inkscape:pageshadow="2"
     inkscape:window-width="1920"
     inkscape:window-height="950"
     id="namedview14"
     showgrid="true"
     inkscape:zoom="8"
     inkscape:cx="-26"
     inkscape:cy="21.75"
     inkscape:window-x="0"
     inkscape:window-y="34"
     inkscape:window-maximized="1"
     inkscape:current-layer="svg12"
     inkscape:document-rotation="0"
     inkscape:showpageshadow="true"
     inkscape:lockguides="false"
     inkscape:pagecheckerboard="false"
     inkscape:deskcolor="#cdcdcd">
    <inkscape:grid
       type="xygrid"
       id="grid2747"
       originx="32"
       originy="10"
       spacingy="1"
       spacingx="1"
       units="px"
       visible="true" />
  </sodipodi:namedview>
  <g
     id="22-22-corectrl">
    <rect
       style="opacity:0.00100002;fill:#d1d5e9;fill-opacity:1"
       width="22"
       height="22"
       x="32"
       y="10"
       id="rect2" />
    <g
       id="g100"
       transform="translate(0,-21)">
      <path
         id="rect77"
         style="fill:#fffffc;fill-opacity:1;stroke-linecap:round;stroke-linejoin:round"
         d="m 38,35 c -1.107999,0 -2,0.892001 -2,2 v 10 c 0,1.107999 0.892001,2 2,2 h 10 c 1.107999,0 2,-0.892001 2,-2 V 37 c 0,-1.107999 -0.892001,-2 -2,-2 z m 0,1 h 10 c 0.553999,0 1,0.446001 1,1 v 10 c 0,0.553999 -0.446001,1 -1,1 H 38 c -0.553999,0 -1,-0.446001 -1,-1 V 37 c 0,-0.553999 0.446001,-1 1,-1 z" />
      <rect
         style="fill:#ffffff;fill-opacity:1;stroke-width:0.430331"
         width="1.0000004"
         height="10"
         x="39"
         y="37"
         id="rect78" />
      <rect
         style="fill:#ffffff;fill-opacity:1;stroke-width:0.408248"
         width="3"
         height="2"
         x="38"
         y="41"
         id="rect79" />
      <path
         d="m 44,40 v 5 h 4 v -2 h -1 v 1 h -1 v -1 l -1,-1 v -1 h 2 v 1 h 1 v -2 z"
         id="path80"
         style="fill:#fffffc;fill-opacity:1"
         sodipodi:nodetypes="ccccccccccccccc" />
      <rect
         style="fill:#ffffff;fill-opacity:1;stroke-width:0.19245"
         width="1.0000004"
         height="2"
         x="38"
         y="34"
         id="rect81" />
      <rect
         style="fill:#ffffff;fill-opacity:1;stroke-width:0.19245"
         width="1.0000004"
         height="2"
         x="40.25"
         y="34"
         id="rect82" />
      <rect
         style="fill:#ffffff;fill-opacity:1;stroke-width:0.19245"
         width="1.0000004"
         height="2"
         x="42.5"
         y="34"
         id="rect83" />
      <rect
         style="fill:#ffffff;fill-opacity:1;stroke-width:0.19245"
         width="1.0000004"
         height="2"
         x="44.75"
         y="34"
         id="rect84" />
      <rect
         style="fill:#ffffff;fill-opacity:1;stroke-width:0.19245"
         width="1.0000004"
         height="2"
         x="47"
         y="34"
         id="rect85" />
      <rect
         style="fill:#ffffff;fill-opacity:1;stroke-width:0.19245"
         width="1.0000004"
         height="2"
         x="38"
         y="48"
         id="rect86" />
      <rect
         style="fill:#ffffff;fill-opacity:1;stroke-width:0.19245"
         width="1.0000004"
         height="2"
         x="40.25"
         y="48"
         id="rect87" />
      <rect
         style="fill:#ffffff;fill-opacity:1;stroke-width:0.19245"
         width="1.0000004"
         height="2"
         x="42.5"
         y="48"
         id="rect88" />
      <rect
         style="fill:#ffffff;fill-opacity:1;stroke-width:0.19245"
         width="1.0000004"
         height="2"
         x="44.75"
         y="48"
         id="rect89" />
      <rect
         style="fill:#ffffff;fill-opacity:1;stroke-width:0.19245"
         width="1.0000004"
         height="2"
         x="47"
         y="48"
         id="rect90" />
      <rect
         style="fill:#ffffff;fill-opacity:1;stroke-width:0.19245"
         width="1.0000004"
         height="2"
         x="-47"
         y="35"
         id="rect91"
         transform="rotate(-90)" />
      <rect
         style="fill:#ffffff;fill-opacity:1;stroke-width:0.19245"
         width="1.0000004"
         height="2"
         x="-44.75"
         y="35"
         id="rect92"
         transform="rotate(-90)" />
      <rect
         style="fill:#ffffff;fill-opacity:1;stroke-width:0.19245"
         width="1.0000004"
         height="2"
         x="-42.5"
         y="35"
         id="rect93"
         transform="rotate(-90)" />
      <rect
         style="fill:#ffffff;fill-opacity:1;stroke-width:0.19245"
         width="1.0000004"
         height="2"
         x="-40.25"
         y="35"
         id="rect94"
         transform="rotate(-90)" />
      <rect
         style="fill:#ffffff;fill-opacity:1;stroke-width:0.19245"
         width="1.0000004"
         height="2"
         x="-38"
         y="35"
         id="rect95"
         transform="rotate(-90)" />
      <rect
         style="fill:#ffffff;fill-opacity:1;stroke-width:0.19245"
         width="1.0000004"
         height="2"
         x="-47"
         y="49"
         id="rect96"
         transform="rotate(-90)" />
      <rect
         style="fill:#ffffff;fill-opacity:1;stroke-width:0.19245"
         width="1.0000004"
         height="2"
         x="-44.75"
         y="49"
         id="rect97"
         transform="rotate(-90)" />
      <rect
         style="fill:#ffffff;fill-opacity:1;stroke-width:0.19245"
         width="1.0000004"
         height="2"
         x="-42.5"
         y="49"
         id="rect98"
         transform="rotate(-90)" />
      <rect
         style="fill:#ffffff;fill-opacity:1;stroke-width:0.19245"
         width="1.0000004"
         height="2"
         x="-40.25"
         y="49"
         id="rect99"
         transform="rotate(-90)" />
      <rect
         style="fill:#ffffff;fill-opacity:1;stroke-width:0.19245"
         width="1.0000004"
         height="2"
         x="-38"
         y="49"
         id="rect100"
         transform="rotate(-90)" />
    </g>
  </g>
  <g
     id="corectrl">
    <rect
       style="opacity:0.00100002;fill:#d1d5e9;fill-opacity:1"
       width="32"
       height="32"
       x="0"
       y="0"
       id="rect7" />
    <g
       id="g122"
       transform="translate(41)">
      <rect
         style="fill:#ffffff;fill-opacity:1;stroke-width:0.7698"
         width="2"
         height="16"
         x="-30"
         y="8"
         id="rect4"
         ry="1" />
      <rect
         style="fill:#ffffff;fill-opacity:1;stroke-width:0.471404"
         width="4"
         height="2"
         x="-31"
         y="15"
         id="rect8"
         ry="1" />
      <path
         id="path9"
         style="fill:#ffffff;fill-opacity:1;stroke-width:1.00174;stroke-linecap:round;stroke-linejoin:round"
         d="m -32,4 c -1.661998,0 -3,1.3380017 -3,3 v 17 c 0,1.661998 1.338002,3 3,3 h 16 c 1.661998,0 3,-1.338002 3,-3 V 7 c 0,-1.6619983 -1.338002,-3 -3,-3 z m 0,1 h 16 c 1.107999,0 2,0.8920011 2,2 v 17 c 0,1.107999 -0.892001,2 -2,2 h -16 c -1.107999,0 -2,-0.892001 -2,-2 V 7 c 0,-1.1079989 0.892001,-2 2,-2 z"
         sodipodi:nodetypes="ssssssssssssssssss" />
      <path
         d="m -24.5,8.5 v 7 h 6 v -2 h -1 v 1 h -3 v -1.710323 l -1,-0.905062 V 9.5 h 4 v 1 h 1 v -2 z"
         id="path11"
         sodipodi:nodetypes="ccccccccccccccc"
         style="fill:#fffffc;fill-opacity:1;stroke:#ffffff;stroke-opacity:1" />
      <rect
         style="fill:#ffffff;fill-opacity:1;stroke-width:0.333333"
         width="2"
         height="3"
         x="-24"
         y="-38"
         id="rect58"
         transform="rotate(-90)" />
      <rect
         style="fill:#ffffff;fill-opacity:1;stroke-width:0.333333"
         width="2.0000007"
         height="3"
         x="-10"
         y="-38"
         id="rect65"
         transform="rotate(-90)" />
      <path
         style="fill:#ffffff;stroke-linecap:round;stroke-linejoin:round"
         d="m -32,4 c -1.661998,0 -3,1.3380017 -3,3 v 17 c 0,1.661998 1.338002,3 3,3 h 16 c 1.661998,0 3,-1.338002 3,-3 V 7 c 0,-1.6619983 -1.338002,-3 -3,-3 z m 0,1 h 16 c 1.107999,0 2,0.8920011 2,2 v 17 c 0,1.107999 -0.892001,2 -2,2 h -16 c -1.107999,0 -2,-0.892001 -2,-2 V 7 c 0,-1.1079989 0.892001,-2 2,-2 z"
         id="path75"
         sodipodi:nodetypes="ssssssssssssssssss" />
      <path
         style="fill:#ffffff;stroke-linecap:round;stroke-linejoin:round"
         d="M -32.5,4 C -34.43035,4 -36,5.5696496 -36,7.5 v 17 c 0,1.93035 1.56965,3.5 3.5,3.5 h 16 c 1.93035,0 3.5,-1.56965 3.5,-3.5 V 7.5 C -13,5.5696496 -14.56965,4 -16.5,4 Z m 0,1 C -33.876351,5 -35,6.1236491 -35,7.5 -35,6.1063538 -33.893646,5 -32.5,5 Z m 16,0 C -15.106354,5 -14,6.1063538 -14,7.5 -14,6.1236491 -15.123649,5 -16.5,5 Z m -16,1 h 16 c 0.839647,0 1.5,0.6603531 1.5,1.5 v 17 c 0,0.839647 -0.660353,1.5 -1.5,1.5 h -16 C -33.339647,26 -34,25.339647 -34,24.5 V 7.5 C -34,6.6603531 -33.339647,6 -32.5,6 Z M -35,24.5 c 0,1.376351 1.123649,2.5 2.5,2.5 -1.393646,0 -2.5,-1.106354 -2.5,-2.5 z m 21,0 c 0,1.393646 -1.106354,2.5 -2.5,2.5 1.376351,0 2.5,-1.123649 2.5,-2.5 z"
         id="path76"
         sodipodi:nodetypes="sssssssssccccccssssssssscccccc" />
      <path
         d="m -24.5,16.5 v 7 h 6 v -2 h -1 v 1 h -3 v -1.710323 l -1,-0.905062 V 17.5 h 4 v 1 h 1 v -2 z"
         id="path77"
         sodipodi:nodetypes="ccccccccccccccc"
         style="fill:#fffffc;fill-opacity:1;stroke:#ffffff;stroke-opacity:1" />
      <rect
         style="fill:#ffffff;fill-opacity:1;stroke-width:0.333333"
         width="2.0000007"
         height="3"
         x="-13.5"
         y="-38"
         id="rect80"
         transform="rotate(-90)" />
      <rect
         style="fill:#ffffff;fill-opacity:1;stroke-width:0.333333"
         width="2.0000007"
         height="3"
         x="-17"
         y="-38"
         id="rect101"
         transform="rotate(-90)" />
      <rect
         style="fill:#ffffff;fill-opacity:1;stroke-width:0.333333"
         width="2.0000007"
         height="3"
         x="-20.5"
         y="-38"
         id="rect102"
         transform="rotate(-90)" />
      <rect
         style="fill:#ffffff;fill-opacity:1;stroke-width:0.333333"
         width="2"
         height="3"
         x="-24"
         y="-14"
         id="rect107"
         transform="rotate(-90)" />
      <rect
         style="fill:#ffffff;fill-opacity:1;stroke-width:0.333333"
         width="2.0000007"
         height="3"
         x="-10"
         y="-14"
         id="rect108"
         transform="rotate(-90)" />
      <rect
         style="fill:#ffffff;fill-opacity:1;stroke-width:0.333333"
         width="2.0000007"
         height="3"
         x="-13.5"
         y="-14"
         id="rect109"
         transform="rotate(-90)" />
      <rect
         style="fill:#ffffff;fill-opacity:1;stroke-width:0.333333"
         width="2.0000007"
         height="3"
         x="-17"
         y="-14"
         id="rect110"
         transform="rotate(-90)" />
      <rect
         style="fill:#ffffff;fill-opacity:1;stroke-width:0.333333"
         width="2.0000007"
         height="3"
         x="-20.5"
         y="-14"
         id="rect111"
         transform="rotate(-90)" />
      <rect
         style="fill:#ffffff;fill-opacity:1;stroke-width:0.333333"
         width="2"
         height="3"
         x="-15.4375"
         y="-22"
         id="rect112"
         transform="rotate(-90)" />
      <rect
         style="fill:#ffffff;fill-opacity:1;stroke-width:0.333333"
         width="2.0000007"
         height="3"
         x="31"
         y="-5"
         id="rect113"
         transform="scale(-1)" />
      <rect
         style="fill:#ffffff;fill-opacity:1;stroke-width:0.333333"
         width="2.0000007"
         height="3"
         x="27.25"
         y="-5"
         id="rect114"
         transform="scale(-1)" />
      <rect
         style="fill:#ffffff;fill-opacity:1;stroke-width:0.333333"
         width="2.0000007"
         height="3"
         x="23.5"
         y="-5"
         id="rect115"
         transform="scale(-1)" />
      <rect
         style="fill:#ffffff;fill-opacity:1;stroke-width:0.333333"
         width="2.0000007"
         height="3"
         x="19.75"
         y="-5"
         id="rect116"
         transform="scale(-1)" />
      <rect
         style="fill:#ffffff;fill-opacity:1;stroke-width:0.333333"
         width="2.0000007"
         height="3"
         x="16"
         y="-5"
         id="rect117"
         transform="scale(-1)" />
      <rect
         style="fill:#ffffff;fill-opacity:1;stroke-width:0.333333"
         width="2.0000007"
         height="3"
         x="31"
         y="-30"
         id="rect118"
         transform="scale(-1)" />
      <rect
         style="fill:#ffffff;fill-opacity:1;stroke-width:0.333333"
         width="2.0000007"
         height="3"
         x="27.25"
         y="-30"
         id="rect119"
         transform="scale(-1)" />
      <rect
         style="fill:#ffffff;fill-opacity:1;stroke-width:0.333333"
         width="2.0000007"
         height="3"
         x="23.5"
         y="-30"
         id="rect120"
         transform="scale(-1)" />
      <rect
         style="fill:#ffffff;fill-opacity:1;stroke-width:0.333333"
         width="2.0000007"
         height="3"
         x="19.75"
         y="-30"
         id="rect121"
         transform="scale(-1)" />
      <rect
         style="fill:#ffffff;fill-opacity:1;stroke-width:0.333333"
         width="2.0000007"
         height="3"
         x="16"
         y="-30"
         id="rect122"
         transform="scale(-1)" />
    </g>
  </g>
</svg>
