<?xml version="1.0" encoding="UTF-8" standalone="no"?>
<svg
   width="32"
   height="32"
   version="1.1"
   id="svg14"
   sodipodi:docname="face.svg"
   inkscape:version="1.4 (e7c3feb100, 2024-10-09)"
   xmlns:inkscape="http://www.inkscape.org/namespaces/inkscape"
   xmlns:sodipodi="http://sodipodi.sourceforge.net/DTD/sodipodi-0.dtd"
   xmlns="http://www.w3.org/2000/svg"
   xmlns:svg="http://www.w3.org/2000/svg">
  <sodipodi:namedview
     id="namedview16"
     pagecolor="#c8c8c8"
     bordercolor="#000000"
     borderopacity="1"
     inkscape:showpageshadow="2"
     inkscape:pageopacity="0"
     inkscape:pagecheckerboard="0"
     inkscape:deskcolor="#cccccc"
     showgrid="true"
     inkscape:zoom="5.6568545"
     inkscape:cx="-10.606601"
     inkscape:cy="4.7729705"
     inkscape:window-width="1920"
     inkscape:window-height="952"
     inkscape:window-x="0"
     inkscape:window-y="34"
     inkscape:window-maximized="1"
     inkscape:current-layer="svg14">
    <inkscape:grid
       type="xygrid"
       id="grid191"
       originx="0"
       originy="0"
       spacingy="1"
       spacingx="1"
       units="px"
       visible="true" />
  </sodipodi:namedview>
  <defs
     id="defs5">
    <style
       id="current-color-scheme"
       type="text/css">.ColorScheme-Background { color:#181818; }
.ColorScheme-ButtonBackground { color:#343434; }
.ColorScheme-Highlight { color:#4285f4; }
.ColorScheme-Text { color:#eceff4; }
.ColorScheme-ViewBackground { color:#242424; }
.ColorScheme-NegativeText { color:#f44336; }
.ColorScheme-PositiveText { color:#4caf50; }
.ColorScheme-NeutralText { color:#ff9800; }
</style>
  </defs>
  <g
     id="22-22-face">
    <rect
       style="opacity:0.00100002;fill:#eff0f1;fill-opacity:1"
       width="22"
       height="22"
       x="32"
       y="10.000001"
       id="rect4" />
    <g
       id="g5"
       transform="translate(-16)">
      <path
         style="color:#000000;fill:#fbfbfb;stroke-linecap:round;-inkscape-stroke:none"
         d="m 59,13 c -4.412351,0 -8,3.587649 -8,8 0,4.412351 3.587649,8 8,8 4.412351,0 8,-3.587649 8,-8 0,-4.412351 -3.587649,-8 -8,-8 z m 0,1 c 3.871911,0 7,3.128089 7,7 0,3.871911 -3.128089,7 -7,7 -3.871911,0 -7,-3.128089 -7,-7 0,-3.871911 3.128089,-7 7,-7 z"
         id="path3" />
      <circle
         style="opacity:1;fill:#fbfbfb;fill-opacity:1;stroke:none;stroke-width:1;stroke-linecap:round;stroke-dasharray:none;stroke-opacity:1"
         id="path4"
         cx="56.000004"
         cy="19"
         r="1" />
      <circle
         style="opacity:1;fill:#fbfbfb;fill-opacity:1;stroke:none;stroke-width:1;stroke-linecap:round;stroke-dasharray:none;stroke-opacity:1"
         id="circle4"
         cx="62"
         cy="19"
         r="1" />
      <path
         style="color:#000000;fill:#fbfbfb;stroke-linecap:round;-inkscape-stroke:none"
         d="m 55.666016,22.017578 a 0.5,0.5 0 0 0 -0.38086,0.04883 A 0.5,0.5 0 0 0 55.103516,22.75 C 55.906962,24.141609 57.393108,25 59,25 c 1.606892,0 3.093038,-0.858391 3.896484,-2.25 A 0.5,0.5 0 0 0 62.714844,22.066406 0.5,0.5 0 0 0 62.03125,22.25 C 61.405635,23.333597 60.25123,24 59,24 57.74877,24 56.594365,23.333597 55.96875,22.25 a 0.5,0.5 0 0 0 -0.302734,-0.232422 z"
         id="circle5" />
    </g>
  </g>
  <g
     id="face">
    <rect
       style="opacity:0.00100002;fill:#eff0f1;fill-opacity:1"
       width="32"
       height="32"
       x="0"
       y="0"
       id="rect9" />
    <circle
       style="fill:#fbfbfb;fill-opacity:1;stroke:none;stroke-width:0.5;stroke-linecap:square"
       id="path1"
       cx="12"
       cy="13"
       r="2" />
    <circle
       style="fill:#fbfbfb;fill-opacity:1;stroke:none;stroke-width:0.5;stroke-linecap:square"
       id="circle1"
       cx="20"
       cy="13"
       r="2" />
    <path
       id="path1301"
       style="fill:#ffffff;fill-opacity:1;fill-rule:evenodd;stroke-width:1.42639;stroke-linecap:round;stroke-linejoin:round"
       d="M 16,3 A 13,13 0 0 0 3,16 13,13 0 0 0 16,29 13,13 0 0 0 29,16 13,13 0 0 0 16,3 Z m 0,2 A 11,11 0 0 1 27,16 11,11 0 0 1 16,27 11,11 0 0 1 5,16 11,11 0 0 1 16,5 Z" />
    <path
       style="fill:none;stroke:#ffffff;stroke-width:2;stroke-linecap:round;stroke-linejoin:round;stroke-dasharray:none;stroke-opacity:1"
       id="path5"
       sodipodi:arc-type="arc"
       sodipodi:type="arc"
       sodipodi:cx="16"
       sodipodi:cy="16"
       sodipodi:rx="7"
       sodipodi:ry="7"
       sodipodi:start="0.52359878"
       sodipodi:end="2.6179939"
       d="M 22.062178,19.5 A 7,7 0 0 1 16,23 7,7 0 0 1 9.9378221,19.5"
       sodipodi:open="true" />
  </g>
</svg>
