<?xml version="1.0" encoding="UTF-8" standalone="no"?>
<svg
   width="32"
   height="32"
   version="1"
   id="svg14"
   sodipodi:docname="internet.svg"
   inkscape:version="1.4 (e7c3feb100, 2024-10-09)"
   xmlns:inkscape="http://www.inkscape.org/namespaces/inkscape"
   xmlns:sodipodi="http://sodipodi.sourceforge.net/DTD/sodipodi-0.dtd"
   xmlns="http://www.w3.org/2000/svg"
   xmlns:svg="http://www.w3.org/2000/svg">
  <sodipodi:namedview
     id="namedview16"
     pagecolor="#c8c8c8"
     bordercolor="#000000"
     borderopacity="1"
     inkscape:showpageshadow="true"
     inkscape:pageopacity="0"
     inkscape:pagecheckerboard="false"
     inkscape:deskcolor="#cccccc"
     showgrid="true"
     inkscape:zoom="3.6875"
     inkscape:cx="-35.118644"
     inkscape:cy="34.711864"
     inkscape:window-width="1920"
     inkscape:window-height="952"
     inkscape:window-x="0"
     inkscape:window-y="34"
     inkscape:window-maximized="1"
     inkscape:current-layer="svg14">
    <inkscape:grid
       type="xygrid"
       id="grid1531"
       originx="0"
       originy="0"
       spacingy="1"
       spacingx="1"
       units="px"
       visible="true" />
  </sodipodi:namedview>
  <defs
     id="l4k1">
    <style
       type="text/css"
       id="current-color-scheme" />
    <clipPath
       id="clip0_503_450">
      <rect
         width="28"
         height="28"
         fill="white"
         id="rect1" />
    </clipPath>
  </defs>
  <g
     id="internet-web-browser">
    <rect
       style="opacity:0.00100002;fill:#eff0f1;fill-opacity:1"
       width="32"
       height="32"
       x="0"
       y="0"
       id="rect9" />
    <path
       d="M 16,30 C 23.657278,30 30,23.670849 30,16 30,8.3426904 23.657278,2 15.986431,2 8.3291361,2 2,8.3426904 2,16 2,23.670849 8.3426903,30 16,30 Z m 0,-2.168519 c -5.841262,0 -10.7879919,-4.377438 -11.6824777,-10.001894 0.081308,0.01357 0.1490806,0.01357 0.2303905,0.01357 1.4501469,0 2.4124024,-1.233293 2.4124024,-3.117159 0,-0.596293 0.1084182,-0.772544 0.5014445,-0.96221 l 0.8673764,-0.406627 c 0.4607971,-0.230376 0.880931,-0.05413 1.165539,0.338932 l 1.6127029,2.358185 c 1.490809,2.154796 3.008757,3.035742 4.404732,3.035742 1.341697,0 2.249782,-0.853808 2.249782,-2.168365 0,-0.772543 -0.393056,-1.436684 -1.030057,-1.856726 -0.406627,-0.284653 -0.284655,-0.610016 0.08126,-0.610016 3.30698,0 5.055304,-1.192585 5.055304,-3.59148 0,-3.171283 -2.683548,-3.3474722 -2.683548,-4.1606322 0,-0.4879051 0.609861,-0.7589585 1.030057,-1.7347534 C 24.633059,6.6892468 27.831637,11.012545 27.831637,16 c 0,1.246864 -0.203391,2.453019 -0.569308,3.591479 -0.704695,-0.582723 -1.274003,-0.826668 -1.93799,-0.826668 -0.515029,0 -0.799682,0.135542 -1.084182,0.230376 -0.284654,0.08126 -0.420195,-0.04071 -0.460905,-0.284654 -0.135543,-0.989349 -0.758975,-1.382406 -1.761894,-1.382406 h -0.704695 c -0.826668,0 -1.490808,0.433765 -1.992268,1.206309 l -0.216805,0.338779 c -0.338779,0.528598 -0.637002,0.962209 -0.935225,1.246863 -0.2845,0.257514 -0.501305,0.379486 -1.057043,0.555584 l -0.623432,0.18982 c -0.948641,0.298069 -1.233294,1.124892 -0.97578,2.046392 l 0.650571,2.290492 c 0.243945,0.840238 0.745404,1.273849 1.558503,1.273849 0.352347,0 0.786113,-0.135389 1.233294,-0.352348 l 0.20339,-0.09483 c 0.311639,-0.149111 0.542014,-0.203235 0.77239,-0.203235 0.528598,0 0.880945,0.257515 1.287572,0.772389 C 19.645758,27.3843 17.870295,27.831481 16,27.831481 Z"
       fill="#1c1c1e"
       id="path1-6"
       style="fill:#ffffff;fill-opacity:1;stroke-width:1.542" />
  </g>
  <g
     id="22-22-internet-web-browser">
    <rect
       style="opacity:0.00100002;fill:#eff0f1;fill-opacity:1"
       width="22"
       height="22"
       x="32"
       y="10"
       id="rect4" />
    <path
       d="M 43,31 C 48.469486,31 53,26.479177 53,21 53,15.530494 48.469484,11 42.990308,11 37.520812,11 33,15.530494 33,21 c 0,5.479178 4.530493,10 10,10 z m 0,-1.548942 c -4.172331,0 -7.705709,-3.126742 -8.344628,-7.144211 0.05808,0.0097 0.106487,0.0097 0.164566,0.0097 1.035818,0 1.723143,-0.880925 1.723143,-2.226543 0,-0.425923 0.07744,-0.551817 0.358176,-0.687293 l 0.619555,-0.290447 c 0.32914,-0.164554 0.629235,-0.03866 0.832527,0.242095 l 1.15193,1.684418 c 1.064864,1.539139 2.149113,2.168387 3.146237,2.168387 0.958355,0 1.606988,-0.609863 1.606988,-1.548832 0,-0.551817 -0.280755,-1.026203 -0.735756,-1.326233 -0.290447,-0.203324 -0.203323,-0.435726 0.05805,-0.435726 2.362128,0 3.61093,-0.851847 3.61093,-2.565343 0,-2.265202 -1.91682,-2.391052 -1.91682,-2.97188 0,-0.348504 0.435617,-0.542113 0.735756,-1.23911 3.15582,1.229428 5.440518,4.317499 5.440518,7.879966 0,0.890617 -0.145279,1.752157 -0.406649,2.565343 -0.503354,-0.416231 -0.910002,-0.590477 -1.384278,-0.590477 -0.367878,0 -0.571202,0.09682 -0.774416,0.164554 -0.203324,0.05804 -0.30014,-0.02908 -0.329218,-0.203324 -0.09682,-0.706678 -0.542124,-0.987433 -1.258494,-0.987433 h -0.503354 c -0.590477,0 -1.064864,0.309832 -1.423049,0.861649 l -0.154861,0.241984 c -0.241984,0.377571 -0.455001,0.687293 -0.668018,0.890617 -0.203214,0.183939 -0.358075,0.271063 -0.755031,0.396846 l -0.445308,0.135586 c -0.6776,0.212907 -0.880924,0.803494 -0.696986,1.461709 l 0.464694,1.636065 c 0.174247,0.60017 0.532432,0.909892 1.113216,0.909892 0.251677,0 0.56151,-0.09671 0.880925,-0.251677 l 0.145278,-0.06774 c 0.2226,-0.106508 0.387153,-0.145168 0.551707,-0.145168 0.377571,0 0.629247,0.183939 0.919695,0.551706 -1.122909,0.56151 -2.391096,0.880925 -3.727022,0.880925 z"
       fill="#1c1c1e"
       id="path3"
       style="fill:#ffffff;fill-opacity:1;stroke-width:1.10143" />
  </g>
</svg>
