<?xml version="1.0" encoding="UTF-8" standalone="no"?>
<svg
   width="32"
   height="32"
   version="1.1"
   id="svg986"
   sodipodi:docname="jami.svg"
   inkscape:version="1.4 (e7c3feb100, 2024-10-09)"
   xmlns:inkscape="http://www.inkscape.org/namespaces/inkscape"
   xmlns:sodipodi="http://sodipodi.sourceforge.net/DTD/sodipodi-0.dtd"
   xmlns="http://www.w3.org/2000/svg"
   xmlns:svg="http://www.w3.org/2000/svg">
  <style
     id="current-color-scheme"
     type="text/css">.ColorScheme-Text { color:#eceff4; }
</style>
  <sodipodi:namedview
     id="namedview988"
     pagecolor="#c8c8c8"
     bordercolor="#000000"
     borderopacity="1"
     inkscape:showpageshadow="2"
     inkscape:pageopacity="0.0"
     inkscape:pagecheckerboard="0"
     inkscape:deskcolor="#cccccc"
     showgrid="true"
     inkscape:zoom="7.375"
     inkscape:cx="29.559322"
     inkscape:cy="33.694915"
     inkscape:window-width="1920"
     inkscape:window-height="1017"
     inkscape:window-x="0"
     inkscape:window-y="34"
     inkscape:window-maximized="1"
     inkscape:current-layer="svg986">
    <inkscape:grid
       type="xygrid"
       id="grid1519"
       originx="32"
       originy="10"
       spacingy="1"
       spacingx="1"
       units="px"
       visible="true" />
  </sodipodi:namedview>
  <defs
     id="Dexy" />
  <g
     id="22-22-jami">
    <rect
       style="opacity:0.00100002;fill:#eceff4;fill-opacity:1"
       width="22"
       height="22"
       x="32"
       y="10"
       id="rect981" />
    <path
       id="path2"
       style="opacity:1;fill:#ffffff;fill-opacity:1;stroke:none;stroke-width:1.33333;stroke-linecap:round;stroke-linejoin:round"
       d="m 43,13 a 8,8 0 0 0 -8,8 8,8 0 0 0 8,8 8,8 0 0 0 8,-8 8,8 0 0 0 -8,-8 z m 0,1 a 7,7 0 0 1 7,7 7,7 0 0 1 -7,7 7,7 0 0 1 -7,-7 7,7 0 0 1 7,-7 z" />
    <path
       style="fill:#ffffff;fill-opacity:1;stroke-width:0.774566"
       d="m 42.189098,15.00002 c -0.380529,-0.0012 -0.616426,1.549989 -0.721835,3.514026 -1.550136,-0.739013 -2.897264,-1.280664 -3.420149,-1.26411 -0.111147,0.0036 -0.186633,0.03196 -0.220294,0.08643 l -0.807774,1.30513 c -0.191905,0.310252 1.125983,1.282136 2.893604,2.355378 -1.777655,1.078209 -3.086223,2.049833 -2.893604,2.361238 l 0.807774,1.305128 c 0.192731,0.311586 1.762444,-0.276121 3.651379,-1.177692 0.112787,1.960772 0.352756,3.5087 0.732776,3.509632 l 1.599923,0.0048 c 0.380126,0.0012 0.616247,-1.547158 0.721836,-3.508169 1.883493,0.898253 3.448125,1.48276 3.640446,1.171836 l 0.807774,-1.305131 c 0.19262,-0.311405 -1.115949,-1.28303 -2.893608,-2.361238 1.76762,-1.073243 3.085513,-2.045128 2.893608,-2.35538 L 48.17318,17.336743 c -0.03369,-0.05446 -0.10915,-0.08293 -0.220302,-0.08643 -0.523937,-0.01654 -1.875319,0.52709 -3.42952,1.268505 -0.112656,-1.96309 -0.354004,-3.513089 -0.734335,-3.514026 z m 0.414047,0.751439 0.771834,0.002 c 0.07619,0.255269 0.158161,0.682506 0.221865,1.211379 0.06657,0.55287 0.11735,1.213465 0.151555,1.923269 -0.248139,0.124112 -0.495986,0.256916 -0.748401,0.388132 -0.25529,-0.132709 -0.505321,-0.267096 -0.756213,-0.392562 0.03145,-0.711683 0.07913,-1.375186 0.143743,-1.929124 0.06126,-0.525268 0.140954,-0.947546 0.215617,-1.202593 z m -4.290415,2.293855 c 0.275633,0.0662 0.716426,0.21459 1.24056,0.429183 0.552089,0.226042 1.1978,0.522263 1.881158,0.855437 -0.0086,0.261144 -0.01293,0.527183 -0.01716,0.79538 -0.260558,0.145931 -0.502153,0.290511 -0.753088,0.436506 -0.649311,-0.386554 -1.246297,-0.760456 -1.731163,-1.094197 -0.458996,-0.315931 -0.814806,-0.595295 -1.014009,-0.785127 z m 9.374536,0 0.393732,0.637182 c -0.199204,0.189832 -0.555017,0.469196 -1.014012,0.785127 -0.484867,0.333741 -1.081853,0.707643 -1.731167,1.094197 -0.252528,-0.146923 -0.495511,-0.292584 -0.757774,-0.439436 -0.0055,-0.265507 -0.0108,-0.529483 -0.02029,-0.788054 0.68624,-0.334739 1.334793,-0.632938 1.88897,-0.859833 0.524132,-0.214593 0.964931,-0.363023 1.240564,-0.429183 z m -4.687268,2.088788 c 0.137987,0.073 0.271746,0.135169 0.409356,0.209464 0.130987,0.0707 0.249564,0.143741 0.379669,0.215325 0.002,0.151804 0.01061,0.294608 0.01096,0.44676 2.89e-4,0.147765 -0.0082,0.286142 -0.0093,0.433578 -0.130722,0.07191 -0.249605,0.145725 -0.381229,0.216787 -0.137609,0.07426 -0.271366,0.13643 -0.409352,0.209465 -0.138012,-0.07299 -0.271772,-0.135168 -0.40938,-0.209465 -0.130989,-0.0707 -0.249564,-0.14374 -0.379667,-0.215322 -0.0016,-0.151805 -0.01065,-0.29461 -0.01093,-0.446759 -2.87e-4,-0.147766 0.0083,-0.286145 0.0094,-0.43358 0.13072,-0.07191 0.249605,-0.145726 0.381229,-0.216789 0.137607,-0.07426 0.271363,-0.136428 0.40935,-0.209464 z m -2.338948,1.30366 c 0.247974,0.144202 0.503539,0.28651 0.7609,0.430648 0.005,0.268525 0.01071,0.535391 0.02032,0.796845 -0.68624,0.334736 -1.334792,0.632937 -1.888973,0.859831 -0.524133,0.214594 -0.964927,0.363024 -1.24056,0.429184 l -0.393728,-0.637183 c 0.199203,-0.189833 0.555014,-0.469193 1.014009,-0.785126 0.484323,-0.333369 1.079574,-0.708097 1.728041,-1.094199 z m 4.677895,0 c 0.648467,0.386102 1.243716,0.76083 1.728041,1.094199 0.458995,0.315933 0.81481,0.595293 1.014012,0.785126 l -0.393732,0.637183 c -0.275633,-0.06621 -0.716429,-0.214592 -1.240563,-0.429184 -0.552085,-0.226041 -1.197796,-0.522262 -1.881155,-0.855437 0.0086,-0.264027 0.01291,-0.532951 0.01717,-0.804168 0.255685,-0.143235 0.509814,-0.284429 0.756213,-0.427719 z m -2.338947,1.281691 c 0.254211,0.132084 0.506388,0.263281 0.756212,0.388169 -0.03147,0.714894 -0.07888,1.381788 -0.143743,1.937915 -0.06128,0.525265 -0.140953,0.947543 -0.215615,1.202591 l -0.771836,-0.002 c -0.07619,-0.255197 -0.158161,-0.682434 -0.221865,-1.211307 -0.06683,-0.554689 -0.117347,-1.218117 -0.151555,-1.930592 0.247466,-0.123757 0.496652,-0.254435 0.748402,-0.385238 z"
       id="path983"
       class="ColorScheme-Text" />
  </g>
  <g
     id="jami">
    <rect
       style="opacity:0.00100002;fill:#eceff4;fill-opacity:1"
       width="32"
       height="32"
       x="0"
       y="0"
       id="rect976" />
    <path
       style="fill:#ffffff;fill-opacity:1;stroke:#ffffff;stroke-width:0.400023;stroke-dasharray:none;stroke-opacity:1"
       d="M 14.269831,3.2028037 C 13.457929,3.2010937 12.954593,6.5087513 12.729701,10.697845 9.422243,9.1216025 6.547964,7.9663314 5.432298,8.0016189 5.19517,8.0100289 5.034111,8.0697749 4.962283,8.1859486 l -1.72351,2.7837134 c -0.409453,0.661729 2.402441,2.734641 6.173928,5.023741 -3.792891,2.299714 -6.584907,4.372068 -6.173927,5.036266 l 1.723502,2.783701 c 0.411209,0.664569 3.760445,-0.588932 7.790748,-2.511895 0.240648,4.182115 0.752648,7.483673 1.563479,7.485661 l 3.413657,0.01006 c 0.811069,0.0025 1.314875,-3.299912 1.540147,-7.482534 4.018711,1.915869 7.35707,3.162559 7.767424,2.499397 l 1.723492,-2.783713 c 0.410997,-0.664188 -2.381026,-2.736551 -6.17392,-5.03624 3.771476,-2.289111 6.583393,-4.362027 6.17392,-5.023768 L 27.037731,8.1866574 C 26.965911,8.0705061 26.804834,8.009818 26.567697,8.0023111 25.449797,7.9670281 22.566411,9.1265289 19.250311,10.707891 19.009958,6.5208377 18.494993,3.2148635 17.683494,3.2128605 Z m 0.883422,1.6027327 1.64682,0.00298 c 0.162477,0.5444559 0.33746,1.4557081 0.473385,2.5837347 0.142163,1.1792134 0.250379,2.5881888 0.323366,4.1021219 -0.529444,0.264718 -1.058264,0.54797 -1.596812,0.827841 -0.544722,-0.283052 -1.078167,-0.569691 -1.6135,-0.837291 0.06706,-1.5179401 0.168858,-2.9331175 0.306703,-4.1146036 0.130666,-1.1203402 0.300731,-2.0210135 0.46004,-2.5649997 z m -9.154215,4.892535 c 0.588103,0.1410547 1.528606,0.4577086 2.646905,0.9154116 1.177985,0.482124 2.55568,1.11392 4.013714,1.824551 -0.01829,0.556973 -0.02758,1.124415 -0.0366,1.696438 -0.555915,0.311319 -1.071399,0.619631 -1.606842,0.930996 C 9.630817,14.240983 8.35707,13.443504 7.322514,12.731665 6.343184,12.057826 5.58402,11.461979 5.158996,11.057084 Z m 20.001931,0 0.840082,1.3590596 c -0.425025,0.404891 -1.184218,1.000739 -2.163552,1.674578 -1.034517,0.711837 -2.30828,1.509319 -3.693683,2.333803 -0.538812,-0.313374 -1.057248,-0.624038 -1.616832,-0.937266 -0.01125,-0.566306 -0.02305,-1.129332 -0.04337,-1.680826 1.464189,-0.713981 2.847966,-1.35 4.030386,-1.833935 1.118306,-0.457703 2.058826,-0.7742922 2.646931,-0.9154126 z M 16.000012,14.15323 c 0.2944,0.155794 0.579787,0.288316 0.873419,0.446768 0.279463,0.150863 0.532481,0.306589 0.810065,0.459263 0.0029,0.323775 0.02279,0.628362 0.02328,0.952888 6.16e-4,0.315168 -0.01761,0.610318 -0.02026,0.924785 -0.278923,0.153426 -0.532565,0.310815 -0.81339,0.462383 -0.293619,0.158461 -0.57901,0.290993 -0.873421,0.446791 -0.294469,-0.155739 -0.579859,-0.288308 -0.873473,-0.446789 -0.279481,-0.150852 -0.532484,-0.306562 -0.810077,-0.459242 -0.0022,-0.323779 -0.02285,-0.628372 -0.02324,-0.952885 -6.08e-4,-0.315171 0.01775,-0.610328 0.02037,-0.924774 0.278919,-0.153423 0.532576,-0.31082 0.813406,-0.462393 0.293611,-0.158455 0.578994,-0.290997 0.873392,-0.446773 z m -4.990503,2.780571 c 0.529107,0.30756 1.074387,0.611093 1.623496,0.918512 0.01058,0.572745 0.02292,1.141944 0.04341,1.699603 -1.464188,0.713945 -2.847982,1.349965 -4.030389,1.83392 -1.118329,0.457689 -2.05882,0.774274 -2.646913,0.915389 L 5.159017,20.942201 c 0.42503,-0.404894 1.184212,-1.000734 2.163548,-1.674591 1.033369,-0.71104 2.303417,-1.510291 3.687021,-2.333808 z m 9.980981,0 c 1.383595,0.823516 2.653643,1.622765 3.687016,2.333808 0.979334,0.673857 1.73853,1.269696 2.16355,1.674591 l -0.840086,1.359025 c -0.588099,-0.141114 -1.528625,-0.457704 -2.646925,-0.915387 -1.177947,-0.482142 -2.555664,-1.113934 -4.013708,-1.824577 0.01833,-0.563118 0.02749,-1.136703 0.03669,-1.715177 0.545544,-0.305501 1.087756,-0.606663 1.613478,-0.912279 z m -4.990478,2.733692 c 0.542383,0.281736 1.080442,0.561556 1.613477,0.827935 -0.06712,1.524787 -0.168328,2.947194 -0.306689,4.133346 -0.130693,1.12034 -0.300743,2.021016 -0.46005,2.564998 l -1.646823,-0.0039 c -0.162572,-0.544306 -0.337459,-1.455554 -0.473379,-2.583583 -0.142673,-1.18309 -0.250373,-2.598109 -0.323373,-4.117737 0.528003,-0.263968 1.05969,-0.542686 1.596835,-0.821685 z"
       id="path3"
       class="ColorScheme-Text " />
  </g>
</svg>
