<?xml version="1.0" encoding="UTF-8" standalone="no"?>
<svg
   width="32"
   height="32"
   version="1"
   id="svg12"
   sodipodi:docname="juk.svg"
   inkscape:version="1.4 (e7c3feb100, 2024-10-09)"
   xmlns:inkscape="http://www.inkscape.org/namespaces/inkscape"
   xmlns:sodipodi="http://sodipodi.sourceforge.net/DTD/sodipodi-0.dtd"
   xmlns="http://www.w3.org/2000/svg"
   xmlns:svg="http://www.w3.org/2000/svg"
   xmlns:rdf="http://www.w3.org/1999/02/22-rdf-syntax-ns#"
   xmlns:cc="http://creativecommons.org/ns#"
   xmlns:dc="http://purl.org/dc/elements/1.1/">
  <metadata
     id="metadata18">
    <rdf:RDF>
      <cc:Work
         rdf:about="">
        <dc:format>image/svg+xml</dc:format>
        <dc:type
           rdf:resource="http://purl.org/dc/dcmitype/StillImage" />
      </cc:Work>
    </rdf:RDF>
  </metadata>
  <defs
     id="defs16" />
  <sodipodi:namedview
     pagecolor="#c8c8c8"
     bordercolor="#000000"
     borderopacity="1"
     objecttolerance="10"
     gridtolerance="10"
     guidetolerance="10"
     inkscape:pageopacity="0"
     inkscape:pageshadow="2"
     inkscape:window-width="1920"
     inkscape:window-height="1017"
     id="namedview14"
     showgrid="true"
     inkscape:zoom="8"
     inkscape:cx="0"
     inkscape:cy="13.4375"
     inkscape:window-x="0"
     inkscape:window-y="34"
     inkscape:window-maximized="1"
     inkscape:current-layer="svg12"
     inkscape:document-rotation="0"
     inkscape:showpageshadow="false"
     inkscape:lockguides="false"
     inkscape:pagecheckerboard="0"
     inkscape:deskcolor="#d1d1d1">
    <inkscape:grid
       type="xygrid"
       id="grid865"
       originx="0"
       originy="0"
       spacingy="1"
       spacingx="1"
       units="px"
       visible="true" />
  </sodipodi:namedview>
  <g
     id="22-22-juk">
    <rect
       style="opacity:0.00100002"
       width="22"
       height="22"
       x="32"
       y="10"
       id="rect2" />
    <path
       id="path2"
       style="fill:#ffffff;fill-opacity:1;stroke-width:1.04334;stroke-linecap:round;stroke-linejoin:round"
       d="m 43,13 a 8,8 0 0 0 -8,8 8,8 0 0 0 8,8 8,8 0 0 0 8,-8 8,8 0 0 0 -8,-8 z m 0,1 a 7,7 0 0 1 7,7 7,7 0 0 1 -7,7 7,7 0 0 1 -7,-7 7,7 0 0 1 7,-7 z" />
    <path
       d="m 44.836633,20.999846 c 0,-0.992282 -0.808965,-1.799358 -1.803276,-1.799358 -0.994334,0 -1.803298,0.807076 -1.803298,1.799358 0,0.992276 0.808964,1.79956 1.803298,1.79956 0.994311,0 1.803276,-0.807284 1.803276,-1.79956 z m -3.003195,0 c 0,-0.660036 0.538316,-1.197282 1.199919,-1.197282 0.661591,0 1.199901,0.537203 1.199901,1.197282 0,0.66024 -0.53831,1.197428 -1.199901,1.197428 -0.661603,0 -1.199919,-0.537206 -1.199919,-1.197428 z"
       id="path70-6"
       style="fill:#ffffff;fill-opacity:1;stroke-width:0.0538161" />
    <path
       d="m 42.953775,17.870363 c 0.166678,-0.0048 0.298193,-0.14259 0.293988,-0.308709 -0.0051,-0.163799 -0.138473,-0.293376 -0.301775,-0.293376 h -0.0072 c -0.449031,0.01156 -0.889497,0.103108 -1.309328,0.272802 -0.418988,0.16927 -0.79861,0.408876 -1.129012,0.712129 -0.122893,0.112565 -0.130475,0.303043 -0.01784,0.425476 0.05955,0.06468 0.140793,0.09724 0.222231,0.09724 0.07303,0 0.146464,-0.02628 0.204123,-0.07937 0.27694,-0.254322 0.595352,-0.455507 0.94698,-0.597467 0.352272,-0.142166 0.721623,-0.21924 1.097867,-0.228694 z"
       id="path72-7"
       style="fill:#ffffff;fill-opacity:1;stroke-width:0.0538161" />
    <path
       d="m 43.521059,16.629016 c 0.167709,0.0178 0.315024,-0.100596 0.333541,-0.265868 0.01852,-0.165285 -0.100801,-0.314398 -0.266414,-0.332872 -0.8207,-0.09113 -1.664551,0.02419 -2.435849,0.336008 -0.771247,0.311665 -1.456886,0.813156 -1.983382,1.450712 -0.106066,0.128101 -0.08774,0.318161 0.041,0.423584 0.05622,0.04622 0.123951,0.06886 0.191498,0.06886 0.08713,0 0.173616,-0.03742 0.232959,-0.109618 0.46275,-0.560083 1.065868,-1.001311 1.744346,-1.275387 0.678682,-0.27449 1.419642,-0.376974 2.142296,-0.29549 z"
       id="path74-5"
       style="fill:#ffffff;fill-opacity:1;stroke-width:0.0538161" />
    <path
       d="m 43.114861,24.12931 c -0.166675,0.005 -0.298199,0.142596 -0.293993,0.308717 0.005,0.163808 0.138478,0.293375 0.301365,0.293375 h 0.0075 c 0.44844,-0.0115 0.888245,-0.103529 1.307274,-0.272794 0.419828,-0.169253 0.800491,-0.409517 1.130456,-0.71321 0.122485,-0.112981 0.130275,-0.303031 0.0175,-0.425475 -0.112796,-0.122014 -0.30345,-0.129566 -0.426357,-0.01746 -0.276724,0.25453 -0.595342,0.455714 -0.947833,0.5981 -0.352069,0.142389 -0.720981,0.219241 -1.096414,0.2287 z"
       id="path76-3"
       style="fill:#ffffff;fill-opacity:1;stroke-width:0.0538161" />
    <path
       d="m 46.431795,23.799761 c -0.462745,0.560301 -1.065869,1.001316 -1.744774,1.275394 -0.678254,0.274899 -1.41878,0.377584 -2.141865,0.295474 -0.166468,-0.017 -0.314607,0.100802 -0.333551,0.265862 -0.01853,0.165282 0.100801,0.314387 0.266426,0.332869 C 42.660886,25.98979 42.845039,26 43.029146,26 c 0.642485,0 1.285122,-0.124123 1.884303,-0.366676 0.771235,-0.311439 1.457096,-0.813151 1.983591,-1.450699 0.106055,-0.128107 0.08771,-0.318171 -0.04104,-0.423584 -0.128569,-0.105851 -0.318608,-0.08742 -0.424239,0.04069 z"
       id="path78-5"
       style="fill:#ffffff;fill-opacity:1;stroke-width:0.0538161" />
  </g>
  <g
     id="g8"
     transform="translate(32.992592)">
    <rect
       style="fill:none;fill-opacity:1;stroke:none;stroke-width:0.6;stroke-linecap:round;stroke-miterlimit:4;stroke-dasharray:none;stroke-opacity:1"
       id="rect1424"
       width="32"
       height="32"
       x="-32.992592"
       y="3.5527137e-15" />
    <path
       id="path1301"
       style="fill:#ffffff;fill-opacity:1;fill-rule:evenodd;stroke-width:1.42639;stroke-linecap:round;stroke-linejoin:round"
       d="m -16.992593,3 a 13,13 0 0 0 -13,13 13,13 0 0 0 13,13 A 13,13 0 0 0 -3.9925933,16 13,13 0 0 0 -16.992593,3 Z m 0,2 a 11,11 0 0 1 10.9999997,11 11,11 0 0 1 -10.9999997,11 11,11 0 0 1 -11,-11 11,11 0 0 1 11,-11 z" />
    <g
       id="g7"
       transform="translate(-32.993329,-28.002455)">
      <circle
         style="fill:#ffffff;fill-opacity:1;stroke:none;stroke-width:4.00155;stroke-linecap:round;stroke-linejoin:round;stroke-dasharray:none;stroke-opacity:1"
         id="path3"
         cx="15.993329"
         cy="43.999214"
         r="1.9992142" />
      <path
         style="fill:none;fill-opacity:1;stroke:#ffffff;stroke-width:2;stroke-linecap:round;stroke-linejoin:round;stroke-dasharray:none;stroke-opacity:1"
         id="circle3"
         sodipodi:arc-type="arc"
         sodipodi:type="arc"
         sodipodi:cx="15.993329"
         sodipodi:cy="43.999214"
         sodipodi:rx="5.0272684"
         sodipodi:ry="5.0272684"
         sodipodi:start="3.6651914"
         sodipodi:end="4.9741884"
         d="m 11.639587,41.48558 a 5.0272684,5.0272684 0 0 1 5.654895,-2.342334"
         sodipodi:open="true" />
      <path
         style="fill:none;fill-opacity:1;stroke:#ffffff;stroke-width:2;stroke-linecap:round;stroke-linejoin:round;stroke-dasharray:none;stroke-opacity:1"
         id="circle4"
         sodipodi:arc-type="arc"
         sodipodi:type="arc"
         sodipodi:cx="15.993329"
         sodipodi:cy="43.999214"
         sodipodi:rx="7.9992151"
         sodipodi:ry="7.9992151"
         sodipodi:start="3.6651914"
         sodipodi:end="4.9741884"
         d="M 9.0658054,39.999607 A 7.9992151,7.9992151 0 0 1 18.063679,36.272566"
         sodipodi:open="true" />
      <path
         style="fill:none;fill-opacity:1;stroke:#ffffff;stroke-width:2;stroke-linecap:round;stroke-linejoin:round;stroke-dasharray:none;stroke-opacity:1"
         id="path6"
         sodipodi:arc-type="arc"
         sodipodi:type="arc"
         sodipodi:cx="-16.008142"
         sodipodi:cy="-44.005695"
         sodipodi:rx="5.0272684"
         sodipodi:ry="5.0272684"
         sodipodi:start="3.6651914"
         sodipodi:end="4.9741884"
         d="m -20.361885,-46.519329 a 5.0272684,5.0272684 0 0 1 5.654895,-2.342335"
         sodipodi:open="true"
         inkscape:transform-center-x="-1.5337018"
         inkscape:transform-center-y="3.7736914"
         transform="scale(-1)" />
      <path
         style="fill:none;fill-opacity:1;stroke:#ffffff;stroke-width:2;stroke-linecap:round;stroke-linejoin:round;stroke-dasharray:none;stroke-opacity:1"
         id="path7"
         sodipodi:arc-type="arc"
         sodipodi:type="arc"
         sodipodi:cx="-16.008142"
         sodipodi:cy="-44.005695"
         sodipodi:rx="7.9992151"
         sodipodi:ry="7.9992151"
         sodipodi:start="3.6651914"
         sodipodi:end="4.9741884"
         d="m -22.935666,-48.005303 a 7.9992151,7.9992151 0 0 1 8.997873,-3.727041"
         sodipodi:open="true"
         inkscape:transform-center-x="-2.4359942"
         inkscape:transform-center-y="6.0026514"
         transform="scale(-1)" />
    </g>
  </g>
</svg>
