<?xml version="1.0" encoding="UTF-8" standalone="no"?>
<svg
   width="32"
   height="32"
   version="1.1"
   id="svg361"
   sodipodi:docname="krfb.svg"
   inkscape:version="1.4 (e7c3feb100, 2024-10-09)"
   xmlns:inkscape="http://www.inkscape.org/namespaces/inkscape"
   xmlns:sodipodi="http://sodipodi.sourceforge.net/DTD/sodipodi-0.dtd"
   xmlns="http://www.w3.org/2000/svg"
   xmlns:svg="http://www.w3.org/2000/svg">
  <style
     id="current-color-scheme"
     type="text/css">.ColorScheme-Text { color:#eff0f1; }
</style>
  <sodipodi:namedview
     id="namedview363"
     pagecolor="#c8c8c8"
     bordercolor="#666666"
     borderopacity="1.0"
     inkscape:showpageshadow="2"
     inkscape:pageopacity="0.0"
     inkscape:pagecheckerboard="0"
     inkscape:deskcolor="#d1d1d1"
     showgrid="true"
     inkscape:zoom="7.4124844"
     inkscape:cx="19.494139"
     inkscape:cy="15.514367"
     inkscape:window-width="1920"
     inkscape:window-height="1007"
     inkscape:window-x="0"
     inkscape:window-y="0"
     inkscape:window-maximized="1"
     inkscape:current-layer="svg361">
    <inkscape:grid
       type="xygrid"
       id="grid734"
       originx="0"
       originy="0"
       spacingy="1"
       spacingx="1"
       units="px"
       visible="true" />
  </sodipodi:namedview>
  <defs
     id="defs11">
    <style
       id="style11"
       type="text/css" />
  </defs>
  <g
     id="22-22-krfb">
    <rect
       style="opacity:0.00100002;fill:#eceff4;fill-opacity:1"
       width="22"
       height="22"
       x="32"
       y="10"
       id="rect343" />
    <path
       id="path2"
       style="fill:#ffffff;fill-opacity:1;stroke-width:2;stroke-linecap:round;stroke-linejoin:round"
       d="m 36,13 c -1.661998,0 -3,1.338002 -3,3 v 10 c 0,1.661998 1.338002,3 3,3 h 14 c 1.661998,0 3,-1.338002 3,-3 V 16 c 0,-1.661998 -1.338002,-3 -3,-3 z m 0,1 h 14 c 1.107999,0 2,0.892001 2,2 v 10 c 0,1.107999 -0.892001,2 -2,2 H 36 c -1.107999,0 -2,-0.892001 -2,-2 V 16 c 0,-1.107999 0.892001,-2 2,-2 z"
       sodipodi:nodetypes="ssssssssssssssssss" />
    <rect
       style="fill:#ffffff;fill-opacity:1;stroke-width:2;stroke-linecap:round;stroke-linejoin:round"
       id="rect3"
       width="12"
       height="1"
       x="37"
       y="25"
       ry="0.5" />
    <path
       d="m 43.003877,23 c 2.187794,0 4,-1.808329 4,-4 0,-2.187803 -1.812206,-4 -4.003877,-4 -2.187798,0 -3.996123,1.812197 -3.996123,4 0,2.191671 1.812197,4 4,4 z m 0,-0.619577 c -1.668932,0 -3.082284,-1.250697 -3.337851,-2.857684 0.02323,0.0039 0.0426,0.0039 0.06583,0.0039 0.414327,0 0.689257,-0.35237 0.689257,-0.890618 0,-0.170369 0.03098,-0.220726 0.143271,-0.274917 l 0.247822,-0.116179 c 0.131656,-0.06582 0.251694,-0.01546 0.333011,0.09684 l 0.460772,0.673768 c 0.425945,0.615655 0.859645,0.867355 1.258494,0.867355 0.383342,0 0.642796,-0.243946 0.642796,-0.619533 0,-0.220727 -0.112302,-0.410482 -0.294303,-0.530494 -0.116179,-0.08133 -0.08133,-0.174292 0.02322,-0.174292 0.944851,0 1.444372,-0.340739 1.444372,-1.026137 0,-0.906081 -0.766728,-0.956421 -0.766728,-1.188752 0,-0.139402 0.174247,-0.216845 0.294303,-0.495644 1.262328,0.491771 2.176207,1.726999 2.176207,3.151986 0,0.356247 -0.05811,0.700863 -0.16266,1.026138 -0.201341,-0.166493 -0.364001,-0.236191 -0.553711,-0.236191 -0.147151,0 -0.228481,0.03873 -0.309766,0.06582 -0.08133,0.02322 -0.120056,-0.01163 -0.131688,-0.08133 -0.03873,-0.282671 -0.216849,-0.394973 -0.503397,-0.394973 h -0.201342 c -0.236191,0 -0.425945,0.123932 -0.569219,0.344659 l -0.06195,0.09679 c -0.09679,0.151028 -0.182,0.274917 -0.267207,0.356247 -0.08129,0.07357 -0.14323,0.108425 -0.302012,0.158738 l -0.178124,0.05423 c -0.27104,0.08516 -0.352369,0.321398 -0.278794,0.584684 l 0.185878,0.654426 c 0.0697,0.240068 0.212972,0.363957 0.445286,0.363957 0.100671,0 0.224604,-0.03868 0.35237,-0.100671 l 0.05811,-0.0271 c 0.08904,-0.0426 0.154861,-0.05807 0.220683,-0.05807 0.151028,0 0.251699,0.07357 0.367878,0.220682 -0.449164,0.224604 -0.956438,0.35237 -1.490809,0.35237 z"
       fill="#1c1c1e"
       id="path3-3"
       style="fill:#ffffff;fill-opacity:1;stroke-width:0.440572" />
  </g>
  <g
     id="krfb">
    <rect
       style="opacity:0.00100002;fill:#eceff4;fill-opacity:1"
       width="32"
       height="32"
       x="0"
       y="0"
       id="rect350" />
    <path
       d="m 16,20 c 3.281691,0 6,-2.712493 6,-6 C 22,10.718296 19.281691,8 15.994185,8 12.712487,8 10,10.718296 10,14 c 0,3.287507 2.718296,6 6,6 z m 0,-0.929365 c -2.503398,0 -4.623425,-1.876045 -5.006776,-4.286526 0.03485,0.0058 0.06389,0.0058 0.09874,0.0058 0.621491,0 1.033886,-0.528554 1.033886,-1.335926 0,-0.255554 0.04647,-0.33109 0.214905,-0.412375 l 0.371733,-0.174269 c 0.197484,-0.09873 0.377542,-0.0232 0.499517,0.145257 l 0.691158,1.01065 c 0.638918,0.923484 1.289467,1.301033 1.887742,1.301033 0.575013,0 0.964193,-0.365918 0.964193,-0.9293 0,-0.33109 -0.168453,-0.615721 -0.441453,-0.795739 -0.174269,-0.121995 -0.121995,-0.261436 0.03482,-0.261436 1.417277,0 2.166559,-0.511108 2.166559,-1.539206 0,-1.359121 -1.150092,-1.43463 -1.150092,-1.783128 0,-0.209102 0.261369,-0.325268 0.441453,-0.743466 1.893493,0.737658 3.264313,2.5905 3.264313,4.72798 0,0.534371 -0.08717,1.051294 -0.24399,1.539206 -0.302012,-0.249739 -0.546001,-0.354287 -0.830567,-0.354287 -0.220726,0 -0.342721,0.05809 -0.464649,0.09873 -0.121995,0.03483 -0.180084,-0.01745 -0.197531,-0.121994 -0.05809,-0.424007 -0.325275,-0.59246 -0.755097,-0.59246 h -0.302012 c -0.354287,0 -0.638918,0.185899 -0.85383,0.51699 l -0.09292,0.145191 c -0.145191,0.226542 -0.273001,0.412375 -0.400811,0.534369 -0.121928,0.110364 -0.214845,0.162637 -0.453018,0.238108 l -0.267185,0.08135 c -0.406561,0.127744 -0.528555,0.482096 -0.418192,0.877025 l 0.278816,0.981639 c 0.104548,0.360102 0.319459,0.545936 0.66793,0.545936 0.151006,0 0.336906,-0.05802 0.528555,-0.151007 l 0.08717,-0.04064 c 0.13356,-0.0639 0.232292,-0.0871 0.331024,-0.0871 0.226542,0 0.377548,0.110364 0.551817,0.331024 -0.673745,0.336904 -1.434658,0.528553 -2.236213,0.528553 z"
       fill="#1c1c1e"
       id="path1-6"
       style="fill:#ffffff;fill-opacity:1;stroke-width:0.660857" />
    <path
       id="rect3-7"
       style="fill:#ffffff;fill-opacity:1;stroke:none;stroke-width:2;stroke-linecap:round;stroke-linejoin:round"
       d="M 6,4 C 3.784,4 2,5.784 2,8 v 16 c 0,2.216 1.784,4 4,4 h 20 c 2.216,0 4,-1.784 4,-4 V 8 C 30,5.784 28.216,4 26,4 Z m 0,2 h 20 c 1.108,0 2,0.892 2,2 v 16 c 0,1.108 -0.892,2 -2,2 H 6 C 4.892,26 4,25.108 4,24 V 8 C 4,6.892 4.892,6 6,6 Z"
       sodipodi:nodetypes="ssssssssssssssssss" />
    <rect
       style="fill:#ffffff;fill-opacity:1;stroke-width:1.24102"
       id="rect5"
       width="18"
       height="2"
       x="7"
       y="22"
       rx="1"
       ry="1" />
  </g>
</svg>
