<?xml version="1.0" encoding="UTF-8" standalone="no"?>
<svg
   width="16"
   height="16"
   version="1.1"
   id="svg3638"
   sodipodi:docname="microphone.svg"
   inkscape:version="1.2.2 (b0a8486541, 2022-12-01)"
   xmlns:inkscape="http://www.inkscape.org/namespaces/inkscape"
   xmlns:sodipodi="http://sodipodi.sourceforge.net/DTD/sodipodi-0.dtd"
   xmlns="http://www.w3.org/2000/svg"
   xmlns:svg="http://www.w3.org/2000/svg">
  <sodipodi:namedview
     id="namedview3640"
     pagecolor="#ffffff"
     bordercolor="#666666"
     borderopacity="1.0"
     inkscape:showpageshadow="2"
     inkscape:pageopacity="0.0"
     inkscape:pagecheckerboard="0"
     inkscape:deskcolor="#d1d1d1"
     showgrid="true"
     inkscape:zoom="16"
     inkscape:cx="19.1875"
     inkscape:cy="8.46875"
     inkscape:window-width="1920"
     inkscape:window-height="989"
     inkscape:window-x="0"
     inkscape:window-y="0"
     inkscape:window-maximized="1"
     inkscape:current-layer="microphone-sensitivity-medium"
     showguides="false">
    <inkscape:grid
       type="xygrid"
       id="grid3759" />
  </sodipodi:namedview>
  <defs
     id="defs3632">
    <style
       id="current-color-scheme"
       type="text/css">.ColorScheme-Text { color:#333333
; } .ColorScheme-Highlight { color:#5294e2; }</style>
  </defs>
  <g
     id="microphone-sensitivity-high">
    <path
       class="ColorScheme-Text"
       d="M 8,1 C 6.338,1 5,2.338 5,4 v 5.0254 c 0,1.662 1.338,3 3,3 1.662,0 3,-1.338 3,-3 V 4 C 11,2.338 9.662,1 8,1 Z m 0,1 c 1.108,0 2,0.892 2,2 v 5.0254 c 0,1.108 -0.892,2 -2,2 -1.108,0 -2,-0.892 -2,-2 V 4 C 6,2.892 6.892,2 8,2 Z M 3.5,7.0234 v 0.00195 c -0.277,0 -0.5,0.223 -0.5,0.5 v 1.5 c 0,2.6 1.967,4.7246 4.5,4.9746 V 15 h -2 c -0.6666664,0 -0.6666664,1 0,1 h 5 c 0.666666,0 0.666666,-1 0,-1 h -2 v -1.00205 c 2.557504,-0.25141 4.505424,-2.404771 4.5,-4.9745969 v -1.5 c 0,-0.6666664 -1,-0.6666664 -1,0 v 1.5 c 0,2.2159999 -1.784,3.9999999 -4,3.9999999 -2.216,0 -4,-1.784 -4,-3.9999999 v -1.5 c 0,-0.277 -0.223,-0.5 -0.5,-0.5 z"
       id="path3634"
       sodipodi:nodetypes="ssssssssssssssccssccsssscccsssssscc"
       style="fill:#333333;fill-opacity:1" />
    <path
       id="rect3437"
       style="color:#333333;opacity:0.35;fill:currentColor;stroke-width:0.935414"
       class="ColorScheme-Text"
       d="M 8,3 C 8.554,3 9,3.446 9,4 V 9 C 9,9.554 8.554,10 8,10 7.446,10 7,9.554 7,9 V 4 C 7,3.446 7.446,3 8,3 Z" />
    <rect
       id="rect3862"
       width="16"
       height="16"
       x="0"
       y="0"
       rx="0"
       ry="0"
       style="fill:none" />
  </g>
  <g
     id="microphone-sensitivity-medium"
     transform="translate(16)">
    <path
       class="ColorScheme-Text"
       d="M 8,1 C 6.338,1 5,2.338 5,4 v 5.0254 c 0,1.662 1.338,3 3,3 1.662,0 3,-1.338 3,-3 V 4 C 11,2.338 9.662,1 8,1 Z m 0,1 c 1.108,0 2,0.892 2,2 v 5.0254 c 0,1.108 -0.892,2 -2,2 -1.108,0 -2,-0.892 -2,-2 V 4 C 6,2.892 6.892,2 8,2 Z M 3.5,7.0234 v 0.00195 c -0.277,0 -0.5,0.223 -0.5,0.5 v 1.5 c 0,2.6 1.967,4.7246 4.5,4.9746 V 15 h -2 c -0.6666664,0 -0.6666664,1 0,1 h 5 c 0.666666,0 0.666666,-1 0,-1 h -2 v -1.00205 c 2.557504,-0.25141 4.505424,-2.404771 4.5,-4.9745969 v -1.5 c 0,-0.6666664 -1,-0.6666664 -1,0 v 1.5 c 0,2.2159999 -1.784,3.9999999 -4,3.9999999 -2.216,0 -4,-1.784 -4,-3.9999999 v -1.5 c 0,-0.277 -0.223,-0.5 -0.5,-0.5 z"
       fill="currentColor"
       id="path3871"
       sodipodi:nodetypes="ssssssssssssssccssccsssscccsssssscc" />
    <path
       id="rect3873"
       class="ColorScheme-Text"
       style="color:#333333;opacity:0.35;fill:currentColor"
       d="M 8,6 C 8.554,6 9,6.446 9,7 V 9 C 9,9.554 8.554,10 8,10 7.446,10 7,9.554 7,9 V 7 C 7,6.446 7.446,6 8,6 Z" />
    <rect
       id="rect3875"
       width="16"
       height="16"
       x="0"
       y="0"
       rx="0"
       ry="0"
       style="fill:none" />
  </g>
  <g
     id="microphone-sensitivity-low"
     transform="translate(32)">
    <path
       class="ColorScheme-Text"
       d="M 8,1 C 6.338,1 5,2.338 5,4 v 5.0254 c 0,1.662 1.338,3 3,3 1.662,0 3,-1.338 3,-3 V 4 C 11,2.338 9.662,1 8,1 Z m 0,1 c 1.108,0 2,0.892 2,2 v 5.0254 c 0,1.108 -0.892,2 -2,2 -1.108,0 -2,-0.892 -2,-2 V 4 C 6,2.892 6.892,2 8,2 Z M 3.5,7.0234 v 0.00195 c -0.277,0 -0.5,0.223 -0.5,0.5 v 1.5 c 0,2.6 1.967,4.7246 4.5,4.9746 V 15 h -2 c -0.6666664,0 -0.6666664,1 0,1 h 5 c 0.666666,0 0.666666,-1 0,-1 h -2 v -1.00205 c 2.557504,-0.25141 4.505424,-2.404771 4.5,-4.9745969 v -1.5 c 0,-0.6666664 -1,-0.6666664 -1,0 v 1.5 c 0,2.2159999 -1.784,3.9999999 -4,3.9999999 -2.216,0 -4,-1.784 -4,-3.9999999 v -1.5 c 0,-0.277 -0.223,-0.5 -0.5,-0.5 z"
       fill="currentColor"
       id="path3879"
       sodipodi:nodetypes="ssssssssssssssccssccsssscccsssssscc" />
    <rect
       id="rect3883"
       width="16"
       height="16"
       x="0"
       y="0"
       rx="0"
       ry="0"
       style="fill:none" />
  </g>
  <g
     id="microphone-sensitivity-muted">
    <path
       class="ColorScheme-Text"
       d="m 56,1 c -1.662,0 -3,1.338 -3,3 v 5.0254 c 0,1.662 1.338,3 3,3 1.662,0 3,-1.338 3,-3 V 4 C 59,2.338 57.662,1 56,1 Z m 0,1 c 1.108,0 2,0.892 2,2 v 5.0254 c 0,1.108 -0.892,2 -2,2 -1.108,0 -2,-0.892 -2,-2 V 4 c 0,-1.108 0.892,-2 2,-2 z m -4.5,5.0234 v 0.00195 c -0.277,0 -0.5,0.223 -0.5,0.5 v 1.5 c 0,2.6 1.967,4.7246 4.5,4.9746 V 15 h -2 c -0.666666,0 -0.666666,1 0,1 h 5 c 0.666666,0 0.666666,-1 0,-1 h -2 v -1.00205 c 2.557504,-0.25141 4.505424,-2.404771 4.5,-4.9745969 v -1.5 c 0,-0.6666664 -1,-0.6666664 -1,0 v 1.5 c 0,2.2159999 -1.784,3.9999999 -4,3.9999999 -2.216,0 -4,-1.784 -4,-3.9999999 v -1.5 c 0,-0.277 -0.223,-0.5 -0.5,-0.5 z"
       fill="currentColor"
       id="path3887"
       style="opacity:0.35"
       sodipodi:nodetypes="ssssssssssssssccssccsssscccsssssscc" />
    <rect
       id="rect3889"
       width="16"
       height="16"
       x="48"
       y="0"
       rx="0"
       ry="0"
       style="fill:none" />
    <rect
       class="ColorScheme-Text"
       transform="rotate(45)"
       x="35.254833"
       y="-34.441124"
       width="20"
       height="1"
       rx="0.5"
       ry="0.5"
       fill="currentColor"
       id="rect3898" />
  </g>
</svg>
