<?xml version="1.0" encoding="UTF-8" standalone="no"?>
<svg
   version="1.1"
   width="24"
   height="24"
   id="svg3013"
   inkscape:version="1.2.2 (b0a8486541, 2022-12-01)"
   sodipodi:docname="skype.svg"
   xmlns:inkscape="http://www.inkscape.org/namespaces/inkscape"
   xmlns:sodipodi="http://sodipodi.sourceforge.net/DTD/sodipodi-0.dtd"
   xmlns:xlink="http://www.w3.org/1999/xlink"
   xmlns="http://www.w3.org/2000/svg"
   xmlns:svg="http://www.w3.org/2000/svg"
   xmlns:rdf="http://www.w3.org/1999/02/22-rdf-syntax-ns#"
   xmlns:cc="http://creativecommons.org/ns#"
   xmlns:dc="http://purl.org/dc/elements/1.1/">
  <sodipodi:namedview
     pagecolor="#c8c8c8"
     bordercolor="#666666"
     borderopacity="1"
     objecttolerance="10"
     gridtolerance="10"
     guidetolerance="10"
     inkscape:pageopacity="0"
     inkscape:pageshadow="2"
     inkscape:window-width="1920"
     inkscape:window-height="1002"
     id="namedview66"
     showgrid="true"
     inkscape:zoom="13.906433"
     inkscape:cx="-8.6290999"
     inkscape:cy="11.649285"
     inkscape:window-x="0"
     inkscape:window-y="0"
     inkscape:window-maximized="1"
     inkscape:current-layer="layer1"
     inkscape:lockguides="true"
     inkscape:document-rotation="0"
     inkscape:showpageshadow="0"
     inkscape:pagecheckerboard="0"
     inkscape:deskcolor="#d1d1d1">
    <inkscape:grid
       type="xygrid"
       id="grid190" />
  </sodipodi:namedview>
  <defs
     id="defs3015">
    <linearGradient
       id="linearGradient5009">
      <stop
         id="stop5011"
         style="stop-color:#000000;stop-opacity:1"
         offset="0" />
      <stop
         id="stop5013"
         style="stop-color:#000000;stop-opacity:0"
         offset="1" />
    </linearGradient>
    <linearGradient
       id="linearGradient4249">
      <stop
         id="stop4251"
         style="stop-color:#ffffff;stop-opacity:1"
         offset="0" />
      <stop
         id="stop4253"
         style="stop-color:#ffffff;stop-opacity:0.78431374"
         offset="0.47000003" />
      <stop
         id="stop4255"
         style="stop-color:#ffffff;stop-opacity:0.51724136"
         offset="0.75125003" />
      <stop
         id="stop4257"
         style="stop-color:#ffffff;stop-opacity:1"
         offset="1" />
    </linearGradient>
    <linearGradient
       id="linearGradient3289">
      <stop
         id="stop3291"
         style="stop-color:#ffffff;stop-opacity:1"
         offset="0" />
      <stop
         id="stop3294"
         style="stop-color:#ffffff;stop-opacity:1"
         offset="1" />
    </linearGradient>
    <linearGradient
       id="linearGradient2916">
      <stop
         id="stop2918"
         style="stop-color:#ffffff;stop-opacity:1"
         offset="0" />
      <stop
         id="stop2920"
         style="stop-color:#ffffff;stop-opacity:0"
         offset="1" />
    </linearGradient>
    <linearGradient
       id="linearGradient3140">
      <stop
         id="stop3142"
         style="stop-color:#ffffff;stop-opacity:1"
         offset="0" />
      <stop
         id="stop3144"
         style="stop-color:#ffffff;stop-opacity:0"
         offset="1" />
    </linearGradient>
    <linearGradient
       id="linearGradient2895">
      <stop
         id="stop2897"
         style="stop-color:#ffffff;stop-opacity:1"
         offset="0" />
      <stop
         id="stop2899"
         style="stop-color:#ffffff;stop-opacity:0"
         offset="1" />
    </linearGradient>
    <linearGradient
       x1="38.875084"
       y1="67.528122"
       x2="90.409752"
       y2="67.528122"
       id="linearGradient6228"
       xlink:href="#linearGradient2916"
       gradientUnits="userSpaceOnUse"
       gradientTransform="matrix(0.511504,0,0,1.80649,68.030435,-6.0981568)" />
    <linearGradient
       x1="38.875084"
       y1="67.528122"
       x2="90.409752"
       y2="67.528122"
       id="linearGradient6233"
       xlink:href="#linearGradient2916"
       gradientUnits="userSpaceOnUse"
       gradientTransform="matrix(0.511504,0,0,0.96108,67.773305,4.8320565)" />
    <linearGradient
       x1="11.543377"
       y1="3.4375"
       x2="10.88339"
       y2="5.9006019"
       id="linearGradient6238"
       xlink:href="#linearGradient2895"
       gradientUnits="userSpaceOnUse"
       gradientTransform="matrix(5.467529,0,0,5.820575,24.290213,-2.0656323)" />
    <linearGradient
       x1="38.875084"
       y1="67.528122"
       x2="90.409752"
       y2="67.528122"
       id="linearGradient6243"
       xlink:href="#linearGradient2916"
       gradientUnits="userSpaceOnUse"
       gradientTransform="matrix(0.511504,0,0,0.77135,67.773305,6.6291413)" />
    <radialGradient
       cx="68.000046"
       cy="-117.34602"
       r="27.999956"
       fx="68.000046"
       fy="-117.34602"
       id="radialGradient9168"
       xlink:href="#linearGradient3140"
       gradientUnits="userSpaceOnUse"
       gradientTransform="matrix(0.990365,0,0,1.664158,16.251985,75.514833)" />
    <linearGradient
       x1="18.01074"
       y1="65.760353"
       x2="72.498932"
       y2="65.760353"
       id="linearGradient2867"
       xlink:href="#linearGradient3289"
       gradientUnits="userSpaceOnUse"
       gradientTransform="matrix(1.017716,0,0,0.960169,5.524222,-18.774756)" />
    <linearGradient
       id="linearGradient4046-1-38">
      <stop
         id="stop4048-6-5"
         style="stop-color:#ffffff;stop-opacity:0"
         offset="0" />
      <stop
         id="stop4051-4-0"
         style="stop-color:#ffffff;stop-opacity:0.72661871"
         offset="1" />
    </linearGradient>
    <linearGradient
       id="linearGradient16006-3-9">
      <stop
         id="stop16008-5-6"
         style="stop-color:#ffffff;stop-opacity:0.58823532"
         offset="0" />
      <stop
         id="stop16016-1-7"
         style="stop-color:#ffffff;stop-opacity:0.8705036"
         offset="0.25" />
      <stop
         id="stop16014-1-2"
         style="stop-color:#ffffff;stop-opacity:0.58823532"
         offset="0.5" />
      <stop
         id="stop3998"
         style="stop-color:#ffffff;stop-opacity:0.8561151"
         offset="0.75" />
      <stop
         id="stop16010-4-1"
         style="stop-color:#ffffff;stop-opacity:0.58823532"
         offset="1" />
    </linearGradient>
    <linearGradient
       id="linearGradient4124">
      <stop
         id="stop4126"
         style="stop-color:#ffffff;stop-opacity:0.70503598"
         offset="0" />
      <stop
         id="stop4128"
         style="stop-color:#ffffff;stop-opacity:0.6978417"
         offset="0.185378" />
      <stop
         id="stop4130"
         style="stop-color:#ffffff;stop-opacity:0.80575538"
         offset="0.44680852" />
      <stop
         id="stop4132"
         style="stop-color:#ffffff;stop-opacity:0.77697843"
         offset="0.76861703" />
      <stop
         id="stop4134"
         style="stop-color:#ffffff;stop-opacity:0.74100721"
         offset="1" />
    </linearGradient>
    <linearGradient
       x1="3.0267859"
       y1="1040.4602"
       x2="21.776787"
       y2="1040.4602"
       id="linearGradient4717"
       xlink:href="#linearGradient4124"
       gradientUnits="userSpaceOnUse" />
    <linearGradient
       x1="12.580358"
       y1="1031.4336"
       x2="12.580358"
       y2="1049.4011"
       id="linearGradient4727"
       xlink:href="#linearGradient4124"
       gradientUnits="userSpaceOnUse" />
    <linearGradient
       x1="12"
       y1="1031.3356"
       x2="12.178572"
       y2="1049.2603"
       id="linearGradient4929"
       xlink:href="#linearGradient4249"
       gradientUnits="userSpaceOnUse" />
    <linearGradient
       x1="12"
       y1="1031.3356"
       x2="12.178572"
       y2="1049.2603"
       id="linearGradient4991"
       xlink:href="#linearGradient4249"
       gradientUnits="userSpaceOnUse"
       gradientTransform="translate(24,0)" />
    <linearGradient
       x1="12"
       y1="1031.3356"
       x2="12.178572"
       y2="1049.2603"
       id="linearGradient4993"
       xlink:href="#linearGradient4249"
       gradientUnits="userSpaceOnUse"
       gradientTransform="translate(24,0)" />
    <linearGradient
       x1="12"
       y1="1031.3356"
       x2="12.178572"
       y2="1049.2603"
       id="linearGradient4995"
       xlink:href="#linearGradient4249"
       gradientUnits="userSpaceOnUse"
       gradientTransform="translate(24,0)" />
    <linearGradient
       x1="12"
       y1="1031.3356"
       x2="12.178572"
       y2="1049.2603"
       id="linearGradient4997"
       xlink:href="#linearGradient4249"
       gradientUnits="userSpaceOnUse"
       gradientTransform="translate(24,0)" />
    <linearGradient
       x1="12"
       y1="1031.3356"
       x2="12.178572"
       y2="1049.2603"
       id="linearGradient4999"
       xlink:href="#linearGradient4249"
       gradientUnits="userSpaceOnUse"
       gradientTransform="translate(24,0)" />
    <linearGradient
       x1="12"
       y1="1031.3356"
       x2="12.178572"
       y2="1049.2603"
       id="linearGradient5001"
       xlink:href="#linearGradient4249"
       gradientUnits="userSpaceOnUse"
       gradientTransform="translate(24,0)" />
    <linearGradient
       x1="12"
       y1="1031.3356"
       x2="12.178572"
       y2="1049.2603"
       id="linearGradient5003"
       xlink:href="#linearGradient4249"
       gradientUnits="userSpaceOnUse"
       gradientTransform="translate(24,0)" />
    <linearGradient
       x1="12"
       y1="1031.3356"
       x2="12.178572"
       y2="1049.2603"
       id="linearGradient5005"
       xlink:href="#linearGradient4249"
       gradientUnits="userSpaceOnUse"
       gradientTransform="translate(24,0)" />
    <linearGradient
       x1="4.2426405"
       y1="11.71402"
       x2="19.975765"
       y2="11.71402"
       id="linearGradient5015"
       xlink:href="#linearGradient5009"
       gradientUnits="userSpaceOnUse"
       gradientTransform="translate(0,1028.3622)" />
    <radialGradient
       cx="12.00001"
       cy="11.987168"
       r="9.5000095"
       fx="12.00001"
       fy="11.987168"
       id="radialGradient3937"
       xlink:href="#linearGradient2895"
       gradientUnits="userSpaceOnUse"
       gradientTransform="matrix(2.4034553,0,0,2.408755,-16.841477,-16.886983)" />
  </defs>
  <metadata
     id="metadata3018">
    <rdf:RDF>
      <cc:Work
         rdf:about="">
        <dc:format>image/svg+xml</dc:format>
        <dc:type
           rdf:resource="http://purl.org/dc/dcmitype/StillImage" />
      </cc:Work>
    </rdf:RDF>
  </metadata>
  <g
     transform="translate(0,-1028.3622)"
     id="layer1">
    <g
       id="skype">
      <rect
         width="24"
         height="24"
         x="0"
         y="1028.3622"
         id="rect5017"
         style="opacity:0;fill:#000000;fill-opacity:0.392157;stroke:none" />
      <g
         id="g352"
         transform="matrix(0.95238099,0,0,0.95238099,0.57142821,49.541018)">
        <path
           p-id="1528"
           id="path296"
           style="fill:#fbfbfb;fill-opacity:1;stroke-width:0.0262532"
           d="m 21.759638,1042.112 c 0.107639,-0.5907 0.165395,-1.1945 0.165395,-1.7984 0,-1.3389 -0.262532,-2.6384 -0.779722,-3.8592 -0.498811,-1.1814 -1.215526,-2.242 -2.126513,-3.153 -0.910988,-0.911 -1.97162,-1.6251 -3.153016,-2.1239 -1.223401,-0.5172 -2.520313,-0.7797 -3.859229,-0.7797 -0.630078,0 -1.262781,0.06 -1.877107,0.1785 -0.8479806,-0.4489 -1.7983486,-0.6878 -2.7592177,-0.6878 -1.5673193,0 -3.0427524,0.6117 -4.1506397,1.7196 -1.1078875,1.1078 -1.7195883,2.5833 -1.7195883,4.1506 0,0.9976 0.257282,1.9795 0.7377165,2.8458 -0.097137,0.5619 -0.1496436,1.1368 -0.1496436,1.7091 0,1.3389 0.2625326,2.6385 0.7797217,3.8593 0.4988119,1.1814 1.2129005,2.242 2.1238885,3.153 0.9109879,0.911 1.9716194,1.625 3.153016,2.1239 1.2234017,0.5172 2.5203126,0.7797 3.8592286,0.7797 0.582822,0 1.165645,-0.053 1.737966,-0.1549 0.879484,0.4962 1.871857,0.7613 2.887857,0.7613 1.56732,0 3.042753,-0.609 4.15064,-1.7196 1.110513,-1.1078 1.719589,-2.5833 1.719589,-4.1506 0.0026,-0.9976 -0.254657,-1.9821 -0.740342,-2.8537 z m -2.312913,5.6707 c -0.753467,0.7561 -1.748466,1.1656 -2.814347,1.1656 -0.685211,0 -1.359919,-0.1785 -1.958494,-0.5172 l -0.590698,-0.3334 -0.669459,0.1182 c -0.467307,0.084 -0.939866,0.126 -1.407174,0.126 -1.086884,0 -2.1343894,-0.2127 -3.1267624,-0.6327 -0.9529932,-0.4017 -1.8114747,-0.9793 -2.5518165,-1.7196 -0.7377166,-0.7377 -1.3152882,-1.5936 -1.7195883,-2.5492 -0.4200521,-0.9898 -0.6300781,-2.0373 -0.6300781,-3.1241 0,-0.4569 0.042005,-0.9242 0.1207649,-1.3862 l 0.1155143,-0.659 -0.3255404,-0.5854 c -0.3281656,-0.5881 -0.5014371,-1.2549 -0.5014371,-1.927 0,-1.0659 0.4121761,-2.0609 1.1656446,-2.8144 0.7560938,-0.7534 1.7510921,-1.1656 2.8169743,-1.1656 0.6484555,0 1.2942855,0.1628 1.8744824,0.4699 l 0.588073,0.3098 0.6510803,-0.126 c 0.496187,-0.094 1.008125,-0.1444 1.522689,-0.1444 1.086885,0 2.13439,0.2127 3.124138,0.6301 0.958244,0.4043 1.814099,0.9819 2.551817,1.7196 0.740341,0.7377 1.317912,1.5962 1.722213,2.5518 0.420053,0.9897 0.630079,2.0372 0.630079,3.1241 0,0.4831 -0.04463,0.9714 -0.133893,1.4571 l -0.12339,0.6694 0.330791,0.5934 c 0.330791,0.5907 0.504063,1.2601 0.504063,1.9348 0,1.0685 -0.412177,2.0609 -1.165646,2.8144 z" />
        <path
           d="m 13.875785,1039.1611 -2.320788,-0.5146 c -0.882109,-0.2021 -1.8981101,-0.4673 -1.8981101,-1.2995 0,-0.8322 0.7114631,-1.415 1.9978731,-1.415 2.591196,0 2.354917,1.7799 3.641326,1.7799 0.677334,0 1.270657,-0.399 1.270657,-1.0816 0,-1.5962 -2.557066,-2.796 -4.725585,-2.796 -2.3549173,0 -4.8621032,1.0003 -4.8621032,3.6624 0,1.2811 0.4568066,2.6463 2.9823699,3.279 l 3.1346383,0.7823 c 0.947743,0.2337 1.186648,0.7666 1.186648,1.2497 0,0.8007 -0.795474,1.5831 -2.236778,1.5831 -2.8143489,0 -2.4231754,-2.1659 -3.9301122,-2.1659 -0.6773341,0 -1.1682699,0.4673 -1.1682699,1.1315 0,1.2969 1.5751954,3.0296 5.0983821,3.0296 3.352541,0 5.014372,-1.6146 5.014372,-3.7805 0,-1.394 -0.643205,-2.8773 -3.18452,-3.4444 z"
           p-id="1529"
           id="path298"
           style="fill:#fbfbfb;fill-opacity:1;stroke-width:0.0262532" />
      </g>
    </g>
  </g>
</svg>
