<?xml version="1.0" encoding="UTF-8" standalone="no"?>
<svg
   id="svg22"
   viewBox="0 0 32 32"
   version="1.1"
   sodipodi:docname="start.svg"
   inkscape:version="1.2.1 (9c6d41e410, 2022-07-14)"
   width="32"
   height="32"
   xmlns:inkscape="http://www.inkscape.org/namespaces/inkscape"
   xmlns:sodipodi="http://sodipodi.sourceforge.net/DTD/sodipodi-0.dtd"
   xmlns="http://www.w3.org/2000/svg"
   xmlns:svg="http://www.w3.org/2000/svg"
   xmlns:rdf="http://www.w3.org/1999/02/22-rdf-syntax-ns#"
   xmlns:cc="http://creativecommons.org/ns#"
   xmlns:dc="http://purl.org/dc/elements/1.1/">
  <sodipodi:namedview
     pagecolor="#c8c8c8"
     bordercolor="#666666"
     borderopacity="1"
     objecttolerance="10"
     gridtolerance="10"
     guidetolerance="10"
     inkscape:pageopacity="0"
     inkscape:pageshadow="2"
     inkscape:window-width="1920"
     inkscape:window-height="936"
     id="namedview15"
     showgrid="true"
     inkscape:zoom="7.7257964"
     inkscape:cx="-1.4238014"
     inkscape:cy="23.945752"
     inkscape:window-x="1919"
     inkscape:window-y="40"
     inkscape:window-maximized="1"
     inkscape:current-layer="svg22"
     inkscape:document-rotation="0"
     inkscape:snap-bbox="true"
     inkscape:bbox-nodes="true"
     inkscape:snap-bbox-edge-midpoints="true"
     inkscape:pagecheckerboard="0"
     inkscape:showpageshadow="0"
     inkscape:deskcolor="#c8c8c8">
    <inkscape:grid
       type="xygrid"
       id="grid839" />
  </sodipodi:namedview>
  <metadata
     id="metadata24">
    <rdf:RDF>
      <cc:Work
         rdf:about="">
        <dc:format>image/svg+xml</dc:format>
        <dc:type
           rdf:resource="http://purl.org/dc/dcmitype/StillImage" />
        <dc:title />
      </cc:Work>
    </rdf:RDF>
  </metadata>
  <defs
     id="defs5">
    <style
       type="text/css"
       id="current-color-scheme"> .ColorScheme-Text { color:#363636; } </style>
  </defs>
  <g
     fill="currentColor"
     class="ColorScheme-Text"
     transform="translate(2,39)"
     id="16-16-start-here-kde">
    <rect
       id="rect7"
       opacity="0"
       ry="0.45344001"
       height="16"
       width="16"
       y="-23"
       x="-40" />
    <path
       id="path9"
       d="m -29.939,-19.754 c 0.4829,-0.60124 0.81032,-1.4181 0.71998,-2.246 -0.69552,0.02917 -1.5621,0.4831 -2.0641,1.0668 -0.44346,0.51791 -0.83742,1.3644 -0.73539,2.1624 0.78053,0.05826 1.5799,-0.39496 2.0795,-0.98313 z m 1.7598,5.2017 c -0.01668,-1.7705 1.4487,-2.6302 1.5151,-2.6712 -0.82904,-1.21 -2.1145,-1.374 -2.5678,-1.3889 -1.0803,-0.11007 -2.1261,0.64909 -2.6772,0.64909 -0.56087,-7.8e-5 -1.4079,-0.63596 -2.3201,-0.61787 -1.1758,0.01758 -2.2769,0.69842 -2.8797,1.7527 -1.2409,2.1549 -0.31584,5.3199 0.87605,7.0575 0.59706,0.85536 1.2926,1.8074 2.2048,1.7698 0.89221,-0.033911 1.2248,-0.56649 2.3032,-0.56649 1.0671,0 1.3797,0.56649 2.3106,0.54826 0.95809,-0.015711 1.5606,-0.8569 2.137,-1.7158 0.68644,-0.97981 0.96361,-1.9404 0.97467,-1.9915 -0.02136,-0.0079 -1.8571,-0.70607 -1.8767,-2.8257 z" />
  </g>
  <g
     class="ColorScheme-Text"
     transform="matrix(1.375,0,0,1.375,33,41.625)"
     id="22-22-start-here-kde"
     fill="currentColor">
    <rect
       id="rect12"
       ry="0.45344001"
       height="16"
       width="16"
       y="-23"
       x="-40"
       opacity="0" />
    <path
       id="path14"
       d="m -30.287,-18.951 c 0.40138,-0.49973 0.67351,-1.1787 0.59842,-1.8668 -0.5781,0.02425 -1.2984,0.40154 -1.7156,0.88672 -0.36859,0.43047 -0.69604,1.1341 -0.61123,1.7973 0.64875,0.04842 1.3132,-0.32828 1.7284,-0.81715 z m 1.4627,4.3235 c -0.01386,-1.4716 1.2041,-2.1861 1.2593,-2.2202 -0.68907,-1.0057 -1.7575,-1.142 -2.1342,-1.1544 -0.89793,-0.09149 -1.7671,0.53951 -2.2252,0.53951 -0.46618,-6.5e-5 -1.1702,-0.52859 -1.9284,-0.51356 -0.97731,0.01461 -1.8925,0.58051 -2.3935,1.4568 -1.0314,1.7911 -0.26251,4.4217 0.72815,5.866 0.49626,0.71095 1.0743,1.5023 1.8326,1.471 0.74158,-0.028186 1.018,-0.47085 1.9143,-0.47085 0.88692,0 1.1467,0.47085 1.9205,0.4557 0.79633,-0.013058 1.2972,-0.71223 1.7762,-1.4261 0.57055,-0.81438 0.80093,-1.6128 0.81012,-1.6553 -0.01775,-0.0066 -1.5436,-0.58686 -1.5599,-2.3486 z" />
  </g>
  <g
     fill="currentColor"
     class="ColorScheme-Text"
     transform="matrix(2,0,0,2,80,46)"
     id="start-here-kde">
    <rect
       id="rect17"
       opacity="0"
       ry="0.45344001"
       height="16"
       width="16"
       y="-23"
       x="-40" />
    <path
       id="path19"
       d="m -30.492349,-18.395632 c 0.353099,-0.429479 0.592513,-1.012969 0.526457,-1.604368 -0.508571,0.02085 -1.142254,0.345094 -1.509295,0.762073 -0.324267,0.369958 -0.612325,0.974694 -0.537716,1.544637 0.570726,0.04161 1.155282,-0.282126 1.520554,-0.702278 z m 1.28678,3.715677 c -0.01219,-1.264712 1.059336,-1.87884 1.107822,-1.908114 -0.606204,-0.864333 -1.546148,-0.981422 -1.877545,-0.99215 -0.789936,-0.07864 -1.554614,0.463664 -1.957577,0.463664 -0.410111,-5.5e-5 -1.029462,-0.454281 -1.696445,-0.441362 -0.859779,0.01255 -1.664895,0.498901 -2.10564,1.252075 -0.907392,1.539273 -0.230946,3.800136 0.64058,5.041391 0.436577,0.61101 0.945147,1.2910775 1.612127,1.264258 0.652391,-0.02423 0.895601,-0.404661 1.684161,-0.404661 0.780258,0 1.008801,0.404661 1.689557,0.391642 0.700557,-0.01122 1.141136,-0.61211 1.562618,-1.225619 0.501936,-0.699905 0.704608,-1.386082 0.712695,-1.422631 -0.01562,-0.0056 -1.357882,-0.504366 -1.372305,-2.018484 z"
       style="stroke-width:0.919814" />
  </g>
</svg>
