<?xml version="1.0" encoding="UTF-8" standalone="no"?>
<svg
   width="32"
   height="32"
   version="1.1"
   id="svg12"
   sodipodi:docname="TeamViewer.svg"
   inkscape:version="1.3 (0e150ed6c4, 2023-07-21)"
   xmlns:inkscape="http://www.inkscape.org/namespaces/inkscape"
   xmlns:sodipodi="http://sodipodi.sourceforge.net/DTD/sodipodi-0.dtd"
   xmlns="http://www.w3.org/2000/svg"
   xmlns:svg="http://www.w3.org/2000/svg"
   xmlns:rdf="http://www.w3.org/1999/02/22-rdf-syntax-ns#"
   xmlns:cc="http://creativecommons.org/ns#"
   xmlns:dc="http://purl.org/dc/elements/1.1/">
  <metadata
     id="metadata18">
    <rdf:RDF>
      <cc:Work
         rdf:about="">
        <dc:format>image/svg+xml</dc:format>
        <dc:type
           rdf:resource="http://purl.org/dc/dcmitype/StillImage" />
      </cc:Work>
    </rdf:RDF>
  </metadata>
  <defs
     id="defs16" />
  <sodipodi:namedview
     pagecolor="#ebebeb"
     bordercolor="#666666"
     borderopacity="1"
     objecttolerance="10"
     gridtolerance="10"
     guidetolerance="10"
     inkscape:pageopacity="0"
     inkscape:pageshadow="2"
     inkscape:window-width="1920"
     inkscape:window-height="995"
     id="namedview14"
     showgrid="true"
     inkscape:zoom="9.8125"
     inkscape:cx="13.146497"
     inkscape:cy="7.7452229"
     inkscape:window-x="0"
     inkscape:window-y="0"
     inkscape:window-maximized="1"
     inkscape:current-layer="svg12"
     inkscape:document-rotation="0"
     inkscape:showpageshadow="0"
     inkscape:pagecheckerboard="0"
     inkscape:deskcolor="#d1d1d1"
     showguides="true">
    <inkscape:grid
       type="xygrid"
       id="grid864"
       originx="0"
       originy="0"
       spacingy="1"
       spacingx="1"
       units="px"
       visible="true" />
  </sodipodi:namedview>
  <g
     id="22-22-TeamViewer">
    <rect
       style="opacity:0.00100002"
       width="22"
       height="22"
       x="32"
       y="10.000001"
       id="rect2" />
    <path
       d="m 43.000001,13.000001 c -4.411221,0 -8,3.588779 -8,8 0,4.41122 3.588779,8 8,8 4.411221,0 8,-3.58878 8,-8 0,-4.411221 -3.588779,-8 -8,-8 z m 0,15.247643 c -3.996373,0 -7.247639,-3.251273 -7.247639,-7.247643 0,-3.996373 3.251266,-7.247639 7.247639,-7.247639 3.996373,0 7.247639,3.251266 7.247639,7.247639 0,3.99637 -3.251266,7.247643 -7.247639,7.247643 z"
       id="path6-3"
       style="fill:#ffffff;fill-opacity:1" />
    <path
       d="m 44.830261,18.266874 c -0.120341,0.06612 -0.195129,0.192453 -0.195129,0.329757 v 0.880784 h -3.270304 v -0.880821 c 0,-0.137267 -0.07477,-0.263661 -0.19513,-0.329757 -0.120337,-0.06609 -0.267074,-0.06135 -0.38294,0.01227 l -3.779246,2.403403 c -0.108555,0.06908 -0.174311,0.188805 -0.174311,0.317422 0,0.128616 0.0658,0.24839 0.174311,0.317419 l 3.779246,2.403405 c 0.115824,0.07362 0.262573,0.07832 0.38294,0.01229 0.120342,-0.06611 0.19513,-0.192453 0.19513,-0.329759 v -0.880786 h 3.270304 v 0.880783 c 0,0.137269 0.07476,0.263665 0.195129,0.32976 0.05653,0.03101 0.118834,0.04642 0.18105,0.04642 0.07024,0 0.140434,-0.01968 0.201891,-0.05875 l 3.779245,-2.403403 c 0.108572,-0.06904 0.174326,-0.188803 0.174326,-0.317421 0,-0.128618 -0.06579,-0.248389 -0.174326,-0.317421 l -3.779245,-2.403398 c -0.115851,-0.07347 -0.2626,-0.07821 -0.382941,-0.01219 z m 0.557232,1.586685 v -0.571938 l 2.702047,1.71838 -2.702047,1.718383 v -0.571939 c 0,-0.207729 -0.168411,-0.376182 -0.376182,-0.376182 h -4.02262 c -0.207771,0 -0.376182,0.168453 -0.376182,0.376182 v 0.571939 l -2.702047,-1.718383 2.702047,-1.71838 v 0.571938 c 0,0.207728 0.168411,0.376176 0.376182,0.376176 h 4.022657 c 0.207734,0 0.376145,-0.168411 0.376145,-0.376176 z"
       id="path8-6"
       style="fill:#ffffff;fill-opacity:1" />
  </g>
  <g
     id="TeamViewer">
    <rect
       style="opacity:0.00100002"
       width="32"
       height="32"
       x="0"
       y="0"
       id="rect7" />
    <path
       d="m 18.671163,12.066861 c -0.175626,0.09512 -0.284768,0.276956 -0.284768,0.47455 v 1.267523 h -4.77279 v -1.267578 c 0,-0.197539 -0.109142,-0.379434 -0.284768,-0.47455 -0.175627,-0.09507 -0.389796,-0.08823 -0.55889,0.0177 L 7.254409,15.54321 C 7.0959664,15.6426 7,15.814915 7,16.000005 c 0,0.185088 0.095962,0.357455 0.254409,0.456793 l 5.515538,3.458705 c 0.16904,0.105943 0.383207,0.112709 0.55889,0.01769 0.175626,-0.09512 0.284768,-0.276956 0.284768,-0.47455 V 18.19112 h 4.77279 v 1.267524 c 0,0.19754 0.109142,0.379434 0.284768,0.47455 C 18.75362,19.97781 18.844594,20 18.9354,20 c 0.102554,0 0.204944,-0.02831 0.294653,-0.08456 l 5.515537,-3.4587 C 24.904034,16.35735 25,16.185036 25,15.999947 25,15.814859 24.90403,15.642492 24.74559,15.543153 l -5.515537,-3.458705 c -0.169095,-0.105781 -0.383263,-0.1126 -0.55889,-0.0176 z m 0.813243,2.283373 V 13.52716 l 3.943459,2.472901 -3.943459,2.472901 v -0.823073 c 0,-0.298935 -0.245791,-0.541353 -0.549006,-0.541353 h -5.870746 c -0.303215,0 -0.549006,0.242418 -0.549006,0.541353 v 0.823073 L 8.5721892,16.000061 12.515648,13.52716 v 0.823074 c 0,0.298934 0.245791,0.541352 0.549006,0.541352 h 5.870801 c 0.30316,0 0.548951,-0.242363 0.548951,-0.541352 z"
       id="path8"
       style="fill:#ffffff;fill-opacity:1;stroke:none;stroke-width:0.966148;stroke-opacity:1" />
    <path
       id="path3143"
       style="fill:#ffffff;fill-opacity:1;fill-rule:evenodd;stroke-width:1.42639;stroke-linecap:round;stroke-linejoin:round"
       d="M 16,3 A 13,13 0 0 0 3,16 13,13 0 0 0 16,29 13,13 0 0 0 29,16 13,13 0 0 0 16,3 Z m 0,2 A 11,11 0 0 1 27,16 11,11 0 0 1 16,27 11,11 0 0 1 5,16 11,11 0 0 1 16,5 Z" />
  </g>
</svg>
